<svg width="220" height="66" viewBox="0 0 220 66" fill="none" xmlns="http://www.w3.org/2000/svg">
<path d="M37.8411 42.9574C35.9892 42.9574 34.4792 41.4474 34.4792 39.5954C34.4792 37.7435 35.9892 36.2335 37.8411 36.2335C39.6931 36.2335 41.2031 37.7435 41.2031 39.5954C41.2031 41.4474 39.6931 42.9574 37.8411 42.9574ZM51.4409 20.4019C48.5158 20.4019 46.1416 22.7761 46.1416 25.7012C46.1416 26.6889 46.4075 27.6006 46.8823 28.3889L40.8612 34.41C39.9685 33.8877 38.9333 33.5933 37.8316 33.5933C36.654 33.5933 35.5523 33.9352 34.6216 34.524L30.0155 29.9369C29.5502 30.8581 28.591 31.4944 27.4798 31.4944C25.9128 31.4944 24.6402 30.2218 24.6402 28.6548C24.6402 27.0878 25.9128 25.8152 27.4798 25.8152C29.0468 25.8152 30.272 27.0498 30.3099 28.5788L32.5228 30.7917C32.7982 30.1364 32.9596 29.4146 32.9596 28.6548C32.9596 25.6347 30.4999 23.175 27.4798 23.175C24.4597 23.175 22 25.6347 22 28.6548C22 31.6749 24.4597 34.1346 27.4798 34.1346C28.3535 34.1346 29.1893 33.9257 29.9301 33.5553L32.7602 36.3854C32.1714 37.3161 31.8295 38.4178 31.8295 39.5954C31.8295 42.9099 34.5266 45.5976 37.8316 45.5976C41.1366 45.5976 43.8338 42.9004 43.8338 39.5954C43.8338 38.3418 43.4444 37.1737 42.7891 36.2145L50.7951 28.2749C49.6365 27.99 48.7818 26.9453 48.7818 25.7012C48.7818 24.2387 49.9689 23.0515 51.4409 23.0515C52.913 23.0515 54.0906 24.2387 54.0906 25.7012C54.0906 26.7079 53.5208 27.5911 52.6945 28.0375L49.9499 30.7822C50.4247 30.9246 50.9186 31.0006 51.4409 31.0006C54.3565 31.0006 56.7308 28.6263 56.7308 25.7107C56.7308 22.7951 54.3565 20.4114 51.4409 20.4114" fill="#060606"/>
<path d="M39.379 39.5103C39.379 40.3365 38.7047 41.0108 37.8785 41.0108C37.0522 41.0108 36.3779 40.3365 36.3779 39.5103C36.3779 38.6841 37.0522 38.0098 37.8785 38.0098C38.7047 38.0098 39.379 38.6841 39.379 39.5103Z" fill="#060606"/>
<path d="M67.9373 21.8359V44.7619H61.9541V21.8359H67.9373Z" fill="#060606"/>
<path d="M90.5401 44.7714L84.5855 35.9106L81.6414 39.1776V44.7714H75.6582V21.8359H81.6414V31.4565L90.2457 21.8359H97.1786L88.6787 31.3235L97.7104 44.7714H90.5496" fill="#060606"/>
<path d="M108.699 21.8359L119.098 35.6352V21.8359H124.654V44.7619H119.421L109.022 31.0196V44.7619H103.428V21.8359H108.699Z" fill="#060606"/>
<path d="M146.022 21.8359H139.878L130.029 44.7714H136.174L142.784 27.9616L149.261 44.7714H155.643L146.022 21.8359Z" fill="#060606"/>
<path d="M166.964 21.8359V44.7619H160.98V21.8359H166.964Z" fill="#060606"/>
<path d="M179.357 33.3177C179.357 37.0501 182.272 39.9277 185.672 39.9277C189.072 39.9277 191.855 37.0501 191.855 33.3177C191.855 29.5854 189.11 26.7742 185.672 26.7742C182.234 26.7742 179.357 29.5854 179.357 33.3177ZM197.999 33.2892C197.999 39.9942 192.7 45.0276 185.606 45.0276C178.511 45.0276 173.212 39.9942 173.212 33.2892C173.212 26.5843 178.511 21.6743 185.606 21.6743C192.7 21.6743 197.999 26.6413 197.999 33.2892Z" fill="#060606"/>
</svg>
