<svg width="236" height="72" viewBox="0 0 236 72" fill="none" xmlns="http://www.w3.org/2000/svg">
<path opacity="0.2" fill-rule="evenodd" clip-rule="evenodd" d="M216.625 1.8H234.2V70.2H216.625V72H234.2H236V70.2V1.8V0H234.2H216.625V1.8ZM18.625 1.8V0H1.8H0V1.8V70.2V72H1.8H18.625V70.2H1.8V1.8H18.625Z" fill="white"/>
<path d="M193.242 40.1971C193.242 40.8003 193.121 41.3195 192.879 41.7548C192.642 42.19 192.319 42.5507 191.909 42.8367C191.498 43.1165 191.013 43.3217 190.454 43.4523C189.9 43.5891 189.306 43.6575 188.672 43.6575C188.057 43.6575 187.481 43.5922 186.947 43.4616C186.412 43.331 185.939 43.1289 185.529 42.8554C185.125 42.5818 184.792 42.2367 184.531 41.8201C184.27 41.3972 184.108 40.8967 184.046 40.3184H186.256C186.3 40.5982 186.39 40.8469 186.527 41.0646C186.67 41.276 186.847 41.4532 187.059 41.5962C187.276 41.7392 187.522 41.848 187.795 41.9226C188.069 41.991 188.364 42.0252 188.681 42.0252C188.974 42.0252 189.257 41.9942 189.53 41.932C189.804 41.8698 190.043 41.7734 190.248 41.6428C190.46 41.5123 190.628 41.3506 190.752 41.1578C190.883 40.9589 190.948 40.7257 190.948 40.4583C190.948 40.2469 190.895 40.0635 190.789 39.908C190.684 39.7463 190.541 39.6095 190.36 39.4976C190.18 39.3795 189.969 39.28 189.726 39.1992C189.49 39.1183 189.241 39.0468 188.98 38.9846L187.497 38.6302C186.943 38.4996 186.462 38.3504 186.051 38.1825C185.647 38.0146 185.311 37.8187 185.044 37.5949C184.783 37.3711 184.587 37.113 184.456 36.8208C184.332 36.5285 184.27 36.1927 184.27 35.8134C184.27 35.2725 184.382 34.803 184.606 34.4051C184.836 34.0009 185.146 33.6682 185.538 33.4071C185.93 33.1397 186.39 32.9407 186.919 32.8101C187.447 32.6795 188.016 32.6143 188.625 32.6143C189.247 32.6143 189.81 32.6858 190.314 32.8288C190.817 32.9718 191.249 33.1739 191.61 33.435C191.977 33.6962 192.266 34.0133 192.478 34.3864C192.695 34.7533 192.829 35.1605 192.879 35.6082H190.668C190.562 35.1605 190.326 34.8185 189.959 34.5823C189.592 34.3398 189.107 34.2185 188.504 34.2185C188.237 34.2185 187.985 34.2434 187.749 34.2931C187.512 34.3429 187.307 34.4206 187.133 34.5263C186.959 34.6258 186.819 34.7564 186.713 34.918C186.614 35.0735 186.564 35.2631 186.564 35.487C186.564 35.7046 186.617 35.8912 186.723 36.0466C186.828 36.1958 186.965 36.3264 187.133 36.4383C187.301 36.5441 187.484 36.6311 187.683 36.6995C187.889 36.7617 188.084 36.8145 188.271 36.8581L190.472 37.3804C190.864 37.4736 191.225 37.5918 191.554 37.7348C191.89 37.8716 192.179 38.0488 192.422 38.2664C192.67 38.4841 192.866 38.7515 193.009 39.0686C193.152 39.3857 193.23 39.7619 193.242 40.1971Z" fill="white"/>
<path d="M176.719 43.359V32.894H178.892V35.0206H178.93C179.234 34.2931 179.698 33.7179 180.319 33.2951C180.929 32.8785 181.613 32.6702 182.371 32.6702C182.471 32.6702 182.583 32.6764 182.707 32.6888C182.838 32.695 182.947 32.7106 183.034 32.7355V34.8993C182.916 34.8745 182.782 34.8589 182.633 34.8527C182.483 34.8403 182.334 34.834 182.185 34.834C181.159 34.834 180.372 35.1543 179.825 35.7947C179.284 36.4414 179.014 37.2746 179.014 38.2944V43.359H176.719Z" fill="white"/>
<path d="M174.336 38.1359C174.336 38.9318 174.215 39.6655 173.972 40.3371C173.736 41.0086 173.379 41.5962 172.9 42.0999C172.433 42.6035 171.88 42.989 171.24 43.2564C170.605 43.5238 169.884 43.6575 169.076 43.6575C167.515 43.6575 166.253 43.1476 165.289 42.1278C164.325 41.0957 163.843 39.765 163.843 38.1359C163.843 36.5005 164.319 35.1699 165.27 34.1439C166.215 33.1241 167.484 32.6143 169.076 32.6143C170.661 32.6143 171.936 33.1241 172.9 34.1439C173.857 35.1761 174.336 36.5067 174.336 38.1359ZM172.032 38.1359C172.032 37.6136 171.97 37.1254 171.846 36.6715C171.728 36.2114 171.544 35.8134 171.296 35.4777C171.053 35.1419 170.745 34.8776 170.372 34.6849C169.999 34.4859 169.561 34.3864 169.057 34.3864C168.597 34.3864 168.187 34.4766 167.826 34.6569C167.465 34.8372 167.161 35.0921 166.912 35.4217C166.663 35.7513 166.473 36.1461 166.343 36.6062C166.212 37.0664 166.147 37.5762 166.147 38.1359C166.147 38.6768 166.209 39.1774 166.334 39.6375C166.464 40.0977 166.654 40.4925 166.903 40.8221C167.151 41.1516 167.456 41.4097 167.817 41.5962C168.183 41.7827 168.603 41.876 169.076 41.876C169.548 41.876 169.968 41.7827 170.335 41.5962C170.702 41.4097 171.01 41.1516 171.258 40.8221C171.513 40.4863 171.706 40.0914 171.837 39.6375C171.967 39.1774 172.032 38.6768 172.032 38.1359Z" fill="white"/>
<path d="M162.066 40.1971C162.066 40.8003 161.945 41.3195 161.702 41.7548C161.466 42.19 161.143 42.5507 160.732 42.8367C160.322 43.1165 159.837 43.3217 159.277 43.4523C158.724 43.5891 158.13 43.6575 157.496 43.6575C156.88 43.6575 156.305 43.5922 155.77 43.4616C155.236 43.331 154.763 43.1289 154.353 42.8554C153.948 42.5818 153.616 42.2367 153.355 41.8201C153.093 41.3972 152.932 40.8967 152.87 40.3184H155.08C155.124 40.5982 155.214 40.8469 155.351 41.0646C155.494 41.276 155.671 41.4532 155.882 41.5962C156.1 41.7392 156.346 41.848 156.619 41.9226C156.893 41.991 157.188 42.0252 157.505 42.0252C157.797 42.0252 158.08 41.9942 158.354 41.932C158.628 41.8698 158.867 41.7734 159.072 41.6428C159.284 41.5123 159.451 41.3506 159.576 41.1578C159.706 40.9589 159.772 40.7257 159.772 40.4583C159.772 40.2469 159.719 40.0635 159.613 39.908C159.507 39.7463 159.364 39.6095 159.184 39.4976C159.004 39.3795 158.792 39.28 158.55 39.1992C158.314 39.1183 158.065 39.0468 157.804 38.9846L156.321 38.6302C155.767 38.4996 155.285 38.3504 154.875 38.1825C154.471 38.0146 154.135 37.8187 153.868 37.5949C153.606 37.3711 153.411 37.113 153.28 36.8208C153.156 36.5285 153.093 36.1927 153.093 35.8134C153.093 35.2725 153.205 34.803 153.429 34.4051C153.659 34.0009 153.97 33.6682 154.362 33.4071C154.754 33.1397 155.214 32.9407 155.742 32.8101C156.271 32.6795 156.84 32.6143 157.449 32.6143C158.071 32.6143 158.634 32.6858 159.137 32.8288C159.641 32.9718 160.073 33.1739 160.434 33.435C160.801 33.6962 161.09 34.0133 161.301 34.3864C161.519 34.7533 161.653 35.1605 161.702 35.6082H159.492C159.386 35.1605 159.15 34.8185 158.783 34.5823C158.416 34.3398 157.931 34.2185 157.328 34.2185C157.061 34.2185 156.809 34.2434 156.572 34.2931C156.336 34.3429 156.131 34.4206 155.957 34.5263C155.783 34.6258 155.643 34.7564 155.537 34.918C155.438 35.0735 155.388 35.2631 155.388 35.487C155.388 35.7046 155.441 35.8912 155.546 36.0466C155.652 36.1958 155.789 36.3264 155.957 36.4383C156.125 36.5441 156.308 36.6311 156.507 36.6995C156.712 36.7617 156.908 36.8145 157.095 36.8581L159.296 37.3804C159.688 37.4736 160.048 37.5918 160.378 37.7348C160.714 37.8716 161.003 38.0488 161.245 38.2664C161.494 38.4841 161.69 38.7515 161.833 39.0686C161.976 39.3857 162.054 39.7619 162.066 40.1971Z" fill="white"/>
<path d="M150.514 28.3425V30.5997H148.21V28.3425H150.514ZM150.514 32.8941V43.3591H148.21V32.8941H150.514Z" fill="white"/>
<path d="M138.991 32.894L141.593 41.0739H141.64L144.214 32.894H146.509L142.834 43.359H140.306L136.557 32.894H138.991Z" fill="white"/>
<path d="M134.947 28.9021V43.359H132.765V41.7921H132.728C132.572 42.0843 132.376 42.3486 132.14 42.5849C131.91 42.8149 131.649 43.0108 131.356 43.1725C131.07 43.3279 130.756 43.4461 130.414 43.5269C130.072 43.614 129.718 43.6575 129.351 43.6575C128.58 43.6575 127.902 43.5051 127.318 43.2005C126.733 42.8958 126.242 42.4885 125.844 41.9786C125.452 41.4625 125.157 40.8687 124.958 40.1971C124.759 39.5194 124.66 38.8105 124.66 38.0706C124.66 37.3866 124.753 36.7182 124.939 36.0653C125.132 35.4062 125.421 34.8217 125.807 34.3118C126.192 33.8019 126.674 33.3915 127.253 33.0806C127.837 32.7697 128.524 32.6143 129.314 32.6143C129.656 32.6143 129.989 32.6547 130.312 32.7355C130.641 32.8101 130.949 32.9221 131.235 33.0713C131.521 33.2205 131.779 33.4102 132.009 33.6402C132.246 33.8641 132.445 34.1252 132.606 34.4237H132.644V28.9021H134.947ZM126.945 38.1172C126.945 38.54 126.995 38.9753 127.094 39.423C127.2 39.8645 127.368 40.2687 127.598 40.6355C127.828 40.9962 128.123 41.2946 128.484 41.5309C128.851 41.761 129.292 41.876 129.808 41.876C130.281 41.876 130.697 41.7859 131.058 41.6055C131.425 41.419 131.73 41.1609 131.972 40.8314C132.215 40.4956 132.398 40.0977 132.522 39.6375C132.647 39.1774 132.709 38.6675 132.709 38.1079C132.709 37.6602 132.656 37.2156 132.55 36.7741C132.451 36.3264 132.286 35.9285 132.056 35.5803C131.826 35.2258 131.524 34.9398 131.151 34.7222C130.784 34.4983 130.334 34.3864 129.799 34.3864C129.289 34.3864 128.854 34.4952 128.493 34.7128C128.139 34.9243 127.846 35.2072 127.616 35.5616C127.386 35.9098 127.218 36.3078 127.113 36.7555C127.007 37.1969 126.951 37.6509 126.945 38.1172Z" fill="white"/>
<path d="M121.213 43.3589L120.038 39.8893H114.386L113.192 43.3589H110.757L115.663 29.7415H118.891L123.703 43.3589H121.213ZM117.258 31.5043H117.221L114.982 38.0705H119.431L117.258 31.5043Z" fill="white"/>
<path d="M100.114 32.6143C100.798 32.6143 101.38 32.7013 101.859 32.8754C102.344 33.0495 102.738 33.3076 103.043 33.6496C103.354 33.9916 103.578 34.4206 103.715 34.9367C103.858 35.4466 103.929 36.0404 103.929 36.7182V43.359H101.635V37.1472C101.635 36.258 101.467 35.5865 101.131 35.1326C100.795 34.6786 100.251 34.4517 99.4988 34.4517C98.6283 34.4517 97.9754 34.7253 97.5401 35.2725C97.1049 35.8197 96.8872 36.5907 96.8872 37.5856V43.359H94.5928V32.8941H96.794V34.4797H96.8499C97.0116 34.1812 97.2075 33.9169 97.4375 33.6869C97.6676 33.4568 97.9225 33.264 98.2023 33.1086C98.4822 32.9469 98.7837 32.8257 99.1071 32.7448C99.4304 32.6578 99.7662 32.6143 100.114 32.6143Z" fill="white"/>
<path d="M87.4809 32.6143C88.2955 32.6143 89.0074 32.7666 89.6168 33.0713C90.2324 33.3697 90.7454 33.777 91.1558 34.2931C91.5661 34.8092 91.8739 35.4124 92.0791 36.1026C92.2843 36.7866 92.3869 37.511 92.3869 38.2758V38.6955H84.6641C84.6766 39.1681 84.7481 39.6002 84.8787 39.992C85.0092 40.3775 85.1927 40.7101 85.4289 40.9899C85.6652 41.2698 85.9513 41.4874 86.287 41.6428C86.6228 41.7983 87.0052 41.876 87.4343 41.876C88.0561 41.876 88.5722 41.7548 88.9826 41.5123C89.3992 41.2698 89.7256 40.9495 89.9619 40.5516H92.1351C91.9548 41.0304 91.7154 41.4625 91.4169 41.848C91.1184 42.2273 90.7671 42.5538 90.363 42.8274C89.9588 43.0947 89.508 43.2999 89.0105 43.443C88.5131 43.586 87.9752 43.6575 87.397 43.6575C86.6135 43.6575 85.9077 43.5207 85.2797 43.2471C84.6579 42.9735 84.1294 42.5942 83.6941 42.1092C83.2651 41.618 82.9355 41.0366 82.7055 40.365C82.4754 39.6873 82.3604 38.9442 82.3604 38.1359C82.3604 37.3959 82.4754 36.6933 82.7055 36.028C82.9355 35.3564 83.2682 34.7688 83.7034 34.2651C84.1449 33.7615 84.6828 33.3604 85.317 33.062C85.9513 32.7635 86.6726 32.6143 87.4809 32.6143ZM90.0831 37.1472C90.0396 36.7368 89.9526 36.3637 89.822 36.028C89.6914 35.686 89.5142 35.3937 89.2903 35.1512C89.0727 34.9087 88.8053 34.7222 88.4882 34.5916C88.1773 34.4548 87.8167 34.3864 87.4063 34.3864C86.9959 34.3864 86.629 34.4548 86.3057 34.5916C85.9886 34.7284 85.715 34.918 85.4849 35.1605C85.2611 35.403 85.0776 35.6953 84.9346 36.0373C84.7978 36.3731 84.7077 36.743 84.6641 37.1472H90.0831Z" fill="white"/>
<path d="M80.0518 28.3425V30.5997H77.748V28.3425H80.0518ZM80.0518 32.8941V43.3591H77.748V32.8941H80.0518Z" fill="white"/>
<path d="M69.7876 43.359V32.894H71.9608V35.0206H71.9981C72.3028 34.2931 72.766 33.7179 73.3878 33.2951C73.9972 32.8785 74.6812 32.6702 75.4398 32.6702C75.5393 32.6702 75.6512 32.6764 75.7756 32.6888C75.9061 32.695 76.015 32.7106 76.102 32.7355V34.8993C75.9839 34.8745 75.8502 34.8589 75.7009 34.8527C75.5517 34.8403 75.4025 34.834 75.2532 34.834C74.2273 34.834 73.4407 35.1543 72.8935 35.7947C72.3525 36.4414 72.0821 37.2746 72.0821 38.2944V43.359H69.7876Z" fill="white"/>
<path d="M67.8055 43.359C67.5381 43.4274 67.3049 43.474 67.1059 43.4989C66.907 43.5238 66.6986 43.5362 66.481 43.5362C66.2385 43.5362 66.0147 43.5114 65.8095 43.4616C65.6043 43.4119 65.424 43.331 65.2685 43.2191C65.1193 43.101 64.9949 42.9455 64.8954 42.7528C64.7959 42.56 64.7306 42.3237 64.6996 42.0439H64.6716C64.4539 42.3237 64.2114 42.5693 63.9441 42.7807C63.6829 42.9859 63.4062 43.1507 63.114 43.2751C62.517 43.53 61.8206 43.6575 61.0247 43.6575C59.949 43.6575 59.0909 43.387 58.4504 42.846C57.81 42.3175 57.4897 41.5496 57.4897 40.5422C57.4897 39.5411 57.8069 38.7888 58.4411 38.2851C58.7023 38.0799 59.0101 37.912 59.3645 37.7814C59.7189 37.6509 60.1044 37.5452 60.521 37.4643C60.9376 37.3835 61.3729 37.3182 61.8268 37.2685C62.287 37.2125 62.7502 37.1565 63.2166 37.1006C63.4093 37.0757 63.5865 37.0384 63.7482 36.9886C63.9161 36.9389 64.0591 36.8674 64.1772 36.7741C64.2954 36.6808 64.3855 36.5627 64.4477 36.4197C64.5161 36.2767 64.5503 36.1026 64.5503 35.8974C64.5503 35.344 64.3855 34.9274 64.056 34.6476C63.7264 34.3615 63.1699 34.2185 62.3864 34.2185C61.69 34.2185 61.1584 34.3584 60.7915 34.6382C60.4247 34.918 60.2164 35.3036 60.1666 35.7948H57.8628C57.9126 35.2414 58.0618 34.7657 58.3105 34.3677C58.5655 33.9636 58.8981 33.634 59.3085 33.3791C59.7189 33.1179 60.1977 32.9252 60.7449 32.8008C61.2921 32.6764 61.889 32.6143 62.5357 32.6143C63.9969 32.6143 65.082 32.8785 65.7908 33.4071C66.4997 33.9356 66.8541 34.6818 66.8541 35.6455V41.2884C66.8541 41.506 66.8945 41.6677 66.9753 41.7734C67.0624 41.8729 67.2085 41.9226 67.4137 41.9226C67.4697 41.9226 67.5319 41.9164 67.6003 41.904C67.6749 41.8916 67.7433 41.8729 67.8055 41.848V43.359ZM64.5503 38.0333H64.5223C64.3731 38.2012 64.084 38.3224 63.6549 38.397C63.4435 38.4343 63.1855 38.4779 62.8808 38.5276C62.5823 38.5773 62.2403 38.6333 61.8548 38.6955C61.1459 38.8199 60.6205 39.0188 60.2785 39.2924C59.9428 39.5598 59.7749 39.9391 59.7749 40.4303C59.7749 40.9526 59.9707 41.3568 60.3625 41.6428C60.7231 41.8978 61.1864 42.0252 61.7522 42.0252C62.5979 42.0252 63.2694 41.7952 63.7668 41.335C64.2892 40.8625 64.5503 40.2034 64.5503 39.3577V38.0333Z" fill="white"/>
<path d="M49.5471 29.7229C51.4374 29.7229 52.9484 30.2981 54.0801 31.4484C55.2118 32.6112 55.7776 34.2932 55.7776 36.4943C55.7776 38.7142 55.218 40.4148 54.0987 41.5962C52.9857 42.7714 51.4872 43.359 49.6031 43.359H44.0908V29.7229H49.5471ZM49.2767 41.3444C50.57 41.3444 51.5742 40.9682 52.2893 40.2158C53.0168 39.451 53.3806 38.2665 53.3806 36.6622C53.3806 34.9274 53.0137 33.6745 52.28 32.9034C51.5462 32.1262 50.4114 31.7375 48.8756 31.7375H46.4785V41.3444H49.2767Z" fill="white"/>
</svg>
