<svg width="236" height="72" viewBox="0 0 236 72" fill="none" xmlns="http://www.w3.org/2000/svg">
<path opacity="0.2" fill-rule="evenodd" clip-rule="evenodd" d="M216.625 1.8H234.2V70.2H216.625V72H234.2H236V70.2V1.8V0H234.2H216.625V1.8ZM18.625 1.8V0H1.8H0V1.8V70.2V72H1.8H18.625V70.2H1.8V1.8H18.625Z" fill="white"/>
<path d="M68.3743 42.9403C67.0835 42.9403 66.0311 41.8878 66.0311 40.5971C66.0311 39.3063 67.0835 38.2539 68.3743 38.2539C69.665 38.2539 70.7175 39.3063 70.7175 40.5971C70.7175 41.8878 69.665 42.9403 68.3743 42.9403ZM77.8529 27.2197C75.8142 27.2197 74.1594 28.8745 74.1594 30.9132C74.1594 31.6016 74.3448 32.2371 74.6757 32.7865L70.4792 36.983C69.857 36.619 69.1355 36.4138 68.3677 36.4138C67.5469 36.4138 66.7791 36.652 66.1304 37.0624L62.9201 33.8654C62.5957 34.5074 61.9272 34.9509 61.1528 34.9509C60.0606 34.9509 59.1736 34.064 59.1736 32.9718C59.1736 31.8796 60.0606 30.9927 61.1528 30.9927C62.2449 30.9927 63.0988 31.8531 63.1253 32.9188L64.6675 34.4611C64.8595 34.0044 64.972 33.5013 64.972 32.9718C64.972 30.8669 63.2577 29.1525 61.1528 29.1525C59.0479 29.1525 57.3335 30.8669 57.3335 32.9718C57.3335 35.0767 59.0479 36.7911 61.1528 36.7911C61.7617 36.7911 62.3442 36.6454 62.8605 36.3873L64.833 38.3598C64.4226 39.0085 64.1843 39.7763 64.1843 40.5971C64.1843 42.9072 66.0642 44.7804 68.3677 44.7804C70.6711 44.7804 72.551 42.9005 72.551 40.5971C72.551 39.7233 72.2796 38.9092 71.8229 38.2407L77.4028 32.707C76.5953 32.5084 75.9996 31.7803 75.9996 30.9132C75.9996 29.8939 76.827 29.0665 77.8529 29.0665C78.8789 29.0665 79.6997 29.8939 79.6997 30.9132C79.6997 31.6149 79.3025 32.2304 78.7267 32.5415L76.8137 34.4545C77.1447 34.5538 77.4889 34.6067 77.8529 34.6067C79.885 34.6067 81.5398 32.9519 81.5398 30.9198C81.5398 28.8878 79.885 27.2263 77.8529 27.2263" fill="white"/>
<path d="M69.4462 40.5375C69.4462 41.1134 68.9762 41.5834 68.4003 41.5834C67.8245 41.5834 67.3545 41.1134 67.3545 40.5375C67.3545 39.9617 67.8245 39.4917 68.4003 39.4917C68.9762 39.4917 69.4462 39.9617 69.4462 40.5375Z" fill="white"/>
<path d="M89.3503 28.2192V44.1979H85.1802V28.2192H89.3503Z" fill="white"/>
<path d="M105.104 44.2045L100.953 38.0289L98.9015 40.3059V44.2045H94.7314V28.2192H98.9015V34.9245L104.898 28.2192H109.73L103.806 34.8318L110.101 44.2045H105.11" fill="white"/>
<path d="M117.76 28.2192L125.008 37.8369V28.2192H128.88V44.1979H125.233L117.985 34.62V44.1979H114.086V28.2192H117.76Z" fill="white"/>
<path d="M143.773 28.2192H139.491L132.626 44.2045H136.909L141.516 32.4886L146.03 44.2045H150.478L143.773 28.2192Z" fill="white"/>
<path d="M158.369 28.2192V44.1979H154.199V28.2192H158.369Z" fill="white"/>
<path d="M167.006 36.2218C167.006 38.8231 169.038 40.8287 171.408 40.8287C173.778 40.8287 175.717 38.8231 175.717 36.2218C175.717 33.6205 173.804 31.6612 171.408 31.6612C169.012 31.6612 167.006 33.6205 167.006 36.2218ZM180 36.2019C180 40.8751 176.306 44.3832 171.362 44.3832C166.417 44.3832 162.724 40.8751 162.724 36.2019C162.724 31.5288 166.417 28.1067 171.362 28.1067C176.306 28.1067 180 31.5685 180 36.2019Z" fill="white"/>
</svg>
