<svg width="220" height="66" viewBox="0 0 220 66" fill="none" xmlns="http://www.w3.org/2000/svg">
<path d="M69.3024 33.8427L67.8539 32.3874L69.099 31.1366C69.3231 30.9114 69.3993 30.5772 69.2958 30.2764L65.8388 20.2656C65.7404 19.9805 65.4963 19.7719 65.201 19.7195L62.5133 19.2433L62.8284 16.5496C62.8698 16.1981 62.6846 15.859 62.3677 15.7044L55.6563 12.4339C55.5545 12.3841 55.4445 12.3566 55.3311 12.3517L50.654 12.1472C50.4 12.1347 50.1518 12.2444 49.9863 12.4406L47.8116 15.0229H46.2315L44.0576 12.4406C43.8921 12.2444 43.6472 12.1356 43.3899 12.1472L38.7128 12.3517C38.6002 12.3566 38.4894 12.3849 38.3876 12.4339L31.6771 15.7027C31.3602 15.8573 31.1749 16.1964 31.2163 16.548L31.5315 19.2416L28.8438 19.7179C28.5484 19.7702 28.3044 19.9788 28.2059 20.2639L24.7489 30.2755C24.6447 30.5764 24.7216 30.9106 24.9458 31.1358L26.1908 32.3866L24.7423 33.8419C24.4925 34.0929 24.4288 34.476 24.5843 34.7952L26.9229 39.5965C26.999 39.7528 27.1214 39.8808 27.2736 39.963L30.3286 41.6162L29.3227 42.3334C29.1316 42.4697 29.0067 42.6809 28.9794 42.9152C28.9521 43.1496 29.0249 43.384 29.1804 43.5601L33.6542 48.6682C33.7195 48.7422 33.7972 48.8045 33.8841 48.851L35.9406 49.9606L38.4844 53.5087C38.6399 53.7255 38.8898 53.8536 39.1553 53.8536H43.2228C43.5132 53.8536 43.7829 53.7006 43.9326 53.4504L46.282 49.5159H47.7628L50.1121 53.4504C50.2619 53.7006 50.5307 53.8536 50.8219 53.8536H54.8886C55.1541 53.8536 55.404 53.7247 55.5595 53.5087L58.1032 49.9606L60.1598 48.851C60.2467 48.8045 60.3244 48.7422 60.3897 48.6682L64.8634 43.5601C65.0182 43.3831 65.091 43.1487 65.0645 42.9152C65.038 42.6817 64.9131 42.4697 64.7212 42.3334L63.7152 41.6162L66.7703 39.9639C66.9224 39.8816 67.0449 39.7536 67.121 39.5974L69.4597 34.796C69.6151 34.4769 69.5522 34.0937 69.3024 33.8427ZM41.3492 13.9L43.0226 13.8269L41.3996 21.9835L34.3192 19.6638L41.3492 13.9ZM52.6947 13.9L59.7247 19.6638L52.6443 21.9835L51.0213 13.8269L52.6947 13.9ZM60.4675 21.169L57.2363 35.377L53.0621 23.595L60.4675 21.169ZM51.5871 24.3888L56.3396 37.803L52.2216 40.2964L49.2079 36.0044V25.8981L51.5871 24.3888ZM47.5535 35.8457H46.4896V26.2712H47.5535V35.8457ZM44.8352 43.6649L43.0714 41.4009L44.8352 38.8884V43.6649ZM46.4896 37.508H47.5535V45.0396H46.4896V37.508ZM49.2079 38.8884L50.9716 41.4001L49.2079 43.6641V38.8884ZM47.5535 24.609H46.4896V16.6851H47.5535V24.609ZM44.8352 36.0053L41.8215 40.2972L37.7035 37.8039L42.456 24.3896L44.8352 25.8989V36.0053ZM36.8076 35.377L33.5764 21.169L40.9818 23.595L36.8076 35.377ZM35.336 36.3693L28.225 32.0633L32.2321 22.7223L35.336 36.3693ZM37.4379 39.5824L40.866 41.6585L37.3577 46.6552L37.4379 39.5824ZM42.0755 42.8188L44.8352 46.3619V48.1388L38.1444 48.418L42.0755 42.8197V42.8188ZM46.4896 46.7018H47.5535V47.8521H46.4896V46.7018ZM49.2079 46.3619L51.9676 42.8188L55.8987 48.418L49.2079 48.1388V46.3619ZM53.1779 41.6585L56.606 39.5824L56.6862 46.6552L53.1779 41.6585ZM61.8109 22.7223L65.8181 32.0633L58.7072 36.3693L61.8109 22.7223ZM67.5619 30.3287L67.0829 30.81L62.8715 20.9936L64.4341 21.2704L67.5619 30.3287ZM60.9316 18.5086L55.9516 14.4253L61.1153 16.9411L60.9316 18.5086ZM49.6497 15.4135L51.1056 22.7282L49.2087 23.9317V15.9379L49.6497 15.4135ZM44.8352 23.9324L42.9383 22.729L44.3942 15.4143L44.836 15.9388V23.9333L44.8352 23.9324ZM38.0923 14.4253L33.1123 18.5086L32.9286 16.9411L38.0923 14.4253ZM29.6098 21.2704L31.1724 20.9936L26.9609 30.81L26.482 30.3287L29.6098 21.2704ZM28.292 38.6258L26.3298 34.5974L27.4118 33.5111L35.1358 38.1886L31.8342 40.5424L28.292 38.6258ZM31.0285 43.1546L35.781 39.7661L35.6883 47.9376L34.7974 47.4573L31.0285 43.1546ZM42.7538 52.1905H39.5789L38.0691 50.0844L44.1642 49.8301L42.7538 52.1905ZM54.465 52.1905H51.2901L49.8805 49.8301L55.9756 50.0844L54.465 52.1905ZM59.2465 47.4564L58.3556 47.9368L58.2621 39.7653L63.0146 43.1537L59.2465 47.4564ZM65.752 38.625L62.2097 40.5415L58.9081 38.1878L66.6321 33.5103L67.7141 34.5966L65.752 38.625Z" fill="#060606"/>
<path d="M79.8833 32.4373V17.8235H86.3754C88.0652 17.8235 89.3671 18.1511 90.281 18.8064C91.2122 19.4616 91.6777 20.3841 91.6777 21.5739C91.6777 22.7637 91.2725 23.6776 90.462 24.3156C89.6516 24.9536 88.5998 25.2726 87.3065 25.2726L87.6686 24.6777C89.2033 24.6777 90.3845 25.0053 91.2122 25.6606C92.0571 26.2986 92.4795 27.2469 92.4795 28.5058C92.4795 29.7472 92.0054 30.7129 91.0569 31.4026C90.1086 32.0923 88.686 32.4373 86.7892 32.4373H79.8833ZM81.7455 30.9888H86.7375C87.9963 30.9888 88.9532 30.7819 89.6085 30.368C90.2637 29.9369 90.5914 29.2731 90.5914 28.3764C90.5914 27.4625 90.2637 26.7987 89.6085 26.3848C88.9532 25.971 87.9963 25.7641 86.7375 25.7641H81.4351V24.3156H86.2461C87.3841 24.3156 88.2635 24.1 88.8843 23.669C89.5223 23.2379 89.8413 22.6085 89.8413 21.7809C89.8413 20.9531 89.5223 20.3324 88.8843 19.9186C88.2635 19.4875 87.3841 19.2719 86.2461 19.2719H81.7455V30.9888Z" fill="#060606"/>
<path d="M96.3774 32.4373V17.8235H98.2397V32.4373H96.3774Z" fill="#060606"/>
<path d="M115.602 30.7305C115.153 31.1271 114.636 31.472 114.049 31.7651C113.463 32.041 112.834 32.248 112.161 32.3858C111.506 32.5238 110.834 32.5928 110.144 32.5928C108.626 32.5928 107.264 32.2738 106.057 31.6358C104.867 30.9806 103.927 30.0925 103.238 28.9717C102.548 27.8337 102.203 26.549 102.203 25.1178C102.203 23.6866 102.539 22.4106 103.212 21.2898C103.902 20.169 104.841 19.2809 106.031 18.6257C107.221 17.9704 108.566 17.6428 110.066 17.6428C111.256 17.6428 112.325 17.8239 113.273 18.186C114.239 18.5481 115.049 19.0913 115.705 19.8155L114.515 21.0311C113.912 20.4276 113.239 19.9879 112.498 19.712C111.773 19.4189 110.971 19.2723 110.092 19.2723C108.954 19.2723 107.928 19.531 107.014 20.0483C106.1 20.5483 105.376 21.2381 104.841 22.1175C104.324 22.9969 104.065 23.997 104.065 25.1178C104.065 26.2386 104.324 27.2473 104.841 28.144C105.376 29.0234 106.1 29.7132 107.014 30.2132C107.945 30.7133 108.997 30.9633 110.17 30.9633C111.015 30.9633 111.799 30.834 112.524 30.5753C113.265 30.3167 113.937 29.9114 114.54 29.3596L115.602 30.7305ZM113.816 30.7305V25.1178H115.602V30.7305H113.816Z" fill="#060606"/>
<path d="M127.319 32.4373V17.8235H133.812C135.501 17.8235 136.804 18.1511 137.717 18.8064C138.648 19.4616 139.114 20.3841 139.114 21.5739C139.114 22.7637 138.709 23.6776 137.898 24.3156C137.088 24.9536 136.036 25.2726 134.742 25.2726L135.104 24.6777C136.639 24.6777 137.82 25.0053 138.648 25.6606C139.493 26.2986 139.916 27.2469 139.916 28.5058C139.916 29.7472 139.441 30.7129 138.493 31.4026C137.544 32.0923 136.122 32.4373 134.225 32.4373H127.319ZM129.182 30.9888H134.174C135.432 30.9888 136.389 30.7819 137.045 30.368C137.7 29.9369 138.027 29.2731 138.027 28.3764C138.027 27.4625 137.7 26.7987 137.045 26.3848C136.389 25.971 135.432 25.7641 134.174 25.7641H128.872V24.3156H133.682C134.82 24.3156 135.7 24.1 136.321 23.669C136.959 23.2379 137.277 22.6085 137.277 21.7809C137.277 20.9531 136.959 20.3324 136.321 19.9186C135.7 19.4875 134.82 19.2719 133.682 19.2719H129.182V30.9888Z" fill="#060606"/>
<path d="M143.814 32.4373V17.8235H149.478C150.754 17.8235 151.84 18.0218 152.737 18.4184C153.651 18.815 154.358 19.3926 154.858 20.1513C155.358 20.8928 155.608 21.7981 155.608 22.8672C155.608 23.9018 155.358 24.7984 154.858 25.5571C154.358 26.3158 153.651 26.8935 152.737 27.2901C151.84 27.6867 150.754 27.885 149.478 27.885H144.848L145.676 27.0573V32.4373H143.814ZM153.824 32.4373L149.995 27.1349H152.039L155.841 32.4373H153.824ZM145.676 27.2384L144.952 26.3589H149.4C150.814 26.3589 151.892 26.0572 152.633 25.4537C153.375 24.8329 153.746 23.9708 153.746 22.8672C153.746 21.7463 153.375 20.8842 152.633 20.2807C151.892 19.6771 150.814 19.3754 149.4 19.3754H144.952L145.676 18.496V27.2384Z" fill="#060606"/>
<path d="M157.29 32.4373L164.04 17.8235H165.877L172.628 32.4373H170.765L164.636 18.8322H165.282L159.126 32.4373H157.29ZM160.135 28.6609L160.678 27.1608H169.007L169.55 28.6609H160.135Z" fill="#060606"/>
<path d="M175.412 32.4373V17.8235H177.275V32.4373H175.412Z" fill="#060606"/>
<path d="M182.712 32.4373V17.8235H184.238L194.171 30.1353H193.447V17.8235H195.308V32.4373H193.757L183.825 20.0996H184.575V32.4373H182.712Z" fill="#060606"/>
<path d="M79.7539 49.6222V35.2979H83.5805V40.7785H89.2478V35.2979H93.0744V49.6222H89.2478V43.9423H83.5805V49.6222H79.7539Z" fill="#060606"/>
<path d="M103.612 49.8961C102.111 49.8961 100.771 49.5805 99.5919 48.9494C98.4133 48.3017 97.4849 47.4132 96.8068 46.2838C96.1286 45.1546 95.7896 43.8757 95.7896 42.4474C95.7896 41.0192 96.1286 39.7486 96.8068 38.636C97.4849 37.5232 98.4133 36.643 99.5919 35.9953C100.771 35.3476 102.111 35.0237 103.612 35.0237C105.114 35.0237 106.454 35.3476 107.633 35.9953C108.811 36.643 109.74 37.5232 110.418 38.636C111.096 39.7486 111.435 41.0192 111.435 42.4474C111.435 43.8757 111.096 45.1546 110.418 46.2838C109.74 47.4132 108.811 48.3017 107.633 48.9494C106.454 49.5805 105.114 49.8961 103.612 49.8961ZM103.612 46.6825C104.387 46.6825 105.066 46.508 105.647 46.1593C106.244 45.7939 106.712 45.2874 107.051 44.6396C107.391 43.992 107.56 43.2696 107.56 42.4724C107.56 41.642 107.391 40.9112 107.051 40.2801C106.712 39.649 106.244 39.1508 105.647 38.7854C105.066 38.42 104.387 38.2373 103.612 38.2373C102.853 38.2373 102.175 38.42 101.578 38.7854C100.981 39.1508 100.504 39.649 100.149 40.2801C99.81 40.9112 99.6404 41.6336 99.6404 42.4474C99.6404 43.2612 99.81 43.992 100.149 44.6396C100.504 45.2874 100.981 45.7939 101.578 46.1593C102.175 46.508 102.853 46.6825 103.612 46.6825Z" fill="#060606"/>
<path d="M114.143 49.6222V35.2979H117.97V46.5581H124.775V49.6222H114.143Z" fill="#060606"/>
<path d="M126.844 49.6222V35.2979H133.408C135.006 35.2979 136.394 35.5886 137.573 36.1698C138.768 36.7511 139.688 37.5815 140.334 38.661C140.996 39.7239 141.327 40.9944 141.327 42.4725C141.327 43.934 140.996 45.2045 140.334 46.284C139.688 47.3469 138.768 48.169 137.573 48.7503C136.394 49.3315 135.006 49.6222 133.408 49.6222H126.844ZM130.671 46.5331H133.286C134.142 46.5331 134.877 46.3753 135.491 46.0598C136.119 45.7443 136.604 45.2875 136.944 44.6897C137.282 44.0752 137.452 43.3361 137.452 42.4725C137.452 41.5923 137.282 40.8533 136.944 40.2554C136.604 39.6408 136.119 39.1758 135.491 38.8602C134.877 38.5448 134.142 38.3869 133.286 38.3869H130.671V46.5331Z" fill="#060606"/>
<path d="M144.039 49.6222V35.2979H147.865V49.6222H144.039Z" fill="#060606"/>
<path d="M151.56 49.6222V35.2979H154.708L162.555 44.9886H161.126V35.2979H164.88V49.6222H161.732L153.86 39.9315H155.314V49.6222H151.56Z" fill="#060606"/>
<path d="M181.254 48.0775C180.738 48.4595 180.157 48.7917 179.511 49.074C178.881 49.3397 178.219 49.539 177.525 49.6719C176.847 49.8214 176.177 49.8961 175.515 49.8961C173.965 49.8961 172.593 49.5805 171.397 48.9494C170.203 48.3017 169.266 47.4132 168.588 46.2838C167.926 45.1546 167.595 43.884 167.595 42.4724C167.595 41.0274 167.934 39.7486 168.612 38.636C169.29 37.5232 170.227 36.643 171.421 35.9953C172.617 35.3476 173.973 35.0237 175.49 35.0237C176.847 35.0237 178.025 35.2396 179.026 35.6714C180.044 36.0866 180.892 36.726 181.57 37.5896L179.051 39.9064C178.583 39.3417 178.05 38.9266 177.452 38.6608C176.871 38.3785 176.234 38.2373 175.539 38.2373C174.748 38.2373 174.046 38.42 173.432 38.7854C172.819 39.1342 172.334 39.6241 171.979 40.2552C171.623 40.8863 171.446 41.6254 171.446 42.4724C171.446 43.2861 171.623 44.0169 171.979 44.6646C172.334 45.2957 172.819 45.7939 173.432 46.1593C174.046 46.508 174.764 46.6825 175.587 46.6825C176.265 46.6825 176.879 46.5745 177.428 46.3586C177.993 46.1427 178.55 45.8189 179.099 45.387L181.254 48.0775ZM177.768 48.1274V42.2731H181.254V48.0775L177.768 48.1274Z" fill="#060606"/>
<path d="M195.5 45.2625C195.5 46.1593 195.25 46.9565 194.75 47.654C194.265 48.3515 193.555 48.8996 192.618 49.2982C191.698 49.6968 190.56 49.8961 189.203 49.8961C188.089 49.8961 186.991 49.7549 185.909 49.4726C184.844 49.1902 183.98 48.8165 183.318 48.3515L184.65 45.4368C185.279 45.8687 186.014 46.2091 186.854 46.4582C187.693 46.7074 188.549 46.8319 189.421 46.8319C190.277 46.8319 190.874 46.7074 191.214 46.4582C191.552 46.2091 191.722 45.9185 191.722 45.5863C191.722 45.2542 191.569 44.9885 191.262 44.7891C190.972 44.5898 190.584 44.4321 190.099 44.3158C189.631 44.1829 189.107 44.0584 188.525 43.9421C187.96 43.8259 187.386 43.6764 186.806 43.4938C186.24 43.311 185.716 43.0702 185.231 42.7713C184.763 42.4558 184.375 42.0489 184.069 41.5506C183.778 41.0358 183.633 40.3963 183.633 39.6324C183.633 38.7355 183.883 37.9467 184.384 37.2658C184.901 36.5683 185.627 36.0202 186.563 35.6216C187.5 35.223 188.614 35.0237 189.906 35.0237C190.777 35.0237 191.666 35.1234 192.57 35.3226C193.474 35.5219 194.265 35.8375 194.943 36.2693L193.708 39.184C193.079 38.7854 192.425 38.5031 191.747 38.337C191.084 38.1709 190.422 38.0878 189.76 38.0878C188.953 38.0878 188.363 38.2125 187.992 38.4615C187.621 38.7107 187.435 39.0262 187.435 39.4082C187.435 39.7404 187.581 40.006 187.871 40.2054C188.162 40.4047 188.541 40.5708 189.01 40.7036C189.494 40.8198 190.027 40.9361 190.608 41.0524C191.189 41.1686 191.762 41.3181 192.327 41.5007C192.893 41.6668 193.417 41.8994 193.902 42.1983C194.386 42.4973 194.774 42.8959 195.064 43.3941C195.355 43.8757 195.5 44.4985 195.5 45.2625Z" fill="#060606"/>
</svg>
