<svg width="236" height="72" viewBox="0 0 236 72" fill="none" xmlns="http://www.w3.org/2000/svg">
<path opacity="0.2" fill-rule="evenodd" clip-rule="evenodd" d="M216.625 1.8H234.2V70.2H216.625V72H234.2H236V70.2V1.8V0H234.2H216.625V1.8ZM18.625 1.8V0H1.8H0V1.8V70.2V72H1.8H18.625V70.2H1.8V1.8H18.625Z" fill="white"/>
<mask id="mask0_2671_83118" style="mask-type:luminance" maskUnits="userSpaceOnUse" x="66" y="23" width="106" height="26">
<path d="M171.288 23.2434H66.0454V48.7567H171.288V23.2434Z" fill="white"/>
</mask>
<g mask="url(#mask0_2671_83118)">
<path fill-rule="evenodd" clip-rule="evenodd" d="M141.632 25.7084C141.632 26.7462 140.762 27.5808 139.713 27.5808C138.638 27.5808 137.742 26.7462 137.742 25.7084C137.742 24.6705 138.638 23.8359 139.713 23.8359C140.762 23.8359 141.632 24.6705 141.632 25.7084ZM140.915 42.3064H138.459C138.253 42.3064 138.127 42.1796 138.127 41.9778V29.9836C138.127 29.7818 138.255 29.655 138.459 29.655H140.915C141.145 29.655 141.248 29.7818 141.248 29.9836V41.9778C141.248 42.1796 141.119 42.3064 140.915 42.3064ZM115.605 34.6135H121.874C122.028 34.6135 122.13 34.5126 122.104 34.3612C121.874 32.8939 120.441 31.8561 118.65 31.8561C116.909 31.8561 115.527 32.8925 115.323 34.3353C115.297 34.4867 115.425 34.6135 115.605 34.6135ZM112.151 35.905C112.151 32.1343 114.915 29.3768 118.676 29.3768C122.334 29.3768 125.355 31.8315 125.097 36.408C125.097 36.6877 124.893 36.8895 124.585 36.8895H115.527C115.348 36.8895 115.271 37.0164 115.297 37.1937C115.425 38.8138 116.909 40.0534 118.725 40.0534C120.055 40.0534 121.182 39.4466 121.744 38.4348C121.821 38.2574 121.923 38.1811 122.103 38.1811H124.534C124.74 38.1811 124.868 38.3324 124.791 38.5861C124.049 40.9659 121.695 42.5846 118.957 42.5846C114.94 42.5846 112.151 39.8516 112.151 35.905ZM110.759 42.3064H100.473C100.267 42.3064 100.139 42.1796 100.143 41.9778V40.4844C100.143 40.2812 100.194 40.0794 100.347 39.9021L106.692 32.5638C106.821 32.411 106.719 32.2092 106.539 32.2092H100.68C100.476 32.2092 100.347 32.0823 100.347 31.8806V29.9822C100.347 29.7804 100.476 29.6535 100.68 29.6535H110.53C110.734 29.6535 110.863 29.7804 110.863 29.9822V31.4251C110.863 31.6788 110.785 31.856 110.606 32.0579L104.235 39.3961C104.107 39.549 104.235 39.7508 104.414 39.7508H110.759C110.963 39.7508 111.092 39.8776 111.092 40.0794V41.9778C111.092 42.1796 110.963 42.3064 110.759 42.3064ZM135.671 29.655H133.981C132.42 29.655 131.423 30.2114 130.885 31.4005C130.732 31.7292 130.296 31.6542 130.296 31.3241V29.9836C130.296 29.7818 130.168 29.655 129.964 29.655H127.814C127.61 29.655 127.481 29.7818 127.481 29.9836V41.9778C127.481 42.1796 127.61 42.3064 127.814 42.3064H130.27C130.5 42.3064 130.602 42.1551 130.602 41.9778V33.4258C130.602 33.1216 130.833 32.8189 131.165 32.8189H135.668C135.872 32.8189 136 32.692 136 32.4902V29.9851C136.003 29.7818 135.875 29.655 135.671 29.655ZM150.171 39.9281C148.047 39.9281 146.537 38.2574 146.537 35.9295C146.537 33.6521 148.047 32.0333 150.171 32.0333C152.295 32.0333 153.83 33.6521 153.83 35.9295C153.83 38.2574 152.293 39.9281 150.171 39.9281ZM150.196 42.5846C154.136 42.5846 156.95 39.8012 156.95 35.905C156.95 32.1098 154.136 29.3768 150.196 29.3768C146.23 29.3768 143.39 32.1098 143.39 35.905C143.39 39.8012 146.23 42.5846 150.196 42.5846ZM171.265 34.5645V41.9778C171.265 42.1796 171.137 42.3064 170.931 42.3064H168.475C168.271 42.3064 168.143 42.1796 168.143 41.9778V35.1209C168.143 33.1461 167.144 32.0333 165.379 32.0333C163.333 32.0333 162.232 33.198 162.232 35.4495V41.9778C162.232 42.1796 162.103 42.3064 161.899 42.3064H159.444C159.239 42.3064 159.111 42.1796 159.111 41.9778V29.9836C159.111 29.7818 159.239 29.655 159.444 29.655H161.593C161.797 29.655 161.925 29.7818 161.925 30.0096V30.971C161.925 31.2752 162.233 31.3516 162.437 31.0979C163.308 29.9836 164.663 29.3768 166.276 29.3768C169.243 29.3768 171.265 31.1988 171.265 34.5645Z" fill="white"/>
<path fill-rule="evenodd" clip-rule="evenodd" d="M73.1353 48.3243H84.0282C87.9437 48.3243 91.1175 45.1858 91.1175 41.3139V30.5422C91.1175 26.6703 87.9437 23.5317 84.0282 23.5317L73.1353 23.5317C69.2197 23.5317 66.0459 26.6703 66.0459 30.5422L66.0459 41.3139C66.0459 45.1858 69.2197 48.3243 73.1353 48.3243ZM84.4237 40.621C82.1929 39.2453 79.229 37.5568 76.7926 36.2553C76.2012 35.9398 75.4099 36.0576 74.9248 36.742C74.0201 38.0167 72.9366 39.6252 72.1963 40.893C71.8886 41.4063 72.2999 42.085 72.9153 42.085H83.9529C84.7484 42.085 85.0817 41.0893 84.4237 40.621ZM80.3455 35.8321C77.9914 34.591 74.6899 32.702 72.3443 31.2743C71.6196 30.8326 71.9089 29.771 72.7541 29.7724C74.1389 29.7724 76.3892 29.7721 78.6282 29.7717C80.8445 29.7714 83.0497 29.771 84.3929 29.771C85.0694 29.771 85.4169 30.4638 85.129 30.949C84.1576 32.5856 83.0655 34.2376 82.1593 35.4702C81.7552 36.02 80.9355 36.1434 80.3455 35.8321Z" fill="white"/>
</g>
</svg>
