<svg width="220" height="66" viewBox="0 0 220 66" fill="none" xmlns="http://www.w3.org/2000/svg">
<path d="M82.6123 20.002H91.1652C95.8676 20.002 99.0901 23.0834 99.0901 27.798C99.0901 32.4771 95.7223 35.7041 91.1652 35.7041H85.6111V45.9874H82.6123V20.002ZM90.9062 33.032C94.0149 33.032 96.0167 30.8047 96.0167 27.798C96.0167 24.8267 94.0188 22.6741 90.9062 22.6741H85.6111V33.032H90.9062Z" fill="#060606"/>
<path d="M106.785 29.171H103.158V26.6838H109.713V45.987H106.789V29.171H106.785ZM106.122 21.0406C106.122 19.852 107.009 18.9233 108.233 18.9233C109.493 18.9233 110.381 19.852 110.381 21.0406C110.381 22.2644 109.493 23.1932 108.233 23.1932C107.009 23.1932 106.122 22.2644 106.122 21.0406Z" fill="#060606"/>
<path d="M116.49 43.4609H120.38V20.6672H116.49V18.1445H123.304V43.4609H127.194V45.9875H116.494L116.49 43.4609Z" fill="#060606"/>
<path d="M131.262 43.4609H135.152V20.6672H131.262V18.1445H138.076V43.4609H141.966V45.9875H131.266V43.4609H131.262Z" fill="#060606"/>
<path d="M145.107 36.3731C145.107 30.4347 148.808 26.2002 154.287 26.2002C158.288 26.2002 160.286 28.7975 160.844 29.801H161.067V26.6842H164.03V42.5005C164.03 43.0948 164.399 43.3899 164.992 43.3899H165.879V45.9872H163.991C162.398 45.9872 161.212 44.7988 161.177 43.1302V42.9453H160.953C160.471 43.7245 158.696 46.4713 154.512 46.4713C148.996 46.4674 145.107 42.2762 145.107 36.3731ZM161.177 36.4085C161.177 31.6191 158.214 28.8723 154.622 28.8723C150.846 28.8723 148.105 31.9891 148.105 36.4085C148.105 40.8988 150.956 43.8346 154.66 43.8346C158.696 43.8346 161.177 40.4541 161.177 36.4085Z" fill="#060606"/>
<path d="M171.81 26.6842H174.698V29.9152H174.923C175.476 28.282 177.368 26.2041 180.178 26.2041H181.438V29.136H179.699C176.182 29.136 174.738 31.993 174.738 35.6687V45.9873H171.813V26.6842H171.81Z" fill="#060606"/>
<path d="M46.3334 53.7789L38.5615 45.9869V38.1948H59.2864V12.2212L67.0583 20.0133V45.9869H46.3334V53.7789Z" fill="#060606"/>
<path d="M48.924 17.416H38.5615V27.8054H48.924V17.416Z" fill="#060606"/>
</svg>
