<svg width="220" height="66" viewBox="0 0 220 66" fill="none" xmlns="http://www.w3.org/2000/svg">
<path d="M51.4209 43.1015V24.2933H58.8136C60.0064 24.2933 61.0078 24.5371 61.8176 25.0248C62.6274 25.5124 63.237 26.1437 63.6462 26.9186C64.0554 27.6849 64.2601 28.4947 64.2601 29.348C64.2601 30.3842 64.0031 31.2724 63.4895 32.0125C62.9844 32.7527 62.3009 33.2577 61.4389 33.5276L61.4127 32.8876C62.6144 33.1837 63.5374 33.7627 64.1817 34.6248C64.826 35.4781 65.1482 36.4752 65.1482 37.6158C65.1482 38.7217 64.9262 39.6837 64.4821 40.5023C64.0468 41.3209 63.4068 41.9609 62.5621 42.4223C61.7262 42.8752 60.7117 43.1015 59.5189 43.1015H51.4209ZM54.1899 40.5023H59.1009C59.7191 40.5023 60.2721 40.3848 60.7597 40.1497C61.256 39.9146 61.6436 39.5792 61.9221 39.1439C62.2095 38.6999 62.3531 38.1731 62.3531 37.5635C62.3531 36.9976 62.2268 36.4882 61.9744 36.0354C61.7305 35.5739 61.3735 35.2125 60.9033 34.9513C60.4419 34.6813 59.8976 34.5464 59.2707 34.5464H54.1899V40.5023ZM54.1899 31.9733H58.7744C59.2795 31.9733 59.7321 31.8732 60.1327 31.6729C60.5419 31.4639 60.8642 31.1679 61.0993 30.7848C61.3431 30.3929 61.465 29.9227 61.465 29.3741C61.465 28.6427 61.2211 28.0419 60.7335 27.5717C60.246 27.1015 59.5929 26.8664 58.7744 26.8664H54.1899V31.9733ZM71.4046 43.1015V24.2933H79.0062C79.1891 24.2933 79.4154 24.302 79.6854 24.3194C79.9554 24.3282 80.2121 24.3543 80.456 24.3978C81.5009 24.5633 82.3717 24.9203 83.0682 25.4688C83.7736 26.0174 84.3003 26.7097 84.6487 27.5456C84.997 28.3815 85.1711 29.3045 85.1711 30.3146C85.1711 31.8122 84.788 33.1053 84.0217 34.1937C83.2554 35.2735 82.106 35.9482 80.5736 36.2182L79.4634 36.3488H74.1344V43.1015H71.4046ZM82.4021 43.1015L78.6927 35.4476L81.4487 34.7423L85.5238 43.1015H82.4021ZM74.1344 33.7627H78.9017C79.0758 33.7627 79.2674 33.754 79.4764 33.7366C79.6942 33.7192 79.8987 33.6887 80.0903 33.6452C80.6476 33.5146 81.096 33.2751 81.4356 32.9268C81.7752 32.5698 82.0191 32.1605 82.167 31.699C82.315 31.2376 82.3891 30.776 82.3891 30.3146C82.3891 29.8531 82.315 29.3959 82.167 28.9431C82.0191 28.4816 81.7752 28.0767 81.4356 27.7284C81.096 27.3714 80.6476 27.1276 80.0903 26.997C79.8987 26.9448 79.6942 26.9099 79.4764 26.8925C79.2674 26.8751 79.0758 26.8664 78.9017 26.8664H74.1344V33.7627ZM92.0515 43.1015V24.2933H104.068V26.8664H94.7813V32.1431H102.5V34.7162H94.7813V40.5284H104.068V43.1015H92.0515ZM110.862 43.1015V24.2933H122.878V26.8664H113.592V32.1431H121.311V34.7162H113.592V40.5284H122.878V43.1015H110.862ZM129.149 43.1015V42.6705L138.749 26.8664H129.672V24.2933H143.438V24.7374L133.891 40.5154H143.269V43.1015H129.149ZM150.504 43.1015V24.2933H153.233V43.1015H150.504ZM160.813 43.1015V24.2933H163.582L172.842 38.2688V24.2933H175.611V43.1015H172.842L163.582 29.1129V43.1015H160.813ZM190.607 43.4933C189.344 43.4933 188.182 43.2756 187.119 42.8403C186.057 42.3962 185.134 41.7519 184.35 40.9072C183.567 40.0625 182.957 39.0352 182.522 37.8248C182.087 36.6143 181.869 35.2386 181.869 33.6974C181.869 31.6686 182.239 29.9271 182.979 28.4729C183.719 27.0101 184.747 25.8868 186.062 25.1031C187.376 24.3107 188.892 23.9146 190.607 23.9146C192.818 23.9146 194.582 24.4283 195.897 25.4558C197.22 26.4833 198.121 27.9026 198.6 29.7137L195.831 30.2101C195.448 29.0868 194.83 28.1899 193.977 27.5194C193.123 26.849 192.052 26.5094 190.764 26.5007C189.431 26.492 188.321 26.788 187.433 27.3888C186.554 27.9897 185.892 28.8343 185.448 29.9227C185.004 31.0024 184.777 32.2607 184.768 33.6974C184.76 35.1341 184.977 36.3923 185.422 37.4721C185.866 38.5431 186.532 39.379 187.42 39.9799C188.317 40.5807 189.431 40.8854 190.764 40.8941C191.835 40.9115 192.753 40.7156 193.519 40.3064C194.294 39.8884 194.908 39.2788 195.361 38.4778C195.814 37.6768 196.106 36.6927 196.236 35.526H192.579V33.3317H199.136C199.153 33.4884 199.166 33.6974 199.175 33.9586C199.184 34.2111 199.188 34.3722 199.188 34.4419C199.188 36.1833 198.853 37.7376 198.182 39.1048C197.512 40.4719 196.537 41.5472 195.257 42.3309C193.977 43.1058 192.427 43.4933 190.607 43.4933Z" fill="#060606"/>
<path d="M40.9653 17.9687C40.8422 17.6609 40.4929 17.5114 40.1851 17.6344L37.1839 18.8348C37.0231 18.8992 36.8979 19.0298 36.8405 19.1932L36.138 21.1929H30.4967C29.742 19.0506 27.71 17.5915 25.4021 17.5915C22.4234 17.5915 20 20.0149 20 22.9936C20 25.7695 22.1046 28.0627 24.8019 28.3622V45.8025C24.8019 47.1264 25.879 48.2036 27.2028 48.2036H37.4069C38.7307 48.2036 39.8078 47.1264 39.8078 45.8025C39.8078 45.1633 39.8078 22.4261 39.8078 21.7931C39.8078 21.4617 39.539 21.1929 39.2076 21.1929H37.4104L37.8828 19.8483L40.631 18.7491C40.9388 18.6258 41.0884 18.2765 40.9653 17.9687ZM35.3093 28.0439C36.0334 27.7305 36.8636 27.731 37.5872 28.0457L38.6073 28.4891V44.6021H26.0023V27.8106L26.5431 28.0458C27.5726 28.4935 28.7534 28.4935 29.7828 28.0458C30.5081 27.7305 31.3399 27.7305 32.0651 28.0458C32.5651 28.2632 33.0929 28.3699 33.6128 28.3795L29.0373 41.4019C28.8999 41.7929 29.1916 42.2013 29.6037 42.2013C29.8513 42.2013 30.0832 42.0468 30.17 41.7999L34.9556 28.1794C35.0762 28.1397 35.1944 28.0948 35.3093 28.0439ZM34.042 27.1583C33.5367 27.2214 33.0176 27.1509 32.5438 26.9449C31.5144 26.4973 30.3337 26.4973 29.3041 26.9449C28.5789 27.2602 27.7471 27.2602 27.0219 26.9449L26.0024 26.5015V22.3933H35.7162L34.042 27.1583ZM21.2005 22.9936C21.2005 20.6768 23.0853 18.7919 25.4021 18.7919C27.0497 18.7919 28.5157 19.748 29.1995 21.1928H25.4021C25.0706 21.1928 24.8019 21.4616 24.8019 21.7931C24.8019 22.2685 24.8019 26.3746 24.8019 27.1516C22.7685 26.8594 21.2005 25.1065 21.2005 22.9936ZM37.4069 47.0029H27.2028C26.5409 47.0029 26.0024 46.4646 26.0024 45.8025H38.6073C38.6073 46.4646 38.0688 47.0029 37.4069 47.0029ZM38.6073 22.3933V27.1801L38.0659 26.9447C37.221 26.5775 36.2967 26.5234 35.4653 26.7286L36.9886 22.3933L38.6073 22.3933Z" fill="#060606"/>
</svg>
