<svg width="236" height="72" viewBox="0 0 236 72" fill="none" xmlns="http://www.w3.org/2000/svg">
<path opacity="0.2" fill-rule="evenodd" clip-rule="evenodd" d="M216.625 1.8H234.2V70.2H216.625V72H234.2H236V70.2V1.8V0H234.2H216.625V1.8ZM18.625 1.8V0H1.8H0V1.8V70.2V72H1.8H18.625V70.2H1.8V1.8H18.625Z" fill="white"/>
<path d="M146.664 31.5594C145.779 30.361 144.137 29.7878 142.757 29.7878C139.63 29.7878 136.791 32.2628 136.791 36.1707C136.791 40.0785 139.63 42.5795 142.757 42.5795C144.111 42.5795 145.779 41.9803 146.664 40.7819V41.1206C146.664 44.273 145.283 45.4974 143.095 45.4974C141.792 45.4974 140.542 44.9296 140.021 43.8093L137.181 44.6775C138.223 46.944 140.489 48.5455 143.095 48.5455C147.394 48.5455 150.077 46.0705 150.077 40.7558V30.1005H146.664V31.5594ZM143.408 39.4011C141.688 39.4011 140.255 37.9422 140.255 36.1707C140.255 34.3731 141.688 32.9662 143.408 32.9662C144.997 32.9662 146.56 34.2949 146.56 36.1707C146.56 38.0204 145.075 39.4011 143.408 39.4011Z" fill="white"/>
<path d="M171.552 29.7722C170.045 29.7722 168.668 30.6552 167.993 32.6809V30.0839H164.616V42.2122H168.019V38.0569C168.019 34.6027 169.214 32.9666 170.954 32.9666C171.37 32.9666 171.967 33.0185 172.695 33.4081L173.474 30.1618C172.928 29.8761 172.201 29.7722 171.552 29.7722Z" fill="white"/>
<path d="M80.858 42.603C84.3436 42.603 87.4362 40.042 87.4362 36.2007C87.4362 32.3331 84.3436 29.7722 80.858 29.7722C77.3723 29.7722 74.2798 32.3331 74.2798 36.2007C74.2798 40.042 77.3723 42.603 80.858 42.603ZM80.858 39.4149C79.1545 39.4149 77.7655 38.0822 77.7655 36.2007C77.7655 34.293 79.1545 32.9603 80.858 32.9603C82.5615 32.9603 83.9505 34.293 83.9505 36.2007C83.9505 38.0822 82.5615 39.4149 80.858 39.4149Z" fill="white"/>
<path d="M68.7886 42.603C71.2868 42.603 73.889 41.2702 73.889 38.7094C73.889 37.7163 73.5247 35.887 70.6102 35.1031L68.6065 34.5805C67.9299 34.3976 67.4094 34.1101 67.4094 33.5352C67.4094 32.9081 68.034 32.4638 68.8146 32.4638C69.621 32.4638 70.2974 32.9077 70.2979 33.7432L73.4512 32.7751C72.956 30.6012 70.7083 29.7722 68.7626 29.7722C65.9522 29.7722 64.0005 31.5492 64.0005 33.4307C64.0005 34.7111 64.4168 36.462 67.5395 37.2982L69.1529 37.6902C70.0637 37.9253 70.4801 38.1867 70.4801 38.7094C70.4801 39.4149 69.7254 39.9114 68.7366 39.9114C67.5398 39.9114 66.9412 39.1539 66.941 38.4484L63.8589 39.3947C64.3823 41.4809 66.5555 42.603 68.7886 42.603Z" fill="white"/>
<path fill-rule="evenodd" clip-rule="evenodd" d="M155.524 30.0707C158.839 29.0474 162.254 30.5879 163.335 34.1597C163.434 34.4844 163.53 34.8917 163.639 35.4315L154.957 38.1118C155.671 39.2989 156.864 39.8993 158.296 39.4469C159.25 39.1521 159.896 38.4515 160.174 37.6089H163.593C163.551 37.8272 163.497 38.0415 163.432 38.2511C162.789 40.0608 161.291 41.7008 159.262 42.327C155.701 43.4266 152.339 41.7057 151.251 38.109C150.108 34.3374 152.235 31.0864 155.524 30.0707ZM154.314 35.9888C154.184 34.3082 155.117 33.2826 156.454 32.8703C157.913 32.4197 159.291 32.9503 159.805 34.2935L154.314 35.9888Z" fill="white"/>
<path fill-rule="evenodd" clip-rule="evenodd" d="M113.698 30.0707C117.047 29.0474 120.497 30.5879 121.589 34.1597C121.688 34.4844 121.786 34.8917 121.896 35.4315L113.125 38.1118C113.846 39.2989 115.051 39.8993 116.498 39.4469C117.463 39.1521 118.114 38.4515 118.395 37.6089H121.85C121.807 37.8272 121.752 38.0415 121.686 38.2511C121.037 40.0608 119.524 41.7008 117.475 42.327C113.876 43.4266 110.48 41.7057 109.38 38.109C108.227 34.3374 110.374 31.0864 113.698 30.0707ZM112.475 35.9888C112.344 34.3082 113.287 33.2826 114.637 32.8703C116.111 32.4197 117.503 32.9503 118.023 34.2935L112.475 35.9888Z" fill="white"/>
<path d="M132.367 31.5654C131.511 30.3099 129.878 29.7607 128.478 29.7607C125.367 29.7607 122.542 32.2455 122.542 36.1689C122.542 40.0922 125.367 42.6032 128.478 42.6032C129.826 42.6032 131.511 42.0278 132.367 40.7723V42.2894H135.763V23.9758L132.367 25.0657V31.5654ZM129.126 39.4122C127.415 39.4122 125.989 37.9475 125.989 36.1689C125.989 34.3641 127.415 32.9517 129.126 32.9517C130.708 32.9517 132.263 34.2856 132.263 36.1689C132.263 38.0259 130.786 39.4122 129.126 39.4122Z" fill="white"/>
<path d="M108.343 42.2124V23.9758L104.956 25.0611V42.2124H108.343Z" fill="white"/>
<path d="M96.3591 26.6286V23.4546H94.8961C91.4214 23.4546 89.5403 25.5359 89.5403 29.1781V30.0627H87.2412V32.7163H89.5403V42.2123H92.9628V32.7163H95.6276H97.0403V37.1651C97.0403 40.7293 98.5295 42.2123 101.978 42.2123H103.18V39.0383H102.396C101.038 39.0383 100.489 38.3359 100.463 36.957V32.7163H103.023V30.0627H100.463V26.3164L97.0403 27.357V30.0627H95.6276H92.9628V29.1521C92.9889 27.6952 93.6159 26.6286 95.5754 26.6286H96.3591Z" fill="white"/>
</svg>
