<svg width="220" height="66" viewBox="0 0 220 66" fill="none" xmlns="http://www.w3.org/2000/svg">
<g clip-path="url(#clip0_519_190977)">
<path d="M42.9326 19.2594H51.8723C55.0846 19.2594 57.6877 21.8348 57.6877 25.013V26.7334C57.6877 26.978 57.8881 27.1764 58.1355 27.1764H61.543C61.7902 27.1764 61.9907 26.978 61.9907 26.7334V23.0942C61.9907 22.3602 61.6966 21.6597 61.1733 21.142L55.7822 15.8082C55.2563 15.2854 54.5561 14.9995 53.8116 14.9995H42.9326V19.2594Z" fill="#060606"/>
<path d="M42.9326 46.7398H51.8724C55.0847 46.7398 57.6879 44.1644 57.6879 40.9861V34.529C57.6879 34.2843 57.8883 34.0859 58.1356 34.0859H61.5432C61.7904 34.0859 61.9909 34.2843 61.9909 34.529V42.905C61.9909 43.6389 61.6968 44.3395 61.1735 44.857L55.7824 50.1909C55.2565 50.7137 54.5563 50.9996 53.8118 50.9996H42.9326V46.7398Z" fill="#060606"/>
<path d="M43.8079 15H33.804C33.07 15 32.3515 15.2962 31.8335 15.8087L26.4424 21.1425C25.9191 21.6602 25.625 22.3607 25.625 23.0921V33H29.9306V25.0134C29.9306 21.8353 32.5337 19.2598 35.746 19.2598H43.8079V15Z" fill="#060606"/>
<path d="M43.8079 50.9996H33.804C33.07 50.9996 32.3515 50.7034 31.8335 50.1909L26.4424 44.857C25.9191 44.3395 25.625 43.6389 25.625 42.9075V32.4702H29.9306V40.9861C29.9306 44.1644 32.5337 46.7398 35.746 46.7398H43.8079V50.9996Z" fill="#060606"/>
<path d="M76.3467 33.8536C76.3467 39.403 79.6088 42.3157 83.9074 42.3157H85.9809C89.2176 42.3157 92.2267 40.1812 92.8336 36.0633H90.482C89.9762 38.3733 88.1303 40.0808 84.9442 40.0808C80.1397 40.0808 78.6226 37.0928 78.6226 33.6528V32.347C78.6226 28.907 80.1397 25.8435 84.9442 25.8435C87.8775 25.8435 89.7234 27.3501 90.3303 29.4594H92.7578C91.9739 25.718 89.0407 23.6841 85.9809 23.6841H83.9074C79.6088 23.6841 76.3467 26.5968 76.3467 32.1461V33.8536Z" fill="#060606"/>
<path d="M102.023 29.4594C100.557 29.4594 98.8121 30.3382 97.9019 31.6188V23.6841H95.626V41.914H97.9019V35.6113C97.9019 32.5227 100.026 31.6188 101.29 31.6188C103.414 31.6188 104.325 32.5729 104.325 34.8329V41.914H106.6V34.4312C106.6 30.6898 104.122 29.4594 102.023 29.4594Z" fill="#060606"/>
<path d="M120.865 38.8255V34.4313C120.865 30.6899 118.918 29.4595 116.667 29.4595H114.189C111.711 29.4595 109.966 31.2925 109.966 33.1255H112.242C112.242 32.322 113.153 31.6189 114.417 31.6189H115.934C118.185 31.6189 118.539 32.5983 118.589 34.2807H114.467C111.509 34.2807 109.638 35.8373 109.638 38.0471V38.3232C109.638 41.3867 112.116 42.2907 114.467 42.2907C116.035 42.2907 117.932 41.9141 118.792 40.6083C119.297 41.8888 120.688 41.9141 121.851 41.9141V39.7546C121.396 39.7546 120.865 39.6039 120.865 38.8255ZM115.201 40.1311C112.824 40.1311 111.914 39.629 111.914 38.2228C111.914 37.4193 112.369 36.189 115.201 36.189H118.589V38.1726C118.589 39.7797 116.212 40.1311 115.201 40.1311Z" fill="#060606"/>
<path d="M125.877 26.6973C126.711 26.6973 127.394 26.0444 127.394 25.2158C127.394 24.3872 126.711 23.6841 125.877 23.6841C125.042 23.6841 124.359 24.3872 124.359 25.2158C124.359 26.0444 125.042 26.6973 125.877 26.6973ZM124.739 41.914H127.015V29.8611H124.739V41.914Z" fill="#060606"/>
<path d="M137.312 29.4595C135.769 29.4595 133.898 30.4388 133.038 31.845V29.8612H130.914V41.9141H133.19V35.6114C133.19 32.5228 135.314 31.6189 136.578 31.6189C138.702 31.6189 139.613 32.573 139.613 34.833V41.9141H141.889V34.4313C141.889 30.6899 139.411 29.4595 137.312 29.4595Z" fill="#060606"/>
<path d="M161.869 32.7739C161.799 32.7739 153.55 32.7739 153.55 32.7739V34.9333H159.518V34.9835C159.164 37.821 157.571 40.0808 153.398 40.0808C148.594 40.0808 147.077 37.0928 147.077 33.6528V32.347C147.077 28.907 148.594 25.8435 153.398 25.8435C156.837 25.8435 158.456 27.4004 159.189 29.5598H161.591C160.706 25.7682 158 23.6841 154.435 23.6841H152.362C148.063 23.6841 144.801 26.5968 144.801 32.1461V33.8536C144.801 39.403 148.063 42.3157 152.362 42.3157H154.435C156.635 42.3157 158.557 41.5372 159.872 40.0557C161.187 38.5743 162.342 35.7327 161.869 32.7739Z" fill="#060606"/>
<path d="M173.745 24.0859H165.501V41.9141H167.777V35.3603H173.745C176.602 35.3603 179.459 34.1299 179.459 29.7357C179.459 25.5674 176.602 24.0859 173.745 24.0859ZM173.264 33.2008H167.777V26.2705H173.264C176.147 26.2705 177.057 27.7269 177.057 29.7357C177.057 31.7445 176.147 33.2008 173.264 33.2008Z" fill="#060606"/>
<path d="M194.376 24.0859H180.469V26.2454H186.285V41.9141H188.561V26.2454H194.376V24.0859Z" fill="#060606"/>
<path d="M38.7835 35.8423C40.0607 35.8423 41.0962 34.7819 41.0962 33.4739C41.0962 32.1659 40.0607 31.1055 38.7835 31.1055C37.5062 31.1055 36.4707 32.1659 36.4707 33.4739C36.4707 34.7819 37.5062 35.8423 38.7835 35.8423Z" fill="#060606"/>
<path d="M49.1526 35.8423C50.4298 35.8423 51.4653 34.7819 51.4653 33.4739C51.4653 32.1659 50.4298 31.1055 49.1526 31.1055C47.8753 31.1055 46.8398 32.1659 46.8398 33.4739C46.8398 34.7819 47.8753 35.8423 49.1526 35.8423Z" fill="#060606"/>
</g>
<defs>
<clipPath id="clip0_519_190977">
<rect width="168.75" height="36" fill="white" transform="translate(25.625 15)"/>
</clipPath>
</defs>
</svg>
