<svg width="220" height="66" viewBox="0 0 220 66" fill="none" xmlns="http://www.w3.org/2000/svg">
<path d="M30.7082 53.3206L30.3572 52.2109C30.3556 52.2029 30.3511 52.1958 30.3446 52.191C30.3382 52.1861 30.3302 52.1837 30.3221 52.1844H27.7054C27.6974 52.1837 27.6894 52.1861 27.6829 52.191C27.6765 52.1958 27.672 52.2029 27.6703 52.2109L27.3193 53.3206C27.312 53.3422 27.2976 53.3608 27.2785 53.3732C27.2594 53.3858 27.2367 53.3914 27.214 53.3894H26.7402C26.677 53.3894 26.6542 53.3576 26.6717 53.2941L28.6022 47.2955C28.6093 47.2736 28.6235 47.2546 28.6427 47.2418C28.6618 47.229 28.6846 47.223 28.7075 47.225H29.3025C29.3254 47.223 29.3483 47.229 29.3674 47.2418C29.3865 47.2546 29.4007 47.2736 29.4078 47.2955L31.3506 53.2941L31.3593 53.3294C31.3593 53.37 31.333 53.3894 31.2804 53.3894H30.8083C30.7865 53.3902 30.765 53.384 30.747 53.3715C30.7289 53.3592 30.7154 53.3413 30.7082 53.3206ZM27.8493 51.6604C27.8534 51.6648 27.8583 51.6683 27.8637 51.6707C27.8691 51.6731 27.875 51.6744 27.8809 51.6745H30.1396C30.151 51.6739 30.1617 51.6688 30.1695 51.6604C30.1727 51.6561 30.1745 51.6508 30.1745 51.6454C30.1745 51.6399 30.1727 51.6347 30.1695 51.6303L29.0305 48.0401C29.0286 48.0346 29.025 48.03 29.0202 48.0268C29.0155 48.0237 29.0098 48.0221 29.0041 48.0224C28.9985 48.0226 28.9931 48.0243 28.9885 48.0275C28.9838 48.0306 28.9801 48.035 28.9778 48.0401L27.8406 51.6303C27.838 51.6355 27.8375 51.6416 27.8391 51.6471C27.8407 51.6527 27.8444 51.6574 27.8493 51.6604Z" fill="#060606"/>
<path d="M35.4018 53.3206L33.4941 47.322L33.4854 47.2867C33.4854 47.2461 33.5117 47.225 33.5643 47.225H34.0365C34.0594 47.223 34.0822 47.229 34.1013 47.2418C34.1205 47.2546 34.1347 47.2736 34.1418 47.2955L35.7352 52.4525C35.7374 52.4578 35.741 52.4623 35.7457 52.4654C35.7504 52.4686 35.7559 52.4702 35.7616 52.4702C35.7671 52.4697 35.7724 52.4678 35.777 52.4647C35.7815 52.4616 35.7854 52.4575 35.788 52.4525L37.3797 47.2955C37.3867 47.2736 37.401 47.2546 37.4201 47.2418C37.4392 47.229 37.4621 47.223 37.485 47.225H37.9518C38.015 47.225 38.0396 47.2567 38.022 47.322L36.0915 53.3206C36.0842 53.3422 36.0698 53.3608 36.0507 53.3732C36.0316 53.3858 36.0089 53.3914 35.9862 53.3894H35.5054C35.4829 53.391 35.4607 53.3851 35.4419 53.3727C35.4232 53.3602 35.4091 53.3419 35.4018 53.3206Z" fill="#060606"/>
<path d="M44.2006 53.3206L43.8496 52.2109C43.8477 52.2031 43.8431 52.1963 43.8367 52.1914C43.8304 52.1866 43.8226 52.1841 43.8145 52.1844H41.1996C41.1916 52.1837 41.1836 52.1861 41.1772 52.191C41.1707 52.1958 41.1662 52.2029 41.1645 52.2109L40.8135 53.3206C40.8062 53.3422 40.7918 53.3608 40.7727 53.3732C40.7536 53.3858 40.7309 53.3914 40.7082 53.3894H40.2326C40.1677 53.3894 40.1449 53.3576 40.1624 53.2941L42.0929 47.2955C42.1 47.2736 42.1142 47.2546 42.1333 47.2418C42.1525 47.229 42.1753 47.223 42.1982 47.225H42.7932C42.8161 47.223 42.839 47.229 42.8581 47.2418C42.8772 47.2546 42.8914 47.2736 42.8985 47.2955L44.8412 53.2941L44.85 53.3294C44.85 53.37 44.8237 53.3894 44.771 53.3894H44.299C44.2774 53.3898 44.2564 53.3834 44.2387 53.371C44.221 53.3587 44.2077 53.341 44.2006 53.3206ZM41.3436 51.6604C41.3513 51.6688 41.362 51.6739 41.3734 51.6745H43.6321C43.638 51.6744 43.6438 51.6731 43.6493 51.6707C43.6547 51.6683 43.6596 51.6648 43.6637 51.6604C43.6672 51.6562 43.6692 51.6509 43.6692 51.6454C43.6692 51.6399 43.6672 51.6346 43.6637 51.6303L42.5264 48.0401C42.5241 48.035 42.5204 48.0306 42.5158 48.0275C42.5111 48.0243 42.5057 48.0226 42.5001 48.0224C42.4944 48.0221 42.4887 48.0237 42.484 48.0268C42.4793 48.03 42.4756 48.0346 42.4738 48.0401L41.3348 51.6303C41.3326 51.6356 41.3322 51.6415 41.3338 51.6469C41.3354 51.6524 41.3389 51.6572 41.3436 51.6604Z" fill="#060606"/>
<path d="M48.0951 53.3V47.3156C48.0933 47.3036 48.0944 47.2914 48.0982 47.2798C48.1019 47.2683 48.1083 47.2579 48.1169 47.2493C48.1254 47.2407 48.1358 47.2342 48.1472 47.2304C48.1587 47.2267 48.1709 47.2256 48.1828 47.2274H48.6287C48.6406 47.2256 48.6528 47.2267 48.6642 47.2304C48.6757 47.2342 48.6861 47.2407 48.6946 47.2493C48.7032 47.2579 48.7096 47.2683 48.7133 47.2798C48.7171 47.2914 48.7182 47.3036 48.7164 47.3156V52.806C48.7164 52.8307 48.7269 52.8413 48.7515 52.8413H51.8403C51.8522 52.8396 51.8644 52.8406 51.8759 52.8444C51.8873 52.8482 51.8977 52.8546 51.9063 52.8632C51.9148 52.8718 51.9212 52.8823 51.925 52.8938C51.9288 52.9053 51.9298 52.9176 51.9281 52.9295V53.3C51.9281 53.3583 51.8999 53.3865 51.8403 53.3865H48.1828C48.1302 53.3865 48.0951 53.3583 48.0951 53.3Z" fill="#060606"/>
<path d="M58.9636 53.3206L58.6126 52.2109C58.6109 52.2029 58.6064 52.1958 58.5999 52.191C58.5935 52.1861 58.5855 52.1837 58.5775 52.1844H55.9608C55.9527 52.1837 55.9448 52.1861 55.9383 52.191C55.9318 52.1958 55.9274 52.2029 55.9257 52.2109L55.5747 53.3206C55.5673 53.3422 55.5529 53.3608 55.5338 53.3732C55.5147 53.3858 55.492 53.3914 55.4694 53.3894H54.9973C54.9323 53.3894 54.9095 53.3576 54.9271 53.2941L56.8576 47.2955C56.8646 47.2736 56.8789 47.2546 56.898 47.2418C56.9171 47.229 56.94 47.223 56.9629 47.225H57.5578C57.5807 47.223 57.6036 47.229 57.6227 47.2418C57.6418 47.2546 57.656 47.2736 57.6631 47.2955L59.6077 53.2941L59.6164 53.3294C59.6164 53.37 59.5901 53.3894 59.5375 53.3894H59.0636C59.0418 53.3905 59.0201 53.3844 59.002 53.3719C58.984 53.3595 58.9704 53.3415 58.9636 53.3206ZM56.1047 51.6604C56.1124 51.6688 56.1231 51.6739 56.1345 51.6745H58.3932C58.3992 51.6744 58.405 51.6731 58.4104 51.6707C58.4159 51.6683 58.4208 51.6648 58.4248 51.6604C58.4268 51.6584 58.4283 51.6561 58.4294 51.6535C58.4304 51.6509 58.431 51.6481 58.431 51.6454C58.431 51.6426 58.4304 51.6399 58.4294 51.6373C58.4283 51.6347 58.4268 51.6324 58.4248 51.6303L57.2876 48.0401C57.2852 48.035 57.2816 48.0306 57.2769 48.0275C57.2722 48.0243 57.2668 48.0226 57.2613 48.0224C57.2555 48.0221 57.2499 48.0237 57.2451 48.0268C57.2404 48.03 57.2368 48.0346 57.2349 48.0401L56.0977 51.6303C56.096 51.6328 56.095 51.6355 56.0945 51.6383C56.094 51.6412 56.0941 51.6441 56.0947 51.6469C56.0954 51.6497 56.0966 51.6524 56.0983 51.6546C56.1 51.657 56.1022 51.6589 56.1047 51.6604Z" fill="#060606"/>
<path d="M66.5947 47.2274H67.0404C67.0523 47.2256 67.0645 47.2267 67.076 47.2304C67.0874 47.2342 67.0978 47.2407 67.1064 47.2493C67.1149 47.2579 67.1213 47.2683 67.1251 47.2798C67.1289 47.2914 67.1299 47.3036 67.1281 47.3156V53.3C67.1296 53.3119 67.1284 53.3239 67.1245 53.3352C67.1205 53.3465 67.1141 53.3567 67.1056 53.3651C67.0971 53.3735 67.0868 53.3797 67.0755 53.3835C67.0642 53.3872 67.0522 53.3882 67.0404 53.3865H66.6034C66.5823 53.3862 66.5616 53.3805 66.5431 53.37C66.5248 53.3595 66.5093 53.3446 66.4981 53.3265L63.5146 48.4412C63.5146 48.4236 63.5059 48.4165 63.4883 48.42C63.476 48.42 63.4707 48.4324 63.4707 48.4501L63.4795 53.3C63.481 53.3119 63.4797 53.3239 63.4758 53.3352C63.4719 53.3465 63.4655 53.3567 63.4569 53.3651C63.4485 53.3735 63.4382 53.3797 63.4269 53.3835C63.4155 53.3872 63.4036 53.3882 63.3918 53.3865H62.946C62.9343 53.3882 62.9222 53.3872 62.9109 53.3835C62.8996 53.3797 62.8893 53.3735 62.8808 53.3651C62.8723 53.3567 62.8658 53.3465 62.8619 53.3352C62.858 53.3239 62.8567 53.3119 62.8583 53.3V47.3156C62.8565 47.3036 62.8575 47.2914 62.8613 47.2798C62.8651 47.2683 62.8715 47.2579 62.88 47.2493C62.8885 47.2407 62.899 47.2342 62.9105 47.2304C62.9219 47.2267 62.9341 47.2256 62.946 47.2274H63.383C63.4042 47.2282 63.4249 47.2343 63.4433 47.245C63.4617 47.2558 63.4771 47.271 63.4883 47.2892L66.4718 52.1727C66.4718 52.1903 66.4859 52.1974 66.4981 52.1956C66.5104 52.1938 66.5157 52.1815 66.5157 52.1638L66.5069 47.3156C66.5051 47.3036 66.5062 47.2914 66.5099 47.2798C66.5137 47.2683 66.5201 47.2579 66.5287 47.2493C66.5372 47.2407 66.5476 47.2342 66.5591 47.2304C66.5705 47.2267 66.5827 47.2256 66.5947 47.2274Z" fill="#060606"/>
<path d="M71.5527 53.2251C71.2505 53.0719 70.9992 52.8334 70.8297 52.5388C70.6534 52.2267 70.5643 51.8725 70.5717 51.5137V49.0931C70.5648 48.7389 70.6539 48.3894 70.8297 48.0822C71.0008 47.7898 71.2518 47.5529 71.5527 47.3994C71.8867 47.2328 72.2558 47.1498 72.6286 47.1578C73.0015 47.1497 73.3709 47.2315 73.7061 47.3959C74.0049 47.5453 74.2551 47.7773 74.4274 48.0646C74.6031 48.366 74.6924 48.7104 74.6854 49.0597C74.6859 49.0723 74.6838 49.0849 74.6793 49.0968C74.6748 49.1086 74.6679 49.1194 74.6591 49.1284C74.6513 49.1369 74.6418 49.1437 74.6311 49.1482C74.6206 49.1528 74.6092 49.1551 74.5977 49.1549L74.1519 49.1814C74.094 49.1814 74.0642 49.1549 74.0642 49.102V49.0773C74.0724 48.8921 74.0416 48.7073 73.9739 48.5349C73.9061 48.3625 73.8029 48.2065 73.671 48.077C73.3858 47.8196 73.0114 47.6852 72.6286 47.7029C72.4388 47.694 72.2491 47.7229 72.0705 47.7881C71.8919 47.8532 71.7279 47.9531 71.5878 48.0822C71.456 48.2108 71.3527 48.3659 71.2847 48.5373C71.2166 48.7088 71.1854 48.8928 71.193 49.0773V51.5473C71.1854 51.7317 71.2166 51.9158 71.2847 52.0872C71.3527 52.2587 71.456 52.4138 71.5878 52.5424C71.8811 52.7854 72.2494 52.9183 72.6294 52.9183C73.0095 52.9183 73.3778 52.7854 73.671 52.5424C73.8029 52.4133 73.9062 52.2575 73.974 52.0853C74.0417 51.9133 74.0724 51.7287 74.0642 51.5437V51.5243C74.0642 51.4714 74.094 51.4449 74.1519 51.4449L74.5977 51.4714C74.6574 51.4714 74.6854 51.4979 74.6854 51.5508C74.6929 51.904 74.6036 52.2525 74.4274 52.5582C74.2565 52.848 74.0061 53.0819 73.7061 53.2322C73.3702 53.394 73.001 53.4739 72.6286 53.465C72.2559 53.4746 71.8864 53.3922 71.5527 53.2251Z" fill="#060606"/>
<path d="M81.6245 47.2274H82.072C82.0839 47.2256 82.0961 47.2267 82.1076 47.2304C82.119 47.2342 82.1295 47.2407 82.138 47.2493C82.1466 47.2579 82.1529 47.2683 82.1567 47.2798C82.1605 47.2914 82.1615 47.3036 82.1597 47.3156V53.3C82.1613 53.3119 82.16 53.3239 82.1561 53.3352C82.1522 53.3465 82.1457 53.3567 82.1372 53.3651C82.1287 53.3735 82.1184 53.3797 82.1071 53.3835C82.0958 53.3872 82.0838 53.3882 82.072 53.3865H81.6245C81.6128 53.3883 81.6008 53.3873 81.5896 53.3836C81.5783 53.3799 81.5681 53.3736 81.5598 53.3651C81.5513 53.3567 81.5451 53.3464 81.5414 53.3351C81.5377 53.3238 81.5367 53.3118 81.5385 53.3V50.5972C81.5385 50.5743 81.5262 50.5636 81.5034 50.5636H78.7112C78.6866 50.5636 78.6761 50.5743 78.6761 50.5972V53.3C78.6776 53.3119 78.6763 53.3239 78.6724 53.3352C78.6685 53.3465 78.662 53.3567 78.6536 53.3651C78.645 53.3735 78.6347 53.3797 78.6234 53.3835C78.6121 53.3872 78.6001 53.3882 78.5884 53.3865H78.1391C78.1274 53.3883 78.1154 53.3873 78.1041 53.3836C78.0929 53.3799 78.0827 53.3736 78.0743 53.3651C78.066 53.3567 78.0597 53.3464 78.056 53.3351C78.0523 53.3238 78.0513 53.3118 78.0531 53.3V47.3156C78.0513 47.3038 78.0524 47.2917 78.056 47.2803C78.0598 47.2689 78.066 47.2586 78.0743 47.2501C78.0827 47.2415 78.0928 47.235 78.1041 47.2311C78.1153 47.2272 78.1273 47.2259 78.1391 47.2274H78.5866C78.5985 47.2256 78.6107 47.2267 78.6222 47.2304C78.6336 47.2342 78.644 47.2407 78.6526 47.2493C78.6611 47.2579 78.6675 47.2683 78.6713 47.2798C78.6751 47.2914 78.6761 47.3036 78.6743 47.3156V49.9815C78.6743 50.0062 78.6849 50.0167 78.7095 50.0167H81.5016C81.5064 50.0173 81.5112 50.0167 81.5157 50.0152C81.5202 50.0136 81.5244 50.011 81.5277 50.0076C81.5311 50.0042 81.5337 50.0001 81.5352 49.9956C81.5368 49.991 81.5373 49.9862 81.5367 49.9815V47.3156C81.535 47.3036 81.5361 47.2914 81.5398 47.2798C81.5436 47.2683 81.55 47.2579 81.5586 47.2493C81.5671 47.2407 81.5775 47.2342 81.589 47.2304C81.6004 47.2267 81.6126 47.2256 81.6245 47.2274Z" fill="#060606"/>
<path d="M89.6008 47.7725H86.3892C86.3844 47.7719 86.3796 47.7725 86.375 47.7741C86.3706 47.7756 86.3664 47.7782 86.3631 47.7816C86.3597 47.785 86.3572 47.7892 86.3555 47.7936C86.354 47.7982 86.3535 47.8031 86.3541 47.8079V49.9815C86.3541 50.0062 86.3646 50.0167 86.3892 50.0167H88.6479C88.6598 50.0149 88.672 50.016 88.6834 50.0198C88.6949 50.0235 88.7053 50.03 88.7138 50.0386C88.7224 50.0472 88.7288 50.0577 88.7325 50.0691C88.7363 50.0807 88.7374 50.0929 88.7356 50.105V50.4755C88.7374 50.4874 88.7363 50.4997 88.7325 50.5112C88.7288 50.5228 88.7224 50.5331 88.7138 50.5418C88.7053 50.5503 88.6949 50.5568 88.6834 50.5606C88.672 50.5643 88.6598 50.5654 88.6479 50.5636H86.3892C86.3646 50.5636 86.3541 50.5743 86.3541 50.5972V52.806C86.3541 52.8307 86.3646 52.8413 86.3892 52.8413H89.6008C89.6128 52.8395 89.6249 52.8406 89.6363 52.8444C89.6478 52.8482 89.6583 52.8546 89.6668 52.8632C89.6753 52.8718 89.6818 52.8823 89.6855 52.8938C89.6893 52.9053 89.6904 52.9176 89.6886 52.9295V53.3C89.69 53.3119 89.6887 53.3239 89.6848 53.3352C89.6809 53.3465 89.6744 53.3567 89.666 53.3651C89.6575 53.3735 89.6472 53.3797 89.6359 53.3835C89.6246 53.3872 89.6125 53.3882 89.6008 53.3865H85.8117C85.7521 53.3865 85.724 53.3583 85.724 53.3V47.3156C85.7222 47.3036 85.7233 47.2914 85.7271 47.2798C85.7308 47.2683 85.7372 47.2579 85.7458 47.2493C85.7543 47.2407 85.7647 47.2342 85.7762 47.2304C85.7877 47.2267 85.7998 47.2256 85.8117 47.2274H89.6008C89.6128 47.2256 89.6249 47.2267 89.6363 47.2304C89.6478 47.2342 89.6583 47.2407 89.6668 47.2493C89.6753 47.2579 89.6818 47.2683 89.6855 47.2798C89.6893 47.2914 89.6904 47.3036 89.6886 47.3156V47.6844C89.6904 47.6963 89.6893 47.7086 89.6855 47.7201C89.6818 47.7317 89.6753 47.742 89.6668 47.7507C89.6583 47.7592 89.6478 47.7657 89.6363 47.7695C89.6249 47.7732 89.6128 47.7743 89.6008 47.7725Z" fill="#060606"/>
<path d="M100.847 47.7725H97.6199C97.6152 47.7719 97.6104 47.7725 97.6059 47.7741C97.6013 47.7756 97.5973 47.7782 97.5938 47.7816C97.5905 47.785 97.5879 47.7892 97.5864 47.7936C97.5848 47.7982 97.5843 47.8031 97.5848 47.8079V49.9815C97.5843 49.9862 97.5848 49.991 97.5864 49.9956C97.5879 50.0001 97.5905 50.0042 97.5938 50.0076C97.5973 50.011 97.6013 50.0136 97.6059 50.0152C97.6104 50.0167 97.6152 50.0173 97.6199 50.0167H99.8786C99.8905 50.0149 99.9027 50.016 99.9142 50.0198C99.9256 50.0235 99.936 50.03 99.9446 50.0386C99.9531 50.0472 99.9595 50.0577 99.9633 50.0691C99.9671 50.0807 99.9681 50.0929 99.9663 50.105V50.4755C99.9681 50.4874 99.9671 50.4997 99.9633 50.5112C99.9595 50.5228 99.9531 50.5331 99.9446 50.5418C99.936 50.5503 99.9256 50.5568 99.9142 50.5606C99.9027 50.5643 99.8905 50.5654 99.8786 50.5636H97.6199C97.5971 50.5636 97.5848 50.5743 97.5848 50.5972V52.806C97.5843 52.8108 97.5848 52.8156 97.5864 52.8202C97.5879 52.8247 97.5905 52.8289 97.5938 52.8323C97.5973 52.8357 97.6013 52.8382 97.6059 52.8398C97.6104 52.8414 97.6152 52.8419 97.6199 52.8413H100.84C100.852 52.8396 100.864 52.8406 100.876 52.8444C100.887 52.8482 100.898 52.8546 100.906 52.8632C100.915 52.8718 100.921 52.8823 100.925 52.8938C100.929 52.9053 100.93 52.9176 100.928 52.9295V53.3C100.928 53.3583 100.9 53.3865 100.84 53.3865H97.0583C96.9987 53.3865 96.9706 53.3583 96.9706 53.3V47.3156C96.9688 47.3036 96.9698 47.2914 96.9737 47.2798C96.9774 47.2683 96.9838 47.2579 96.9923 47.2493C97.0009 47.2407 97.0113 47.2342 97.0227 47.2304C97.0342 47.2267 97.0464 47.2256 97.0583 47.2274H100.847C100.859 47.2256 100.872 47.2267 100.883 47.2304C100.894 47.2342 100.905 47.2407 100.913 47.2493C100.922 47.2579 100.928 47.2683 100.932 47.2798C100.936 47.2914 100.937 47.3036 100.935 47.3156V47.6844C100.937 47.6963 100.936 47.7086 100.932 47.7201C100.928 47.7317 100.922 47.742 100.913 47.7507C100.905 47.7592 100.894 47.7657 100.883 47.7695C100.872 47.7732 100.859 47.7743 100.847 47.7725Z" fill="#060606"/>
<path d="M104.965 53.2252C104.663 53.0719 104.412 52.8335 104.242 52.5389C104.066 52.2268 103.977 51.8726 103.984 51.5138V49.0932C103.977 48.739 104.067 48.3894 104.242 48.0823C104.413 47.7899 104.664 47.553 104.965 47.3995C105.299 47.2328 105.668 47.1499 106.041 47.1578C106.414 47.1498 106.784 47.2315 107.119 47.396C107.418 47.5454 107.668 47.7774 107.84 48.0647C108.015 48.3645 108.104 48.707 108.098 49.0544C108.099 49.0671 108.096 49.0797 108.092 49.0915C108.087 49.1034 108.081 49.1142 108.072 49.1232C108.064 49.1317 108.055 49.1384 108.043 49.1429C108.033 49.1476 108.021 49.1498 108.01 49.1497L107.565 49.1762C107.506 49.1762 107.477 49.1497 107.477 49.0967V49.072C107.485 48.8868 107.454 48.7021 107.387 48.5297C107.319 48.3573 107.215 48.2012 107.084 48.0717C106.798 47.8143 106.424 47.68 106.041 47.6977C105.851 47.6888 105.662 47.7177 105.483 47.7828C105.305 47.848 105.14 47.9479 105 48.077C104.869 48.2056 104.765 48.3607 104.697 48.5321C104.629 48.7036 104.598 48.8876 104.606 49.072V51.542C104.598 51.7265 104.629 51.9105 104.697 52.082C104.765 52.2534 104.869 52.4085 105 52.5371C105.294 52.7802 105.662 52.9131 106.042 52.9131C106.422 52.9131 106.79 52.7802 107.084 52.5371C107.215 52.408 107.319 52.2523 107.387 52.0801C107.454 51.908 107.485 51.7234 107.477 51.5385V51.5244C107.477 51.4715 107.506 51.445 107.565 51.445L108.01 51.4715C108.069 51.4715 108.098 51.498 108.098 51.5509C108.105 51.9041 108.017 52.2525 107.84 52.5583C107.669 52.848 107.419 53.082 107.119 53.2323C106.784 53.3936 106.416 53.4734 106.045 53.4651C105.671 53.4753 105.3 53.3929 104.965 53.2252Z" fill="#060606"/>
<path d="M112.363 53.204C112.055 53.0405 111.802 52.7911 111.633 52.4859C111.456 52.1582 111.366 51.7897 111.375 51.4168V49.199C111.367 48.8263 111.456 48.4578 111.633 48.13C111.802 47.8252 112.055 47.5764 112.363 47.4136C112.701 47.2373 113.077 47.1493 113.458 47.1578C113.84 47.15 114.217 47.2379 114.556 47.4136C114.865 47.5757 115.121 47.8246 115.292 48.13C115.469 48.4578 115.557 48.8263 115.55 49.199V51.4168C115.558 51.7897 115.469 52.1582 115.292 52.4859C115.121 52.7918 114.866 53.0413 114.556 53.204C114.217 53.3783 113.839 53.4656 113.458 53.4581C113.078 53.4665 112.701 53.3792 112.363 53.204ZM114.525 52.5177C114.661 52.3756 114.768 52.2071 114.837 52.0223C114.906 51.8376 114.937 51.6405 114.928 51.4432V49.1903C114.937 48.9925 114.906 48.7951 114.836 48.6098C114.767 48.4246 114.661 48.2554 114.525 48.1122C114.233 47.8486 113.854 47.7027 113.461 47.7027C113.069 47.7027 112.69 47.8486 112.397 48.1122C112.262 48.2555 112.156 48.4247 112.087 48.61C112.018 48.7952 111.987 48.9926 111.996 49.1903V51.4432C112.002 51.7349 112.092 52.0187 112.254 52.2601C112.418 52.5016 112.647 52.6906 112.914 52.8042C113.182 52.9178 113.476 52.9512 113.762 52.9003C114.048 52.8494 114.313 52.7166 114.525 52.5177Z" fill="#060606"/>
<path d="M119.342 53.0113C119.158 52.8728 119.01 52.6918 118.911 52.4836C118.811 52.2754 118.762 52.0461 118.768 51.8151V51.5416C118.767 51.5296 118.768 51.5174 118.772 51.5059C118.775 51.4944 118.781 51.4839 118.79 51.4753C118.798 51.4667 118.809 51.4603 118.82 51.4565C118.832 51.4527 118.844 51.4516 118.856 51.4534H119.284C119.296 51.4516 119.309 51.4527 119.32 51.4565C119.331 51.4603 119.342 51.4667 119.35 51.4753C119.359 51.4839 119.366 51.4944 119.369 51.5059C119.373 51.5174 119.374 51.5296 119.372 51.5416V51.7799C119.369 51.9412 119.406 52.1009 119.479 52.2444C119.553 52.3879 119.66 52.5108 119.793 52.602C120.137 52.829 120.546 52.9384 120.957 52.9143C121.321 52.9396 121.683 52.8388 121.982 52.6284C122.096 52.5382 122.187 52.4223 122.247 52.2903C122.308 52.1582 122.338 52.0135 122.333 51.868C122.337 51.6788 122.28 51.4932 122.171 51.3388C122.032 51.168 121.859 51.0275 121.664 50.9259C121.356 50.7577 121.038 50.6081 120.713 50.4778C120.365 50.3425 120.024 50.1882 119.693 50.0155C119.461 49.8925 119.261 49.7175 119.107 49.5039C118.951 49.2722 118.873 48.9965 118.885 48.717C118.873 48.4985 118.914 48.2804 119.003 48.0807C119.092 47.8811 119.227 47.7055 119.396 47.5685C119.737 47.2956 120.205 47.1592 120.8 47.1592C121.448 47.1592 121.958 47.3121 122.333 47.6179C122.514 47.7619 122.659 47.9468 122.757 48.1577C122.854 48.3685 122.901 48.5994 122.893 48.8317V49.0257C122.893 49.084 122.864 49.1123 122.805 49.1123H122.368C122.356 49.114 122.344 49.1129 122.333 49.1092C122.321 49.1055 122.311 49.0992 122.303 49.0908C122.295 49.0824 122.288 49.0723 122.284 49.061C122.28 49.0497 122.278 49.0376 122.28 49.0257V48.867C122.283 48.706 122.249 48.5465 122.18 48.4012C122.111 48.2561 122.009 48.1291 121.882 48.0307C121.562 47.7959 121.17 47.6805 120.774 47.7044C120.437 47.6828 120.102 47.7727 119.821 47.9601C119.71 48.0468 119.621 48.1594 119.564 48.2882C119.505 48.4171 119.479 48.5582 119.488 48.6994C119.479 48.8892 119.537 49.0762 119.649 49.2287C119.777 49.3785 119.936 49.4989 120.115 49.5816C120.315 49.6856 120.627 49.8179 121.047 49.982C121.4 50.1229 121.744 50.288 122.074 50.476C122.321 50.616 122.535 50.8058 122.705 51.0335C122.87 51.2691 122.954 51.552 122.945 51.8398C122.954 52.0653 122.908 52.2895 122.815 52.4942C122.72 52.699 122.579 52.8785 122.403 53.0184C122.041 53.3113 121.54 53.4577 120.897 53.4577C120.245 53.4665 119.734 53.3113 119.342 53.0113Z" fill="#060606"/>
<path d="M127.59 53.2874V50.6851C127.59 50.6621 127.59 50.6481 127.59 50.641L125.77 47.333C125.76 47.3169 125.755 47.2988 125.753 47.28C125.753 47.2447 125.779 47.2271 125.832 47.2271H126.304C126.326 47.2248 126.348 47.2296 126.366 47.2408C126.385 47.2518 126.4 47.2687 126.409 47.2889L127.88 49.9723C127.883 49.9758 127.887 49.9785 127.891 49.98C127.896 49.9816 127.901 49.9819 127.906 49.9812C127.911 49.9816 127.916 49.981 127.92 49.9795C127.925 49.9779 127.929 49.9755 127.932 49.9723L129.403 47.2889C129.413 47.2696 129.428 47.2536 129.447 47.2426C129.465 47.2317 129.487 47.2263 129.508 47.2271H129.98C129.993 47.2256 130.007 47.2275 130.019 47.2328C130.032 47.238 130.043 47.2464 130.051 47.2571C130.058 47.2686 130.061 47.2817 130.061 47.295C130.061 47.3084 130.058 47.3214 130.051 47.333L128.22 50.641C128.213 50.6545 128.21 50.6698 128.212 50.6851V53.2874C128.213 53.2993 128.212 53.3113 128.208 53.3227C128.205 53.334 128.199 53.3444 128.19 53.353C128.181 53.3615 128.172 53.368 128.16 53.3719C128.149 53.3759 128.138 53.3771 128.125 53.3756H127.678C127.666 53.3774 127.654 53.3764 127.642 53.3725C127.631 53.3688 127.621 53.3623 127.612 53.3538C127.604 53.3452 127.597 53.3347 127.593 53.3231C127.589 53.3117 127.588 53.2994 127.59 53.2874Z" fill="#060606"/>
<path d="M133.41 53.0113C133.227 52.8724 133.079 52.6912 132.979 52.4832C132.88 52.275 132.831 52.046 132.838 51.8151V51.5416C132.836 51.5296 132.838 51.5174 132.841 51.5059C132.845 51.4944 132.851 51.4839 132.859 51.4753C132.868 51.4667 132.879 51.4603 132.89 51.4565C132.902 51.4527 132.914 51.4516 132.925 51.4534H133.353C133.366 51.4516 133.378 51.4527 133.389 51.4565C133.401 51.4603 133.411 51.4667 133.42 51.4753C133.428 51.4839 133.435 51.4944 133.439 51.5059C133.442 51.5174 133.444 51.5296 133.441 51.5416V51.7799C133.439 51.9411 133.475 52.1005 133.548 52.244C133.622 52.3875 133.729 52.5105 133.861 52.602C134.207 52.8285 134.614 52.9379 135.026 52.9143C135.39 52.9397 135.751 52.8388 136.049 52.6284C136.163 52.5381 136.254 52.4222 136.315 52.2902C136.376 52.1581 136.405 52.0135 136.4 51.868C136.405 51.6784 136.348 51.4923 136.237 51.3388C136.101 51.1681 135.932 51.0276 135.739 50.9259C135.432 50.7573 135.115 50.6077 134.789 50.4778C134.441 50.3425 134.101 50.1882 133.769 50.0155C133.538 49.8925 133.337 49.7175 133.184 49.5039C133.028 49.2722 132.95 48.9965 132.961 48.717C132.95 48.4987 132.99 48.2808 133.079 48.0812C133.168 47.8816 133.302 47.7059 133.471 47.5685C133.814 47.2956 134.282 47.1592 134.875 47.1592C135.524 47.1592 136.035 47.3121 136.408 47.6179C136.589 47.7619 136.734 47.9468 136.832 48.1577C136.928 48.3685 136.976 48.5994 136.967 48.8317V49.0257C136.969 49.0376 136.967 49.0497 136.963 49.061C136.96 49.0723 136.954 49.0824 136.945 49.0908C136.937 49.0992 136.926 49.1055 136.915 49.1092C136.903 49.1129 136.891 49.114 136.88 49.1123H136.443C136.383 49.1123 136.355 49.084 136.355 49.0257V48.867C136.358 48.706 136.324 48.5465 136.255 48.4012C136.185 48.2561 136.083 48.1291 135.957 48.0307C135.637 47.7962 135.245 47.6808 134.849 47.7044C134.512 47.6831 134.177 47.7729 133.895 47.9601C133.784 48.0477 133.697 48.1606 133.639 48.2892C133.581 48.4178 133.555 48.5585 133.563 48.6994C133.553 48.8893 133.61 49.0766 133.724 49.2287C133.852 49.3781 134.01 49.4984 134.187 49.5816C134.389 49.6856 134.7 49.8179 135.121 49.982C135.475 50.1233 135.818 50.2884 136.149 50.476C136.395 50.6169 136.609 50.8067 136.78 51.0335C136.945 51.2691 137.028 51.552 137.02 51.8398C137.028 52.0653 136.983 52.2895 136.889 52.4942C136.794 52.699 136.654 52.8785 136.478 53.0184C136.115 53.3113 135.613 53.4577 134.972 53.4577C134.314 53.4665 133.792 53.3113 133.41 53.0113Z" fill="#060606"/>
<path d="M144.179 47.3168V47.6944C144.18 47.7064 144.18 47.7186 144.175 47.7301C144.171 47.7416 144.166 47.7521 144.157 47.7607C144.149 47.7693 144.138 47.7757 144.127 47.7795C144.115 47.7833 144.102 47.7844 144.091 47.7826H142.373C142.368 47.782 142.363 47.7825 142.359 47.7841C142.354 47.7857 142.35 47.7883 142.347 47.7916C142.343 47.795 142.341 47.7992 142.339 47.8037C142.338 47.8083 142.337 47.8131 142.338 47.8179V53.3013C142.339 53.313 142.338 53.3251 142.334 53.3364C142.331 53.3476 142.325 53.358 142.316 53.3663C142.308 53.3748 142.298 53.3811 142.286 53.3848C142.275 53.3885 142.264 53.3895 142.251 53.3877H141.804C141.792 53.3894 141.78 53.3884 141.769 53.3847C141.757 53.381 141.748 53.3747 141.739 53.3663C141.731 53.358 141.724 53.3477 141.72 53.3364C141.716 53.3251 141.715 53.3131 141.716 53.3013V47.8196C141.717 47.8148 141.716 47.81 141.714 47.8055C141.714 47.801 141.71 47.7968 141.707 47.7934C141.704 47.79 141.7 47.7875 141.695 47.7858C141.691 47.7843 141.686 47.7837 141.681 47.7843H140.038C140.027 47.7861 140.015 47.785 140.003 47.7813C139.991 47.7775 139.981 47.7711 139.972 47.7624C139.964 47.7538 139.958 47.7434 139.954 47.7319C139.95 47.7204 139.949 47.7081 139.95 47.6961V47.3186C139.949 47.3065 139.95 47.2943 139.954 47.2828C139.958 47.2713 139.964 47.2608 139.972 47.2523C139.981 47.2437 139.991 47.2372 140.003 47.2334C140.015 47.2296 140.027 47.2286 140.038 47.2303H144.091C144.102 47.2286 144.115 47.2297 144.126 47.2333C144.137 47.2371 144.148 47.2433 144.156 47.2517C144.164 47.2601 144.171 47.2703 144.175 47.2816C144.179 47.2929 144.18 47.3049 144.179 47.3168Z" fill="#060606"/>
<path d="M151.324 47.7725H148.105C148.1 47.7719 148.096 47.7725 148.092 47.7741C148.087 47.7756 148.083 47.7782 148.079 47.7816C148.076 47.785 148.074 47.7892 148.072 47.7936C148.07 47.7982 148.07 47.8031 148.07 47.8079V49.9815C148.07 49.9862 148.07 49.991 148.072 49.9956C148.074 50.0001 148.076 50.0042 148.079 50.0076C148.083 50.011 148.087 50.0136 148.092 50.0152C148.096 50.0167 148.1 50.0173 148.105 50.0167H150.364C150.376 50.0149 150.388 50.016 150.4 50.0198C150.411 50.0235 150.422 50.03 150.43 50.0386C150.439 50.0472 150.445 50.0577 150.449 50.0691C150.453 50.0807 150.453 50.0929 150.452 50.105V50.4755C150.453 50.4874 150.453 50.4997 150.449 50.5112C150.445 50.5228 150.439 50.5331 150.43 50.5418C150.422 50.5503 150.411 50.5568 150.4 50.5606C150.388 50.5643 150.376 50.5654 150.364 50.5636H148.105C148.083 50.5636 148.07 50.5743 148.07 50.5972V52.806C148.07 52.8108 148.07 52.8156 148.072 52.8202C148.074 52.8247 148.076 52.8289 148.079 52.8323C148.083 52.8357 148.087 52.8382 148.092 52.8398C148.096 52.8414 148.1 52.8419 148.105 52.8413H151.324C151.336 52.8395 151.348 52.8406 151.359 52.8444C151.371 52.8482 151.381 52.8546 151.39 52.8632C151.398 52.8718 151.405 52.8823 151.409 52.8938C151.412 52.9053 151.414 52.9176 151.412 52.9295V53.3C151.413 53.3119 151.412 53.3239 151.408 53.3352C151.404 53.3465 151.398 53.3567 151.389 53.3651C151.381 53.3735 151.371 53.3797 151.359 53.3835C151.348 53.3872 151.336 53.3882 151.324 53.3865H147.533C147.521 53.3882 147.51 53.3872 147.498 53.3835C147.487 53.3797 147.476 53.3735 147.468 53.3651C147.459 53.3567 147.453 53.3465 147.45 53.3352C147.446 53.3239 147.444 53.3119 147.446 53.3V47.3156C147.444 47.3036 147.445 47.2914 147.449 47.2798C147.452 47.2683 147.459 47.2579 147.468 47.2493C147.476 47.2407 147.486 47.2342 147.498 47.2304C147.509 47.2267 147.521 47.2256 147.533 47.2274H151.324C151.336 47.2256 151.348 47.2267 151.359 47.2304C151.371 47.2342 151.381 47.2407 151.39 47.2493C151.398 47.2579 151.405 47.2683 151.409 47.2798C151.412 47.2914 151.414 47.3036 151.412 47.3156V47.6844C151.414 47.6963 151.412 47.7086 151.409 47.7201C151.405 47.7317 151.398 47.742 151.39 47.7507C151.381 47.7592 151.371 47.7657 151.359 47.7695C151.348 47.7732 151.336 47.7743 151.324 47.7725Z" fill="#060606"/>
<path d="M158.831 47.2274H159.287C159.299 47.2259 159.312 47.2272 159.323 47.2311C159.334 47.235 159.344 47.2415 159.352 47.2501C159.36 47.2586 159.367 47.2689 159.371 47.2803C159.374 47.2917 159.375 47.3038 159.373 47.3156V53.3C159.375 53.3118 159.374 53.3238 159.371 53.3351C159.367 53.3464 159.36 53.3567 159.352 53.3651C159.344 53.3736 159.334 53.3799 159.322 53.3836C159.312 53.3873 159.299 53.3883 159.287 53.3865H158.84C158.828 53.3882 158.816 53.3872 158.805 53.3835C158.794 53.3797 158.784 53.3735 158.775 53.3651C158.766 53.3567 158.76 53.3465 158.756 53.3352C158.752 53.3239 158.751 53.3119 158.753 53.3V48.4059C158.753 48.399 158.752 48.3919 158.749 48.3856C158.746 48.3793 158.741 48.3741 158.735 48.3706C158.724 48.3706 158.715 48.3707 158.709 48.3883L157.29 50.5883C157.28 50.6068 157.265 50.6223 157.247 50.6331C157.228 50.6439 157.208 50.6497 157.187 50.6501H156.959C156.938 50.6498 156.918 50.6449 156.9 50.6358C156.881 50.6266 156.866 50.6134 156.854 50.5972L155.426 48.4147C155.426 48.3971 155.412 48.3918 155.4 48.3971C155.395 48.4006 155.389 48.4058 155.386 48.412C155.383 48.4184 155.382 48.4254 155.382 48.4324V53.3C155.384 53.3119 155.383 53.3239 155.379 53.3352C155.375 53.3465 155.369 53.3567 155.36 53.3651C155.352 53.3735 155.342 53.3797 155.33 53.3835C155.319 53.3872 155.307 53.3882 155.295 53.3865H154.833C154.822 53.3882 154.81 53.3872 154.798 53.3835C154.787 53.3797 154.777 53.3735 154.768 53.3651C154.76 53.3567 154.754 53.3465 154.749 53.3352C154.745 53.3239 154.745 53.3119 154.745 53.3V47.3156C154.744 47.3036 154.745 47.2914 154.749 47.2798C154.753 47.2683 154.759 47.2579 154.767 47.2493C154.776 47.2407 154.786 47.2342 154.798 47.2304C154.81 47.2267 154.822 47.2256 154.833 47.2274H155.288C155.308 47.2261 155.33 47.2303 155.347 47.2397C155.366 47.2489 155.382 47.263 155.393 47.2803L157.039 49.7891C157.046 49.7954 157.056 49.7986 157.066 49.7979C157.076 49.7979 157.085 49.7948 157.092 49.7891L158.719 47.2892C158.731 47.27 158.748 47.2542 158.767 47.2433C158.787 47.2325 158.809 47.227 158.831 47.2274Z" fill="#060606"/>
<path d="M170.833 47.7725H167.621C167.616 47.7719 167.611 47.7725 167.607 47.7741C167.602 47.7756 167.598 47.7782 167.595 47.7816C167.592 47.785 167.589 47.7892 167.588 47.7936C167.586 47.7982 167.585 47.8031 167.586 47.8079V49.9815C167.586 50.0062 167.597 50.0167 167.621 50.0167H169.871C169.883 50.0153 169.895 50.0165 169.906 50.0205C169.917 50.0244 169.928 50.0309 169.936 50.0394C169.944 50.0479 169.95 50.0583 169.954 50.0697C169.958 50.081 169.959 50.0931 169.957 50.105V50.4755C169.959 50.4872 169.958 50.4993 169.954 50.5107C169.95 50.522 169.944 50.5324 169.936 50.5409C169.928 50.5495 169.917 50.556 169.906 50.5599C169.895 50.5639 169.883 50.5652 169.871 50.5636H167.621C167.597 50.5636 167.586 50.5743 167.586 50.5972V53.3C167.588 53.3119 167.586 53.3239 167.583 53.3352C167.579 53.3465 167.572 53.3567 167.563 53.3651C167.555 53.3735 167.545 53.3797 167.533 53.3835C167.522 53.3872 167.511 53.3882 167.498 53.3865H167.052C166.993 53.3865 166.965 53.3583 166.965 53.3V47.3156C166.963 47.3036 166.965 47.2914 166.968 47.2798C166.972 47.2683 166.978 47.2579 166.986 47.2493C166.995 47.2407 167.006 47.2342 167.017 47.2304C167.029 47.2267 167.041 47.2256 167.052 47.2274H170.833C170.845 47.2256 170.857 47.2267 170.869 47.2304C170.88 47.2342 170.891 47.2407 170.899 47.2493C170.908 47.2579 170.914 47.2683 170.917 47.2798C170.921 47.2914 170.922 47.3036 170.921 47.3156V47.6844C170.922 47.6963 170.921 47.7086 170.917 47.7201C170.914 47.7317 170.908 47.742 170.899 47.7507C170.891 47.7592 170.88 47.7657 170.869 47.7695C170.857 47.7732 170.845 47.7743 170.833 47.7725Z" fill="#060606"/>
<path d="M175.066 53.2118C174.761 53.056 174.506 52.8161 174.33 52.5202C174.152 52.2058 174.061 51.8484 174.07 51.4864V47.3156C174.067 47.3036 174.069 47.2914 174.072 47.2798C174.076 47.2683 174.083 47.2579 174.091 47.2493C174.1 47.2407 174.11 47.2342 174.122 47.2304C174.133 47.2267 174.145 47.2256 174.157 47.2274H174.603C174.615 47.2256 174.627 47.2267 174.638 47.2304C174.65 47.2342 174.66 47.2407 174.668 47.2493C174.677 47.2579 174.684 47.2683 174.687 47.2798C174.691 47.2914 174.692 47.3036 174.69 47.3156V51.504C174.683 51.6922 174.715 51.8799 174.785 52.0549C174.854 52.2299 174.958 52.3884 175.092 52.5202C175.388 52.7731 175.764 52.9121 176.151 52.9121C176.54 52.9121 176.915 52.7731 177.211 52.5202C177.345 52.3885 177.45 52.2301 177.519 52.055C177.588 51.88 177.621 51.6923 177.614 51.504V47.3156C177.613 47.3036 177.614 47.2914 177.618 47.2798C177.621 47.2683 177.627 47.2579 177.636 47.2493C177.645 47.2407 177.655 47.2342 177.666 47.2304C177.678 47.2267 177.69 47.2256 177.702 47.2274H178.147C178.16 47.2256 178.172 47.2267 178.183 47.2304C178.195 47.2342 178.205 47.2407 178.214 47.2493C178.222 47.2579 178.229 47.2683 178.233 47.2798C178.236 47.2914 178.238 47.3036 178.235 47.3156V51.4864C178.243 51.848 178.155 52.2052 177.978 52.5202C177.805 52.8172 177.551 53.0574 177.246 53.2118C176.905 53.3733 176.533 53.457 176.156 53.457C175.779 53.457 175.407 53.3733 175.066 53.2118Z" fill="#060606"/>
<path d="M185.508 47.2274H185.954C185.966 47.2256 185.978 47.2267 185.99 47.2304C186.001 47.2342 186.012 47.2407 186.02 47.2493C186.029 47.2579 186.035 47.2683 186.039 47.2798C186.043 47.2914 186.043 47.3036 186.042 47.3156V53.3C186.043 53.3119 186.042 53.3239 186.039 53.3352C186.034 53.3465 186.028 53.3567 186.019 53.3651C186.011 53.3735 186 53.3797 185.989 53.3835C185.978 53.3872 185.966 53.3882 185.954 53.3865H185.517C185.496 53.3863 185.475 53.3807 185.457 53.3702C185.438 53.3598 185.423 53.3447 185.412 53.3265L182.429 48.4412C182.429 48.4236 182.42 48.4165 182.402 48.42C182.39 48.42 182.385 48.4324 182.385 48.4501V53.3C182.386 53.3119 182.385 53.3239 182.381 53.3352C182.377 53.3465 182.37 53.3567 182.362 53.3651C182.353 53.3735 182.343 53.3797 182.332 53.3835C182.321 53.3872 182.308 53.3882 182.297 53.3865H181.861C181.802 53.3865 181.774 53.3583 181.774 53.3V47.3156C181.772 47.3036 181.773 47.2914 181.777 47.2798C181.78 47.2683 181.787 47.2579 181.796 47.2493C181.804 47.2407 181.814 47.2342 181.826 47.2304C181.837 47.2267 181.849 47.2256 181.861 47.2274H182.299C182.32 47.2282 182.34 47.2343 182.359 47.245C182.377 47.2558 182.393 47.271 182.403 47.2892L185.387 52.1727C185.387 52.1903 185.402 52.1974 185.414 52.1956C185.426 52.1938 185.431 52.1815 185.431 52.1638V47.3156C185.43 47.3045 185.431 47.2933 185.434 47.2827C185.437 47.2719 185.442 47.2621 185.449 47.2537C185.457 47.2454 185.466 47.2387 185.476 47.2342C185.486 47.2296 185.497 47.2272 185.508 47.2274Z" fill="#060606"/>
<path d="M189.616 53.3019V47.3174C189.614 47.3054 189.615 47.2932 189.619 47.2817C189.623 47.2701 189.63 47.2597 189.638 47.2511C189.647 47.2425 189.657 47.2361 189.669 47.2323C189.68 47.2285 189.692 47.2274 189.704 47.2292H191.77C192.27 47.2035 192.762 47.3664 193.149 47.6861C193.319 47.8421 193.453 48.0334 193.541 48.2468C193.63 48.46 193.67 48.6902 193.661 48.9211V51.684C193.67 51.915 193.63 52.1451 193.541 52.3584C193.453 52.5718 193.319 52.763 193.149 52.919C192.762 53.2395 192.27 53.4026 191.77 53.376H189.704C189.693 53.3775 189.683 53.3767 189.672 53.3736C189.662 53.3706 189.652 53.3655 189.644 53.3585C189.636 53.3515 189.629 53.3429 189.624 53.3332C189.619 53.3233 189.617 53.3127 189.616 53.3019ZM190.273 52.8432H191.796C191.962 52.8519 192.127 52.8268 192.283 52.7696C192.439 52.7122 192.581 52.6239 192.702 52.5097C192.816 52.3912 192.905 52.2503 192.963 52.0958C193.02 51.9414 193.046 51.7766 193.038 51.6117V49.0164C193.05 48.85 193.026 48.6828 192.968 48.5266C192.91 48.3703 192.818 48.2286 192.7 48.1112C192.582 47.9938 192.44 47.9036 192.284 47.8467C192.128 47.7897 191.962 47.7675 191.796 47.7814H190.273C190.268 47.7809 190.263 47.7814 190.259 47.783C190.254 47.7845 190.25 47.7871 190.247 47.7905C190.243 47.7939 190.241 47.798 190.239 47.8026C190.238 47.8071 190.237 47.8119 190.238 47.8167V52.815C190.238 52.8191 190.239 52.8232 190.242 52.8268C190.243 52.8306 190.246 52.8338 190.249 52.8364C190.252 52.8391 190.256 52.841 190.26 52.8422C190.264 52.8433 190.268 52.8437 190.273 52.8432Z" fill="#060606"/>
<path d="M50.7285 35.6296C50.6912 35.5929 50.6617 35.549 50.6422 35.5004C50.6225 35.4518 50.6131 35.3997 50.6144 35.3473V12.9285C50.6132 12.8761 50.6228 12.8241 50.6424 12.7755C50.6621 12.727 50.6913 12.683 50.7285 12.6462C50.7652 12.6091 50.809 12.5798 50.8572 12.56C50.9054 12.5403 50.9572 12.5306 51.0093 12.5316H54.0454C54.0973 12.5313 54.1488 12.5414 54.1968 12.5613C54.2448 12.5812 54.2884 12.6104 54.3251 12.6473C54.3619 12.6842 54.391 12.7281 54.4107 12.7763C54.4304 12.8246 54.4405 12.8763 54.4403 12.9285V32.2633C54.437 32.2858 54.4391 32.3088 54.4462 32.3304C54.4534 32.352 54.4655 32.3717 54.4815 32.3878C54.4975 32.4039 54.517 32.416 54.5385 32.4232C54.56 32.4304 54.5829 32.4324 54.6052 32.4291H65.6617C65.7139 32.4289 65.7656 32.4391 65.8138 32.459C65.862 32.479 65.9059 32.5084 65.9428 32.5454C65.9796 32.5825 66.0088 32.6266 66.0286 32.675C66.0485 32.7235 66.0586 32.7754 66.0584 32.8279V35.3473C66.0586 35.3997 66.0485 35.4516 66.0286 35.5002C66.0088 35.5487 65.9796 35.5927 65.9428 35.6297C65.9059 35.6668 65.862 35.6962 65.8138 35.7161C65.7656 35.7361 65.7139 35.7463 65.6617 35.746H51.0093C50.957 35.747 50.9051 35.7372 50.8568 35.7172C50.8085 35.6971 50.7648 35.6673 50.7285 35.6296Z" fill="#060606"/>
<path d="M72.9836 35.6295C72.9461 35.593 72.9164 35.5491 72.8964 35.5005C72.8765 35.452 72.8668 35.3998 72.8677 35.3472V12.9285C72.8675 12.8761 72.8777 12.8243 72.8975 12.7759C72.9174 12.7275 72.9466 12.6836 72.9835 12.6466C73.0204 12.6097 73.0642 12.5805 73.1125 12.5607C73.1606 12.541 73.2123 12.531 73.2644 12.5315H76.2988C76.3508 12.531 76.4024 12.541 76.4507 12.5607C76.4989 12.5805 76.5428 12.6097 76.5796 12.6466C76.6165 12.6836 76.6458 12.7275 76.6656 12.7759C76.6855 12.8243 76.6957 12.8761 76.6954 12.9285V35.3472C76.6957 35.3996 76.6855 35.4516 76.6657 35.5002C76.6459 35.5486 76.6166 35.5926 76.5797 35.6297C76.5428 35.6668 76.499 35.6961 76.4509 35.7161C76.4026 35.736 76.3509 35.7462 76.2988 35.746H73.2644C73.2122 35.747 73.1602 35.7372 73.1119 35.7171C73.0636 35.6971 73.0199 35.6673 72.9836 35.6295Z" fill="#060606"/>
<path d="M83.7562 35.6296C83.7189 35.5929 83.6895 35.549 83.6699 35.5004C83.6503 35.4518 83.6409 35.3997 83.6422 35.3473V32.5245C83.6496 32.3464 83.7068 32.1739 83.8071 32.0269L94.9233 16.0425C94.943 16.0275 94.957 16.0062 94.9631 15.9822C94.9691 15.9581 94.9669 15.9327 94.9566 15.9101C94.9436 15.8874 94.9241 15.8689 94.9007 15.857C94.8774 15.845 94.8511 15.8403 94.825 15.8431H84.0283C83.9763 15.8433 83.9249 15.8333 83.8769 15.8134C83.8289 15.7935 83.7852 15.7643 83.7485 15.7274C83.7118 15.6904 83.6827 15.6466 83.663 15.5984C83.6432 15.5501 83.6331 15.4984 83.6334 15.4462V12.9285C83.6323 12.8761 83.6418 12.8241 83.6614 12.7755C83.681 12.727 83.7103 12.683 83.7475 12.6462C83.7842 12.6091 83.8279 12.5798 83.8762 12.56C83.9244 12.5403 83.9762 12.5306 84.0283 12.5316H98.8738C98.9259 12.5311 98.9775 12.541 99.0257 12.5608C99.074 12.5805 99.1178 12.6097 99.1547 12.6467C99.1916 12.6836 99.2208 12.7275 99.2407 12.7759C99.2605 12.8243 99.2707 12.8762 99.2704 12.9285V15.7514C99.2627 15.9297 99.2049 16.1022 99.1037 16.2489L87.9876 32.2333C87.9676 32.2481 87.9534 32.2694 87.9474 32.2935C87.9413 32.3176 87.9437 32.3431 87.9542 32.3657C87.9668 32.3889 87.9861 32.4078 88.0096 32.4198C88.0332 32.4317 88.0597 32.4363 88.0858 32.4327H98.8738C98.926 32.4319 98.9779 32.4418 99.0261 32.4618C99.0744 32.4819 99.1181 32.5115 99.1546 32.5492C99.1918 32.586 99.2213 32.6299 99.2412 32.6784C99.2611 32.7269 99.271 32.7789 99.2704 32.8314V35.3508C99.271 35.4033 99.2611 35.4553 99.2412 35.5038C99.2213 35.5523 99.1918 35.5964 99.1546 35.6331C99.1181 35.6707 99.0744 35.7004 99.0261 35.7204C98.9779 35.7404 98.926 35.7503 98.8738 35.7496H84.0283C83.9772 35.7489 83.9269 35.738 83.8802 35.7173C83.8334 35.6967 83.7913 35.6669 83.7562 35.6296Z" fill="#060606"/>
<path d="M105.869 35.6295C105.832 35.593 105.802 35.5491 105.782 35.5005C105.762 35.452 105.753 35.3998 105.753 35.3472V32.5244C105.764 32.3453 105.825 32.1728 105.929 32.0269L117.045 16.0424C117.065 16.0275 117.079 16.0062 117.085 15.9821C117.091 15.9581 117.089 15.9327 117.079 15.9101C117.066 15.8873 117.046 15.8689 117.022 15.8569C116.999 15.845 116.973 15.8403 116.947 15.8431H106.157C106.105 15.8433 106.054 15.8332 106.006 15.8134C105.957 15.7935 105.914 15.7643 105.877 15.7274C105.84 15.6905 105.811 15.6467 105.791 15.5985C105.771 15.5502 105.761 15.4984 105.761 15.4461V12.9285C105.76 12.8761 105.77 12.8243 105.79 12.7759C105.81 12.7275 105.839 12.6836 105.876 12.6466C105.913 12.6097 105.957 12.5805 106.005 12.5607C106.053 12.541 106.105 12.531 106.157 12.5315H121.003C121.055 12.531 121.106 12.541 121.155 12.5607C121.203 12.5805 121.247 12.6097 121.283 12.6466C121.321 12.6836 121.35 12.7275 121.369 12.7759C121.39 12.8243 121.399 12.8761 121.399 12.9285V15.7514C121.389 15.9305 121.328 16.1031 121.224 16.2489L110.107 32.2333C110.088 32.2479 110.073 32.2691 110.067 32.2933C110.061 32.3175 110.063 32.3432 110.074 32.3656C110.087 32.3889 110.106 32.4078 110.13 32.4197C110.154 32.4317 110.18 32.4362 110.206 32.4326H120.994C121.046 32.4318 121.098 32.4418 121.146 32.4618C121.195 32.4818 121.239 32.5115 121.275 32.5491C121.312 32.5859 121.342 32.6298 121.361 32.6783C121.382 32.7268 121.391 32.7789 121.39 32.8314V35.3508C121.391 35.4032 121.382 35.4553 121.361 35.5038C121.342 35.5523 121.312 35.5963 121.275 35.6331C121.239 35.6706 121.195 35.7004 121.146 35.7203C121.098 35.7404 121.046 35.7503 120.994 35.7495H106.157C106.104 35.7511 106.05 35.7411 106 35.7205C105.951 35.6998 105.906 35.6688 105.869 35.6295Z" fill="#060606"/>
<path d="M137.553 17.4085C137.531 17.3203 137.498 17.2762 137.454 17.2762C137.41 17.2762 137.377 17.3203 137.353 17.4085L131.878 35.4166C131.859 35.5143 131.804 35.6015 131.725 35.6623C131.646 35.7232 131.549 35.7537 131.45 35.7483H128.158C128.102 35.7525 128.047 35.7442 127.996 35.7241C127.945 35.7039 127.898 35.6724 127.861 35.6318C127.826 35.5807 127.804 35.5215 127.798 35.4598C127.793 35.398 127.803 35.3358 127.828 35.279L134.987 12.8619C135.006 12.7639 135.061 12.6765 135.14 12.6156C135.219 12.5547 135.317 12.5244 135.416 12.5303H139.539C139.638 12.5244 139.737 12.5547 139.815 12.6156C139.894 12.6765 139.949 12.7639 139.969 12.8619L147.164 35.279C147.188 35.3309 147.199 35.3877 147.198 35.4448C147.198 35.6442 147.077 35.7447 146.835 35.7447H143.524C143.425 35.7502 143.327 35.7198 143.248 35.659C143.169 35.5981 143.115 35.5109 143.095 35.413L137.553 17.4085Z" fill="#060606"/>
<path d="M166.504 35.4476L162.148 25.8975C162.133 25.858 162.105 25.8243 162.07 25.8007C162.036 25.777 161.994 25.7647 161.952 25.7652H157.993C157.97 25.7619 157.947 25.7639 157.926 25.7712C157.904 25.7783 157.884 25.7904 157.869 25.8065C157.853 25.8227 157.841 25.8423 157.833 25.8639C157.826 25.8855 157.824 25.9085 157.828 25.931V35.3488C157.828 35.401 157.818 35.4528 157.798 35.5012C157.778 35.5496 157.749 35.5936 157.712 35.6306C157.676 35.6677 157.632 35.6971 157.584 35.7171C157.536 35.7371 157.485 35.7474 157.433 35.7474H154.396C154.344 35.7477 154.293 35.7375 154.244 35.7175C154.197 35.6976 154.153 35.6682 154.116 35.6311C154.08 35.594 154.05 35.5499 154.031 35.5015C154.011 35.453 154.002 35.4011 154.002 35.3488V12.93C154.001 12.8776 154.01 12.8255 154.03 12.777C154.049 12.7285 154.079 12.6845 154.116 12.6477C154.153 12.6105 154.197 12.5812 154.244 12.5615C154.292 12.5418 154.344 12.5321 154.396 12.533H163.468C164.708 12.5077 165.933 12.7984 167.031 13.3781C168.046 13.9235 168.883 14.7525 169.441 15.7651C170.024 16.8473 170.319 18.063 170.297 19.2938C170.297 20.8228 169.906 22.1219 169.126 23.1911C168.322 24.2802 167.179 25.0682 165.878 25.4299C165.857 25.4291 165.836 25.435 165.818 25.4467C165.8 25.4584 165.785 25.4753 165.778 25.4952C165.767 25.5157 165.762 25.5384 165.762 25.5614C165.762 25.5844 165.767 25.607 165.778 25.6275L170.43 35.2782C170.465 35.3394 170.487 35.4073 170.495 35.4775C170.495 35.654 170.374 35.744 170.132 35.744H166.973C166.873 35.7513 166.774 35.7265 166.69 35.6731C166.606 35.6198 166.541 35.5408 166.504 35.4476ZM157.828 16.0139V22.6141C157.824 22.6367 157.826 22.6597 157.833 22.6812C157.841 22.7028 157.853 22.7225 157.869 22.7386C157.884 22.7547 157.904 22.7668 157.926 22.774C157.947 22.7812 157.97 22.7832 157.993 22.7799H162.941C163.994 22.7799 164.846 22.4648 165.497 21.8344C166.148 21.2039 166.472 20.3693 166.471 19.3308C166.471 18.2923 166.146 17.4518 165.497 16.8096C164.848 16.1674 163.996 15.847 162.941 15.8481H157.993C157.97 15.8449 157.947 15.8469 157.926 15.8541C157.904 15.8613 157.884 15.8734 157.869 15.8895C157.853 15.9056 157.841 15.9252 157.833 15.9468C157.826 15.9684 157.824 15.9914 157.828 16.0139Z" fill="#060606"/>
<path d="M192.781 15.7311C192.114 14.6874 191.157 13.8636 190.028 13.3616C188.841 12.81 187.463 12.5342 185.897 12.5342H177.848C177.796 12.5337 177.744 12.5437 177.696 12.5634C177.648 12.5832 177.605 12.6124 177.567 12.6493C177.531 12.6862 177.501 12.7302 177.481 12.7786C177.462 12.8269 177.452 12.8788 177.452 12.9312V15.3888C177.452 15.5063 177.498 15.6189 177.581 15.7019C177.663 15.785 177.775 15.8316 177.892 15.8316L186.029 15.8493C187.216 15.8493 188.162 16.2198 188.866 16.9608C189.57 17.7018 189.921 18.7015 189.919 19.9601V28.351C189.899 29.5895 189.541 30.5787 188.849 31.3185C188.156 32.0584 187.226 32.4289 186.06 32.43H181.718C181.66 32.43 181.603 32.4186 181.549 32.3961C181.496 32.3738 181.447 32.341 181.406 32.2997C181.365 32.2584 181.332 32.2094 181.31 32.1555C181.288 32.1015 181.277 32.0438 181.278 31.9854V19.2067C181.278 19.0888 181.231 18.9757 181.148 18.8924C181.065 18.8089 180.953 18.7621 180.835 18.7621H177.892C177.775 18.7621 177.662 18.8089 177.579 18.8924C177.497 18.9757 177.45 19.0888 177.45 19.2067V35.3482C177.449 35.4006 177.46 35.4526 177.479 35.501C177.5 35.5495 177.529 35.5936 177.566 35.6306C177.602 35.6677 177.646 35.6971 177.695 35.7171C177.743 35.737 177.795 35.7471 177.847 35.7469H185.897C187.315 35.7761 188.723 35.4931 190.021 34.9177C191.15 34.4147 192.107 33.5903 192.775 32.5465C193.439 31.4666 193.777 30.2164 193.749 28.9473V19.3302C193.778 18.0618 193.443 16.8118 192.781 15.7311Z" fill="#060606"/>
<path d="M40.0331 23.8397C39.8998 23.7745 39.8998 23.7074 40.0331 23.6421C42.0549 22.7353 43.0663 21.121 43.0676 18.7992C43.0676 16.6997 42.4188 15.13 41.1212 14.0903C39.8237 13.0505 37.9763 12.5318 35.5789 12.5342H27.5288C27.4768 12.534 27.4254 12.5441 27.3774 12.5639C27.3293 12.5838 27.2857 12.613 27.249 12.6499C27.2123 12.6868 27.1832 12.7307 27.1635 12.779C27.1437 12.8272 27.1336 12.879 27.1339 12.9312V15.3888C27.1339 15.5063 27.1803 15.6189 27.2629 15.7019C27.3455 15.785 27.4575 15.8316 27.5744 15.8316L35.5789 15.8492C36.7489 15.8492 37.6674 16.1434 38.3343 16.7315C39.0012 17.3195 39.3364 18.1211 39.3399 19.1361C39.3399 20.1312 39.0047 20.9105 38.3343 21.4739C37.6639 22.0372 36.7454 22.3195 35.5789 22.3206H31.1914C31.1606 22.3206 31.1301 22.3146 31.1017 22.3027C31.0733 22.2907 31.0475 22.2733 31.0258 22.2513C31.0041 22.2293 30.9869 22.2033 30.9753 22.1746C30.9637 22.146 30.9578 22.1152 30.958 22.0843V19.1961C30.958 19.0782 30.9114 18.9651 30.8285 18.8817C30.7455 18.7984 30.6331 18.7515 30.5158 18.7515H27.5638C27.4465 18.7515 27.3341 18.7984 27.2511 18.8817C27.1682 18.9651 27.1216 19.0782 27.1216 19.1961V24.3885H27.1339V35.3482C27.1329 35.4007 27.1427 35.4528 27.1626 35.5014C27.1825 35.55 27.2122 35.5939 27.2497 35.6305C27.2857 35.6682 27.3291 35.698 27.3771 35.718C27.4251 35.738 27.4768 35.7479 27.5288 35.7469H35.8457C38.0898 35.7469 39.9097 35.1994 41.3055 34.1043C42.7013 33.0093 43.3969 31.412 43.3922 29.3125C43.3922 26.7261 42.2725 24.9018 40.0331 23.8397ZM38.5642 31.4685C37.8938 32.0872 36.9865 32.3965 35.8422 32.3965H31.1247C31.1025 32.3997 31.0798 32.3977 31.0585 32.3906C31.0371 32.3835 31.0177 32.3715 31.0017 32.3557C30.9858 32.3397 30.9737 32.3204 30.9664 32.299C30.9591 32.2776 30.9568 32.2548 30.9598 32.2324V25.664C30.9565 25.6415 30.9586 25.6185 30.9657 25.5969C30.9729 25.5753 30.9849 25.5556 31.0009 25.5395C31.017 25.5234 31.0365 25.5113 31.058 25.5042C31.0795 25.497 31.1023 25.4949 31.1247 25.4982H35.7772C36.9472 25.4982 37.871 25.8022 38.5484 26.4103C38.8024 26.6334 39.0162 26.8991 39.1802 27.1954C39.4572 27.7365 39.5942 28.339 39.5786 28.9473C39.5727 30.0094 39.2346 30.8499 38.5642 31.4685Z" fill="#060606"/>
</svg>
