<svg width="220" height="66" viewBox="0 0 220 66" fill="none" xmlns="http://www.w3.org/2000/svg">
<path d="M24.1423 15.7725H58.691L55.6021 42.9496H32.5024C28.2027 36.4845 25.5585 31.634 24.5597 28.3947C23.5677 25.1553 23.424 20.9479 24.1423 15.7725Z" fill="#EAEAEB"/>
<path d="M55.6019 23.8555L44.5806 30.2179V42.9496L55.6019 36.5872V23.8521V23.8555ZM54.5484 22.0289L43.5236 15.6699L32.5022 22.0323L43.527 28.3947L54.5484 22.0323V22.0289ZM42.4666 30.2179L36.4907 26.7665V32.4448L39.7746 34.3432V38.2017L36.4292 36.2725V32.5577L31.4487 29.6843V36.5838L42.47 42.9462V30.2214L42.4666 30.2179ZM31.4453 23.8555V26.7631L33.9697 28.2237V25.3161L31.4453 23.8555V19.9902L28.0999 18.0643V21.9297L31.4453 23.8555ZM28.9824 25.4701L24.5595 22.9217V28.0321L28.9858 30.5874V25.4769L28.9824 25.4701ZM66.9346 12.5229V12.5434C66.9346 30.2624 58.1708 46.8355 43.527 56.8067C28.8798 46.8321 20.116 30.2624 20.116 12.5434V12.5229C35.4064 8.08287 51.6442 8.08287 66.9346 12.5229ZM18.3715 18.6459L16.1139 17.3392V19.9457L18.3715 21.2456V18.6459ZM14.3693 19.1589L11 17.2092V21.1019L14.3693 23.0517V19.1521V19.1589ZM20.116 32.9989L14.3693 29.6809V23.0448L20.116 26.3629V32.9989Z" fill="#060606"/>
<path d="M79.3514 32.4455V36.9608H82.7584C84.7082 36.9608 85.5291 36.5024 85.5291 34.7818C85.5291 32.921 84.5987 32.4455 82.7823 32.4455H79.3514ZM79.3514 25.3784V29.8868H81.6706C84.2122 29.8868 85.1426 29.5927 85.1426 27.6874C85.1426 25.8539 84.2327 25.3784 82.0982 25.3784H79.3548H79.3514ZM88.748 27.1435C88.748 29.5927 88.0467 30.7694 86.1825 31.1114V31.1798C88.4538 31.4535 89.1345 32.832 89.1345 35.2573C89.1345 38.9516 87.2531 40.0599 83.0115 40.0599C81.1473 40.0599 78.1303 39.9915 76.136 39.8341C75.8624 39.8102 75.7939 39.7418 75.7939 39.516V22.8437C75.7939 22.594 75.8624 22.5495 76.136 22.5256C78.1303 22.3443 80.6034 22.2759 82.4642 22.2759C86.8666 22.2759 88.748 23.5005 88.748 27.1469V27.1435Z" fill="#060606"/>
<path d="M94.2651 22.272C94.4909 22.272 94.6072 22.3849 94.6072 22.614V39.3581C94.6072 39.6044 94.4909 39.7173 94.2651 39.7173H91.5286C91.3028 39.7173 91.1865 39.6044 91.1865 39.3581V22.614C91.1865 22.3849 91.3028 22.272 91.5286 22.272H94.2651Z" fill="#060606"/>
<path d="M100.399 33.5603C100.399 36.4336 100.741 37.1417 102.817 37.1417C104.914 37.1417 105.256 36.4336 105.256 33.5603C105.256 30.6869 104.914 29.9789 102.817 29.9789C100.741 29.9789 100.399 30.6869 100.399 33.5603ZM108.632 33.5603C108.632 38.7597 107.562 40.0595 102.817 40.0595C98.0966 40.0595 97.002 38.7597 97.002 33.5603C97.002 28.3369 98.0966 27.061 102.817 27.061C107.562 27.061 108.632 28.3369 108.632 33.5603Z" fill="#060606"/>
<path d="M120.215 27.3586C120.468 27.4031 120.605 27.516 120.605 27.8136V29.6163C120.605 29.866 120.468 29.9789 120.215 29.9789H116.486C114.39 29.9789 114.068 30.6869 114.068 33.5603C114.068 36.4097 114.386 37.1417 116.486 37.1417H120.215C120.465 37.1417 120.602 37.2546 120.602 37.4838V39.307C120.602 39.5806 120.465 39.6935 120.212 39.7414C118.98 40.0151 117.338 40.0595 116.483 40.0595C111.619 40.0595 110.682 38.7597 110.682 33.5603C110.682 28.3369 111.619 27.061 116.486 27.061C117.335 27.061 118.984 27.1055 120.215 27.3586Z" fill="#060606"/>
<path d="M125.633 22.272C125.856 22.272 125.965 22.4088 125.965 22.6311V31.4222L129.163 27.3174C129.276 27.1806 129.437 27.0951 129.635 27.0951H132.652C133.056 27.0951 133.056 27.2764 132.858 27.5227L129.249 32.055L133.833 39.1084C133.99 39.4026 134.058 39.7173 133.456 39.7173H130.638C130.412 39.7173 130.234 39.6284 130.145 39.471L125.962 32.8213V39.3547C125.962 39.6044 125.852 39.7173 125.626 39.7173H122.986C122.763 39.7173 122.65 39.6044 122.65 39.3581V22.6311C122.65 22.4088 122.763 22.272 122.986 22.272H125.62" fill="#060606"/>
<path d="M146.02 22.7264C146.301 22.8154 146.437 22.9317 146.437 23.1369V24.967C146.437 25.2611 146.301 25.3774 146.003 25.3774H140.564C139.169 25.3774 138.457 25.8563 138.457 26.8483V27.1664C138.457 27.9634 138.775 28.4834 139.808 28.8699L144.094 30.5221C146.297 31.3875 147.282 32.4513 147.282 35.0818V35.7147C147.282 39.0669 144.649 40.0657 140.681 40.0657C138.984 40.0657 137.171 39.9289 135.016 39.5868C134.718 39.5184 134.626 39.3816 134.626 39.0908V37.3703C134.626 37.0966 134.763 36.9598 135.06 36.9598H141.573C142.952 36.9598 143.66 36.5493 143.66 35.5573V35.2631C143.66 34.2882 143.205 33.8333 142.011 33.3818L137.54 31.7262C135.642 31.0249 134.818 29.7319 134.818 27.1083V26.6054C134.818 23.2532 137.178 22.2783 141.235 22.2783C143.14 22.2783 144.245 22.4151 146.024 22.7333" fill="#060606"/>
<path d="M152.403 32.5101H156.901C156.881 30.5056 156.354 29.9789 154.702 29.9789C152.998 29.9789 152.43 30.5056 152.41 32.5101H152.403ZM160.284 33.3995V34.1076C160.284 34.5625 160.147 34.7233 159.559 34.7233H152.427C152.471 36.7757 153.015 37.1417 154.993 37.1417H159.012C159.241 37.1417 159.354 37.2546 159.354 37.4838V39.3754C159.354 39.6251 159.241 39.7175 159.036 39.7414C157.832 39.9911 156.197 40.0595 154.698 40.0595C150.108 40.0595 148.996 38.7597 148.996 33.5603C148.996 28.3369 150.108 27.061 154.698 27.061C159.173 27.061 160.26 28.3164 160.284 33.3995Z" fill="#060606"/>
<path d="M173.625 32.4383V39.3583C173.625 39.6046 173.488 39.7175 173.262 39.7175H170.574C170.348 39.7175 170.232 39.6046 170.232 39.3583V33.2866C170.232 30.0849 169.89 29.9275 167.803 29.9275H165.727V39.3583C165.727 39.6046 165.617 39.7175 165.392 39.7175H162.679C162.45 39.7175 162.337 39.6046 162.337 39.3583V27.7794C162.337 27.5057 162.45 27.4852 162.679 27.4373C164.205 27.1055 166.407 27.061 168.118 27.061C172.486 27.061 173.625 27.8683 173.625 32.4383Z" fill="#060606"/>
<path d="M180.124 23.6576C180.356 23.5892 180.493 23.7466 180.493 23.9997V27.2562H182.624C182.881 27.2562 183.021 27.369 183.021 27.5982V29.4214C183.021 29.6472 182.884 29.7635 182.628 29.7635H180.5V35.9823C180.5 36.9606 180.849 37.1453 181.868 37.1453H182.816C183.09 37.1453 183.209 37.2342 183.209 37.4873V39.4234C183.209 39.6971 183.093 39.81 182.84 39.8544C182.029 40.0152 181.383 40.0597 180.873 40.0597C178.882 40.0597 177.076 39.9913 177.076 37.1179V29.7635H175.708C175.458 29.7635 175.342 29.6472 175.342 29.4214V27.5982C175.342 27.369 175.458 27.2562 175.711 27.2562H177.079V24.7249C177.079 24.4991 177.168 24.4102 177.401 24.3623L180.131 23.6611" fill="#060606"/>
<path d="M192.073 27.3073C192.326 27.3757 192.439 27.4647 192.439 27.752V29.5923C192.439 29.8181 192.302 29.9275 192.052 29.9275H189.907C188.72 29.9275 188.31 30.1088 188.31 31.07V39.3583C188.31 39.6046 188.197 39.7175 187.968 39.7175H185.255C185.026 39.7175 184.913 39.6046 184.913 39.3583V30.2183C184.913 27.3963 186.965 27.061 189.042 27.061C189.702 27.061 191.276 27.1294 192.073 27.3073Z" fill="#060606"/>
<path d="M205.095 27.061C205.324 27.061 205.437 27.1739 205.437 27.4031V39.5259C205.413 42.9363 204.753 44.5064 199.817 44.5064C198.165 44.5064 196.807 44.414 195.507 44.1883C195.301 44.1643 195.182 44.0754 195.182 43.8257V42.0982C195.182 41.8485 195.274 41.7562 195.503 41.7562H199.519C201.537 41.7562 202.016 41.3012 202.016 39.8064V39.6696C201.031 39.8474 200.183 39.9159 199.222 39.9159C195.048 39.9159 193.807 38.3218 193.807 34.046V27.4031C193.807 27.1739 193.923 27.061 194.149 27.061H196.885C197.111 27.061 197.227 27.1739 197.227 27.4031V33.4064C197.227 36.3413 197.662 36.9775 199.977 36.9775C200.552 36.9775 201.38 36.9501 202.02 36.8407V27.4031C202.02 27.1739 202.136 27.061 202.362 27.061H205.098" fill="#060606"/>
</svg>
