<svg width="220" height="66" viewBox="0 0 220 66" fill="none" xmlns="http://www.w3.org/2000/svg">
<path d="M94.7214 18.0721C92.0435 18.0676 89.412 18.7708 87.0932 20.1104V18.0721H79.5073V47.9296H87.0932V33.2088H87.0995C87.1048 31.1925 87.9107 29.2609 89.3401 27.8388C90.7694 26.4167 92.7052 25.6206 94.7214 25.6256L97.263 25.6022L102.464 18.0703L94.7214 18.0721Z" fill="#060606"/>
<path d="M120.513 25.3816L125.645 17.9469V10.415H109.294L104.092 17.946H116.432L110.079 27.1471L113.86 33.6697C115.314 32.8353 117.003 32.5038 118.665 32.7266C120.326 32.9495 121.868 33.7142 123.051 34.9023C124.234 36.0904 124.992 37.6355 125.208 39.2981C125.424 40.9608 125.085 42.6482 124.244 44.0987C123.404 45.5493 122.108 46.6821 120.558 47.3216C119.008 47.961 117.291 48.0714 115.672 47.6356C114.053 47.1998 112.623 46.2422 111.603 44.9112C110.584 43.5801 110.032 41.95 110.033 40.2734H102.464C102.449 43.169 103.26 46.0089 104.801 48.4602C106.342 50.9116 108.55 52.8728 111.166 54.1142C113.782 55.3556 116.698 55.8256 119.572 55.4692C122.445 55.1128 125.158 53.9448 127.391 52.1019C129.625 50.2591 131.287 47.8179 132.183 45.0643C133.078 42.3107 133.171 39.3588 132.449 36.5546C131.727 33.7504 130.221 31.21 128.107 29.2311C125.993 27.2523 123.359 25.9169 120.513 25.3816Z" fill="#060606"/>
<path d="M140.493 32.9847C140.496 33.7332 140.276 34.4658 139.863 35.0896C139.449 35.7134 138.86 36.2005 138.169 36.489C137.478 36.7776 136.718 36.8546 135.983 36.7105C135.249 36.5663 134.573 36.2074 134.043 35.6792C133.513 35.151 133.151 34.4772 133.004 33.7433C132.857 33.0094 132.931 32.2484 133.217 31.5565C133.502 30.8647 133.987 30.2733 134.609 29.8571C135.231 29.4409 135.963 29.2188 136.711 29.2188C137.712 29.2173 138.672 29.6131 139.381 30.3193C140.09 31.0254 140.49 31.9841 140.493 32.9847Z" fill="#060606"/>
</svg>
