<svg width="220" height="66" viewBox="0 0 220 66" fill="none" xmlns="http://www.w3.org/2000/svg">
<path d="M83.8802 47.752C98.6681 43.9939 98.6623 21.9955 83.8773 18.2461C80.1308 3.45528 58.1207 3.46692 54.3771 18.249C39.5864 21.9983 39.5893 44.0113 54.3771 47.752C58.1265 62.5428 80.1367 62.5341 83.8802 47.752ZM89.6265 23.2123C96.9157 30.1463 93.766 43.1905 84.2295 46.1276C84.346 45.3853 84.4099 44.6343 84.4158 43.8832C93.8999 40.2242 93.8999 25.7826 84.4158 22.1206C84.4071 21.3725 84.343 20.6214 84.2237 19.8762C86.2002 20.5313 88.0575 21.6462 89.6236 23.2151L89.6265 23.2123ZM80.0435 32.999C81.6911 31.3223 82.873 29.3545 83.5891 27.2614C87.6878 29.8261 87.6907 36.1721 83.5891 38.7366C82.8758 36.6465 81.6882 34.67 80.0435 32.999ZM79.1818 41.2779C81.8658 51.0531 68.7953 58.4674 61.8061 51.0327C57.3696 46.7652 58.016 39.2751 62.7318 35.4705C63.3402 34.8766 64.6036 33.587 65.2002 32.999C66.7461 31.4562 68.6091 29.5903 70.1519 28.0474C71.8432 26.391 73.6189 24.2573 75.875 23.4335C75.6566 24.7085 75.0802 25.969 74.1255 26.9587C74.073 27.0112 74.0119 27.0664 73.9595 27.1189C71.59 29.4884 69.0108 32.0705 66.6412 34.437C65.6544 35.4268 64.2338 36.8416 63.247 37.8313C60.0274 40.949 60.0245 46.477 63.247 49.5859C70.9903 57.0847 82.4392 45.9356 75.1617 38.0001L75.1006 37.9361L76.5416 36.4952C77.8661 37.8546 78.7422 39.4761 79.179 41.2721L79.1818 41.2779ZM53.8998 42.3171C46.2235 38.8618 46.2264 27.1479 53.8968 23.6896C53.9638 24.4029 54.0774 25.1131 54.2433 25.8147C48.7822 28.8101 48.7851 37.2025 54.2433 40.198C54.0774 40.8965 53.9638 41.6068 53.8998 42.3201V42.3171ZM53.5621 37.8517C50.4939 34.8534 51.0499 29.5699 54.6596 27.2644C55.3727 29.3545 56.5604 31.331 58.208 33.002C56.5604 34.6787 55.3786 36.6465 54.6624 38.7424C54.2724 38.4892 53.9056 38.1893 53.5621 37.8488V37.8517ZM64.1844 27.0256C63.1888 26.0447 62.5949 24.7406 62.3708 23.4422C63.5526 23.9284 64.6589 24.6415 65.6253 25.5848L64.1844 27.0256ZM62.2864 21.8558C62.33 21.1745 62.4727 20.4963 62.7172 19.85C64.6821 20.4876 66.5277 21.5763 68.0938 23.1132L66.6558 24.5514C65.375 23.3025 63.8787 22.403 62.2864 21.8528V21.8558ZM69.1243 22.0857C67.4476 20.438 65.4797 19.2562 63.3867 18.5401C65.9513 14.4414 72.2973 14.4385 74.8619 18.5401C72.7718 19.2533 70.7923 20.4439 69.1243 22.0886V22.0857ZM75.0045 16.4121C67.2554 8.9105 55.8181 20.0626 63.0869 27.9979L63.151 28.0649L61.71 29.5058C52.4559 19.6783 66.7257 5.57449 76.4455 14.9712C80.4539 18.8516 80.4568 25.7245 76.4455 29.6077C74.0788 31.9744 71.4997 34.5535 69.1302 36.9231C67.0516 38.8676 65.0839 41.5195 62.3766 42.5617C62.5949 41.2837 63.1742 40.0379 64.1232 39.0423H64.1261C66.551 36.6203 69.1855 33.9888 71.6103 31.561C72.6 30.5713 74.0177 29.1565 75.0045 28.1667C78.227 25.0549 78.2241 19.5182 75.0045 16.4121ZM74.0701 38.9812C74.1167 39.0277 74.1575 39.0685 74.2069 39.1122C75.1122 40.1048 75.6712 41.3099 75.8808 42.5646C74.7018 42.0756 73.5927 41.3653 72.6292 40.425L74.0701 38.9841V38.9812ZM75.9651 44.1511C75.9244 44.8352 75.7817 45.5106 75.5343 46.1568C73.5723 45.5164 71.7238 44.4305 70.1577 42.8936L71.5958 41.4555C72.8766 42.7043 74.3729 43.6038 75.9623 44.1511H75.9651ZM69.0603 43.9851L69.1272 43.9211C70.804 45.5688 72.7718 46.7506 74.8648 47.4667C72.2973 51.5683 65.9513 51.5713 63.3838 47.4667C65.4506 46.7594 67.3923 45.6007 69.0574 43.9851H69.0603ZM85.7141 27.1247C85.1901 26.6006 84.6167 26.164 84.0053 25.8118C84.1713 25.1102 84.2877 24.4029 84.3518 23.6868C92.0223 27.1479 92.0223 38.8531 84.3518 42.3143C84.2877 41.601 84.1713 40.8907 84.0053 40.1892C88.6717 37.5693 89.5625 30.8624 85.7112 27.1247H85.7141ZM59.3375 12.5027C73.3511 -0.518237 92.162 20.1936 77.9883 33.002C76.8355 34.1547 75.2316 35.7587 74.0788 36.9114C70.5507 40.1339 67.433 44.71 62.726 46.1538C62.4756 45.5106 62.3358 44.8323 62.2951 44.1482C63.8583 43.6038 65.3313 42.7247 66.5946 41.5109C70.2101 37.8954 73.9624 34.146 77.5779 30.5305C82.0579 26.0621 82.0084 18.345 77.476 13.9407C66.2454 3.28062 50.1591 19.1922 60.6766 30.5364L59.2386 31.9744C53.9609 26.7287 54.0075 17.7017 59.3405 12.5027H59.3375ZM48.625 42.7917C41.3359 35.8606 44.4856 22.8077 54.0279 19.8762C53.9114 20.6186 53.8474 21.3696 53.8357 22.1206C44.3488 25.7798 44.3517 40.2329 53.8386 43.8862C53.8445 44.6372 53.9085 45.3883 54.0279 46.1306C52.0484 45.4727 50.1941 44.3636 48.6221 42.7917H48.625ZM59.3405 53.5041C53.5533 47.8975 54.1559 38.1282 60.2662 33.002C61.4189 31.8492 63.0229 30.2452 64.1756 29.0896C67.7066 25.87 70.8156 21.2852 75.5285 19.8472C75.7759 20.4934 75.9186 21.1687 75.9593 21.8528C74.3263 22.4147 72.7747 23.3636 71.4881 24.6532C69.1185 27.0228 66.5393 29.6049 64.1698 31.9714C61.9022 34.3177 58.9417 36.6407 57.9752 39.8399C53.7629 51.3733 68.8769 60.9068 77.4701 52.0603C82.0055 47.653 82.055 39.9389 77.572 35.4705L79.0101 34.0324C91.3935 47.3125 72.4981 66.0215 59.3317 53.5041H59.3405Z" fill="#060606"/>
<path fill-rule="evenodd" clip-rule="evenodd" d="M120.583 23.557H123.277V42.4502H120.583V23.557ZM111.134 31.951C110.973 31.7279 110.933 31.4513 111.004 31.2025C111.046 31.0556 111.127 30.9185 111.246 30.8077L119.012 23.557H115.175L109.546 28.9875L106.279 32.1399H106.007V23.557H103.313V42.4502H106.007V36.4574C106.007 35.976 106.207 35.5161 106.559 35.1876L108.053 33.7918C108.199 33.6562 108.376 33.5807 108.558 33.5624C108.817 33.5362 109.084 33.6268 109.274 33.8255C109.303 33.8565 109.331 33.89 109.356 33.9261L115.366 42.4502H118.712L111.134 31.951ZM138.332 39.5078C138.332 39.5975 138.259 39.6702 138.169 39.6702C138.15 39.6702 138.131 39.6669 138.115 39.6608C138.071 39.6454 138.036 39.6123 138.018 39.5684L131.584 23.557H126.986V42.4502H129.68V26.4993C129.68 26.4097 129.752 26.337 129.842 26.337C129.861 26.337 129.879 26.3403 129.897 26.3465C129.94 26.3618 129.975 26.3949 129.993 26.4389L136.427 42.4502H141.025V23.557H138.332V39.5078ZM143.265 23.557V25.9591H148.545C148.758 25.9591 148.953 26.0358 149.104 26.163C149.293 26.3223 149.413 26.5611 149.413 26.8278V42.4502H152.107V26.8278C152.107 26.5611 152.227 26.3223 152.417 26.163C152.568 26.0358 152.763 25.9591 152.976 25.9591H158.256V23.557H143.265ZM158.464 28.5651C157.776 29.8942 157.387 31.4035 157.387 33.0036C157.387 38.3408 161.714 42.6674 167.051 42.6674C172.388 42.6674 176.715 38.3408 176.715 33.0036C176.715 27.6665 172.388 23.3398 167.051 23.3398C164.696 23.3398 162.538 24.182 160.861 25.5815C160.716 25.7033 160.573 25.8292 160.435 25.9591C159.64 26.7064 158.971 27.587 158.464 28.5651ZM167.051 40.0614C170.949 40.0614 174.109 36.9016 174.109 33.0036C174.109 29.1057 170.949 25.9458 167.051 25.9458C163.153 25.9458 159.993 29.1057 159.993 33.0036C159.993 36.9016 163.153 40.0614 167.051 40.0614Z" fill="#060606"/>
</svg>
