<svg width="220" height="66" viewBox="0 0 220 66" fill="none" xmlns="http://www.w3.org/2000/svg">
<path d="M217 39.0219C217 39.8873 216.826 40.6322 216.478 41.2567C216.139 41.8812 215.675 42.3987 215.086 42.8091C214.497 43.2105 213.801 43.5049 212.998 43.6923C212.204 43.8886 211.352 43.9867 210.442 43.9867C209.559 43.9867 208.734 43.893 207.967 43.7057C207.199 43.5183 206.521 43.2284 205.932 42.8358C205.353 42.4433 204.875 41.9481 204.501 41.3504C204.126 40.7437 203.894 40.0256 203.805 39.1959H206.976C207.039 39.5973 207.168 39.9542 207.364 40.2664C207.57 40.5698 207.824 40.824 208.127 41.0292C208.439 41.2344 208.792 41.3905 209.184 41.4976C209.577 41.5957 210.001 41.6448 210.456 41.6448C210.875 41.6448 211.281 41.6002 211.673 41.511C212.066 41.4218 212.409 41.2835 212.704 41.0961C213.007 40.9088 213.248 40.6768 213.427 40.4003C213.614 40.1148 213.708 39.7802 213.708 39.3966C213.708 39.0933 213.632 38.8301 213.48 38.607C213.328 38.3751 213.123 38.1788 212.864 38.0182C212.606 37.8487 212.302 37.706 211.954 37.59C211.615 37.474 211.259 37.3714 210.884 37.2822L208.756 36.7737C207.962 36.5863 207.271 36.3722 206.682 36.1313C206.102 35.8904 205.62 35.6094 205.237 35.2882C204.862 34.9671 204.581 34.5968 204.394 34.1775C204.215 33.7582 204.126 33.2764 204.126 32.7322C204.126 31.956 204.286 31.2825 204.608 30.7115C204.938 30.1316 205.384 29.6543 205.946 29.2796C206.508 28.896 207.168 28.6105 207.926 28.4231C208.685 28.2358 209.501 28.1421 210.375 28.1421C211.268 28.1421 212.075 28.2447 212.798 28.4499C213.52 28.6551 214.14 28.945 214.658 29.3197C215.184 29.6944 215.599 30.1494 215.902 30.6847C216.215 31.2111 216.406 31.7955 216.478 32.4378H213.306C213.154 31.7955 212.815 31.3048 212.289 30.9658C211.763 30.6178 211.067 30.4438 210.201 30.4438C209.818 30.4438 209.456 30.4795 209.117 30.5509C208.778 30.6223 208.484 30.7338 208.234 30.8855C207.984 31.0282 207.784 31.2156 207.632 31.4475C207.489 31.6706 207.418 31.9427 207.418 32.2638C207.418 32.5761 207.494 32.8437 207.645 33.0668C207.797 33.2809 207.993 33.4682 208.234 33.6288C208.475 33.7805 208.738 33.9054 209.024 34.0035C209.318 34.0927 209.599 34.1686 209.867 34.231L213.025 34.9804C213.587 35.1143 214.105 35.2838 214.577 35.489C215.059 35.6852 215.474 35.9395 215.822 36.2518C216.179 36.564 216.46 36.9476 216.665 37.4026C216.87 37.8576 216.982 38.3974 217 39.0219Z" fill="#060606"/>
<path d="M193.293 43.5588V28.5438H196.411V31.595H196.465C196.902 30.5512 197.566 29.7259 198.459 29.1193C199.333 28.5215 200.314 28.2227 201.403 28.2227C201.545 28.2227 201.706 28.2316 201.884 28.2494C202.072 28.2583 202.228 28.2806 202.353 28.3163V31.421C202.183 31.3853 201.991 31.363 201.777 31.3541C201.563 31.3363 201.349 31.3273 201.135 31.3273C199.663 31.3273 198.534 31.7868 197.749 32.7057C196.973 33.6336 196.585 34.829 196.585 36.2922V43.5588H193.293Z" fill="#060606"/>
<path d="M189.873 36.0644C189.873 37.2064 189.699 38.2591 189.352 39.2226C189.012 40.1861 188.5 41.0292 187.813 41.7519C187.143 42.4745 186.349 43.0276 185.431 43.4113C184.521 43.7949 183.486 43.9867 182.326 43.9867C180.087 43.9867 178.275 43.2551 176.893 41.792C175.51 40.311 174.818 38.4018 174.818 36.0644C174.818 33.718 175.501 31.8088 176.866 30.3368C178.222 28.8737 180.042 28.1421 182.326 28.1421C184.601 28.1421 186.43 28.8737 187.813 30.3368C189.186 31.8178 189.873 33.727 189.873 36.0644ZM186.568 36.0644C186.568 35.315 186.479 34.6147 186.3 33.9634C186.131 33.3032 185.868 32.7322 185.511 32.2505C185.163 31.7687 184.721 31.3895 184.186 31.113C183.651 30.8275 183.022 30.6847 182.299 30.6847C181.639 30.6847 181.05 30.8141 180.533 31.0728C180.015 31.3315 179.578 31.6973 179.221 32.1702C178.864 32.643 178.592 33.2095 178.405 33.8697C178.217 34.5299 178.124 35.2615 178.124 36.0644C178.124 36.8406 178.213 37.5588 178.391 38.2189C178.579 38.8791 178.851 39.4457 179.208 39.9185C179.565 40.3913 180.002 40.7616 180.519 41.0292C181.046 41.2969 181.648 41.4307 182.326 41.4307C183.004 41.4307 183.606 41.2969 184.132 41.0292C184.659 40.7616 185.1 40.3913 185.457 39.9185C185.823 39.4367 186.1 38.8702 186.287 38.2189C186.474 37.5588 186.568 36.8406 186.568 36.0644Z" fill="#060606"/>
<path d="M172.268 39.0219C172.268 39.8873 172.094 40.6322 171.746 41.2567C171.407 41.8812 170.943 42.3987 170.355 42.8091C169.766 43.2105 169.07 43.5049 168.267 43.6923C167.473 43.8886 166.621 43.9867 165.711 43.9867C164.828 43.9867 164.002 43.893 163.235 43.7057C162.468 43.5183 161.79 43.2284 161.201 42.8358C160.621 42.4433 160.144 41.9481 159.769 41.3504C159.394 40.7437 159.162 40.0256 159.073 39.1959H162.245C162.307 39.5973 162.437 39.9542 162.633 40.2664C162.838 40.5698 163.092 40.824 163.396 41.0292C163.708 41.2344 164.06 41.3905 164.453 41.4976C164.845 41.5957 165.269 41.6448 165.724 41.6448C166.144 41.6448 166.549 41.6002 166.942 41.511C167.335 41.4218 167.678 41.2835 167.972 41.0961C168.276 40.9088 168.517 40.6768 168.695 40.4003C168.882 40.1148 168.976 39.7802 168.976 39.3966C168.976 39.0933 168.9 38.8301 168.749 38.607C168.597 38.3751 168.392 38.1788 168.133 38.0182C167.874 37.8487 167.571 37.706 167.223 37.59C166.884 37.474 166.527 37.3714 166.152 37.2822L164.025 36.7737C163.231 36.5863 162.539 36.3722 161.95 36.1313C161.371 35.8904 160.889 35.6094 160.505 35.2882C160.13 34.9671 159.849 34.5968 159.662 34.1775C159.484 33.7582 159.394 33.2764 159.394 32.7322C159.394 31.956 159.555 31.2825 159.876 30.7115C160.206 30.1316 160.652 29.6543 161.214 29.2796C161.776 28.896 162.437 28.6105 163.195 28.4231C163.953 28.2358 164.77 28.1421 165.644 28.1421C166.536 28.1421 167.343 28.2447 168.066 28.4499C168.789 28.6551 169.409 28.945 169.926 29.3197C170.453 29.6944 170.867 30.1494 171.171 30.6847C171.483 31.2111 171.675 31.7955 171.746 32.4378H168.575C168.423 31.7955 168.084 31.3048 167.558 30.9658C167.031 30.6178 166.335 30.4438 165.47 30.4438C165.086 30.4438 164.725 30.4795 164.386 30.5509C164.047 30.6223 163.753 30.7338 163.503 30.8855C163.253 31.0282 163.052 31.2156 162.901 31.4475C162.758 31.6706 162.686 31.9427 162.686 32.2638C162.686 32.5761 162.762 32.8437 162.914 33.0668C163.066 33.2809 163.262 33.4682 163.503 33.6288C163.744 33.7805 164.007 33.9054 164.292 34.0035C164.587 34.0927 164.868 34.1686 165.135 34.231L168.294 34.9804C168.856 35.1143 169.373 35.2838 169.846 35.489C170.328 35.6852 170.743 35.9395 171.091 36.2518C171.447 36.564 171.728 36.9476 171.934 37.4026C172.139 37.8576 172.25 38.3974 172.268 39.0219Z" fill="#060606"/>
<path d="M155.694 22.0132V25.2517H152.389V22.0132H155.694ZM155.694 28.5437V43.5587H152.389V28.5437H155.694Z" fill="#060606"/>
<path d="M139.161 28.5435L142.894 40.2797H142.961L146.655 28.5435H149.947L144.674 43.5584H141.048L135.668 28.5435H139.161Z" fill="#060606"/>
<path d="M133.359 22.8159V43.5585H130.228V41.3102H130.174C129.951 41.7295 129.67 42.1087 129.331 42.4477C129.001 42.7778 128.626 43.0588 128.207 43.2908C127.797 43.5138 127.346 43.6834 126.856 43.7993C126.365 43.9242 125.856 43.9867 125.33 43.9867C124.224 43.9867 123.251 43.7681 122.413 43.331C121.574 42.8938 120.869 42.3094 120.298 41.5779C119.736 40.8374 119.312 39.9854 119.027 39.0219C118.741 38.0494 118.599 37.0324 118.599 35.9707C118.599 34.9893 118.732 34.0303 119 33.0935C119.277 32.1478 119.692 31.3092 120.245 30.5776C120.798 29.8461 121.489 29.2573 122.319 28.8112C123.158 28.3651 124.143 28.1421 125.276 28.1421C125.767 28.1421 126.244 28.2001 126.708 28.316C127.181 28.4231 127.623 28.5837 128.033 28.7978C128.444 29.0119 128.814 29.284 129.144 29.6141C129.483 29.9353 129.768 30.31 130 30.7382H130.054V22.8159H133.359ZM121.877 36.0376C121.877 36.6443 121.949 37.2688 122.091 37.9111C122.243 38.5446 122.484 39.1245 122.814 39.6508C123.144 40.1683 123.568 40.5965 124.085 40.9355C124.612 41.2656 125.245 41.4307 125.986 41.4307C126.664 41.4307 127.261 41.3013 127.779 41.0426C128.305 40.7749 128.742 40.4047 129.09 39.9319C129.438 39.4501 129.701 38.8791 129.88 38.2189C130.058 37.5587 130.148 36.8272 130.148 36.0242C130.148 35.3819 130.072 34.744 129.92 34.1106C129.777 33.4682 129.541 32.8972 129.211 32.3976C128.881 31.8891 128.448 31.4787 127.913 31.1665C127.386 30.8453 126.74 30.6847 125.972 30.6847C125.241 30.6847 124.616 30.8408 124.099 31.1531C123.59 31.4564 123.171 31.8623 122.841 32.3709C122.511 32.8705 122.27 33.4414 122.118 34.0838C121.967 34.7172 121.886 35.3685 121.877 36.0376Z" fill="#060606"/>
<path d="M113.653 43.5586L111.967 38.5804H103.857L102.144 43.5586H98.6514L105.69 24.0205H110.321L117.226 43.5586H113.653ZM107.979 26.5498H107.925L104.714 35.9709H111.097L107.979 26.5498Z" fill="#060606"/>
<path d="M83.3823 28.1421C84.3636 28.1421 85.1978 28.267 85.8848 28.5168C86.5806 28.7666 87.1472 29.1368 87.5843 29.6275C88.0304 30.1182 88.3516 30.7338 88.5478 31.4743C88.753 32.2058 88.8556 33.0578 88.8556 34.0303V43.5585H85.5636V34.6459C85.5636 33.3701 85.3227 32.4066 84.8409 31.7553C84.3592 31.104 83.5785 30.7784 82.499 30.7784C81.25 30.7784 80.3133 31.1709 79.6888 31.956C79.0643 32.7411 78.752 33.8474 78.752 35.2748V43.5585H75.46V28.5436H78.6182V30.8185H78.6985C78.9304 30.3903 79.2115 30.0111 79.5416 29.6811C79.8717 29.351 80.2374 29.0744 80.6389 28.8514C81.0404 28.6194 81.4731 28.4454 81.937 28.3294C82.4009 28.2045 82.8827 28.1421 83.3823 28.1421Z" fill="#060606"/>
<path d="M65.2551 28.1421C66.4238 28.1421 67.4453 28.3607 68.3196 28.7978C69.2028 29.2261 69.9389 29.8104 70.5277 30.5509C71.1165 31.2914 71.5581 32.1568 71.8525 33.1471C72.147 34.1284 72.2942 35.1678 72.2942 36.2651V36.8673H61.2136C61.2315 37.5454 61.3341 38.1654 61.5214 38.7275C61.7088 39.2806 61.972 39.7579 62.311 40.1594C62.65 40.5608 63.0604 40.8731 63.5421 41.0961C64.0239 41.3192 64.5726 41.4307 65.1882 41.4307C66.0803 41.4307 66.8208 41.2567 67.4096 40.9088C68.0074 40.5608 68.4757 40.1014 68.8148 39.5304H71.9328C71.6741 40.2174 71.3306 40.8374 70.9024 41.3905C70.4742 41.9348 69.9701 42.4031 69.3902 42.7957C68.8103 43.1793 68.1635 43.4737 67.4498 43.6789C66.736 43.8841 65.9643 43.9867 65.1346 43.9867C64.0105 43.9867 62.9979 43.7904 62.0969 43.3979C61.2047 43.0053 60.4464 42.4611 59.8219 41.7653C59.2063 41.0605 58.7334 40.2263 58.4033 39.2628C58.0733 38.2903 57.9082 37.2242 57.9082 36.0644C57.9082 35.0027 58.0733 33.9946 58.4033 33.04C58.7334 32.0765 59.2107 31.2334 59.8353 30.5108C60.4687 29.7881 61.2404 29.2127 62.1504 28.7844C63.0604 28.3562 64.0953 28.1421 65.2551 28.1421ZM68.9887 34.6459C68.9263 34.0571 68.8014 33.5218 68.614 33.04C68.4267 32.5493 68.1724 32.13 67.8512 31.7821C67.539 31.4341 67.1554 31.1665 66.7004 30.9791C66.2543 30.7829 65.7368 30.6847 65.148 30.6847C64.5592 30.6847 64.0328 30.7829 63.5689 30.9791C63.1139 31.1754 62.7214 31.4475 62.3913 31.7955C62.0701 32.1434 61.8069 32.5627 61.6017 33.0534C61.4054 33.5351 61.2761 34.066 61.2136 34.6459H68.9887Z" fill="#060606"/>
<path d="M54.5964 22.0132V25.2517H51.291V22.0132H54.5964ZM54.5964 28.5437V43.5587H51.291V28.5437H54.5964Z" fill="#060606"/>
<path d="M39.8691 43.5588V28.5438H42.9872V31.595H43.0407C43.4779 30.5512 44.1425 29.7259 45.0347 29.1193C45.909 28.5215 46.8904 28.2227 47.9788 28.2227C48.1215 28.2227 48.2821 28.2316 48.4606 28.2494C48.6479 28.2583 48.804 28.2806 48.9289 28.3163V31.421C48.7594 31.3853 48.5676 31.363 48.3535 31.3541C48.1394 31.3363 47.9253 31.3273 47.7112 31.3273C46.2391 31.3273 45.1105 31.7868 44.3254 32.7057C43.5493 33.6336 43.1612 34.829 43.1612 36.2922V43.5588H39.8691Z" fill="#060606"/>
<path d="M37.0244 43.5585C36.6408 43.6566 36.3063 43.7235 36.0208 43.7592C35.7353 43.7949 35.4364 43.8127 35.1242 43.8127C34.7762 43.8127 34.455 43.7771 34.1606 43.7057C33.8662 43.6343 33.6075 43.5183 33.3845 43.3577C33.1703 43.1882 32.9919 42.9652 32.8492 42.6886C32.7064 42.4121 32.6127 42.073 32.5681 41.6716H32.528C32.2157 42.073 31.8678 42.4254 31.4842 42.7288C31.1095 43.0232 30.7125 43.2596 30.2931 43.438C29.4367 43.8038 28.4375 43.9867 27.2955 43.9867C25.7521 43.9867 24.5209 43.5986 23.602 42.8225C22.6831 42.0641 22.2236 40.9623 22.2236 39.517C22.2236 38.0807 22.6786 37.0012 23.5886 36.2785C23.9633 35.9841 24.4049 35.7432 24.9135 35.5559C25.422 35.3685 25.9751 35.2169 26.5729 35.1009C27.1706 34.9849 27.7951 34.8912 28.4464 34.8198C29.1066 34.7396 29.7712 34.6593 30.4404 34.579C30.7169 34.5433 30.9712 34.4898 31.2031 34.4184C31.444 34.347 31.6492 34.2444 31.8187 34.1106C31.9882 33.9768 32.1176 33.8073 32.2068 33.6021C32.305 33.3969 32.354 33.1471 32.354 32.8527C32.354 32.0586 32.1176 31.4609 31.6448 31.0594C31.1719 30.649 30.3734 30.4438 29.2493 30.4438C28.2501 30.4438 27.4873 30.6446 26.961 31.046C26.4346 31.4475 26.1357 32.0006 26.0643 32.7054H22.7589C22.8303 31.9114 23.0444 31.2289 23.4013 30.658C23.7671 30.0781 24.2444 29.6052 24.8332 29.2394C25.422 28.8647 26.109 28.5882 26.894 28.4097C27.6791 28.2313 28.5356 28.1421 29.4634 28.1421C31.56 28.1421 33.1168 28.5213 34.1339 29.2796C35.1509 30.0379 35.6594 31.1085 35.6594 32.4913V40.5876C35.6594 40.8999 35.7174 41.1318 35.8334 41.2835C35.9583 41.4262 36.168 41.4976 36.4624 41.4976C36.5427 41.4976 36.6319 41.4887 36.73 41.4708C36.8371 41.453 36.9352 41.4262 37.0244 41.3905V43.5585ZM32.354 35.9172H32.3139C32.0998 36.1581 31.6849 36.332 31.0693 36.4391C30.766 36.4926 30.3957 36.5551 29.9586 36.6265C29.5304 36.6978 29.0397 36.7781 28.4865 36.8673C27.4695 37.0458 26.7156 37.3313 26.2249 37.7238C25.7432 38.1074 25.5023 38.6516 25.5023 39.3564C25.5023 40.1059 25.7833 40.6857 26.3454 41.0961C26.8628 41.4619 27.5275 41.6448 28.3393 41.6448C29.5527 41.6448 30.5162 41.3147 31.2299 40.6545C31.9793 39.9765 32.354 39.0308 32.354 37.8175V35.9172Z" fill="#060606"/>
<path d="M10.8286 23.9937C13.5408 23.9937 15.7087 24.8189 17.3324 26.4694C18.9561 28.1377 19.768 30.551 19.768 33.7092C19.768 36.8942 18.9651 39.3342 17.3592 41.0293C15.7622 42.7155 13.6122 43.5585 10.9089 43.5585H3V23.9937H10.8286ZM10.4405 40.668C12.2962 40.668 13.7371 40.1282 14.763 39.0487C15.8068 37.9514 16.3288 36.2518 16.3288 33.9501C16.3288 31.461 15.8024 29.6633 14.7496 28.557C13.6969 27.4418 12.0687 26.8842 9.86511 26.8842H6.42586V40.668H10.4405Z" fill="#060606"/>
</svg>
