<svg width="220" height="66" viewBox="0 0 220 66" fill="none" xmlns="http://www.w3.org/2000/svg">
<g clip-path="url(#clip0_411_213403)">
<path d="M79.1962 40.6143C85.0815 39.5637 96.2214 35.4765 93.6991 27.5334C93.3313 26.3251 91.6813 23.8455 88.0241 23.5933C88.2342 20.809 87.2358 14.7046 81.5608 12.5612C81.7185 12.1409 82.1284 11.3319 82.5066 11.458C82.9796 11.6156 87.8664 10.3548 84.7137 5.31151C83.8203 4.41843 81.1824 3.54637 77.7774 7.20274C77.0417 8.04328 75.4443 10.2287 74.9399 12.246C73.5737 12.3511 70.6206 12.7188 69.7377 13.3492C66.8477 10.775 60.0586 6.856 56.023 11.7732C55.3924 12.9289 54.9826 15.5241 58.3876 16.6589C58.9131 16.8165 60.4685 16.8165 62.4863 15.5556C63.0272 15.5556 63.93 15.7226 64.8509 16.2286C61.4353 20.207 56.5274 30.0551 64.2203 37.6199C63.0643 38.1126 60.2793 39.5834 58.3876 41.5241C57.6096 39.1992 55.6871 34.6102 54.2216 34.8528C52.7561 35.0954 53.1021 38.5928 53.4583 40.3111C53.896 41.979 55.0216 45.6481 56.023 46.9824C56.1989 51.2783 58.2108 59.961 64.8509 60.3249C66.091 60.2745 68.2354 59.4152 66.8921 56.3829L70.4031 55.4732C70.0469 56.8883 69.4872 59.8398 70.0978 60.3249C70.8611 60.9314 74.3722 62.2961 76.2041 60.7799C78.0359 59.2636 78.9948 57.2926 76.9674 56.3829C76.8083 56.3115 76.6572 56.2512 76.5141 56.2008C77.5322 56.5179 78.5984 56.8458 79.1045 56.9894C80.1732 56.6861 82.3103 55.4732 82.3103 53.0472C82.3103 50.6213 80.0714 51.0256 78.9519 51.531C80.0815 49.3072 81.712 44.0107 79.1962 40.6143Z" fill="#060606"/>
<path d="M64.8509 16.2286C63.93 15.7226 63.0272 15.5556 62.4863 15.5556C60.4685 16.8165 58.9131 16.8165 58.3876 16.6589C54.9826 15.5241 55.3924 12.9289 56.023 11.7732C60.0586 6.856 66.8477 10.775 69.7377 13.3492C70.6206 12.7188 73.5737 12.3511 74.9399 12.246C75.4443 10.2287 77.0417 8.04328 77.7774 7.20274C81.1824 3.54637 83.8203 4.41843 84.7137 5.31151C87.8664 10.3548 82.9796 11.6156 82.5066 11.458C82.1284 11.3319 81.7185 12.1409 81.5608 12.5612C87.2358 14.7046 88.2342 20.809 88.0241 23.5933C91.6813 23.8455 93.3313 26.3251 93.6991 27.5334C96.2214 35.4765 85.0815 39.5637 79.1962 40.6143C81.712 44.0107 80.0815 49.3072 78.9519 51.531C80.0714 51.0256 82.3103 50.6213 82.3103 53.0472C82.3103 55.4732 80.1732 56.6861 79.1045 56.9894C78.2497 56.7468 75.797 55.9786 74.6775 55.6247L74.9399 51.2278L74.3722 56.3829C74.5614 56.0796 75.3454 55.6551 76.9674 56.3829C78.9948 57.2926 78.0359 59.2636 76.2041 60.7799C74.3722 62.2961 70.8611 60.9314 70.0978 60.3249C69.4872 59.8398 70.0469 56.8883 70.4031 55.4732L66.8921 56.3829C68.2354 59.4152 66.091 60.2745 64.8509 60.3249C58.2108 59.961 56.1989 51.2783 56.023 46.9824C55.0216 45.6481 53.896 41.979 53.4583 40.3111C53.1021 38.5928 52.7561 35.0954 54.2216 34.8528C55.6871 34.6102 57.6096 39.1992 58.3876 41.5241C60.2793 39.5834 63.0643 38.1126 64.2203 37.6199C56.5274 30.0551 61.4353 20.207 64.8509 16.2286ZM64.8509 16.2286C65.7191 16.7056 66.6035 17.4839 67.2154 18.7077C67.0053 18.0859 66.2381 16.7198 64.8509 16.2286Z" stroke="#EAEAEB" stroke-width="1.19439"/>
<path d="M77.5879 22.0658L77.5879 22.0658C77.1273 22.2652 76.8451 22.6384 76.6828 23.0354C76.6763 23.0513 76.67 23.0673 76.6638 23.0834C76.525 21.8863 76.814 21.0601 77.5463 20.7567C77.6337 20.7394 77.91 20.7373 78.2539 21.1579C78.4083 21.3467 78.5707 21.6171 78.7216 21.9953C78.3657 21.8813 77.9784 21.8969 77.5879 22.0658Z" fill="#060606" stroke="#EAEAEB" stroke-width="1.19439"/>
<path d="M84.2123 20.1874C84.1081 20.2011 84.0028 20.2275 83.8974 20.2673C83.7938 20.3065 83.7022 20.3551 83.6211 20.4111C83.6263 20.3962 83.6318 20.3817 83.6376 20.3679C83.6931 20.2359 83.7854 20.1274 83.9695 20.0564C83.9972 20.0562 84.0875 20.0656 84.2123 20.1874Z" fill="#060606" stroke="#EAEAEB" stroke-width="1.19439"/>
<path d="M89.4127 27.4264C89.4129 27.4266 89.4129 27.4267 89.4129 27.4268C89.4115 27.4283 89.3092 27.3387 89.0034 27.3484C88.6626 27.3592 88.0998 27.4984 87.2872 28.0063L89.4127 27.4264ZM89.4127 27.4264L89.4507 27.4739L89.4901 27.5046C89.4953 27.5123 89.5073 27.5312 89.5232 27.5664C89.5547 27.636 89.5878 27.7393 89.613 27.8741C89.6634 28.1441 89.672 28.488 89.6117 28.8337C89.4897 29.5327 89.1279 30.0894 88.437 30.2437L88.437 30.2437C87.1032 30.5414 86.2523 29.8847 86.0113 29.5795C86.0029 29.5598 85.9584 29.4425 86.053 29.2135C86.1647 28.943 86.4792 28.5113 87.2872 28.0063L89.4127 27.4264Z" fill="#EAEAEB" stroke="#EAEAEB" stroke-width="1.19439"/>
<path d="M67.0174 56.263C66.1023 56.1009 64.1277 55.388 63.5498 53.8325" stroke="#EAEAEB" stroke-width="1.19439" stroke-linecap="round"/>
<path d="M85.7429 33.491C84.3469 34.3802 80.8667 35.3881 78.1143 32.3052" stroke="#EAEAEB" stroke-width="1.19439" stroke-linecap="round"/>
</g>
<path d="M162.43 37.7777V27.4582H164.465V29.9712L164.216 29.6463C164.344 29.3023 164.513 28.9902 164.723 28.7099C164.939 28.4233 165.197 28.1876 165.497 28.0028C165.752 27.8308 166.032 27.6971 166.338 27.6015C166.65 27.4996 166.968 27.4391 167.293 27.42C167.618 27.3945 167.933 27.4072 168.239 27.4582V29.6081C167.933 29.5189 167.58 29.4902 167.179 29.5221C166.784 29.5539 166.427 29.6654 166.108 29.8565C165.79 30.0285 165.529 30.2483 165.325 30.5158C165.127 30.7834 164.981 31.0891 164.885 31.4331C164.79 31.7707 164.742 32.137 164.742 32.5319V37.7777H162.43Z" fill="#060606"/>
<path d="M155.817 38.0642C154.772 38.0642 153.855 37.8381 153.065 37.3858C152.275 36.9335 151.657 36.3061 151.211 35.5034C150.772 34.7008 150.552 33.7771 150.552 32.7325C150.552 31.605 150.768 30.6271 151.202 29.799C151.635 28.9646 152.237 28.318 153.007 27.8594C153.778 27.4007 154.67 27.1714 155.683 27.1714C156.753 27.1714 157.661 27.423 158.406 27.9262C159.158 28.4231 159.715 29.127 160.078 30.0379C160.441 30.9488 160.578 32.0222 160.489 33.258H158.205V32.4171C158.199 31.296 158.002 30.4775 157.613 29.9615C157.224 29.4455 156.613 29.1875 155.778 29.1875C154.836 29.1875 154.135 29.4805 153.676 30.0666C153.218 30.6463 152.988 31.4967 152.988 32.6178C152.988 33.6625 153.218 34.4715 153.676 35.0448C154.135 35.6181 154.804 35.9048 155.683 35.9048C156.25 35.9048 156.737 35.7805 157.145 35.5321C157.559 35.2773 157.877 34.911 158.1 34.4333L160.374 35.1212C159.979 36.0513 159.368 36.7743 158.54 37.2902C157.718 37.8062 156.81 38.0642 155.817 38.0642ZM152.262 33.258V31.519H159.362V33.258H152.262Z" fill="#060606"/>
<path d="M146.491 37.7774V32.8088C146.491 32.4839 146.468 32.124 146.424 31.729C146.379 31.3341 146.274 30.9551 146.109 30.592C145.949 30.2225 145.707 29.9199 145.382 29.6842C145.064 29.4485 144.631 29.3307 144.083 29.3307C143.79 29.3307 143.5 29.3785 143.213 29.474C142.927 29.5696 142.666 29.7352 142.43 29.9709C142.201 30.2002 142.016 30.5187 141.876 30.9264C141.736 31.3277 141.665 31.8437 141.665 32.4743L140.299 31.8915C140.299 31.0124 140.468 30.2161 140.805 29.5027C141.149 28.7892 141.653 28.2223 142.315 27.8019C142.978 27.3751 143.793 27.1617 144.761 27.1617C145.526 27.1617 146.156 27.2891 146.653 27.5439C147.15 27.7987 147.545 28.1236 147.838 28.5185C148.131 28.9135 148.348 29.3339 148.488 29.7798C148.628 30.2257 148.717 30.6493 148.755 31.0506C148.8 31.4456 148.822 31.7673 148.822 32.0157V37.7774H146.491ZM139.334 37.7774V24.0181H141.388V31.2608H141.665V37.7774H139.334Z" fill="#060606"/>
<path d="M132.727 38.0642C131.721 38.0642 130.877 37.8253 130.195 37.3476C129.514 36.8698 129.001 36.2201 128.657 35.3983C128.313 34.5702 128.141 33.6434 128.141 32.6178C128.141 31.5795 128.313 30.6494 128.657 29.8277C129.001 29.006 129.504 28.3594 130.166 27.888C130.835 27.4103 131.66 27.1714 132.641 27.1714C133.616 27.1714 134.46 27.4103 135.173 27.888C135.893 28.3594 136.451 29.006 136.845 29.8277C137.24 30.6431 137.438 31.5731 137.438 32.6178C137.438 33.6497 137.244 34.5766 136.855 35.3983C136.466 36.2201 135.919 36.8698 135.212 37.3476C134.504 37.8253 133.676 38.0642 132.727 38.0642ZM127.749 42.364V27.458H129.784V34.7008H130.071V42.364H127.749ZM132.374 36.0003C132.972 36.0003 133.466 35.8506 133.855 35.5512C134.243 35.2518 134.53 34.8473 134.715 34.3377C134.906 33.8217 135.001 33.2484 135.001 32.6178C135.001 31.9935 134.906 31.4266 134.715 30.917C134.524 30.401 134.227 29.9933 133.826 29.6939C133.425 29.3882 132.915 29.2353 132.297 29.2353C131.711 29.2353 131.233 29.3786 130.864 29.6653C130.495 29.9456 130.221 30.3405 130.042 30.8501C129.87 31.3533 129.784 31.9426 129.784 32.6178C129.784 33.2867 129.87 33.8759 130.042 34.3855C130.221 34.8951 130.498 35.2932 130.874 35.5799C131.256 35.8602 131.756 36.0003 132.374 36.0003Z" fill="#060606"/>
<path d="M118.623 42.364L120.611 36.908L120.649 38.5133L116.148 27.458H118.547L121.738 35.6372H121.127L124.232 27.458H126.535L120.783 42.364H118.623Z" fill="#060606"/>
<path d="M109.167 38.0646C107.792 38.0646 106.613 37.7652 105.632 37.1664C104.651 36.5613 103.896 35.7204 103.368 34.6439C102.845 33.5673 102.584 32.3188 102.584 30.8983C102.584 29.4777 102.845 28.2292 103.368 27.1527C103.896 26.0761 104.651 25.2385 105.632 24.6397C106.613 24.0345 107.792 23.7319 109.167 23.7319C110.754 23.7319 112.075 24.1301 113.133 24.9263C114.19 25.7162 114.932 26.7832 115.359 28.1273L113.037 28.7675C112.77 27.8693 112.314 27.1686 111.671 26.6653C111.028 26.1557 110.193 25.9009 109.167 25.9009C108.244 25.9009 107.473 26.108 106.855 26.522C106.244 26.9361 105.782 27.5189 105.47 28.2706C105.164 29.0159 105.008 29.8918 105.001 30.8983C105.001 31.9047 105.154 32.7838 105.46 33.5355C105.772 34.2808 106.237 34.8604 106.855 35.2745C107.473 35.6886 108.244 35.8956 109.167 35.8956C110.193 35.8956 111.028 35.6408 111.671 35.1312C112.314 34.6216 112.77 33.9209 113.037 33.029L115.359 33.6692C114.932 35.0133 114.19 36.0835 113.133 36.8798C112.075 37.6696 110.754 38.0646 109.167 38.0646Z" fill="#060606"/>
<defs>
<clipPath id="clip0_411_213403">
<rect width="42.998" height="59.7194" fill="white" transform="translate(51.7607 3.14014)"/>
</clipPath>
</defs>
</svg>
