<svg width="220" height="66" viewBox="0 0 220 66" fill="none" xmlns="http://www.w3.org/2000/svg">
<mask id="mask0_411_213392" style="mask-type:luminance" maskUnits="userSpaceOnUse" x="34" y="14" width="152" height="38">
<path d="M185.5 14.6968H34.5V51.3028H185.5V14.6968Z" fill="white"/>
</mask>
<g mask="url(#mask0_411_213392)">
<path fill-rule="evenodd" clip-rule="evenodd" d="M142.95 18.2334C142.95 19.7224 141.701 20.9199 140.196 20.9199C138.654 20.9199 137.368 19.7224 137.368 18.2334C137.368 16.7443 138.654 15.5469 140.196 15.5469C141.701 15.5469 142.95 16.7443 142.95 18.2334ZM141.921 42.048H138.397C138.102 42.048 137.92 41.866 137.92 41.5765V24.3675C137.92 24.0779 138.104 23.896 138.397 23.896H141.921C142.251 23.896 142.398 24.0779 142.398 24.3675V41.5765C142.398 41.866 142.214 42.048 141.921 42.048ZM105.606 31.0103H114.601C114.823 31.0103 114.969 30.8655 114.931 30.6484C114.601 28.5431 112.545 27.054 109.975 27.054C107.477 27.054 105.495 28.541 105.202 30.6112C105.164 30.8283 105.348 31.0103 105.606 31.0103ZM100.651 32.8634C100.651 27.4532 104.616 23.4968 110.012 23.4968C115.262 23.4968 119.595 27.0188 119.225 33.5851C119.225 33.9864 118.932 34.2759 118.491 34.2759H105.495C105.238 34.2759 105.127 34.458 105.164 34.7124C105.348 37.0368 107.477 38.8154 110.083 38.8154C111.991 38.8154 113.608 37.9448 114.415 36.493C114.526 36.2386 114.672 36.129 114.929 36.129H118.418C118.713 36.129 118.897 36.3461 118.786 36.7101C117.721 40.1247 114.344 42.4471 110.416 42.4471C104.652 42.4471 100.651 38.5259 100.651 32.8634ZM98.6538 42.048H83.8947C83.5998 42.048 83.4157 41.866 83.422 41.5765V39.4339C83.422 39.1423 83.4952 38.8527 83.7149 38.5983L92.8188 28.0694C93.0029 27.8502 92.8564 27.5607 92.5992 27.5607H84.1917C83.8989 27.5607 83.7149 27.3787 83.7149 27.0892V24.3654C83.7149 24.0759 83.8989 23.8939 84.1917 23.8939H98.3255C98.6182 23.8939 98.8023 24.0759 98.8023 24.3654V26.4356C98.8023 26.7996 98.6914 27.0539 98.4343 27.3436L89.2927 37.8724C89.1087 38.0917 89.2927 38.3812 89.5499 38.3812H98.6538C98.9467 38.3812 99.1307 38.5632 99.1307 38.8527V41.5765C99.1307 41.866 98.9467 42.048 98.6538 42.048ZM134.396 23.8959H131.972C129.732 23.8959 128.302 24.6942 127.53 26.4004C127.31 26.872 126.685 26.7644 126.685 26.2908V24.3675C126.685 24.0779 126.501 23.8959 126.208 23.8959H123.123C122.831 23.8959 122.647 24.0779 122.647 24.3675V41.5765C122.647 41.866 122.831 42.048 123.123 42.048H126.647C126.978 42.048 127.124 41.8309 127.124 41.5765V29.3062C127.124 28.8698 127.455 28.4355 127.932 28.4355H134.392C134.685 28.4355 134.869 28.2535 134.869 27.9639V24.3695C134.873 24.0779 134.689 23.8959 134.396 23.8959ZM155.201 38.6356C152.154 38.6356 149.987 36.2386 149.987 32.8985C149.987 29.6309 152.154 27.3083 155.201 27.3083C158.249 27.3083 160.451 29.6309 160.451 32.8985C160.451 36.2386 158.246 38.6356 155.201 38.6356ZM155.237 42.4471C160.89 42.4471 164.928 38.4536 164.928 32.8634C164.928 27.418 160.89 23.4968 155.237 23.4968C149.547 23.4968 145.472 27.418 145.472 32.8634C145.472 38.4536 149.547 42.4471 155.237 42.4471ZM185.466 30.94V41.5765C185.466 41.866 185.282 42.048 184.987 42.048H181.464C181.171 42.048 180.987 41.866 180.987 41.5765V31.7383C180.987 28.9049 179.553 27.3083 177.021 27.3083C174.085 27.3083 172.506 28.9794 172.506 32.2099V41.5765C172.506 41.866 172.321 42.048 172.028 42.048H168.505C168.212 42.048 168.028 41.866 168.028 41.5765V24.3675C168.028 24.0779 168.212 23.8959 168.505 23.8959H171.589C171.882 23.8959 172.066 24.0779 172.066 24.4047V25.7842C172.066 26.2206 172.508 26.3301 172.801 25.9661C174.05 24.3675 175.995 23.4968 178.308 23.4968C182.565 23.4968 185.466 26.1109 185.466 30.94Z" fill="#060606"/>
<path fill-rule="evenodd" clip-rule="evenodd" d="M44.6717 50.6823H60.3006C65.9185 50.6823 70.4723 46.1792 70.4723 40.6239V25.1689C70.4723 19.6135 65.9185 15.1104 60.3006 15.1104L44.6717 15.1104C39.0538 15.1104 34.5 19.6135 34.5 25.1689L34.5 40.6239C34.5 46.1792 39.0538 50.6823 44.6717 50.6823ZM60.8681 39.6297C57.6675 37.6558 53.4149 35.2332 49.9191 33.3659C49.0707 32.9133 47.9353 33.0823 47.2394 34.0642C45.9412 35.8931 44.3867 38.201 43.3245 40.02C42.883 40.7565 43.4731 41.7303 44.3562 41.7303H60.1926C61.3341 41.7303 61.8122 40.3017 60.8681 39.6297ZM55.0168 32.7586C51.6392 30.978 46.9022 28.2676 43.5368 26.2193C42.497 25.5855 42.9121 24.0623 44.1248 24.0644C46.1117 24.0644 49.3404 24.0639 52.5528 24.0634C55.7328 24.0628 58.8968 24.0624 60.824 24.0624C61.7946 24.0624 62.2931 25.0563 61.8801 25.7525C60.4863 28.1006 58.9194 30.4709 57.6192 32.2395C57.0394 33.0283 55.8633 33.2053 55.0168 32.7586Z" fill="#060606"/>
</g>
</svg>
