<svg width="236" height="72" viewBox="0 0 236 72" fill="none" xmlns="http://www.w3.org/2000/svg">
<path opacity="0.2" fill-rule="evenodd" clip-rule="evenodd" d="M216.625 1.8H234.2V70.2H216.625V72H234.2H236V70.2V1.8V0H234.2H216.625V1.8ZM18.625 1.8V0H1.8H0V1.8V70.2V72H1.8H18.625V70.2H1.8V1.8H18.625Z" fill="white"/>
<g clip-path="url(#clip0_2671_83076)">
<path d="M77.8384 43.0407V29.932H82.9908C83.8222 29.932 84.5202 30.1019 85.0846 30.4417C85.649 30.7816 86.0739 31.2216 86.359 31.7617C86.6442 32.2958 86.7869 32.8602 86.7869 33.4549C86.7869 34.1771 86.6078 34.7961 86.2498 35.312C85.8978 35.8279 85.4214 36.1798 84.8206 36.368L84.8024 35.9219C85.6399 36.1283 86.2832 36.5318 86.7323 37.1327C87.1813 37.7274 87.4059 38.4223 87.4059 39.2173C87.4059 39.9881 87.2512 40.6586 86.9417 41.2291C86.6383 41.7997 86.1922 42.2457 85.6035 42.5673C85.0209 42.8829 84.3138 43.0407 83.4824 43.0407H77.8384ZM79.7683 41.2291H83.1911C83.6219 41.2291 84.0074 41.1472 84.3472 40.9833C84.6931 40.8195 84.9633 40.5858 85.1574 40.2824C85.3577 39.9729 85.4578 39.6058 85.4578 39.1809C85.4578 38.7865 85.3698 38.4314 85.1938 38.1158C85.0239 37.7942 84.7751 37.5423 84.4474 37.3602C84.1258 37.1721 83.7464 37.078 83.3094 37.078H79.7683V41.2291ZM79.7683 35.2847H82.9635C83.3156 35.2847 83.631 35.2149 83.9103 35.0753C84.1955 34.9297 84.42 34.7233 84.5839 34.4563C84.7539 34.1832 84.8388 33.8555 84.8388 33.4731C84.8388 32.9634 84.6688 32.5446 84.329 32.2169C83.9892 31.8892 83.534 31.7253 82.9635 31.7253H79.7683V35.2847ZM91.7664 43.0407V29.932H97.0645C97.1919 29.932 97.3497 29.938 97.5379 29.9502C97.7261 29.9562 97.905 29.9745 98.075 30.0048C98.8032 30.1201 99.4102 30.3689 99.8956 30.7513C100.387 31.1336 100.754 31.6161 100.997 32.1987C101.24 32.7813 101.361 33.4246 101.361 34.1286C101.361 35.1724 101.094 36.0736 100.56 36.8322C100.026 37.5848 99.225 38.0551 98.1569 38.2433L97.3831 38.3343H93.669V43.0407H91.7664ZM99.4314 43.0407L96.846 37.7062L98.7668 37.2146L101.607 43.0407H99.4314ZM93.669 36.5318H96.9917C97.113 36.5318 97.2466 36.5258 97.3922 36.5136C97.544 36.5015 97.6865 36.4802 97.8201 36.4499C98.2085 36.3589 98.521 36.192 98.7577 35.9492C98.9944 35.7004 99.1644 35.4152 99.2675 35.0935C99.3706 34.7719 99.4222 34.4502 99.4222 34.1286C99.4222 33.8069 99.3706 33.4883 99.2675 33.1727C99.1644 32.8511 98.9944 32.5689 98.7577 32.3261C98.521 32.0773 98.2085 31.9074 97.8201 31.8163C97.6865 31.7799 97.544 31.7556 97.3922 31.7435C97.2466 31.7314 97.113 31.7253 96.9917 31.7253H93.669V36.5318ZM106.157 43.0407V29.932H114.532V31.7253H108.059V35.403H113.439V37.1964H108.059V41.2473H114.532V43.0407H106.157ZM119.267 43.0407V29.932H127.642V31.7253H121.169V35.403H126.549V37.1964H121.169V41.2473H127.642V43.0407H119.267ZM132.013 43.0407V42.7403L138.704 31.7253H132.377V29.932H141.972V30.2415L135.317 41.2382H141.853V43.0407H132.013ZM146.896 43.0407V29.932H148.799V43.0407H146.896ZM154.081 43.0407V29.932H156.011L162.465 39.6725V29.932H164.395V43.0407H162.465L156.011 33.2911V43.0407H154.081ZM174.847 43.3138C173.967 43.3138 173.157 43.162 172.416 42.8586C171.676 42.5491 171.032 42.1001 170.486 41.5113C169.94 40.9226 169.515 40.2066 169.212 39.363C168.908 38.5193 168.757 37.5605 168.757 36.4863C168.757 35.0723 169.015 33.8585 169.53 32.845C170.046 31.8254 170.762 31.0426 171.679 30.4964C172.595 29.9441 173.651 29.668 174.847 29.668C176.388 29.668 177.617 30.026 178.534 30.7422C179.456 31.4583 180.084 32.4475 180.418 33.7098L178.488 34.0557C178.221 33.2729 177.79 32.6478 177.195 32.1805C176.601 31.7132 175.854 31.4765 174.956 31.4704C174.027 31.4643 173.254 31.6707 172.635 32.0894C172.022 32.5082 171.56 33.0969 171.251 33.8555C170.941 34.608 170.784 35.485 170.778 36.4863C170.771 37.4877 170.923 38.3646 171.233 39.1172C171.542 39.8636 172.007 40.4462 172.626 40.865C173.251 41.2838 174.027 41.4961 174.956 41.5022C175.702 41.5143 176.343 41.3778 176.877 41.0926C177.417 40.8013 177.845 40.3764 178.16 39.8181C178.476 39.2598 178.679 38.574 178.77 37.7608H176.221V36.2314H180.791C180.803 36.3407 180.812 36.4863 180.818 36.6684C180.825 36.8444 180.828 36.9567 180.828 37.0052C180.828 38.2189 180.594 39.3022 180.127 40.2551C179.659 41.2079 178.98 41.9574 178.088 42.5036C177.195 43.0437 176.115 43.3138 174.847 43.3138Z" fill="white"/>
<path d="M70.5516 25.5236C70.4659 25.309 70.2224 25.2048 70.0079 25.2905L67.9161 26.1272C67.8041 26.172 67.7168 26.2631 67.6768 26.377L67.1871 27.7707H63.2553C62.7293 26.2776 61.3131 25.2606 59.7046 25.2606C57.6285 25.2606 55.9395 26.9497 55.9395 29.0257C55.9395 30.9604 57.4063 32.5587 59.2862 32.7675V44.9229C59.2862 45.8456 60.0369 46.5963 60.9596 46.5963H68.0715C68.9942 46.5963 69.7449 45.8456 69.7449 44.9229C69.7449 44.4774 69.7449 28.6302 69.7449 28.1891C69.7449 27.958 69.5576 27.7707 69.3265 27.7707H68.074L68.4032 26.8336L70.3186 26.0674C70.5331 25.9815 70.6374 25.7381 70.5516 25.5236ZM66.6096 32.5456C67.1143 32.3272 67.6929 32.3275 68.1972 32.5469L68.9082 32.856V44.0862H60.1229V32.3831L60.4998 32.547C61.2173 32.859 62.0403 32.859 62.7578 32.547C63.2633 32.3272 63.843 32.3272 64.3485 32.547C64.6969 32.6985 65.0648 32.7729 65.4272 32.7795L62.2382 41.8558C62.1424 42.1283 62.3457 42.4129 62.6329 42.4129C62.8055 42.4129 62.9671 42.3052 63.0276 42.1331L66.363 32.6401C66.4471 32.6124 66.5295 32.5811 66.6096 32.5456ZM65.7263 31.9284C65.3741 31.9724 65.0123 31.9232 64.6821 31.7796C63.9646 31.4677 63.1417 31.4677 62.4242 31.7796C61.9187 31.9994 61.3389 31.9994 60.8335 31.7796L60.1229 31.4706V28.6074H66.8932L65.7263 31.9284ZM56.7761 29.0257C56.7761 27.411 58.0898 26.0973 59.7046 26.0973C60.8529 26.0973 61.8747 26.7636 62.3512 27.7707H59.7046C59.4735 27.7707 59.2862 27.958 59.2862 28.189C59.2862 28.5203 59.2862 31.3822 59.2862 31.9238C57.869 31.7201 56.7761 30.4984 56.7761 29.0257ZM68.0715 45.7595H60.9596C60.4983 45.7595 60.1229 45.3843 60.1229 44.9229H68.9082C68.9082 45.3843 68.5329 45.7595 68.0715 45.7595ZM68.9082 28.6074V31.9436L68.5308 31.7796C67.9419 31.5236 67.2977 31.4859 66.7183 31.6289L67.78 28.6073L68.9082 28.6074Z" fill="white"/>
</g>
<defs>
<clipPath id="clip0_2671_83076">
<rect width="125.455" height="24.8918" fill="white" transform="translate(55.9395 23.5542)"/>
</clipPath>
</defs>
</svg>
