<svg width="220" height="66" viewBox="0 0 220 66" fill="none" xmlns="http://www.w3.org/2000/svg">
<g clip-path="url(#clip0_515_190820)">
<mask id="mask0_515_190820" style="mask-type:luminance" maskUnits="userSpaceOnUse" x="27" y="10" width="166" height="46">
<path d="M192.993 10.3931H27V55.6071H192.993V10.3931Z" fill="white"/>
</mask>
<g mask="url(#mask0_515_190820)">
<path d="M89.7318 22.9058C90.1745 22.9058 90.3881 23.1194 90.3881 23.5619V43.0483C90.3881 43.4908 90.1745 43.7046 89.7318 43.7046H86.5274C86.0697 43.7046 85.8408 43.4908 85.8408 43.0483V23.5619C85.8408 23.1194 86.0697 22.9058 86.5274 22.9058H89.7318Z" fill="#060606"/>
<path d="M109.478 27.3926C110.806 27.3926 111.92 27.4994 112.835 27.7283C113.751 27.9572 114.468 28.3081 115.017 28.7965C115.567 29.2848 115.948 29.9104 116.192 30.6734C116.436 31.4363 116.543 32.3519 116.543 33.42V37.6927C116.543 38.7609 116.421 39.6766 116.192 40.4394C115.948 41.2024 115.567 41.8281 115.017 42.3164C114.468 42.8047 113.735 43.1557 112.835 43.3693C111.92 43.583 110.806 43.6898 109.478 43.6898H101.07C99.7273 43.6898 98.598 43.583 97.6978 43.3693C96.7974 43.1557 96.0649 42.8047 95.5307 42.3164C94.9815 41.8281 94.6 41.2024 94.3558 40.4394C94.127 39.6766 94.0049 38.7609 94.0049 37.6927V33.42C94.0049 32.3519 94.127 31.4363 94.3558 30.6734C94.6 29.9104 94.9815 29.2848 95.5307 28.7965C96.0802 28.3081 96.7974 27.9572 97.6978 27.7283C98.598 27.4994 99.7273 27.3926 101.07 27.3926H109.478ZM98.2317 36.9603C98.2317 37.6012 98.2776 38.1201 98.3844 38.532C98.4912 38.9441 98.6591 39.2798 98.9033 39.5239C99.1474 39.7681 99.4831 39.9511 99.895 40.0581C100.307 40.1649 100.841 40.2258 101.467 40.2258H109.051C109.707 40.2258 110.241 40.1802 110.653 40.0581C111.065 39.9511 111.401 39.7681 111.645 39.5239C111.889 39.2798 112.072 38.9441 112.164 38.532C112.255 38.1201 112.316 37.5859 112.316 36.9603V34.1372C112.316 33.5268 112.27 33.0081 112.164 32.596C112.057 32.1842 111.889 31.8484 111.645 31.589C111.401 31.3295 111.065 31.1464 110.653 31.0549C110.241 30.9633 109.707 30.9023 109.051 30.9023H101.467C100.826 30.9023 100.307 30.948 99.895 31.0549C99.4831 31.1617 99.1474 31.3295 98.9033 31.589C98.6591 31.8484 98.4759 32.1842 98.3844 32.596C98.2929 33.0081 98.2317 33.5268 98.2317 34.1372V36.9603Z" fill="#060606"/>
<path d="M142.759 22.9058C143.217 22.9058 143.445 23.1194 143.445 23.5619V26.4765C143.445 26.9343 143.217 27.1632 142.759 27.1632H133.42V43.0483C133.42 43.4908 133.206 43.7046 132.764 43.7046H129.544C129.102 43.7046 128.888 43.4908 128.888 43.0483V27.1479H119.549C119.091 27.1479 118.862 26.919 118.862 26.4612V23.5619C118.862 23.1194 119.091 22.9058 119.549 22.9058H142.759Z" fill="#060606"/>
<path d="M160.536 27.3926C161.543 27.3926 162.382 27.4689 163.054 27.6367C163.725 27.8046 164.244 28.0792 164.626 28.476C165.007 28.8575 165.282 29.361 165.45 29.9867C165.602 30.6123 165.694 31.3753 165.694 32.2604V35.0835C165.694 35.7242 165.556 36.1516 165.282 36.411C165.007 36.6552 164.58 36.7773 164 36.7773H148.985V37.4944C148.985 38.4252 149.214 39.0967 149.656 39.5086C150.098 39.9207 150.968 40.1343 152.25 40.1343H164.641C164.992 40.1343 165.175 40.3173 165.175 40.6685V43.171C165.175 43.5219 164.992 43.7051 164.641 43.7051H151.823C150.48 43.7051 149.351 43.5981 148.451 43.3845C147.55 43.171 146.833 42.82 146.284 42.3317C145.734 41.8434 145.353 41.2177 145.109 40.4547C144.865 39.6918 144.758 38.7762 144.758 37.708V33.4353C144.758 32.3672 144.88 31.4516 145.109 30.6886C145.353 29.9257 145.734 29.3 146.284 28.8117C146.833 28.3234 147.55 27.9724 148.451 27.7435C149.351 27.5147 150.48 27.4078 151.823 27.4078H160.536V27.3926ZM148.969 34.1372H161.009C161.345 34.1372 161.513 33.9695 161.513 33.6338V32.3825C161.513 31.7721 161.391 31.3295 161.131 31.0701C160.872 30.8107 160.399 30.6886 159.712 30.6886H152.25C150.968 30.6886 150.098 30.887 149.656 31.299C149.214 31.711 148.985 32.3825 148.985 33.3285V34.1372H148.969Z" fill="#060606"/>
<path d="M192.108 22.9059C192.383 22.9059 192.536 22.9974 192.566 23.1958C192.597 23.3789 192.536 23.5468 192.398 23.6841L183.273 32.9314L192.81 42.9416C192.948 43.0789 193.009 43.2469 192.978 43.4299C192.948 43.6131 192.795 43.7199 192.52 43.7199H188.446C188.202 43.7199 188.019 43.6893 187.882 43.6284C187.744 43.5672 187.607 43.4604 187.5 43.3078L180.16 35.6171L172.79 43.3078C172.653 43.4604 172.515 43.5825 172.393 43.6284C172.271 43.6893 172.073 43.7199 171.813 43.7199H167.952C167.693 43.7199 167.556 43.6284 167.525 43.4299C167.495 43.2469 167.556 43.0789 167.693 42.9416L177.475 32.7787L168.624 23.6689C168.502 23.5315 168.456 23.3637 168.471 23.1806C168.487 22.9974 168.639 22.8906 168.914 22.8906H172.988C173.232 22.8906 173.415 22.9211 173.553 22.9974C173.69 23.0585 173.827 23.1653 173.934 23.3026L180.419 30.1999L187.286 23.3026C187.408 23.1653 187.531 23.0585 187.668 22.9974C187.805 22.9211 187.988 22.8906 188.232 22.8906H192.108V22.9059Z" fill="#060606"/>
<path d="M55.9473 10.3931V21.2731L65.3776 15.8255L55.9473 10.3931Z" fill="#060606"/>
<path opacity="0.9" d="M65.3926 15.8252V26.7052L74.8231 21.2728L65.3926 15.8252Z" fill="#060606"/>
<path opacity="0.8" d="M55.9473 21.2729V32.1529L65.3929 26.7053L55.9473 21.2729Z" fill="#060606"/>
<path opacity="0.8" d="M65.3926 26.7056V37.5856L74.8231 32.1533L65.3926 26.7056Z" fill="#060606"/>
<path opacity="0.8" d="M55.9473 32.1528V43.033L65.3929 37.5854L55.9473 32.1528Z" fill="#060606"/>
<path d="M65.3926 37.5854V48.4654L74.8231 43.0331L65.3926 37.5854Z" fill="#060606"/>
<path opacity="0.4" d="M31.5322 20.9067V31.7868L40.9626 26.3391L31.5322 20.9067Z" fill="#060606"/>
<path opacity="0.2" d="M43.4346 24.9502V35.8303L52.8803 30.3826L43.4346 24.9502Z" fill="#060606"/>
<path opacity="0.3" d="M36.4453 31.8325V42.7125L45.8757 37.2649L36.4453 31.8325Z" fill="#060606"/>
<path opacity="0.9" d="M42.6562 40.0425V50.9225L52.1019 45.4748L42.6562 40.0425Z" fill="#060606"/>
<path opacity="0.7" d="M55.8555 44.7271V55.607L65.3011 50.1594L55.8555 44.7271Z" fill="#060606"/>
<path opacity="0.9" d="M45.0059 19.5791V30.4592L54.4514 25.0268L45.0059 19.5791Z" fill="#060606"/>
<path opacity="0.8" d="M55.9476 10.3931V21.2731L46.502 15.8255L55.9476 10.3931Z" fill="#060606"/>
<path opacity="0.6" d="M45.0066 15.0015V25.8815L35.5762 20.4491L45.0066 15.0015Z" fill="#060606"/>
<path opacity="0.6" d="M54.4518 20.4033V31.2834L45.0215 25.8357L54.4518 20.4033Z" fill="#060606"/>
<path opacity="0.95" d="M43.4036 24.9502V35.8303L33.958 30.3826L43.4036 24.9502Z" fill="#060606"/>
<path opacity="0.6" d="M55.9476 32.1528V43.033L46.502 37.5854L55.9476 32.1528Z" fill="#060606"/>
<path opacity="0.55" d="M36.4457 34.686V45.5507L27 40.1184L36.4457 34.686Z" fill="#060606"/>
<path d="M74.8231 21.2729V32.1529L65.3926 26.7053L74.8231 21.2729Z" fill="#060606"/>
<path opacity="0.95" d="M65.3929 26.7056V37.5856L55.9473 32.1533L65.3929 26.7056Z" fill="#060606"/>
<path opacity="0.9" d="M74.8382 32.1528V43.033L65.3926 37.5854L74.8382 32.1528Z" fill="#060606"/>
<path opacity="0.7" d="M65.3776 37.5854V48.4654L55.9473 43.0331L65.3776 37.5854Z" fill="#060606"/>
<path opacity="0.4" d="M53.8567 42.1328V53.0128L44.4111 47.5805L53.8567 42.1328Z" fill="#060606"/>
<path d="M65.3929 15.8252V26.7052L55.9473 21.2728L65.3929 15.8252Z" fill="#060606"/>
</g>
</g>
<defs>
<clipPath id="clip0_515_190820">
<rect width="166" height="45.214" fill="white" transform="translate(27 10.3931)"/>
</clipPath>
</defs>
</svg>
