<svg width="220" height="66" viewBox="0 0 220 66" fill="none" xmlns="http://www.w3.org/2000/svg">
<path d="M39.0412 24.2598C34.4303 28.9095 34.4303 36.4653 39.0412 41.1149C43.652 45.7647 51.1447 45.7647 55.7555 41.1149L52.1865 37.5159C49.5486 40.176 45.2703 40.176 42.6323 37.5159C39.9944 34.8557 39.9944 30.5413 42.6323 27.8812L39.0412 24.2598Z" fill="#060606"/>
<path d="M42.6339 27.8588C42.6117 27.8811 42.5674 27.9259 42.5452 27.9482L38.9541 24.3492C38.9763 24.3268 39.0206 24.2821 39.0428 24.2597C43.6536 19.61 51.1463 19.61 55.7572 24.2597L52.1882 27.8588C49.5502 25.1986 45.2719 25.1986 42.6339 27.8588Z" fill="url(#paint0_linear_411_213435)"/>
<path d="M172.602 25.8692C176.327 25.8692 179.364 28.9094 179.364 32.6873C179.364 36.4428 176.349 39.5054 172.602 39.5054C168.878 39.5054 165.841 36.4653 165.841 32.6873H160.787C160.787 39.2595 166.085 44.6022 172.602 44.6022C179.12 44.6022 184.418 39.2595 184.418 32.6873C184.418 26.1152 179.12 20.7725 172.602 20.7725V25.8692Z" fill="#060606"/>
<path d="M60.833 21.5547V43.909H65.9758V26.2267H71.7838L74.1335 21.5547H60.833Z" fill="#060606"/>
<path d="M96.8119 21.5547L89.3635 36.1967L81.5384 21.5547H75.6641L86.5484 41.7631L81.4941 51.7778H87.2799L102.598 21.5547H96.8119Z" fill="#060606"/>
<path d="M116.21 20.7725C111.511 20.7725 108.429 21.4431 104.86 22.2031V51.8003H110.003V44.1327C111.843 44.4009 113.816 44.6468 116.21 44.5799C123.193 44.3786 127.427 39.8408 127.427 32.7321C127.427 25.5786 122.927 20.7725 116.21 20.7725ZM118.626 39.1254C116.188 40.1536 112.42 39.4831 110.025 39.1254V26.1151C112.42 25.7351 116.121 25.0198 118.582 26.0481C120.954 27.054 122.306 29.3565 122.306 32.6873C122.328 35.9958 120.976 38.1417 118.626 39.1254Z" fill="#060606"/>
<path d="M156.374 21.5547H151.231V43.909H156.374V21.5547Z" fill="#060606"/>
<path d="M145.269 39.3931C144.16 39.5718 143.207 39.639 142.365 39.639C140.281 39.639 139.128 38.9906 139.128 35.5035V26.204H146.266V21.5543H139.128V14.1997H133.985V21.5543H127.49L129.973 26.2263H133.985V35.794C133.985 41.6284 136.645 44.5793 141.877 44.5793C143.783 44.5793 145.003 44.378 146.599 43.9757L147.574 43.7298L145.269 39.3931Z" fill="#060606"/>
<path d="M165.841 32.6873C165.841 32.7321 165.841 32.7767 165.841 32.8214L160.787 32.7767C160.787 32.7544 160.787 32.7096 160.787 32.6873C160.787 26.1152 166.085 20.7725 172.602 20.7725V25.8692C168.856 25.8692 165.841 28.9318 165.841 32.6873Z" fill="url(#paint1_linear_411_213435)"/>
<defs>
<linearGradient id="paint0_linear_411_213435" x1="55.7103" y1="24.3659" x2="42.5638" y2="24.3659" gradientUnits="userSpaceOnUse">
<stop offset="0.0587508" stop-opacity="0"/>
<stop offset="0.4516" stop-opacity="0.35"/>
<stop offset="0.9658"/>
</linearGradient>
<linearGradient id="paint1_linear_411_213435" x1="171.145" y1="19.8764" x2="163.935" y2="32.2905" gradientUnits="userSpaceOnUse">
<stop offset="0.0564" stop-opacity="0"/>
<stop offset="0.4497" stop-opacity="0.35"/>
<stop offset="0.9656"/>
</linearGradient>
</defs>
</svg>
