<svg width="220" height="66" viewBox="0 0 220 66" fill="none" xmlns="http://www.w3.org/2000/svg">
<path d="M150.17 26.6287C148.9 24.9093 146.545 24.0869 144.564 24.0869C140.078 24.0869 136.004 27.638 136.004 33.2449C136.004 38.8518 140.078 42.4402 144.564 42.4402C146.507 42.4402 148.9 41.5805 150.17 39.861V40.3469C150.17 44.8699 148.189 46.6267 145.049 46.6267C143.18 46.6267 141.386 45.812 140.639 44.2047L136.564 45.4503C138.059 48.7023 141.311 51.0001 145.049 51.0001C151.217 51.0001 155.067 47.449 155.067 39.8236V24.5355H150.17V26.6287ZM145.498 37.8799C143.031 37.8799 140.975 35.7867 140.975 33.2449C140.975 30.6657 143.031 28.6472 145.498 28.6472C147.778 28.6472 150.021 30.5535 150.021 33.2449C150.021 35.8988 147.89 37.8799 145.498 37.8799Z" fill="#060606"/>
<path d="M185.879 24.0645C183.717 24.0645 181.742 25.3314 180.773 28.2378V24.5116H175.928V41.9131H180.81V35.9511C180.81 30.9952 182.525 28.6477 185.022 28.6477C185.618 28.6477 186.475 28.7222 187.519 29.2812L188.637 24.6234C187.854 24.2135 186.811 24.0645 185.879 24.0645Z" fill="#060606"/>
<path d="M55.7537 42.4738C60.7548 42.4738 65.192 38.7994 65.192 33.2879C65.192 27.7388 60.7548 24.0645 55.7537 24.0645C50.7525 24.0645 46.3154 27.7388 46.3154 33.2879C46.3154 38.7994 50.7525 42.4738 55.7537 42.4738ZM55.7537 37.8996C53.3095 37.8996 51.3166 35.9874 51.3166 33.2879C51.3166 30.5508 53.3095 28.6387 55.7537 28.6387C58.1979 28.6387 60.1908 30.5508 60.1908 33.2879C60.1908 35.9874 58.1979 37.8996 55.7537 37.8996Z" fill="#060606"/>
<path d="M38.4364 42.4738C42.0207 42.4738 45.7544 40.5616 45.7544 36.8873C45.7544 35.4625 45.2317 32.8379 41.0499 31.7131L38.175 30.9633C37.2043 30.7008 36.4575 30.2884 36.4575 29.4635C36.4575 28.5637 37.3536 27.9263 38.4737 27.9263C39.6307 27.9263 40.6011 28.5632 40.6019 29.762L45.1262 28.373C44.4157 25.2539 41.1907 24.0645 38.399 24.0645C34.3667 24.0645 31.5664 26.614 31.5664 29.3136C31.5664 31.1507 32.1638 33.6628 36.6442 34.8626L38.9591 35.425C40.2659 35.7624 40.8633 36.1374 40.8633 36.8873C40.8633 37.8996 39.7805 38.612 38.3617 38.612C36.6445 38.612 35.7858 37.5251 35.7855 36.5129L31.3633 37.8706C32.1143 40.8639 35.2324 42.4738 38.4364 42.4738Z" fill="#060606"/>
<path fill-rule="evenodd" clip-rule="evenodd" d="M162.883 24.4926C167.639 23.0245 172.538 25.2347 174.09 30.3595C174.231 30.8253 174.369 31.4097 174.526 32.1842L162.069 36.0299C163.093 37.7331 164.805 38.5945 166.86 37.9454C168.229 37.5225 169.155 36.5173 169.554 35.3083H174.46C174.399 35.6216 174.322 35.929 174.228 36.2298C173.306 38.8263 171.157 41.1793 168.246 42.0778C163.136 43.6555 158.313 41.1864 156.751 36.0258C155.112 30.6144 158.163 25.9499 162.883 24.4926ZM161.146 32.9838C160.96 30.5726 162.299 29.101 164.216 28.5094C166.31 27.8629 168.287 28.6242 169.025 30.5514L161.146 32.9838Z" fill="#060606"/>
<path fill-rule="evenodd" clip-rule="evenodd" d="M102.873 24.4926C107.677 23.0245 112.627 25.2347 114.194 30.3595C114.337 30.8253 114.476 31.4097 114.635 32.1842L102.05 36.0299C103.085 37.7331 104.814 38.5945 106.89 37.9454C108.274 37.5225 109.209 36.5173 109.612 35.3083H114.569C114.507 35.6216 114.428 35.929 114.334 36.2298C113.403 38.8263 111.231 41.1793 108.291 42.0778C103.128 43.6555 98.2557 41.1864 96.6772 36.0258C95.0219 30.6144 98.1038 25.9499 102.873 24.4926ZM101.118 32.9838C100.929 30.5726 102.283 29.101 104.219 28.5094C106.334 27.8629 108.332 28.6242 109.078 30.5514L101.118 32.9838Z" fill="#060606"/>
<path d="M129.658 26.6374C128.43 24.8361 126.087 24.048 124.078 24.048C119.615 24.048 115.561 27.6132 115.561 33.2424C115.561 38.8716 119.615 42.4743 124.078 42.4743C126.013 42.4743 128.43 41.6487 129.658 39.8473V42.024H134.531V15.748L129.658 17.3117V26.6374ZM125.008 37.8959C122.553 37.8959 120.508 35.7943 120.508 33.2424C120.508 30.653 122.553 28.6264 125.008 28.6264C127.277 28.6264 129.509 30.5404 129.509 33.2424C129.509 35.9069 127.389 37.8959 125.008 37.8959Z" fill="#060606"/>
<path d="M95.1885 41.9136V15.748L90.3291 17.3051V41.9136H95.1885Z" fill="#060606"/>
<path d="M77.9933 19.554V15H75.8942C70.9087 15 68.2098 17.9862 68.2098 23.2121V24.4812H64.9111V28.2886H68.2098V41.9132H73.1203V28.2886H76.9437H78.9707V34.6716C78.9707 39.7855 81.1073 41.9132 86.0553 41.9132H87.7796V37.3592H86.6551C84.7059 37.3592 83.9187 36.3514 83.8812 34.373V28.2886H87.5547V24.4812H83.8812V19.106L78.9707 20.5991V24.4812H76.9437H73.1203V23.1747C73.1578 21.0844 74.0574 19.554 76.8688 19.554H77.9933Z" fill="#060606"/>
</svg>
