<svg width="220" height="66" viewBox="0 0 220 66" fill="none" xmlns="http://www.w3.org/2000/svg">
<path d="M163.315 54.9335V58.093H185V43.8433H181.84V54.9335H163.315ZM163.315 7.90674V11.0663H181.84V22.1572H185V7.90674H163.315ZM152.132 32.3498V25.0079H157.089C159.505 25.0079 160.373 25.8131 160.373 28.013V29.3139C160.373 31.5753 159.536 32.3498 157.089 32.3498H152.132ZM160 33.6507C162.261 33.0621 163.841 30.9552 163.841 28.4464C163.841 26.8666 163.222 25.4413 162.045 24.2948C160.558 22.8695 158.575 22.1572 156.004 22.1572H149.034V43.8426H152.132V35.1997H156.779C159.164 35.1997 160.124 36.191 160.124 38.6698V43.8433H163.284V39.1654C163.284 35.7576 162.479 34.4567 160 34.0848V33.6507ZM133.916 34.363H143.458V31.5131H133.916V25.0071H144.387V22.1572H130.756V43.8426H144.852V40.9926H133.916V34.363ZM123.538 35.5094V36.9962C123.538 40.1251 122.391 41.1478 119.511 41.1478H118.829C115.948 41.1478 114.554 40.2181 114.554 35.912V30.0877C114.554 25.7509 116.01 24.8519 118.891 24.8519H119.51C122.329 24.8519 123.228 25.9054 123.258 28.8175H126.666C126.356 24.5423 123.506 21.8476 119.231 21.8476C117.156 21.8476 115.421 22.4983 114.12 23.737C112.168 25.565 111.084 28.6631 111.084 32.9999C111.084 37.1822 112.014 40.2803 113.934 42.2005C115.235 43.4707 117.032 44.1522 118.798 44.1522C120.656 44.1522 122.361 43.4084 123.228 41.7979H123.661V43.8426H126.511V32.6595H118.116V35.5094H123.538ZM96.2148 25.0071H99.5919C102.783 25.0071 104.518 25.8124 104.518 30.1499V35.8498C104.518 40.1866 102.783 40.9926 99.5919 40.9926H96.2148V25.0071ZM99.8702 43.8433C105.788 43.8433 107.986 39.3513 107.986 33.0006C107.986 26.5569 105.632 22.1579 99.8079 22.1579H93.1162V43.8433H99.8702ZM78.1542 34.363H87.696V31.5131H78.1542V25.0071H88.6248V22.1572H74.9936V43.8426H89.0898V40.9926H78.1542V34.363ZM59.8764 22.1572H56.7168V43.8426H70.9673V40.9926H59.8764V22.1572ZM35 43.8433V58.0937H56.6853V54.9335H38.1596V43.8433H35ZM35 7.90674V22.1572H38.1596V11.0663H56.6853V7.90674H35Z" fill="#060606"/>
</svg>
