<svg width="40" height="40" viewBox="0 0 40 40" fill="none" xmlns="http://www.w3.org/2000/svg">
<g clip-path="url(#clip0_1849_59843)">
<path d="M3.33301 28.3333V10H9.99967V28.3333H3.33301Z" stroke="white" stroke-width="1.5"/>
<path d="M16.666 31.6665V21.6665H23.3327V31.6665H16.666Z" stroke="white" stroke-width="1.5"/>
<path d="M6.66602 9.99984V1.6665" stroke="white" stroke-width="1.5"/>
<path d="M20 21.6663V13.333" stroke="white" stroke-width="1.5"/>
<path d="M20 38.3332V31.6665" stroke="white" stroke-width="1.5"/>
<path d="M6.66602 33.333V28.333" stroke="white" stroke-width="1.5"/>
<path d="M32.5 4.99984V1.6665" stroke="white" stroke-width="1.5"/>
<path d="M32.5 19.9998V16.6665" stroke="white" stroke-width="1.5"/>
<path d="M36.6663 8.33333V6.66667C36.6663 5.7462 35.9202 5 34.9997 5H29.9997C29.0792 5 28.333 5.7462 28.333 6.66667V8.217C28.333 9.01147 28.8938 9.69548 29.6728 9.8513L35.3265 10.982C36.1055 11.1379 36.6663 11.8219 36.6663 12.6163V15C36.6663 15.9205 35.9202 16.6667 34.9997 16.6667H29.9997C29.0792 16.6667 28.333 15.9205 28.333 15V13.3333" stroke="white" stroke-width="1.5"/>
</g>
<defs>
<clipPath id="clip0_1849_59843">
<rect width="40" height="40" fill="white"/>
</clipPath>
</defs>
</svg>
