<svg width="40" height="40" viewBox="0 0 40 40" fill="none" xmlns="http://www.w3.org/2000/svg">
<g clip-path="url(#clip0_547_191290)">
<path d="M1.76758 24.5584V2.6792H38.2326V24.5584H1.76758Z" stroke="white" stroke-width="1.5"/>
<path d="M5.41406 30.9395H34.5861" stroke="white" stroke-width="1.5"/>
<path d="M10.8838 37.3213H29.1165" stroke="white" stroke-width="1.5"/>
<path d="M23.6465 10.8838V9.97226C23.6465 8.96526 22.8302 8.14893 21.8233 8.14893H18.1767C17.1698 8.14893 16.3535 8.96526 16.3535 9.97226V10.8278C16.3535 11.6643 16.9228 12.3936 17.7347 12.5966L22.2653 13.7293C23.0772 13.9321 23.6465 14.6614 23.6465 15.4981V17.2653C23.6465 18.2723 22.8302 19.0884 21.8233 19.0884H18.1767C17.1698 19.0884 16.3535 18.2723 16.3535 17.2653V16.3536" stroke="white" stroke-width="1.5"/>
</g>
<defs>
<clipPath id="clip0_547_191290">
<rect width="40" height="40" fill="white"/>
</clipPath>
</defs>
</svg>
