<svg width="40" height="40" viewBox="0 0 40 40" fill="none" xmlns="http://www.w3.org/2000/svg">
<path d="M3.33398 20.0002C3.33398 24.4204 5.08993 28.6597 8.21554 31.7853C11.3411 34.9109 15.5804 36.6668 20.0007 36.6668C24.4209 36.6668 28.6602 34.9109 31.7858 31.7853C34.9114 28.6597 36.6673 24.4204 36.6673 20.0002C36.6673 15.5799 34.9114 11.3407 31.7858 8.21505C28.6602 5.08944 24.4209 3.3335 20.0007 3.3335C15.5804 3.3335 11.3411 5.08944 8.21554 8.21505C5.08993 11.3407 3.33398 15.5799 3.33398 20.0002Z" stroke="white" stroke-width="2"/>
<path d="M20.0006 10.8335L22.9639 15.9218L28.7189 17.1668L24.7956 21.5585L25.3889 27.4168L20.0006 25.0418L14.6122 27.4168L15.2056 21.5585L11.2822 17.1668L17.0372 15.9218L20.0006 10.8335Z" stroke="white" stroke-width="2"/>
</svg>
