<svg width="40" height="40" viewBox="0 0 40 40" fill="none" xmlns="http://www.w3.org/2000/svg">
<g clip-path="url(#clip0_547_191427)">
<path fill-rule="evenodd" clip-rule="evenodd" d="M3.33301 2.5835H2.58301V3.3335V18.3335V19.0835H3.33301H18.333H19.083V18.3335V12.4168H24.2501V16.6668V17.4168H25.0001H29.2501V22.5835H23.333H22.583V23.3335V29.2502H16.9025V25.257V24.507H16.1525H6.66588H5.91588V25.257V34.7435V35.4935H6.66588H16.1525H16.9025V34.7435V30.7502H22.583V36.6668V37.4168H23.333H36.6663H37.4163V36.6668V23.3335V22.5835H36.6663H30.7501V17.4168H35.0001H35.7501V16.6668V6.6668V5.9168H35.0001H25.0001H24.2501V6.6668V10.9168H19.083V3.3335V2.5835H18.333H3.33301ZM4.08301 17.5835V4.0835H17.583V17.5835H4.08301ZM24.083 35.9168V24.0835H35.9163V35.9168H24.083ZM25.7501 7.4168V15.9168H34.2501V7.4168H25.7501ZM7.41588 33.9935V26.007H15.4025V33.9935H7.41588ZM10.833 13.2502H14.1663V11.7502H10.833V13.2502Z" fill="white"/>
</g>
<defs>
<clipPath id="clip0_547_191427">
<rect width="40" height="40" fill="white"/>
</clipPath>
</defs>
</svg>
