<svg width="40" height="40" viewBox="0 0 40 40" fill="none" xmlns="http://www.w3.org/2000/svg">
<path d="M6.77832 19.1667V2.5H28.445L36.7783 10.8333V35.8333H26.7783" stroke="white" stroke-width="2"/>
<path d="M3.22168 30.8535C3.92669 28.9028 5.21707 27.2175 6.91634 26.0281C8.61562 24.8387 10.6408 24.2032 12.715 24.2085C14.7895 24.2028 16.8151 24.8382 18.5147 26.0276C20.2143 27.2171 21.5049 28.9026 22.21 30.8535C21.5052 32.8048 20.2147 34.4907 18.515 35.6804C16.8154 36.8702 14.7897 37.5058 12.715 37.5002C10.6406 37.5054 8.61527 36.8697 6.91597 35.68C5.21667 34.4902 3.92642 32.8045 3.22168 30.8535Z" stroke="white" stroke-width="2"/>
<path d="M12.2832 31.2849V30.4199H13.1499V31.2866L12.2832 31.2849Z" stroke="white" stroke-width="2"/>
</svg>
