<svg width="220" height="66" viewBox="0 0 220 66" fill="none" xmlns="http://www.w3.org/2000/svg">
<g clip-path="url(#clip0_26_8)">
<g clip-path="url(#clip1_26_8)" filter="url(#filter0_d_26_8)">
<mask id="mask0_26_8" style="mask-type:luminance" maskUnits="userSpaceOnUse" x="-24" y="2" width="200" height="64">
<path d="M176 2H-24V66H176V2Z" fill="white"/>
</mask>
<g mask="url(#mask0_26_8)">
<path d="M59.4196 13.2021V26.1047H58.2805C57.7125 26.1047 57.1891 25.8699 56.7164 25.4037C56.2438 24.9375 56.0055 24.421 56.0055 23.8609V13.2021H59.4196ZM59.4196 26.1047H63.4008V29.4721H59.4196V26.1047ZM63.4008 29.4687H70.225V32.836H65.6758C65.1078 32.836 64.5844 32.6013 64.1117 32.1351C63.6391 31.6689 63.4008 31.1524 63.4008 30.5923V29.4721V29.4687ZM70.225 26.1047H74.7742V15.4458C74.7742 14.6711 74.9922 14.1043 75.4235 13.742C75.8555 13.3798 76.3992 13.2021 77.0492 13.2021H78.1883V26.6648L74.6961 29.4687H70.2282V26.1014L70.225 26.1047Z" fill="black" fill-opacity="0.82"/>
<path d="M80.4594 29.4688V16.4857L83.8726 13.1989H102.638V16.5662H83.8726V21.0538H99.2281V24.4212H83.8726V29.4688H80.4594ZM83.8726 29.4688H102.638L101.499 32.8362H86.1445C85.5765 32.8362 85.0531 32.6014 84.5805 32.1352C84.1078 31.669 83.8695 31.1525 83.8695 30.5924V29.4722L83.8726 29.4688Z" fill="black" fill-opacity="0.82"/>
<path d="M104.913 16.5662H108.327V21.0538H123.682V24.4212H120.268V29.4688H127.092V32.8362H119.129C118.562 32.8362 118.037 32.6014 117.565 32.1352C117.092 31.669 116.855 31.1525 116.855 30.5924V24.4212H108.323V32.8362H107.184C106.616 32.8362 106.093 32.6014 105.62 32.1352C105.148 31.669 104.91 31.1525 104.91 30.5924V16.5695L104.913 16.5662ZM123.72 13.2022H110.598C109.948 13.2022 109.405 13.3833 108.973 13.7422C108.541 14.1044 108.323 14.6712 108.323 15.446V16.5695H123.679V21.0571H127.092V16.5695L123.72 13.2022Z" fill="black" fill-opacity="0.82"/>
<path d="M142.448 13.2022H150.41L151.549 16.5695H142.451V29.4722H151.549V32.8395H131.645C130.941 32.8395 130.387 32.6383 129.979 32.2392C129.571 31.8401 129.37 31.29 129.37 30.5958V29.4755H139.037V16.5729H129.37V13.2056H142.451L142.448 13.2022Z" fill="black" fill-opacity="0.82"/>
<path d="M153.821 32.8362V31.7126C153.821 31.0183 154.025 30.4717 154.43 30.0692C154.834 29.67 155.391 29.4688 156.095 29.4688H172.586V21.0538H157.231V16.5662H153.817V21.0136L157.231 24.4178H175.997V29.4655L172.583 32.8328H153.817L153.821 32.8362ZM158.37 13.2022L157.231 16.5695H173.722C174.426 16.5695 174.98 16.3683 175.388 15.9692C175.793 15.5701 175.997 15.02 175.997 14.3258V13.2022H158.367H158.37Z" fill="black" fill-opacity="0.82"/>
<path d="M56.0055 37.0085H59.4157V53.2618H56.0055V37.0085ZM60.1227 55.9248C60.5953 56.391 61.1157 56.6257 61.6867 56.6257H78.1641V53.2618H59.4157V54.382C59.4157 54.9421 59.6539 55.4552 60.1266 55.9248H60.1227ZM99.1836 48.2174H83.8422V56.6224H80.4321V40.3692H83.8422V44.8534H99.1836V40.3692H83.8422V37.0051H99.1836L102.595 40.3692V56.6224H99.1836V48.2174ZM104.866 40.3725H108.276V44.8568H123.617V48.2207H108.276V54.3853C108.276 54.9454 108.514 55.4586 108.987 55.9281C109.459 56.3943 109.98 56.6291 110.551 56.6291H123.617L127.027 53.2651V48.2207H123.617V53.2651H104.869V40.3759L104.866 40.3725ZM123.614 37.0085H108.841C108.459 37.0353 108.273 37.2232 108.273 37.5686V40.3692H123.614V44.8534H127.024V40.3692L123.614 37.0051V37.0085ZM129.295 56.6257V55.5055C129.295 54.8113 129.5 54.2646 129.904 53.8655C130.309 53.4663 130.863 53.2651 131.567 53.2651H148.044V44.8601H132.702V40.3759H129.292V44.8198L132.702 48.2241H151.451V53.2685L148.041 56.6324H129.292L129.295 56.6257ZM133.841 37.0085L132.706 40.3725H149.183C149.887 40.3725 150.441 40.1713 150.846 39.7722C151.25 39.373 151.455 38.8263 151.455 38.1321V37.0118H133.841V37.0085Z" fill="#010101" fill-opacity="0.82"/>
</g>
</g>
</g>
<defs>
<filter id="filter0_d_26_8" x="-28" y="2" width="208" height="72" filterUnits="userSpaceOnUse" color-interpolation-filters="sRGB">
<feFlood flood-opacity="0" result="BackgroundImageFix"/>
<feColorMatrix in="SourceAlpha" type="matrix" values="0 0 0 0 0 0 0 0 0 0 0 0 0 0 0 0 0 0 127 0" result="hardAlpha"/>
<feOffset dy="4"/>
<feGaussianBlur stdDeviation="2"/>
<feComposite in2="hardAlpha" operator="out"/>
<feColorMatrix type="matrix" values="0 0 0 0 0 0 0 0 0 0 0 0 0 0 0 0 0 0 0.25 0"/>
<feBlend mode="normal" in2="BackgroundImageFix" result="effect1_dropShadow_26_8"/>
<feBlend mode="normal" in="SourceGraphic" in2="effect1_dropShadow_26_8" result="shape"/>
</filter>
<clipPath id="clip0_26_8">
<rect width="220" height="66" fill="white"/>
</clipPath>
<clipPath id="clip1_26_8">
<rect width="200" height="64" fill="white" transform="translate(-24 2)"/>
</clipPath>
</defs>
</svg>
