<svg width="427" height="253" viewBox="0 0 427 253" fill="none" xmlns="http://www.w3.org/2000/svg">
<mask id="mask0_1306_30303" style="mask-type:alpha" maskUnits="userSpaceOnUse" x="0" y="0" width="427" height="238">
<rect width="427" height="238" fill="url(#paint0_radial_1306_30303)"/>
<rect width="427" height="238" fill="black"/>
</mask>
<g mask="url(#mask0_1306_30303)">
<g opacity="0.2">
<g clip-path="url(#clip0_1306_30303)">
<path d="M5.72228 11.2872C6.89591 11.2872 7.83812 10.3452 7.83812 9.17176C7.83812 7.99836 6.89591 7.05634 5.72228 7.05634C4.54866 7.05634 3.60645 7.99836 3.60645 9.17176C3.60645 10.3452 4.54866 11.2872 5.72228 11.2872Z" fill="#060606"/>
<path d="M29.5255 11.2872C30.6991 11.2872 31.6413 10.3452 31.6413 9.17176C31.6413 7.99836 30.6991 7.05634 29.5255 7.05634C28.3519 7.05634 27.4097 7.99836 27.4097 9.17176C27.4097 10.3452 28.3519 11.2872 29.5255 11.2872Z" fill="#060606"/>
<path d="M53.3287 11.2872C54.5024 11.2872 55.4446 10.3452 55.4446 9.17176C55.4446 7.99836 54.5024 7.05634 53.3287 7.05634C52.1551 7.05634 51.2129 7.99836 51.2129 9.17176C51.2129 10.3452 52.1551 11.2872 53.3287 11.2872Z" fill="#060606"/>
<path d="M77.1319 11.2872C78.3056 11.2872 79.2478 10.3452 79.2478 9.17176C79.2478 7.99836 78.3056 7.05634 77.1319 7.05634C75.9583 7.05634 75.0161 7.99836 75.0161 9.17176C75.0161 10.3452 75.9583 11.2872 77.1319 11.2872Z" fill="#060606"/>
<path d="M100.935 11.2872C102.103 11.2872 103.051 10.3401 103.051 9.17176C103.051 8.00344 102.103 7.05634 100.935 7.05634C99.7661 7.05634 98.8188 8.00344 98.8188 9.17176C98.8188 10.3401 99.7661 11.2872 100.935 11.2872Z" fill="#060606"/>
<path d="M124.738 11.2872C125.912 11.2872 126.854 10.3452 126.854 9.17176C126.854 7.99836 125.912 7.05634 124.738 7.05634C123.564 7.05634 122.622 7.99836 122.622 9.17176C122.622 10.3452 123.564 11.2872 124.738 11.2872Z" fill="#060606"/>
<path d="M148.541 11.2872C149.715 11.2872 150.657 10.3452 150.657 9.17176C150.657 7.99836 149.715 7.05634 148.541 7.05634C147.368 7.05634 146.425 7.99836 146.425 9.17176C146.425 10.3452 147.368 11.2872 148.541 11.2872Z" fill="#060606"/>
<path d="M172.344 11.2872C173.518 11.2872 174.46 10.3452 174.46 9.17176C174.46 7.99836 173.518 7.05634 172.344 7.05634C171.171 7.05634 170.229 7.99836 170.229 9.17176C170.229 10.3452 171.171 11.2872 172.344 11.2872Z" fill="#060606"/>
<path d="M196.148 11.2872C197.321 11.2872 198.263 10.3452 198.263 9.17176C198.263 7.99836 197.321 7.05634 196.148 7.05634C194.974 7.05634 194.032 7.99836 194.032 9.17176C194.032 10.3452 194.974 11.2872 196.148 11.2872Z" fill="#060606"/>
<path d="M219.951 11.2872C221.119 11.2872 222.067 10.3401 222.067 9.17176C222.067 8.00344 221.119 7.05634 219.951 7.05634C218.782 7.05634 217.835 8.00344 217.835 9.17176C217.835 10.3401 218.782 11.2872 219.951 11.2872Z" fill="#060606"/>
<path d="M243.754 11.2872C244.928 11.2872 245.87 10.3452 245.87 9.17176C245.87 7.99836 244.928 7.05634 243.754 7.05634C242.58 7.05634 241.638 7.99836 241.638 9.17176C241.638 10.3452 242.58 11.2872 243.754 11.2872Z" fill="#060606"/>
<path d="M267.557 11.2872C268.731 11.2872 269.673 10.3452 269.673 9.17176C269.673 7.99836 268.731 7.05634 267.557 7.05634C266.384 7.05634 265.441 7.99836 265.441 9.17176C265.441 10.3452 266.384 11.2872 267.557 11.2872Z" fill="#060606"/>
<path d="M291.36 11.2872C292.534 11.2872 293.476 10.3452 293.476 9.17176C293.476 7.99836 292.534 7.05634 291.36 7.05634C290.187 7.05634 289.245 7.99836 289.245 9.17176C289.245 10.3452 290.187 11.2872 291.36 11.2872Z" fill="#060606"/>
<path d="M315.164 11.2872C316.337 11.2872 317.28 10.3452 317.28 9.17176C317.28 7.99836 316.337 7.05634 315.164 7.05634C313.99 7.05634 313.048 7.99836 313.048 9.17176C313.048 10.3452 313.99 11.2872 315.164 11.2872Z" fill="#060606"/>
<path d="M338.966 11.2872C340.135 11.2872 341.082 10.3401 341.082 9.17176C341.082 8.00344 340.135 7.05634 338.966 7.05634C337.798 7.05634 336.851 8.00344 336.851 9.17176C336.851 10.3401 337.798 11.2872 338.966 11.2872Z" fill="#060606"/>
<path d="M362.77 11.2872C363.943 11.2872 364.885 10.3452 364.885 9.17176C364.885 7.99836 363.943 7.05634 362.77 7.05634C361.596 7.05634 360.654 7.99836 360.654 9.17176C360.654 10.3452 361.596 11.2872 362.77 11.2872Z" fill="#060606"/>
<path d="M386.573 11.2872C387.746 11.2872 388.689 10.3452 388.689 9.17176C388.689 7.99836 387.746 7.05634 386.573 7.05634C385.399 7.05634 384.457 7.99836 384.457 9.17176C384.457 10.3452 385.399 11.2872 386.573 11.2872Z" fill="#060606"/>
<path d="M410.376 11.2872C411.55 11.2872 412.492 10.3452 412.492 9.17176C412.492 7.99836 411.55 7.05634 410.376 7.05634C409.202 7.05634 408.26 7.99836 408.26 9.17176C408.26 10.3452 409.202 11.2872 410.376 11.2872Z" fill="#060606"/>
<path d="M17.6236 35.0857C18.7973 35.0857 19.7395 34.1437 19.7395 32.9703C19.7395 31.7969 18.7973 30.8549 17.6236 30.8549C16.45 30.8549 15.5078 31.7969 15.5078 32.9703C15.5078 34.1437 16.45 35.0857 17.6236 35.0857Z" fill="#060606"/>
<path d="M41.4269 35.0857C42.6005 35.0857 43.5427 34.1437 43.5427 32.9703C43.5427 31.7969 42.6005 30.8549 41.4269 30.8549C40.2532 30.8549 39.311 31.7969 39.311 32.9703C39.311 34.1437 40.2532 35.0857 41.4269 35.0857Z" fill="#060606"/>
<path d="M65.2301 35.0857C66.4037 35.0857 67.3459 34.1437 67.3459 32.9703C67.3459 31.7969 66.4037 30.8549 65.2301 30.8549C64.0565 30.8549 63.1143 31.7969 63.1143 32.9703C63.1143 34.1437 64.0565 35.0857 65.2301 35.0857Z" fill="#060606"/>
<path d="M89.0333 35.0857C90.207 35.0857 91.1492 34.1437 91.1492 32.9703C91.1492 31.7969 90.207 30.8549 89.0333 30.8549C87.8597 30.8549 86.9175 31.7969 86.9175 32.9703C86.9175 34.1437 87.8597 35.0857 89.0333 35.0857Z" fill="#060606"/>
<path d="M112.837 35.0857C114.01 35.0857 114.952 34.1437 114.952 32.9703C114.952 31.7969 114.01 30.8549 112.837 30.8549C111.663 30.8549 110.721 31.7969 110.721 32.9703C110.721 34.1437 111.663 35.0857 112.837 35.0857Z" fill="#060606"/>
<path d="M136.64 35.0857C137.813 35.0857 138.756 34.1437 138.756 32.9703C138.756 31.7969 137.813 30.8549 136.64 30.8549C135.466 30.8549 134.524 31.7969 134.524 32.9703C134.524 34.1437 135.466 35.0857 136.64 35.0857Z" fill="#060606"/>
<path d="M160.443 35.0857C161.617 35.0857 162.559 34.1437 162.559 32.9703C162.559 31.7969 161.617 30.8549 160.443 30.8549C159.269 30.8549 158.327 31.7969 158.327 32.9703C158.327 34.1437 159.269 35.0857 160.443 35.0857Z" fill="#060606"/>
<path d="M184.246 35.0857C185.42 35.0857 186.362 34.1437 186.362 32.9703C186.362 31.7969 185.42 30.8549 184.246 30.8549C183.073 30.8549 182.13 31.7969 182.13 32.9703C182.13 34.1437 183.073 35.0857 184.246 35.0857Z" fill="#060606"/>
<path d="M208.049 35.0857C209.223 35.0857 210.165 34.1437 210.165 32.9703C210.165 31.7969 209.223 30.8549 208.049 30.8549C206.876 30.8549 205.934 31.7969 205.934 32.9703C205.934 34.1437 206.876 35.0857 208.049 35.0857Z" fill="#060606"/>
<path d="M231.852 35.0857C233.026 35.0857 233.968 34.1437 233.968 32.9703C233.968 31.7969 233.026 30.8549 231.852 30.8549C230.679 30.8549 229.736 31.7969 229.736 32.9703C229.736 34.1437 230.679 35.0857 231.852 35.0857Z" fill="#060606"/>
<path d="M255.655 35.0857C256.829 35.0857 257.771 34.1437 257.771 32.9703C257.771 31.7969 256.829 30.8549 255.655 30.8549C254.482 30.8549 253.54 31.7969 253.54 32.9703C253.54 34.1437 254.482 35.0857 255.655 35.0857Z" fill="#060606"/>
<path d="M279.459 35.0857C280.632 35.0857 281.574 34.1437 281.574 32.9703C281.574 31.7969 280.632 30.8549 279.459 30.8549C278.285 30.8549 277.343 31.7969 277.343 32.9703C277.343 34.1437 278.285 35.0857 279.459 35.0857Z" fill="#060606"/>
<path d="M303.262 35.0857C304.435 35.0857 305.378 34.1437 305.378 32.9703C305.378 31.7969 304.435 30.8549 303.262 30.8549C302.088 30.8549 301.146 31.7969 301.146 32.9703C301.146 34.1437 302.088 35.0857 303.262 35.0857Z" fill="#060606"/>
<path d="M327.065 35.0857C328.239 35.0857 329.181 34.1437 329.181 32.9703C329.181 31.7969 328.239 30.8549 327.065 30.8549C325.891 30.8549 324.949 31.7969 324.949 32.9703C324.949 34.1437 325.891 35.0857 327.065 35.0857Z" fill="#060606"/>
<path d="M350.868 35.0857C352.042 35.0857 352.984 34.1437 352.984 32.9703C352.984 31.7969 352.042 30.8549 350.868 30.8549C349.695 30.8549 348.752 31.7969 348.752 32.9703C348.752 34.1437 349.695 35.0857 350.868 35.0857Z" fill="#060606"/>
<path d="M374.671 35.0857C375.845 35.0857 376.787 34.1437 376.787 32.9703C376.787 31.7969 375.845 30.8549 374.671 30.8549C373.498 30.8549 372.556 31.7969 372.556 32.9703C372.556 34.1437 373.498 35.0857 374.671 35.0857Z" fill="#060606"/>
<path d="M398.475 35.0857C399.648 35.0857 400.591 34.1437 400.591 32.9703C400.591 31.7969 399.648 30.8549 398.475 30.8549C397.301 30.8549 396.359 31.7969 396.359 32.9703C396.359 34.1437 397.301 35.0857 398.475 35.0857Z" fill="#060606"/>
<path d="M422.278 35.0857C423.452 35.0857 424.394 34.1437 424.394 32.9703C424.394 31.7969 423.452 30.8549 422.278 30.8549C421.104 30.8549 420.162 31.7969 420.162 32.9703C420.162 34.1437 421.104 35.0857 422.278 35.0857Z" fill="#060606"/>
<path d="M5.72228 58.8843C6.89591 58.8843 7.83812 57.9423 7.83812 56.7689C7.83812 55.5955 6.89591 54.6534 5.72228 54.6534C4.54866 54.6534 3.60645 55.5955 3.60645 56.7689C3.60645 57.9423 4.54866 58.8843 5.72228 58.8843Z" fill="#060606"/>
<path d="M29.5255 58.8843C30.6991 58.8843 31.6413 57.9423 31.6413 56.7689C31.6413 55.5955 30.6991 54.6534 29.5255 54.6534C28.3519 54.6534 27.4097 55.5955 27.4097 56.7689C27.4097 57.9423 28.3519 58.8843 29.5255 58.8843Z" fill="#060606"/>
<path d="M53.3287 58.8843C54.5024 58.8843 55.4446 57.9423 55.4446 56.7689C55.4446 55.5955 54.5024 54.6534 53.3287 54.6534C52.1551 54.6534 51.2129 55.5955 51.2129 56.7689C51.2129 57.9423 52.1551 58.8843 53.3287 58.8843Z" fill="#060606"/>
<path d="M77.1319 58.8843C78.3056 58.8843 79.2478 57.9423 79.2478 56.7689C79.2478 55.5955 78.3056 54.6534 77.1319 54.6534C75.9583 54.6534 75.0161 55.5955 75.0161 56.7689C75.0161 57.9423 75.9583 58.8843 77.1319 58.8843Z" fill="#060606"/>
<path d="M100.935 58.8843C102.108 58.8843 103.051 57.9423 103.051 56.7689C103.051 55.5955 102.108 54.6534 100.935 54.6534C99.7611 54.6534 98.8188 55.5955 98.8188 56.7689C98.8188 57.9423 99.7611 58.8843 100.935 58.8843Z" fill="#060606"/>
<path d="M124.738 58.8843C125.912 58.8843 126.854 57.9423 126.854 56.7689C126.854 55.5955 125.912 54.6534 124.738 54.6534C123.564 54.6534 122.622 55.5955 122.622 56.7689C122.622 57.9423 123.564 58.8843 124.738 58.8843Z" fill="#060606"/>
<path d="M148.541 58.8843C149.715 58.8843 150.657 57.9423 150.657 56.7689C150.657 55.5955 149.715 54.6534 148.541 54.6534C147.368 54.6534 146.425 55.5955 146.425 56.7689C146.425 57.9423 147.368 58.8843 148.541 58.8843Z" fill="#060606"/>
<path d="M172.344 58.8843C173.518 58.8843 174.46 57.9423 174.46 56.7689C174.46 55.5955 173.518 54.6534 172.344 54.6534C171.171 54.6534 170.229 55.5955 170.229 56.7689C170.229 57.9423 171.171 58.8843 172.344 58.8843Z" fill="#060606"/>
<path d="M196.148 58.8843C197.321 58.8843 198.263 57.9423 198.263 56.7689C198.263 55.5955 197.321 54.6534 196.148 54.6534C194.974 54.6534 194.032 55.5955 194.032 56.7689C194.032 57.9423 194.974 58.8843 196.148 58.8843Z" fill="#060606"/>
<path d="M219.951 58.8843C221.124 58.8843 222.067 57.9423 222.067 56.7689C222.067 55.5955 221.124 54.6534 219.951 54.6534C218.777 54.6534 217.835 55.5955 217.835 56.7689C217.835 57.9423 218.777 58.8843 219.951 58.8843Z" fill="#060606"/>
<path d="M243.754 58.8843C244.928 58.8843 245.87 57.9423 245.87 56.7689C245.87 55.5955 244.928 54.6534 243.754 54.6534C242.58 54.6534 241.638 55.5955 241.638 56.7689C241.638 57.9423 242.58 58.8843 243.754 58.8843Z" fill="#060606"/>
<path d="M267.557 58.8843C268.731 58.8843 269.673 57.9423 269.673 56.7689C269.673 55.5955 268.731 54.6534 267.557 54.6534C266.384 54.6534 265.441 55.5955 265.441 56.7689C265.441 57.9423 266.384 58.8843 267.557 58.8843Z" fill="#060606"/>
<path d="M291.36 58.8843C292.534 58.8843 293.476 57.9423 293.476 56.7689C293.476 55.5955 292.534 54.6534 291.36 54.6534C290.187 54.6534 289.245 55.5955 289.245 56.7689C289.245 57.9423 290.187 58.8843 291.36 58.8843Z" fill="#060606"/>
<path d="M315.164 58.8843C316.337 58.8843 317.28 57.9423 317.28 56.7689C317.28 55.5955 316.337 54.6534 315.164 54.6534C313.99 54.6534 313.048 55.5955 313.048 56.7689C313.048 57.9423 313.99 58.8843 315.164 58.8843Z" fill="#060606"/>
<path d="M338.966 58.8843C340.14 58.8843 341.082 57.9423 341.082 56.7689C341.082 55.5955 340.14 54.6534 338.966 54.6534C337.793 54.6534 336.851 55.5955 336.851 56.7689C336.851 57.9423 337.793 58.8843 338.966 58.8843Z" fill="#060606"/>
<path d="M362.77 58.8843C363.943 58.8843 364.885 57.9423 364.885 56.7689C364.885 55.5955 363.943 54.6534 362.77 54.6534C361.596 54.6534 360.654 55.5955 360.654 56.7689C360.654 57.9423 361.596 58.8843 362.77 58.8843Z" fill="#060606"/>
<path d="M386.573 58.8843C387.746 58.8843 388.689 57.9423 388.689 56.7689C388.689 55.5955 387.746 54.6534 386.573 54.6534C385.399 54.6534 384.457 55.5955 384.457 56.7689C384.457 57.9423 385.399 58.8843 386.573 58.8843Z" fill="#060606"/>
<path d="M410.376 58.8843C411.55 58.8843 412.492 57.9423 412.492 56.7689C412.492 55.5955 411.55 54.6534 410.376 54.6534C409.202 54.6534 408.26 55.5955 408.26 56.7689C408.26 57.9423 409.202 58.8843 410.376 58.8843Z" fill="#060606"/>
<path d="M17.6236 82.6828C18.7973 82.6828 19.7395 81.7407 19.7395 80.5673C19.7395 79.3939 18.7973 78.4519 17.6236 78.4519C16.45 78.4519 15.5078 79.3939 15.5078 80.5673C15.5078 81.7407 16.45 82.6828 17.6236 82.6828Z" fill="#060606"/>
<path d="M41.4269 82.6828C42.6005 82.6828 43.5427 81.7407 43.5427 80.5673C43.5427 79.3939 42.6005 78.4519 41.4269 78.4519C40.2532 78.4519 39.311 79.3939 39.311 80.5673C39.311 81.7407 40.2532 82.6828 41.4269 82.6828Z" fill="#060606"/>
<path d="M65.2301 82.6828C66.4037 82.6828 67.3459 81.7407 67.3459 80.5673C67.3459 79.3939 66.4037 78.4519 65.2301 78.4519C64.0565 78.4519 63.1143 79.3939 63.1143 80.5673C63.1143 81.7407 64.0565 82.6828 65.2301 82.6828Z" fill="#060606"/>
<path d="M89.0333 82.6828C90.207 82.6828 91.1492 81.7407 91.1492 80.5673C91.1492 79.3939 90.207 78.4519 89.0333 78.4519C87.8597 78.4519 86.9175 79.3939 86.9175 80.5673C86.9175 81.7407 87.8597 82.6828 89.0333 82.6828Z" fill="#060606"/>
<path d="M112.837 82.6828C114.01 82.6828 114.952 81.7407 114.952 80.5673C114.952 79.3939 114.01 78.4519 112.837 78.4519C111.663 78.4519 110.721 79.3939 110.721 80.5673C110.721 81.7407 111.663 82.6828 112.837 82.6828Z" fill="#060606"/>
<path d="M136.64 82.6828C137.813 82.6828 138.756 81.7407 138.756 80.5673C138.756 79.3939 137.813 78.4519 136.64 78.4519C135.466 78.4519 134.524 79.3939 134.524 80.5673C134.524 81.7407 135.466 82.6828 136.64 82.6828Z" fill="#060606"/>
<path d="M160.443 82.6828C161.617 82.6828 162.559 81.7407 162.559 80.5673C162.559 79.3939 161.617 78.4519 160.443 78.4519C159.269 78.4519 158.327 79.3939 158.327 80.5673C158.327 81.7407 159.269 82.6828 160.443 82.6828Z" fill="#060606"/>
<path d="M184.246 82.6828C185.42 82.6828 186.362 81.7407 186.362 80.5673C186.362 79.3939 185.42 78.4519 184.246 78.4519C183.073 78.4519 182.13 79.3939 182.13 80.5673C182.13 81.7407 183.073 82.6828 184.246 82.6828Z" fill="#060606"/>
<path d="M208.049 82.6828C209.223 82.6828 210.165 81.7407 210.165 80.5673C210.165 79.3939 209.223 78.4519 208.049 78.4519C206.876 78.4519 205.934 79.3939 205.934 80.5673C205.934 81.7407 206.876 82.6828 208.049 82.6828Z" fill="#060606"/>
<path d="M231.852 82.6828C233.026 82.6828 233.968 81.7407 233.968 80.5673C233.968 79.3939 233.026 78.4519 231.852 78.4519C230.679 78.4519 229.736 79.3939 229.736 80.5673C229.736 81.7407 230.679 82.6828 231.852 82.6828Z" fill="#060606"/>
<path d="M255.655 82.6828C256.829 82.6828 257.771 81.7407 257.771 80.5673C257.771 79.3939 256.829 78.4519 255.655 78.4519C254.482 78.4519 253.54 79.3939 253.54 80.5673C253.54 81.7407 254.482 82.6828 255.655 82.6828Z" fill="#060606"/>
<path d="M279.459 82.6828C280.632 82.6828 281.574 81.7407 281.574 80.5673C281.574 79.3939 280.632 78.4519 279.459 78.4519C278.285 78.4519 277.343 79.3939 277.343 80.5673C277.343 81.7407 278.285 82.6828 279.459 82.6828Z" fill="#060606"/>
<path d="M303.262 82.6828C304.435 82.6828 305.378 81.7407 305.378 80.5673C305.378 79.3939 304.435 78.4519 303.262 78.4519C302.088 78.4519 301.146 79.3939 301.146 80.5673C301.146 81.7407 302.088 82.6828 303.262 82.6828Z" fill="#060606"/>
<path d="M327.065 82.6828C328.239 82.6828 329.181 81.7407 329.181 80.5673C329.181 79.3939 328.239 78.4519 327.065 78.4519C325.891 78.4519 324.949 79.3939 324.949 80.5673C324.949 81.7407 325.891 82.6828 327.065 82.6828Z" fill="#060606"/>
<path d="M350.868 82.6828C352.042 82.6828 352.984 81.7407 352.984 80.5673C352.984 79.3939 352.042 78.4519 350.868 78.4519C349.695 78.4519 348.752 79.3939 348.752 80.5673C348.752 81.7407 349.695 82.6828 350.868 82.6828Z" fill="#060606"/>
<path d="M374.671 82.6828C375.845 82.6828 376.787 81.7407 376.787 80.5673C376.787 79.3939 375.845 78.4519 374.671 78.4519C373.498 78.4519 372.556 79.3939 372.556 80.5673C372.556 81.7407 373.498 82.6828 374.671 82.6828Z" fill="#060606"/>
<path d="M398.475 82.6828C399.648 82.6828 400.591 81.7407 400.591 80.5673C400.591 79.3939 399.648 78.4519 398.475 78.4519C397.301 78.4519 396.359 79.3939 396.359 80.5673C396.359 81.7407 397.301 82.6828 398.475 82.6828Z" fill="#060606"/>
<path d="M422.278 82.6828C423.452 82.6828 424.394 81.7407 424.394 80.5673C424.394 79.3939 423.452 78.4519 422.278 78.4519C421.104 78.4519 420.162 79.3939 420.162 80.5673C420.162 81.7407 421.104 82.6828 422.278 82.6828Z" fill="#060606"/>
<path d="M5.72228 106.481C6.89591 106.481 7.83812 105.539 7.83812 104.366C7.83812 103.193 6.89591 102.25 5.72228 102.25C4.54866 102.25 3.60645 103.193 3.60645 104.366C3.60645 105.539 4.54866 106.481 5.72228 106.481Z" fill="#060606"/>
<path d="M29.5255 106.481C30.6991 106.481 31.6413 105.539 31.6413 104.366C31.6413 103.193 30.6991 102.25 29.5255 102.25C28.3519 102.25 27.4097 103.193 27.4097 104.366C27.4097 105.539 28.3519 106.481 29.5255 106.481Z" fill="#060606"/>
<path d="M53.3287 106.481C54.5024 106.481 55.4446 105.539 55.4446 104.366C55.4446 103.193 54.5024 102.25 53.3287 102.25C52.1551 102.25 51.2129 103.193 51.2129 104.366C51.2129 105.539 52.1551 106.481 53.3287 106.481Z" fill="#060606"/>
<path d="M77.1319 106.481C78.3056 106.481 79.2478 105.539 79.2478 104.366C79.2478 103.193 78.3056 102.25 77.1319 102.25C75.9583 102.25 75.0161 103.193 75.0161 104.366C75.0161 105.539 75.9583 106.481 77.1319 106.481Z" fill="#060606"/>
<path d="M100.935 106.481C102.103 106.481 103.051 105.534 103.051 104.366C103.051 103.198 102.103 102.25 100.935 102.25C99.7661 102.25 98.8188 103.198 98.8188 104.366C98.8188 105.534 99.7661 106.481 100.935 106.481Z" fill="#060606"/>
<path d="M124.738 106.481C125.912 106.481 126.854 105.539 126.854 104.366C126.854 103.193 125.912 102.25 124.738 102.25C123.564 102.25 122.622 103.193 122.622 104.366C122.622 105.539 123.564 106.481 124.738 106.481Z" fill="#060606"/>
<path d="M148.541 106.481C149.715 106.481 150.657 105.539 150.657 104.366C150.657 103.193 149.715 102.25 148.541 102.25C147.368 102.25 146.425 103.193 146.425 104.366C146.425 105.539 147.368 106.481 148.541 106.481Z" fill="#060606"/>
<path d="M172.344 106.481C173.518 106.481 174.46 105.539 174.46 104.366C174.46 103.193 173.518 102.25 172.344 102.25C171.171 102.25 170.229 103.193 170.229 104.366C170.229 105.539 171.171 106.481 172.344 106.481Z" fill="#060606"/>
<path d="M196.148 106.481C197.321 106.481 198.263 105.539 198.263 104.366C198.263 103.193 197.321 102.25 196.148 102.25C194.974 102.25 194.032 103.193 194.032 104.366C194.032 105.539 194.974 106.481 196.148 106.481Z" fill="#060606"/>
<path d="M219.951 106.481C221.119 106.481 222.067 105.534 222.067 104.366C222.067 103.198 221.119 102.25 219.951 102.25C218.782 102.25 217.835 103.198 217.835 104.366C217.835 105.534 218.782 106.481 219.951 106.481Z" fill="#060606"/>
<path d="M243.754 106.481C244.928 106.481 245.87 105.539 245.87 104.366C245.87 103.193 244.928 102.25 243.754 102.25C242.58 102.25 241.638 103.193 241.638 104.366C241.638 105.539 242.58 106.481 243.754 106.481Z" fill="#060606"/>
<path d="M267.557 106.481C268.731 106.481 269.673 105.539 269.673 104.366C269.673 103.193 268.731 102.25 267.557 102.25C266.384 102.25 265.441 103.193 265.441 104.366C265.441 105.539 266.384 106.481 267.557 106.481Z" fill="#060606"/>
<path d="M291.36 106.481C292.534 106.481 293.476 105.539 293.476 104.366C293.476 103.193 292.534 102.25 291.36 102.25C290.187 102.25 289.245 103.193 289.245 104.366C289.245 105.539 290.187 106.481 291.36 106.481Z" fill="#060606"/>
<path d="M315.164 106.481C316.337 106.481 317.28 105.539 317.28 104.366C317.28 103.193 316.337 102.25 315.164 102.25C313.99 102.25 313.048 103.193 313.048 104.366C313.048 105.539 313.99 106.481 315.164 106.481Z" fill="#060606"/>
<path d="M338.966 106.481C340.135 106.481 341.082 105.534 341.082 104.366C341.082 103.198 340.135 102.25 338.966 102.25C337.798 102.25 336.851 103.198 336.851 104.366C336.851 105.534 337.798 106.481 338.966 106.481Z" fill="#060606"/>
<path d="M362.77 106.481C363.943 106.481 364.885 105.539 364.885 104.366C364.885 103.193 363.943 102.25 362.77 102.25C361.596 102.25 360.654 103.193 360.654 104.366C360.654 105.539 361.596 106.481 362.77 106.481Z" fill="#060606"/>
<path d="M386.573 106.481C387.746 106.481 388.689 105.539 388.689 104.366C388.689 103.193 387.746 102.25 386.573 102.25C385.399 102.25 384.457 103.193 384.457 104.366C384.457 105.539 385.399 106.481 386.573 106.481Z" fill="#060606"/>
<path d="M410.376 106.481C411.55 106.481 412.492 105.539 412.492 104.366C412.492 103.193 411.55 102.25 410.376 102.25C409.202 102.25 408.26 103.193 408.26 104.366C408.26 105.539 409.202 106.481 410.376 106.481Z" fill="#060606"/>
<path d="M17.6236 130.28C18.7973 130.28 19.7395 129.338 19.7395 128.164C19.7395 126.991 18.7973 126.049 17.6236 126.049C16.45 126.049 15.5078 126.991 15.5078 128.164C15.5078 129.338 16.45 130.28 17.6236 130.28Z" fill="#060606"/>
<path d="M41.4269 130.28C42.5954 130.28 43.5427 129.333 43.5427 128.164C43.5427 126.996 42.5954 126.049 41.4269 126.049C40.2583 126.049 39.311 126.996 39.311 128.164C39.311 129.333 40.2583 130.28 41.4269 130.28Z" fill="#060606"/>
<path d="M65.2301 130.28C66.4037 130.28 67.3459 129.338 67.3459 128.164C67.3459 126.991 66.4037 126.049 65.2301 126.049C64.0565 126.049 63.1143 126.991 63.1143 128.164C63.1143 129.338 64.0565 130.28 65.2301 130.28Z" fill="#060606"/>
<path d="M89.0333 130.28C90.207 130.28 91.1492 129.338 91.1492 128.164C91.1492 126.991 90.207 126.049 89.0333 126.049C87.8597 126.049 86.9175 126.991 86.9175 128.164C86.9175 129.338 87.8597 130.28 89.0333 130.28Z" fill="#060606"/>
<path d="M112.837 130.28C114.01 130.28 114.952 129.338 114.952 128.164C114.952 126.991 114.01 126.049 112.837 126.049C111.663 126.049 110.721 126.991 110.721 128.164C110.721 129.338 111.663 130.28 112.837 130.28Z" fill="#060606"/>
<path d="M136.64 130.28C137.813 130.28 138.756 129.338 138.756 128.164C138.756 126.991 137.813 126.049 136.64 126.049C135.466 126.049 134.524 126.991 134.524 128.164C134.524 129.338 135.466 130.28 136.64 130.28Z" fill="#060606"/>
<path d="M160.443 130.28C161.612 130.28 162.559 129.333 162.559 128.164C162.559 126.996 161.612 126.049 160.443 126.049C159.274 126.049 158.327 126.996 158.327 128.164C158.327 129.333 159.274 130.28 160.443 130.28Z" fill="#060606"/>
<path d="M184.246 130.28C185.42 130.28 186.362 129.338 186.362 128.164C186.362 126.991 185.42 126.049 184.246 126.049C183.073 126.049 182.13 126.991 182.13 128.164C182.13 129.338 183.073 130.28 184.246 130.28Z" fill="#060606"/>
<path d="M208.049 130.28C209.223 130.28 210.165 129.338 210.165 128.164C210.165 126.991 209.223 126.049 208.049 126.049C206.876 126.049 205.934 126.991 205.934 128.164C205.934 129.338 206.876 130.28 208.049 130.28Z" fill="#060606"/>
<path d="M231.852 130.28C233.026 130.28 233.968 129.338 233.968 128.164C233.968 126.991 233.026 126.049 231.852 126.049C230.679 126.049 229.736 126.991 229.736 128.164C229.736 129.338 230.679 130.28 231.852 130.28Z" fill="#060606"/>
<path d="M255.655 130.28C256.829 130.28 257.771 129.338 257.771 128.164C257.771 126.991 256.829 126.049 255.655 126.049C254.482 126.049 253.54 126.991 253.54 128.164C253.54 129.338 254.482 130.28 255.655 130.28Z" fill="#060606"/>
<path d="M279.459 130.28C280.627 130.28 281.574 129.333 281.574 128.164C281.574 126.996 280.627 126.049 279.459 126.049C278.29 126.049 277.343 126.996 277.343 128.164C277.343 129.333 278.29 130.28 279.459 130.28Z" fill="#060606"/>
<path d="M303.262 130.28C304.435 130.28 305.378 129.338 305.378 128.164C305.378 126.991 304.435 126.049 303.262 126.049C302.088 126.049 301.146 126.991 301.146 128.164C301.146 129.338 302.088 130.28 303.262 130.28Z" fill="#060606"/>
<path d="M327.065 130.28C328.239 130.28 329.181 129.338 329.181 128.164C329.181 126.991 328.239 126.049 327.065 126.049C325.891 126.049 324.949 126.991 324.949 128.164C324.949 129.338 325.891 130.28 327.065 130.28Z" fill="#060606"/>
<path d="M350.868 130.28C352.042 130.28 352.984 129.338 352.984 128.164C352.984 126.991 352.042 126.049 350.868 126.049C349.695 126.049 348.752 126.991 348.752 128.164C348.752 129.338 349.695 130.28 350.868 130.28Z" fill="#060606"/>
<path d="M374.671 130.28C375.845 130.28 376.787 129.338 376.787 128.164C376.787 126.991 375.845 126.049 374.671 126.049C373.498 126.049 372.556 126.991 372.556 128.164C372.556 129.338 373.498 130.28 374.671 130.28Z" fill="#060606"/>
<path d="M398.475 130.28C399.643 130.28 400.591 129.333 400.591 128.164C400.591 126.996 399.643 126.049 398.475 126.049C397.306 126.049 396.359 126.996 396.359 128.164C396.359 129.333 397.306 130.28 398.475 130.28Z" fill="#060606"/>
<path d="M422.278 130.28C423.452 130.28 424.394 129.338 424.394 128.164C424.394 126.991 423.452 126.049 422.278 126.049C421.104 126.049 420.162 126.991 420.162 128.164C420.162 129.338 421.104 130.28 422.278 130.28Z" fill="#060606"/>
<path d="M5.72228 154.078C6.89591 154.078 7.83812 153.136 7.83812 151.963C7.83812 150.79 6.89591 149.848 5.72228 149.848C4.54866 149.848 3.60645 150.79 3.60645 151.963C3.60645 153.136 4.54866 154.078 5.72228 154.078Z" fill="#060606"/>
<path d="M29.5255 154.078C30.6991 154.078 31.6413 153.136 31.6413 151.963C31.6413 150.79 30.6991 149.848 29.5255 149.848C28.3519 149.848 27.4097 150.79 27.4097 151.963C27.4097 153.136 28.3519 154.078 29.5255 154.078Z" fill="#060606"/>
<path d="M53.3287 154.078C54.5024 154.078 55.4446 153.136 55.4446 151.963C55.4446 150.79 54.5024 149.848 53.3287 149.848C52.1551 149.848 51.2129 150.79 51.2129 151.963C51.2129 153.136 52.1551 154.078 53.3287 154.078Z" fill="#060606"/>
<path d="M77.1319 154.078C78.3056 154.078 79.2478 153.136 79.2478 151.963C79.2478 150.79 78.3056 149.848 77.1319 149.848C75.9583 149.848 75.0161 150.79 75.0161 151.963C75.0161 153.136 75.9583 154.078 77.1319 154.078Z" fill="#060606"/>
<path d="M100.935 154.078C102.108 154.078 103.051 153.136 103.051 151.963C103.051 150.79 102.108 149.848 100.935 149.848C99.7611 149.848 98.8188 150.79 98.8188 151.963C98.8188 153.136 99.7611 154.078 100.935 154.078Z" fill="#060606"/>
<path d="M124.738 154.078C125.912 154.078 126.854 153.136 126.854 151.963C126.854 150.79 125.912 149.848 124.738 149.848C123.564 149.848 122.622 150.79 122.622 151.963C122.622 153.136 123.564 154.078 124.738 154.078Z" fill="#060606"/>
<path d="M148.541 154.078C149.715 154.078 150.657 153.136 150.657 151.963C150.657 150.79 149.715 149.848 148.541 149.848C147.368 149.848 146.425 150.79 146.425 151.963C146.425 153.136 147.368 154.078 148.541 154.078Z" fill="#060606"/>
<path d="M172.344 154.078C173.518 154.078 174.46 153.136 174.46 151.963C174.46 150.79 173.518 149.848 172.344 149.848C171.171 149.848 170.229 150.79 170.229 151.963C170.229 153.136 171.171 154.078 172.344 154.078Z" fill="#060606"/>
<path d="M196.148 154.078C197.321 154.078 198.263 153.136 198.263 151.963C198.263 150.79 197.321 149.848 196.148 149.848C194.974 149.848 194.032 150.79 194.032 151.963C194.032 153.136 194.974 154.078 196.148 154.078Z" fill="#060606"/>
<path d="M219.951 154.078C221.124 154.078 222.067 153.136 222.067 151.963C222.067 150.79 221.124 149.848 219.951 149.848C218.777 149.848 217.835 150.79 217.835 151.963C217.835 153.136 218.777 154.078 219.951 154.078Z" fill="#060606"/>
<path d="M243.754 154.078C244.928 154.078 245.87 153.136 245.87 151.963C245.87 150.79 244.928 149.848 243.754 149.848C242.58 149.848 241.638 150.79 241.638 151.963C241.638 153.136 242.58 154.078 243.754 154.078Z" fill="#060606"/>
<path d="M267.557 154.078C268.731 154.078 269.673 153.136 269.673 151.963C269.673 150.79 268.731 149.848 267.557 149.848C266.384 149.848 265.441 150.79 265.441 151.963C265.441 153.136 266.384 154.078 267.557 154.078Z" fill="#060606"/>
<path d="M291.36 154.078C292.534 154.078 293.476 153.136 293.476 151.963C293.476 150.79 292.534 149.848 291.36 149.848C290.187 149.848 289.245 150.79 289.245 151.963C289.245 153.136 290.187 154.078 291.36 154.078Z" fill="#060606"/>
<path d="M315.164 154.078C316.337 154.078 317.28 153.136 317.28 151.963C317.28 150.79 316.337 149.848 315.164 149.848C313.99 149.848 313.048 150.79 313.048 151.963C313.048 153.136 313.99 154.078 315.164 154.078Z" fill="#060606"/>
<path d="M338.966 154.078C340.14 154.078 341.082 153.136 341.082 151.963C341.082 150.79 340.14 149.848 338.966 149.848C337.793 149.848 336.851 150.79 336.851 151.963C336.851 153.136 337.793 154.078 338.966 154.078Z" fill="#060606"/>
<path d="M362.77 154.078C363.943 154.078 364.885 153.136 364.885 151.963C364.885 150.79 363.943 149.848 362.77 149.848C361.596 149.848 360.654 150.79 360.654 151.963C360.654 153.136 361.596 154.078 362.77 154.078Z" fill="#060606"/>
<path d="M386.573 154.078C387.746 154.078 388.689 153.136 388.689 151.963C388.689 150.79 387.746 149.848 386.573 149.848C385.399 149.848 384.457 150.79 384.457 151.963C384.457 153.136 385.399 154.078 386.573 154.078Z" fill="#060606"/>
<path d="M410.376 154.078C411.55 154.078 412.492 153.136 412.492 151.963C412.492 150.79 411.55 149.848 410.376 149.848C409.202 149.848 408.26 150.79 408.26 151.963C408.26 153.136 409.202 154.078 410.376 154.078Z" fill="#060606"/>
<path d="M17.6236 177.877C18.7973 177.877 19.7395 176.935 19.7395 175.761C19.7395 174.588 18.7973 173.646 17.6236 173.646C16.45 173.646 15.5078 174.588 15.5078 175.761C15.5078 176.935 16.45 177.877 17.6236 177.877Z" fill="#060606"/>
<path d="M41.4269 177.877C42.6005 177.877 43.5427 176.935 43.5427 175.761C43.5427 174.588 42.6005 173.646 41.4269 173.646C40.2532 173.646 39.311 174.588 39.311 175.761C39.311 176.935 40.2532 177.877 41.4269 177.877Z" fill="#060606"/>
<path d="M65.2301 177.877C66.4037 177.877 67.3459 176.935 67.3459 175.761C67.3459 174.588 66.4037 173.646 65.2301 173.646C64.0565 173.646 63.1143 174.588 63.1143 175.761C63.1143 176.935 64.0565 177.877 65.2301 177.877Z" fill="#060606"/>
<path d="M89.0333 177.877C90.207 177.877 91.1492 176.935 91.1492 175.761C91.1492 174.588 90.207 173.646 89.0333 173.646C87.8597 173.646 86.9175 174.588 86.9175 175.761C86.9175 176.935 87.8597 177.877 89.0333 177.877Z" fill="#060606"/>
<path d="M112.837 177.877C114.01 177.877 114.952 176.935 114.952 175.761C114.952 174.588 114.01 173.646 112.837 173.646C111.663 173.646 110.721 174.588 110.721 175.761C110.721 176.935 111.663 177.877 112.837 177.877Z" fill="#060606"/>
<path d="M136.64 177.877C137.813 177.877 138.756 176.935 138.756 175.761C138.756 174.588 137.813 173.646 136.64 173.646C135.466 173.646 134.524 174.588 134.524 175.761C134.524 176.935 135.466 177.877 136.64 177.877Z" fill="#060606"/>
<path d="M160.443 177.877C161.617 177.877 162.559 176.935 162.559 175.761C162.559 174.588 161.617 173.646 160.443 173.646C159.269 173.646 158.327 174.588 158.327 175.761C158.327 176.935 159.269 177.877 160.443 177.877Z" fill="#060606"/>
<path d="M184.246 177.877C185.42 177.877 186.362 176.935 186.362 175.761C186.362 174.588 185.42 173.646 184.246 173.646C183.073 173.646 182.13 174.588 182.13 175.761C182.13 176.935 183.073 177.877 184.246 177.877Z" fill="#060606"/>
<path d="M208.049 177.877C209.223 177.877 210.165 176.935 210.165 175.761C210.165 174.588 209.223 173.646 208.049 173.646C206.876 173.646 205.934 174.588 205.934 175.761C205.934 176.935 206.876 177.877 208.049 177.877Z" fill="#060606"/>
<path d="M231.852 177.877C233.026 177.877 233.968 176.935 233.968 175.761C233.968 174.588 233.026 173.646 231.852 173.646C230.679 173.646 229.736 174.588 229.736 175.761C229.736 176.935 230.679 177.877 231.852 177.877Z" fill="#060606"/>
<path d="M255.655 177.877C256.829 177.877 257.771 176.935 257.771 175.761C257.771 174.588 256.829 173.646 255.655 173.646C254.482 173.646 253.54 174.588 253.54 175.761C253.54 176.935 254.482 177.877 255.655 177.877Z" fill="#060606"/>
<path d="M279.459 177.877C280.632 177.877 281.574 176.935 281.574 175.761C281.574 174.588 280.632 173.646 279.459 173.646C278.285 173.646 277.343 174.588 277.343 175.761C277.343 176.935 278.285 177.877 279.459 177.877Z" fill="#060606"/>
<path d="M303.262 177.877C304.435 177.877 305.378 176.935 305.378 175.761C305.378 174.588 304.435 173.646 303.262 173.646C302.088 173.646 301.146 174.588 301.146 175.761C301.146 176.935 302.088 177.877 303.262 177.877Z" fill="#060606"/>
<path d="M327.065 177.877C328.239 177.877 329.181 176.935 329.181 175.761C329.181 174.588 328.239 173.646 327.065 173.646C325.891 173.646 324.949 174.588 324.949 175.761C324.949 176.935 325.891 177.877 327.065 177.877Z" fill="#060606"/>
<path d="M350.868 177.877C352.042 177.877 352.984 176.935 352.984 175.761C352.984 174.588 352.042 173.646 350.868 173.646C349.695 173.646 348.752 174.588 348.752 175.761C348.752 176.935 349.695 177.877 350.868 177.877Z" fill="#060606"/>
<path d="M374.671 177.877C375.845 177.877 376.787 176.935 376.787 175.761C376.787 174.588 375.845 173.646 374.671 173.646C373.498 173.646 372.556 174.588 372.556 175.761C372.556 176.935 373.498 177.877 374.671 177.877Z" fill="#060606"/>
<path d="M398.475 177.877C399.648 177.877 400.591 176.935 400.591 175.761C400.591 174.588 399.648 173.646 398.475 173.646C397.301 173.646 396.359 174.588 396.359 175.761C396.359 176.935 397.301 177.877 398.475 177.877Z" fill="#060606"/>
<path d="M422.278 177.877C423.452 177.877 424.394 176.935 424.394 175.761C424.394 174.588 423.452 173.646 422.278 173.646C421.104 173.646 420.162 174.588 420.162 175.761C420.162 176.935 421.104 177.877 422.278 177.877Z" fill="#060606"/>
<path d="M5.72228 201.675C6.89591 201.675 7.83812 200.733 7.83812 199.56C7.83812 198.387 6.89591 197.445 5.72228 197.445C4.54866 197.445 3.60645 198.387 3.60645 199.56C3.60645 200.733 4.54866 201.675 5.72228 201.675Z" fill="#060606"/>
<path d="M29.5255 201.675C30.6991 201.675 31.6413 200.733 31.6413 199.56C31.6413 198.387 30.6991 197.445 29.5255 197.445C28.3519 197.445 27.4097 198.387 27.4097 199.56C27.4097 200.733 28.3519 201.675 29.5255 201.675Z" fill="#060606"/>
<path d="M53.3287 201.675C54.5024 201.675 55.4446 200.733 55.4446 199.56C55.4446 198.387 54.5024 197.445 53.3287 197.445C52.1551 197.445 51.2129 198.387 51.2129 199.56C51.2129 200.733 52.1551 201.675 53.3287 201.675Z" fill="#060606"/>
<path d="M77.1319 201.675C78.3056 201.675 79.2478 200.733 79.2478 199.56C79.2478 198.387 78.3056 197.445 77.1319 197.445C75.9583 197.445 75.0161 198.387 75.0161 199.56C75.0161 200.733 75.9583 201.675 77.1319 201.675Z" fill="#060606"/>
<path d="M100.935 201.675C102.108 201.675 103.051 200.733 103.051 199.56C103.051 198.387 102.108 197.445 100.935 197.445C99.7611 197.445 98.8188 198.387 98.8188 199.56C98.8188 200.733 99.7611 201.675 100.935 201.675Z" fill="#060606"/>
<path d="M124.738 201.675C125.912 201.675 126.854 200.733 126.854 199.56C126.854 198.387 125.912 197.445 124.738 197.445C123.564 197.445 122.622 198.387 122.622 199.56C122.622 200.733 123.564 201.675 124.738 201.675Z" fill="#060606"/>
<path d="M148.541 201.675C149.715 201.675 150.657 200.733 150.657 199.56C150.657 198.387 149.715 197.445 148.541 197.445C147.368 197.445 146.425 198.387 146.425 199.56C146.425 200.733 147.368 201.675 148.541 201.675Z" fill="#060606"/>
<path d="M172.344 201.675C173.518 201.675 174.46 200.733 174.46 199.56C174.46 198.387 173.518 197.445 172.344 197.445C171.171 197.445 170.229 198.387 170.229 199.56C170.229 200.733 171.171 201.675 172.344 201.675Z" fill="#060606"/>
<path d="M196.148 201.675C197.321 201.675 198.263 200.733 198.263 199.56C198.263 198.387 197.321 197.445 196.148 197.445C194.974 197.445 194.032 198.387 194.032 199.56C194.032 200.733 194.974 201.675 196.148 201.675Z" fill="#060606"/>
<path d="M219.951 201.675C221.124 201.675 222.067 200.733 222.067 199.56C222.067 198.387 221.124 197.445 219.951 197.445C218.777 197.445 217.835 198.387 217.835 199.56C217.835 200.733 218.777 201.675 219.951 201.675Z" fill="#060606"/>
<path d="M243.754 201.675C244.928 201.675 245.87 200.733 245.87 199.56C245.87 198.387 244.928 197.445 243.754 197.445C242.58 197.445 241.638 198.387 241.638 199.56C241.638 200.733 242.58 201.675 243.754 201.675Z" fill="#060606"/>
<path d="M267.557 201.675C268.731 201.675 269.673 200.733 269.673 199.56C269.673 198.387 268.731 197.445 267.557 197.445C266.384 197.445 265.441 198.387 265.441 199.56C265.441 200.733 266.384 201.675 267.557 201.675Z" fill="#060606"/>
<path d="M291.36 201.675C292.534 201.675 293.476 200.733 293.476 199.56C293.476 198.387 292.534 197.445 291.36 197.445C290.187 197.445 289.245 198.387 289.245 199.56C289.245 200.733 290.187 201.675 291.36 201.675Z" fill="#060606"/>
<path d="M315.164 201.675C316.337 201.675 317.28 200.733 317.28 199.56C317.28 198.387 316.337 197.445 315.164 197.445C313.99 197.445 313.048 198.387 313.048 199.56C313.048 200.733 313.99 201.675 315.164 201.675Z" fill="#060606"/>
<path d="M338.966 201.675C340.14 201.675 341.082 200.733 341.082 199.56C341.082 198.387 340.14 197.445 338.966 197.445C337.793 197.445 336.851 198.387 336.851 199.56C336.851 200.733 337.793 201.675 338.966 201.675Z" fill="#060606"/>
<path d="M362.77 201.675C363.943 201.675 364.885 200.733 364.885 199.56C364.885 198.387 363.943 197.445 362.77 197.445C361.596 197.445 360.654 198.387 360.654 199.56C360.654 200.733 361.596 201.675 362.77 201.675Z" fill="#060606"/>
<path d="M386.573 201.675C387.746 201.675 388.689 200.733 388.689 199.56C388.689 198.387 387.746 197.445 386.573 197.445C385.399 197.445 384.457 198.387 384.457 199.56C384.457 200.733 385.399 201.675 386.573 201.675Z" fill="#060606"/>
<path d="M410.376 201.675C411.55 201.675 412.492 200.733 412.492 199.56C412.492 198.387 411.55 197.445 410.376 197.445C409.202 197.445 408.26 198.387 408.26 199.56C408.26 200.733 409.202 201.675 410.376 201.675Z" fill="#060606"/>
<path d="M17.6236 225.474C18.7973 225.474 19.7395 224.532 19.7395 223.359C19.7395 222.185 18.7973 221.243 17.6236 221.243C16.45 221.243 15.5078 222.185 15.5078 223.359C15.5078 224.532 16.45 225.474 17.6236 225.474Z" fill="#060606"/>
<path d="M41.4269 225.474C42.5954 225.474 43.5427 224.527 43.5427 223.359C43.5427 222.19 42.5954 221.243 41.4269 221.243C40.2583 221.243 39.311 222.19 39.311 223.359C39.311 224.527 40.2583 225.474 41.4269 225.474Z" fill="#060606"/>
<path d="M65.2301 225.474C66.4037 225.474 67.3459 224.532 67.3459 223.359C67.3459 222.185 66.4037 221.243 65.2301 221.243C64.0565 221.243 63.1143 222.185 63.1143 223.359C63.1143 224.532 64.0565 225.474 65.2301 225.474Z" fill="#060606"/>
<path d="M89.0333 225.474C90.207 225.474 91.1492 224.532 91.1492 223.359C91.1492 222.185 90.207 221.243 89.0333 221.243C87.8597 221.243 86.9175 222.185 86.9175 223.359C86.9175 224.532 87.8597 225.474 89.0333 225.474Z" fill="#060606"/>
<path d="M112.837 225.474C114.01 225.474 114.952 224.532 114.952 223.359C114.952 222.185 114.01 221.243 112.837 221.243C111.663 221.243 110.721 222.185 110.721 223.359C110.721 224.532 111.663 225.474 112.837 225.474Z" fill="#060606"/>
<path d="M136.64 225.474C137.813 225.474 138.756 224.532 138.756 223.359C138.756 222.185 137.813 221.243 136.64 221.243C135.466 221.243 134.524 222.185 134.524 223.359C134.524 224.532 135.466 225.474 136.64 225.474Z" fill="#060606"/>
<path d="M160.443 225.474C161.612 225.474 162.559 224.527 162.559 223.359C162.559 222.19 161.612 221.243 160.443 221.243C159.274 221.243 158.327 222.19 158.327 223.359C158.327 224.527 159.274 225.474 160.443 225.474Z" fill="#060606"/>
<path d="M184.246 225.474C185.42 225.474 186.362 224.532 186.362 223.359C186.362 222.185 185.42 221.243 184.246 221.243C183.073 221.243 182.13 222.185 182.13 223.359C182.13 224.532 183.073 225.474 184.246 225.474Z" fill="#060606"/>
<path d="M208.049 225.474C209.223 225.474 210.165 224.532 210.165 223.359C210.165 222.185 209.223 221.243 208.049 221.243C206.876 221.243 205.934 222.185 205.934 223.359C205.934 224.532 206.876 225.474 208.049 225.474Z" fill="#060606"/>
<path d="M231.852 225.474C233.026 225.474 233.968 224.532 233.968 223.359C233.968 222.185 233.026 221.243 231.852 221.243C230.679 221.243 229.736 222.185 229.736 223.359C229.736 224.532 230.679 225.474 231.852 225.474Z" fill="#060606"/>
<path d="M255.655 225.474C256.829 225.474 257.771 224.532 257.771 223.359C257.771 222.185 256.829 221.243 255.655 221.243C254.482 221.243 253.54 222.185 253.54 223.359C253.54 224.532 254.482 225.474 255.655 225.474Z" fill="#060606"/>
<path d="M279.459 225.474C280.627 225.474 281.574 224.527 281.574 223.359C281.574 222.19 280.627 221.243 279.459 221.243C278.29 221.243 277.343 222.19 277.343 223.359C277.343 224.527 278.29 225.474 279.459 225.474Z" fill="#060606"/>
<path d="M303.262 225.474C304.435 225.474 305.378 224.532 305.378 223.359C305.378 222.185 304.435 221.243 303.262 221.243C302.088 221.243 301.146 222.185 301.146 223.359C301.146 224.532 302.088 225.474 303.262 225.474Z" fill="#060606"/>
<path d="M327.065 225.474C328.239 225.474 329.181 224.532 329.181 223.359C329.181 222.185 328.239 221.243 327.065 221.243C325.891 221.243 324.949 222.185 324.949 223.359C324.949 224.532 325.891 225.474 327.065 225.474Z" fill="#060606"/>
<path d="M350.868 225.474C352.042 225.474 352.984 224.532 352.984 223.359C352.984 222.185 352.042 221.243 350.868 221.243C349.695 221.243 348.752 222.185 348.752 223.359C348.752 224.532 349.695 225.474 350.868 225.474Z" fill="#060606"/>
<path d="M374.671 225.474C375.845 225.474 376.787 224.532 376.787 223.359C376.787 222.185 375.845 221.243 374.671 221.243C373.498 221.243 372.556 222.185 372.556 223.359C372.556 224.532 373.498 225.474 374.671 225.474Z" fill="#060606"/>
<path d="M398.475 225.474C399.643 225.474 400.591 224.527 400.591 223.359C400.591 222.19 399.643 221.243 398.475 221.243C397.306 221.243 396.359 222.19 396.359 223.359C396.359 224.527 397.306 225.474 398.475 225.474Z" fill="#060606"/>
<path d="M422.278 225.474C423.452 225.474 424.394 224.532 424.394 223.359C424.394 222.185 423.452 221.243 422.278 221.243C421.104 221.243 420.162 222.185 420.162 223.359C420.162 224.532 421.104 225.474 422.278 225.474Z" fill="#060606"/>
</g>
</g>
</g>
<defs>
<radialGradient id="paint0_radial_1306_30303" cx="0" cy="0" r="1" gradientUnits="userSpaceOnUse" gradientTransform="translate(213.5 112.257) rotate(90) scale(125.743 225.598)">
<stop stop-color="#D9D9D9"/>
<stop offset="1" stop-color="#737373" stop-opacity="0"/>
</radialGradient>
<clipPath id="clip0_1306_30303">
<rect width="516" height="504" fill="white" transform="translate(-44 -16.7422)"/>
</clipPath>
</defs>
</svg>
