<svg width="620" height="136" viewBox="0 0 620 136" fill="none" xmlns="http://www.w3.org/2000/svg">
<g opacity="0.4" clip-path="url(#clip0_1218_187551)">
<mask id="mask0_1218_187551" style="mask-type:alpha" maskUnits="userSpaceOnUse" x="0" y="0" width="620" height="150">
<rect width="620" height="150" fill="url(#paint0_radial_1218_187551)"/>
<rect width="620" height="150" fill="black"/>
</mask>
<g mask="url(#mask0_1218_187551)">
<g opacity="0.2">
<g clip-path="url(#clip1_1218_187551)">
<path d="M5.72228 11.2894C6.89591 11.2894 7.83812 10.3474 7.83812 9.17402C7.83812 8.00062 6.89591 7.05859 5.72228 7.05859C4.54866 7.05859 3.60645 8.00062 3.60645 9.17402C3.60645 10.3474 4.54866 11.2894 5.72228 11.2894Z" fill="white"/>
<path d="M29.5253 11.2894C30.6989 11.2894 31.6411 10.3474 31.6411 9.17402C31.6411 8.00062 30.6989 7.05859 29.5253 7.05859C28.3516 7.05859 27.4094 8.00062 27.4094 9.17402C27.4094 10.3474 28.3516 11.2894 29.5253 11.2894Z" fill="white"/>
<path d="M53.3285 11.2894C54.5021 11.2894 55.4443 10.3474 55.4443 9.17402C55.4443 8.00062 54.5021 7.05859 53.3285 7.05859C52.1549 7.05859 51.2126 8.00062 51.2126 9.17402C51.2126 10.3474 52.1549 11.2894 53.3285 11.2894Z" fill="white"/>
<path d="M77.1317 11.2894C78.3053 11.2894 79.2475 10.3474 79.2475 9.17402C79.2475 8.00062 78.3053 7.05859 77.1317 7.05859C75.9581 7.05859 75.0159 8.00062 75.0159 9.17402C75.0159 10.3474 75.9581 11.2894 77.1317 11.2894Z" fill="white"/>
<path d="M100.935 11.2894C102.103 11.2894 103.051 10.3423 103.051 9.17402C103.051 8.0057 102.103 7.05859 100.935 7.05859C99.7664 7.05859 98.8191 8.0057 98.8191 9.17402C98.8191 10.3423 99.7664 11.2894 100.935 11.2894Z" fill="white"/>
<path d="M124.738 11.2894C125.912 11.2894 126.854 10.3474 126.854 9.17402C126.854 8.00062 125.912 7.05859 124.738 7.05859C123.565 7.05859 122.622 8.00062 122.622 9.17402C122.622 10.3474 123.565 11.2894 124.738 11.2894Z" fill="white"/>
<path d="M148.541 11.2894C149.715 11.2894 150.657 10.3474 150.657 9.17402C150.657 8.00062 149.715 7.05859 148.541 7.05859C147.368 7.05859 146.425 8.00062 146.425 9.17402C146.425 10.3474 147.368 11.2894 148.541 11.2894Z" fill="white"/>
<path d="M172.344 11.2894C173.518 11.2894 174.46 10.3474 174.46 9.17402C174.46 8.00062 173.518 7.05859 172.344 7.05859C171.171 7.05859 170.229 8.00062 170.229 9.17402C170.229 10.3474 171.171 11.2894 172.344 11.2894Z" fill="white"/>
<path d="M196.148 11.2894C197.321 11.2894 198.263 10.3474 198.263 9.17402C198.263 8.00062 197.321 7.05859 196.148 7.05859C194.974 7.05859 194.032 8.00062 194.032 9.17402C194.032 10.3474 194.974 11.2894 196.148 11.2894Z" fill="white"/>
<path d="M219.951 11.2894C221.119 11.2894 222.067 10.3423 222.067 9.17402C222.067 8.0057 221.119 7.05859 219.951 7.05859C218.782 7.05859 217.835 8.0057 217.835 9.17402C217.835 10.3423 218.782 11.2894 219.951 11.2894Z" fill="white"/>
<path d="M243.754 11.2894C244.928 11.2894 245.87 10.3474 245.87 9.17402C245.87 8.00062 244.928 7.05859 243.754 7.05859C242.58 7.05859 241.638 8.00062 241.638 9.17402C241.638 10.3474 242.58 11.2894 243.754 11.2894Z" fill="white"/>
<path d="M267.557 11.2894C268.731 11.2894 269.673 10.3474 269.673 9.17402C269.673 8.00062 268.731 7.05859 267.557 7.05859C266.384 7.05859 265.441 8.00062 265.441 9.17402C265.441 10.3474 266.384 11.2894 267.557 11.2894Z" fill="white"/>
<path d="M291.36 11.2894C292.534 11.2894 293.476 10.3474 293.476 9.17402C293.476 8.00062 292.534 7.05859 291.36 7.05859C290.187 7.05859 289.245 8.00062 289.245 9.17402C289.245 10.3474 290.187 11.2894 291.36 11.2894Z" fill="white"/>
<path d="M315.163 11.2894C316.337 11.2894 317.279 10.3474 317.279 9.17402C317.279 8.00062 316.337 7.05859 315.163 7.05859C313.99 7.05859 313.048 8.00062 313.048 9.17402C313.048 10.3474 313.99 11.2894 315.163 11.2894Z" fill="white"/>
<path d="M338.967 11.2894C340.135 11.2894 341.083 10.3423 341.083 9.17402C341.083 8.0057 340.135 7.05859 338.967 7.05859C337.798 7.05859 336.851 8.0057 336.851 9.17402C336.851 10.3423 337.798 11.2894 338.967 11.2894Z" fill="white"/>
<path d="M362.77 11.2894C363.944 11.2894 364.886 10.3474 364.886 9.17402C364.886 8.00062 363.944 7.05859 362.77 7.05859C361.596 7.05859 360.654 8.00062 360.654 9.17402C360.654 10.3474 361.596 11.2894 362.77 11.2894Z" fill="white"/>
<path d="M386.573 11.2894C387.747 11.2894 388.689 10.3474 388.689 9.17402C388.689 8.00062 387.747 7.05859 386.573 7.05859C385.399 7.05859 384.457 8.00062 384.457 9.17402C384.457 10.3474 385.399 11.2894 386.573 11.2894Z" fill="white"/>
<path d="M410.376 11.2894C411.55 11.2894 412.492 10.3474 412.492 9.17402C412.492 8.00062 411.55 7.05859 410.376 7.05859C409.203 7.05859 408.26 8.00062 408.26 9.17402C408.26 10.3474 409.203 11.2894 410.376 11.2894Z" fill="white"/>
<path d="M434.179 11.2894C435.353 11.2894 436.295 10.3474 436.295 9.17402C436.295 8.00062 435.353 7.05859 434.179 7.05859C433.006 7.05859 432.063 8.00062 432.063 9.17402C432.063 10.3474 433.006 11.2894 434.179 11.2894Z" fill="white"/>
<path d="M457.983 11.2894C459.151 11.2894 460.098 10.3423 460.098 9.17402C460.098 8.0057 459.151 7.05859 457.983 7.05859C456.814 7.05859 455.867 8.0057 455.867 9.17402C455.867 10.3423 456.814 11.2894 457.983 11.2894Z" fill="white"/>
<path d="M17.6239 35.0873C18.7975 35.0873 19.7397 34.1453 19.7397 32.9719C19.7397 31.7985 18.7975 30.8564 17.6239 30.8564C16.4503 30.8564 15.5081 31.7985 15.5081 32.9719C15.5081 34.1453 16.4503 35.0873 17.6239 35.0873Z" fill="white"/>
<path d="M41.4269 35.0873C42.6005 35.0873 43.5427 34.1453 43.5427 32.9719C43.5427 31.7985 42.6005 30.8564 41.4269 30.8564C40.2532 30.8564 39.311 31.7985 39.311 32.9719C39.311 34.1453 40.2532 35.0873 41.4269 35.0873Z" fill="white"/>
<path d="M65.2301 35.0873C66.4037 35.0873 67.3459 34.1453 67.3459 32.9719C67.3459 31.7985 66.4037 30.8564 65.2301 30.8564C64.0565 30.8564 63.1143 31.7985 63.1143 32.9719C63.1143 34.1453 64.0565 35.0873 65.2301 35.0873Z" fill="white"/>
<path d="M89.0333 35.0873C90.207 35.0873 91.1492 34.1453 91.1492 32.9719C91.1492 31.7985 90.207 30.8564 89.0333 30.8564C87.8597 30.8564 86.9175 31.7985 86.9175 32.9719C86.9175 34.1453 87.8597 35.0873 89.0333 35.0873Z" fill="white"/>
<path d="M112.837 35.0873C114.01 35.0873 114.952 34.1453 114.952 32.9719C114.952 31.7985 114.01 30.8564 112.837 30.8564C111.663 30.8564 110.721 31.7985 110.721 32.9719C110.721 34.1453 111.663 35.0873 112.837 35.0873Z" fill="white"/>
<path d="M136.64 35.0873C137.813 35.0873 138.756 34.1453 138.756 32.9719C138.756 31.7985 137.813 30.8564 136.64 30.8564C135.466 30.8564 134.524 31.7985 134.524 32.9719C134.524 34.1453 135.466 35.0873 136.64 35.0873Z" fill="white"/>
<path d="M160.443 35.0873C161.616 35.0873 162.559 34.1453 162.559 32.9719C162.559 31.7985 161.616 30.8564 160.443 30.8564C159.269 30.8564 158.327 31.7985 158.327 32.9719C158.327 34.1453 159.269 35.0873 160.443 35.0873Z" fill="white"/>
<path d="M184.246 35.0873C185.42 35.0873 186.362 34.1453 186.362 32.9719C186.362 31.7985 185.42 30.8564 184.246 30.8564C183.072 30.8564 182.13 31.7985 182.13 32.9719C182.13 34.1453 183.072 35.0873 184.246 35.0873Z" fill="white"/>
<path d="M208.049 35.0873C209.223 35.0873 210.165 34.1453 210.165 32.9719C210.165 31.7985 209.223 30.8564 208.049 30.8564C206.876 30.8564 205.933 31.7985 205.933 32.9719C205.933 34.1453 206.876 35.0873 208.049 35.0873Z" fill="white"/>
<path d="M231.852 35.0873C233.026 35.0873 233.968 34.1453 233.968 32.9719C233.968 31.7985 233.026 30.8564 231.852 30.8564C230.679 30.8564 229.737 31.7985 229.737 32.9719C229.737 34.1453 230.679 35.0873 231.852 35.0873Z" fill="white"/>
<path d="M255.656 35.0873C256.829 35.0873 257.771 34.1453 257.771 32.9719C257.771 31.7985 256.829 30.8564 255.656 30.8564C254.482 30.8564 253.54 31.7985 253.54 32.9719C253.54 34.1453 254.482 35.0873 255.656 35.0873Z" fill="white"/>
<path d="M279.459 35.0873C280.632 35.0873 281.574 34.1453 281.574 32.9719C281.574 31.7985 280.632 30.8564 279.459 30.8564C278.285 30.8564 277.343 31.7985 277.343 32.9719C277.343 34.1453 278.285 35.0873 279.459 35.0873Z" fill="white"/>
<path d="M303.262 35.0873C304.436 35.0873 305.378 34.1453 305.378 32.9719C305.378 31.7985 304.436 30.8564 303.262 30.8564C302.088 30.8564 301.146 31.7985 301.146 32.9719C301.146 34.1453 302.088 35.0873 303.262 35.0873Z" fill="white"/>
<path d="M327.065 35.0873C328.239 35.0873 329.181 34.1453 329.181 32.9719C329.181 31.7985 328.239 30.8564 327.065 30.8564C325.891 30.8564 324.949 31.7985 324.949 32.9719C324.949 34.1453 325.891 35.0873 327.065 35.0873Z" fill="white"/>
<path d="M350.868 35.0873C352.042 35.0873 352.984 34.1453 352.984 32.9719C352.984 31.7985 352.042 30.8564 350.868 30.8564C349.695 30.8564 348.752 31.7985 348.752 32.9719C348.752 34.1453 349.695 35.0873 350.868 35.0873Z" fill="white"/>
<path d="M374.671 35.0873C375.845 35.0873 376.787 34.1453 376.787 32.9719C376.787 31.7985 375.845 30.8564 374.671 30.8564C373.498 30.8564 372.556 31.7985 372.556 32.9719C372.556 34.1453 373.498 35.0873 374.671 35.0873Z" fill="white"/>
<path d="M398.475 35.0873C399.648 35.0873 400.59 34.1453 400.59 32.9719C400.59 31.7985 399.648 30.8564 398.475 30.8564C397.301 30.8564 396.359 31.7985 396.359 32.9719C396.359 34.1453 397.301 35.0873 398.475 35.0873Z" fill="white"/>
<path d="M422.278 35.0873C423.451 35.0873 424.394 34.1453 424.394 32.9719C424.394 31.7985 423.451 30.8564 422.278 30.8564C421.104 30.8564 420.162 31.7985 420.162 32.9719C420.162 34.1453 421.104 35.0873 422.278 35.0873Z" fill="white"/>
<path d="M446.081 35.0873C447.255 35.0873 448.197 34.1453 448.197 32.9719C448.197 31.7985 447.255 30.8564 446.081 30.8564C444.907 30.8564 443.965 31.7985 443.965 32.9719C443.965 34.1453 444.907 35.0873 446.081 35.0873Z" fill="white"/>
<path d="M469.884 35.0873C471.058 35.0873 472 34.1453 472 32.9719C472 31.7985 471.058 30.8564 469.884 30.8564C468.711 30.8564 467.768 31.7985 467.768 32.9719C467.768 34.1453 468.711 35.0873 469.884 35.0873Z" fill="white"/>
<path d="M5.72228 58.8861C6.89591 58.8861 7.83812 57.9441 7.83812 56.7707C7.83812 55.5973 6.89591 54.6553 5.72228 54.6553C4.54866 54.6553 3.60645 55.5973 3.60645 56.7707C3.60645 57.9441 4.54866 58.8861 5.72228 58.8861Z" fill="white"/>
<path d="M29.5253 58.8861C30.6989 58.8861 31.6411 57.9441 31.6411 56.7707C31.6411 55.5973 30.6989 54.6553 29.5253 54.6553C28.3516 54.6553 27.4094 55.5973 27.4094 56.7707C27.4094 57.9441 28.3516 58.8861 29.5253 58.8861Z" fill="white"/>
<path d="M53.3285 58.8861C54.5021 58.8861 55.4443 57.9441 55.4443 56.7707C55.4443 55.5973 54.5021 54.6553 53.3285 54.6553C52.1549 54.6553 51.2126 55.5973 51.2126 56.7707C51.2126 57.9441 52.1549 58.8861 53.3285 58.8861Z" fill="white"/>
<path d="M77.1317 58.8861C78.3053 58.8861 79.2475 57.9441 79.2475 56.7707C79.2475 55.5973 78.3053 54.6553 77.1317 54.6553C75.9581 54.6553 75.0159 55.5973 75.0159 56.7707C75.0159 57.9441 75.9581 58.8861 77.1317 58.8861Z" fill="white"/>
<path d="M100.935 58.8861C102.109 58.8861 103.051 57.9441 103.051 56.7707C103.051 55.5973 102.109 54.6553 100.935 54.6553C99.7613 54.6553 98.8191 55.5973 98.8191 56.7707C98.8191 57.9441 99.7613 58.8861 100.935 58.8861Z" fill="white"/>
<path d="M124.738 58.8861C125.912 58.8861 126.854 57.9441 126.854 56.7707C126.854 55.5973 125.912 54.6553 124.738 54.6553C123.565 54.6553 122.622 55.5973 122.622 56.7707C122.622 57.9441 123.565 58.8861 124.738 58.8861Z" fill="white"/>
<path d="M148.541 58.8861C149.715 58.8861 150.657 57.9441 150.657 56.7707C150.657 55.5973 149.715 54.6553 148.541 54.6553C147.368 54.6553 146.425 55.5973 146.425 56.7707C146.425 57.9441 147.368 58.8861 148.541 58.8861Z" fill="white"/>
<path d="M172.344 58.8861C173.518 58.8861 174.46 57.9441 174.46 56.7707C174.46 55.5973 173.518 54.6553 172.344 54.6553C171.171 54.6553 170.229 55.5973 170.229 56.7707C170.229 57.9441 171.171 58.8861 172.344 58.8861Z" fill="white"/>
<path d="M196.148 58.8861C197.321 58.8861 198.263 57.9441 198.263 56.7707C198.263 55.5973 197.321 54.6553 196.148 54.6553C194.974 54.6553 194.032 55.5973 194.032 56.7707C194.032 57.9441 194.974 58.8861 196.148 58.8861Z" fill="white"/>
<path d="M219.951 58.8861C221.124 58.8861 222.067 57.9441 222.067 56.7707C222.067 55.5973 221.124 54.6553 219.951 54.6553C218.777 54.6553 217.835 55.5973 217.835 56.7707C217.835 57.9441 218.777 58.8861 219.951 58.8861Z" fill="white"/>
<path d="M243.754 58.8861C244.928 58.8861 245.87 57.9441 245.87 56.7707C245.87 55.5973 244.928 54.6553 243.754 54.6553C242.58 54.6553 241.638 55.5973 241.638 56.7707C241.638 57.9441 242.58 58.8861 243.754 58.8861Z" fill="white"/>
<path d="M267.557 58.8861C268.731 58.8861 269.673 57.9441 269.673 56.7707C269.673 55.5973 268.731 54.6553 267.557 54.6553C266.384 54.6553 265.441 55.5973 265.441 56.7707C265.441 57.9441 266.384 58.8861 267.557 58.8861Z" fill="white"/>
<path d="M291.36 58.8861C292.534 58.8861 293.476 57.9441 293.476 56.7707C293.476 55.5973 292.534 54.6553 291.36 54.6553C290.187 54.6553 289.245 55.5973 289.245 56.7707C289.245 57.9441 290.187 58.8861 291.36 58.8861Z" fill="white"/>
<path d="M315.163 58.8861C316.337 58.8861 317.279 57.9441 317.279 56.7707C317.279 55.5973 316.337 54.6553 315.163 54.6553C313.99 54.6553 313.048 55.5973 313.048 56.7707C313.048 57.9441 313.99 58.8861 315.163 58.8861Z" fill="white"/>
<path d="M338.967 58.8861C340.14 58.8861 341.083 57.9441 341.083 56.7707C341.083 55.5973 340.14 54.6553 338.967 54.6553C337.793 54.6553 336.851 55.5973 336.851 56.7707C336.851 57.9441 337.793 58.8861 338.967 58.8861Z" fill="white"/>
<path d="M362.77 58.8861C363.944 58.8861 364.886 57.9441 364.886 56.7707C364.886 55.5973 363.944 54.6553 362.77 54.6553C361.596 54.6553 360.654 55.5973 360.654 56.7707C360.654 57.9441 361.596 58.8861 362.77 58.8861Z" fill="white"/>
<path d="M386.573 58.8861C387.747 58.8861 388.689 57.9441 388.689 56.7707C388.689 55.5973 387.747 54.6553 386.573 54.6553C385.399 54.6553 384.457 55.5973 384.457 56.7707C384.457 57.9441 385.399 58.8861 386.573 58.8861Z" fill="white"/>
<path d="M410.376 58.8861C411.55 58.8861 412.492 57.9441 412.492 56.7707C412.492 55.5973 411.55 54.6553 410.376 54.6553C409.203 54.6553 408.26 55.5973 408.26 56.7707C408.26 57.9441 409.203 58.8861 410.376 58.8861Z" fill="white"/>
<path d="M434.179 58.8861C435.353 58.8861 436.295 57.9441 436.295 56.7707C436.295 55.5973 435.353 54.6553 434.179 54.6553C433.006 54.6553 432.063 55.5973 432.063 56.7707C432.063 57.9441 433.006 58.8861 434.179 58.8861Z" fill="white"/>
<path d="M457.983 58.8861C459.156 58.8861 460.098 57.9441 460.098 56.7707C460.098 55.5973 459.156 54.6553 457.983 54.6553C456.809 54.6553 455.867 55.5973 455.867 56.7707C455.867 57.9441 456.809 58.8861 457.983 58.8861Z" fill="white"/>
<path d="M17.6239 82.685C18.7975 82.685 19.7397 81.7429 19.7397 80.5695C19.7397 79.3961 18.7975 78.4541 17.6239 78.4541C16.4503 78.4541 15.5081 79.3961 15.5081 80.5695C15.5081 81.7429 16.4503 82.685 17.6239 82.685Z" fill="white"/>
<path d="M41.4269 82.685C42.6005 82.685 43.5427 81.7429 43.5427 80.5695C43.5427 79.3961 42.6005 78.4541 41.4269 78.4541C40.2532 78.4541 39.311 79.3961 39.311 80.5695C39.311 81.7429 40.2532 82.685 41.4269 82.685Z" fill="white"/>
<path d="M65.2301 82.685C66.4037 82.685 67.3459 81.7429 67.3459 80.5695C67.3459 79.3961 66.4037 78.4541 65.2301 78.4541C64.0565 78.4541 63.1143 79.3961 63.1143 80.5695C63.1143 81.7429 64.0565 82.685 65.2301 82.685Z" fill="white"/>
<path d="M89.0333 82.685C90.207 82.685 91.1492 81.7429 91.1492 80.5695C91.1492 79.3961 90.207 78.4541 89.0333 78.4541C87.8597 78.4541 86.9175 79.3961 86.9175 80.5695C86.9175 81.7429 87.8597 82.685 89.0333 82.685Z" fill="white"/>
<path d="M112.837 82.685C114.01 82.685 114.952 81.7429 114.952 80.5695C114.952 79.3961 114.01 78.4541 112.837 78.4541C111.663 78.4541 110.721 79.3961 110.721 80.5695C110.721 81.7429 111.663 82.685 112.837 82.685Z" fill="white"/>
<path d="M136.64 82.685C137.813 82.685 138.756 81.7429 138.756 80.5695C138.756 79.3961 137.813 78.4541 136.64 78.4541C135.466 78.4541 134.524 79.3961 134.524 80.5695C134.524 81.7429 135.466 82.685 136.64 82.685Z" fill="white"/>
<path d="M160.443 82.685C161.616 82.685 162.559 81.7429 162.559 80.5695C162.559 79.3961 161.616 78.4541 160.443 78.4541C159.269 78.4541 158.327 79.3961 158.327 80.5695C158.327 81.7429 159.269 82.685 160.443 82.685Z" fill="white"/>
<path d="M184.246 82.685C185.42 82.685 186.362 81.7429 186.362 80.5695C186.362 79.3961 185.42 78.4541 184.246 78.4541C183.072 78.4541 182.13 79.3961 182.13 80.5695C182.13 81.7429 183.072 82.685 184.246 82.685Z" fill="white"/>
<path d="M208.049 82.685C209.223 82.685 210.165 81.7429 210.165 80.5695C210.165 79.3961 209.223 78.4541 208.049 78.4541C206.876 78.4541 205.933 79.3961 205.933 80.5695C205.933 81.7429 206.876 82.685 208.049 82.685Z" fill="white"/>
<path d="M231.852 82.685C233.026 82.685 233.968 81.7429 233.968 80.5695C233.968 79.3961 233.026 78.4541 231.852 78.4541C230.679 78.4541 229.737 79.3961 229.737 80.5695C229.737 81.7429 230.679 82.685 231.852 82.685Z" fill="white"/>
<path d="M255.656 82.685C256.829 82.685 257.771 81.7429 257.771 80.5695C257.771 79.3961 256.829 78.4541 255.656 78.4541C254.482 78.4541 253.54 79.3961 253.54 80.5695C253.54 81.7429 254.482 82.685 255.656 82.685Z" fill="white"/>
<path d="M279.459 82.685C280.632 82.685 281.574 81.7429 281.574 80.5695C281.574 79.3961 280.632 78.4541 279.459 78.4541C278.285 78.4541 277.343 79.3961 277.343 80.5695C277.343 81.7429 278.285 82.685 279.459 82.685Z" fill="white"/>
<path d="M303.262 82.685C304.436 82.685 305.378 81.7429 305.378 80.5695C305.378 79.3961 304.436 78.4541 303.262 78.4541C302.088 78.4541 301.146 79.3961 301.146 80.5695C301.146 81.7429 302.088 82.685 303.262 82.685Z" fill="white"/>
<path d="M327.065 82.685C328.239 82.685 329.181 81.7429 329.181 80.5695C329.181 79.3961 328.239 78.4541 327.065 78.4541C325.891 78.4541 324.949 79.3961 324.949 80.5695C324.949 81.7429 325.891 82.685 327.065 82.685Z" fill="white"/>
<path d="M350.868 82.685C352.042 82.685 352.984 81.7429 352.984 80.5695C352.984 79.3961 352.042 78.4541 350.868 78.4541C349.695 78.4541 348.752 79.3961 348.752 80.5695C348.752 81.7429 349.695 82.685 350.868 82.685Z" fill="white"/>
<path d="M374.671 82.685C375.845 82.685 376.787 81.7429 376.787 80.5695C376.787 79.3961 375.845 78.4541 374.671 78.4541C373.498 78.4541 372.556 79.3961 372.556 80.5695C372.556 81.7429 373.498 82.685 374.671 82.685Z" fill="white"/>
<path d="M398.475 82.685C399.648 82.685 400.59 81.7429 400.59 80.5695C400.59 79.3961 399.648 78.4541 398.475 78.4541C397.301 78.4541 396.359 79.3961 396.359 80.5695C396.359 81.7429 397.301 82.685 398.475 82.685Z" fill="white"/>
<path d="M422.278 82.685C423.451 82.685 424.394 81.7429 424.394 80.5695C424.394 79.3961 423.451 78.4541 422.278 78.4541C421.104 78.4541 420.162 79.3961 420.162 80.5695C420.162 81.7429 421.104 82.685 422.278 82.685Z" fill="white"/>
<path d="M446.081 82.685C447.255 82.685 448.197 81.7429 448.197 80.5695C448.197 79.3961 447.255 78.4541 446.081 78.4541C444.907 78.4541 443.965 79.3961 443.965 80.5695C443.965 81.7429 444.907 82.685 446.081 82.685Z" fill="white"/>
<path d="M469.884 82.685C471.058 82.685 472 81.7429 472 80.5695C472 79.3961 471.058 78.4541 469.884 78.4541C468.711 78.4541 467.768 79.3961 467.768 80.5695C467.768 81.7429 468.711 82.685 469.884 82.685Z" fill="white"/>
<path d="M5.72228 106.483C6.89591 106.483 7.83812 105.541 7.83812 104.367C7.83812 103.194 6.89591 102.252 5.72228 102.252C4.54866 102.252 3.60645 103.194 3.60645 104.367C3.60645 105.541 4.54866 106.483 5.72228 106.483Z" fill="white"/>
<path d="M29.5253 106.483C30.6989 106.483 31.6411 105.541 31.6411 104.367C31.6411 103.194 30.6989 102.252 29.5253 102.252C28.3516 102.252 27.4094 103.194 27.4094 104.367C27.4094 105.541 28.3516 106.483 29.5253 106.483Z" fill="white"/>
<path d="M53.3285 106.483C54.5021 106.483 55.4443 105.541 55.4443 104.367C55.4443 103.194 54.5021 102.252 53.3285 102.252C52.1549 102.252 51.2126 103.194 51.2126 104.367C51.2126 105.541 52.1549 106.483 53.3285 106.483Z" fill="white"/>
<path d="M77.1317 106.483C78.3053 106.483 79.2475 105.541 79.2475 104.367C79.2475 103.194 78.3053 102.252 77.1317 102.252C75.9581 102.252 75.0159 103.194 75.0159 104.367C75.0159 105.541 75.9581 106.483 77.1317 106.483Z" fill="white"/>
<path d="M100.935 106.483C102.103 106.483 103.051 105.536 103.051 104.367C103.051 103.199 102.103 102.252 100.935 102.252C99.7664 102.252 98.8191 103.199 98.8191 104.367C98.8191 105.536 99.7664 106.483 100.935 106.483Z" fill="white"/>
<path d="M124.738 106.483C125.912 106.483 126.854 105.541 126.854 104.367C126.854 103.194 125.912 102.252 124.738 102.252C123.565 102.252 122.622 103.194 122.622 104.367C122.622 105.541 123.565 106.483 124.738 106.483Z" fill="white"/>
<path d="M148.541 106.483C149.715 106.483 150.657 105.541 150.657 104.367C150.657 103.194 149.715 102.252 148.541 102.252C147.368 102.252 146.425 103.194 146.425 104.367C146.425 105.541 147.368 106.483 148.541 106.483Z" fill="white"/>
<path d="M172.344 106.483C173.518 106.483 174.46 105.541 174.46 104.367C174.46 103.194 173.518 102.252 172.344 102.252C171.171 102.252 170.229 103.194 170.229 104.367C170.229 105.541 171.171 106.483 172.344 106.483Z" fill="white"/>
<path d="M196.148 106.483C197.321 106.483 198.263 105.541 198.263 104.367C198.263 103.194 197.321 102.252 196.148 102.252C194.974 102.252 194.032 103.194 194.032 104.367C194.032 105.541 194.974 106.483 196.148 106.483Z" fill="white"/>
<path d="M219.951 106.483C221.119 106.483 222.067 105.536 222.067 104.367C222.067 103.199 221.119 102.252 219.951 102.252C218.782 102.252 217.835 103.199 217.835 104.367C217.835 105.536 218.782 106.483 219.951 106.483Z" fill="white"/>
<path d="M243.754 106.483C244.928 106.483 245.87 105.541 245.87 104.367C245.87 103.194 244.928 102.252 243.754 102.252C242.58 102.252 241.638 103.194 241.638 104.367C241.638 105.541 242.58 106.483 243.754 106.483Z" fill="white"/>
<path d="M267.557 106.483C268.731 106.483 269.673 105.541 269.673 104.367C269.673 103.194 268.731 102.252 267.557 102.252C266.384 102.252 265.441 103.194 265.441 104.367C265.441 105.541 266.384 106.483 267.557 106.483Z" fill="white"/>
<path d="M291.36 106.483C292.534 106.483 293.476 105.541 293.476 104.367C293.476 103.194 292.534 102.252 291.36 102.252C290.187 102.252 289.245 103.194 289.245 104.367C289.245 105.541 290.187 106.483 291.36 106.483Z" fill="white"/>
<path d="M315.163 106.483C316.337 106.483 317.279 105.541 317.279 104.367C317.279 103.194 316.337 102.252 315.163 102.252C313.99 102.252 313.048 103.194 313.048 104.367C313.048 105.541 313.99 106.483 315.163 106.483Z" fill="white"/>
<path d="M338.967 106.483C340.135 106.483 341.083 105.536 341.083 104.367C341.083 103.199 340.135 102.252 338.967 102.252C337.798 102.252 336.851 103.199 336.851 104.367C336.851 105.536 337.798 106.483 338.967 106.483Z" fill="white"/>
<path d="M362.77 106.483C363.944 106.483 364.886 105.541 364.886 104.367C364.886 103.194 363.944 102.252 362.77 102.252C361.596 102.252 360.654 103.194 360.654 104.367C360.654 105.541 361.596 106.483 362.77 106.483Z" fill="white"/>
<path d="M386.573 106.483C387.747 106.483 388.689 105.541 388.689 104.367C388.689 103.194 387.747 102.252 386.573 102.252C385.399 102.252 384.457 103.194 384.457 104.367C384.457 105.541 385.399 106.483 386.573 106.483Z" fill="white"/>
<path d="M410.376 106.483C411.55 106.483 412.492 105.541 412.492 104.367C412.492 103.194 411.55 102.252 410.376 102.252C409.203 102.252 408.26 103.194 408.26 104.367C408.26 105.541 409.203 106.483 410.376 106.483Z" fill="white"/>
<path d="M434.179 106.483C435.353 106.483 436.295 105.541 436.295 104.367C436.295 103.194 435.353 102.252 434.179 102.252C433.006 102.252 432.063 103.194 432.063 104.367C432.063 105.541 433.006 106.483 434.179 106.483Z" fill="white"/>
<path d="M457.983 106.483C459.151 106.483 460.098 105.536 460.098 104.367C460.098 103.199 459.151 102.252 457.983 102.252C456.814 102.252 455.867 103.199 455.867 104.367C455.867 105.536 456.814 106.483 457.983 106.483Z" fill="white"/>
<path d="M17.6239 130.282C18.7975 130.282 19.7397 129.34 19.7397 128.166C19.7397 126.993 18.7975 126.051 17.6239 126.051C16.4503 126.051 15.5081 126.993 15.5081 128.166C15.5081 129.34 16.4503 130.282 17.6239 130.282Z" fill="white"/>
<path d="M41.4269 130.282C42.5954 130.282 43.5427 129.335 43.5427 128.166C43.5427 126.998 42.5954 126.051 41.4269 126.051C40.2583 126.051 39.311 126.998 39.311 128.166C39.311 129.335 40.2583 130.282 41.4269 130.282Z" fill="white"/>
<path d="M65.2301 130.282C66.4037 130.282 67.3459 129.34 67.3459 128.166C67.3459 126.993 66.4037 126.051 65.2301 126.051C64.0565 126.051 63.1143 126.993 63.1143 128.166C63.1143 129.34 64.0565 130.282 65.2301 130.282Z" fill="white"/>
<path d="M89.0333 130.282C90.207 130.282 91.1492 129.34 91.1492 128.166C91.1492 126.993 90.207 126.051 89.0333 126.051C87.8597 126.051 86.9175 126.993 86.9175 128.166C86.9175 129.34 87.8597 130.282 89.0333 130.282Z" fill="white"/>
<path d="M112.837 130.282C114.01 130.282 114.952 129.34 114.952 128.166C114.952 126.993 114.01 126.051 112.837 126.051C111.663 126.051 110.721 126.993 110.721 128.166C110.721 129.34 111.663 130.282 112.837 130.282Z" fill="white"/>
<path d="M136.64 130.282C137.813 130.282 138.756 129.34 138.756 128.166C138.756 126.993 137.813 126.051 136.64 126.051C135.466 126.051 134.524 126.993 134.524 128.166C134.524 129.34 135.466 130.282 136.64 130.282Z" fill="white"/>
<path d="M160.443 130.282C161.611 130.282 162.559 129.335 162.559 128.166C162.559 126.998 161.611 126.051 160.443 126.051C159.274 126.051 158.327 126.998 158.327 128.166C158.327 129.335 159.274 130.282 160.443 130.282Z" fill="white"/>
<path d="M184.246 130.282C185.42 130.282 186.362 129.34 186.362 128.166C186.362 126.993 185.42 126.051 184.246 126.051C183.072 126.051 182.13 126.993 182.13 128.166C182.13 129.34 183.072 130.282 184.246 130.282Z" fill="white"/>
<path d="M208.049 130.282C209.223 130.282 210.165 129.34 210.165 128.166C210.165 126.993 209.223 126.051 208.049 126.051C206.876 126.051 205.933 126.993 205.933 128.166C205.933 129.34 206.876 130.282 208.049 130.282Z" fill="white"/>
<path d="M231.852 130.282C233.026 130.282 233.968 129.34 233.968 128.166C233.968 126.993 233.026 126.051 231.852 126.051C230.679 126.051 229.737 126.993 229.737 128.166C229.737 129.34 230.679 130.282 231.852 130.282Z" fill="white"/>
<path d="M255.656 130.282C256.829 130.282 257.771 129.34 257.771 128.166C257.771 126.993 256.829 126.051 255.656 126.051C254.482 126.051 253.54 126.993 253.54 128.166C253.54 129.34 254.482 130.282 255.656 130.282Z" fill="white"/>
<path d="M279.459 130.282C280.627 130.282 281.574 129.335 281.574 128.166C281.574 126.998 280.627 126.051 279.459 126.051C278.29 126.051 277.343 126.998 277.343 128.166C277.343 129.335 278.29 130.282 279.459 130.282Z" fill="white"/>
<path d="M303.262 130.282C304.436 130.282 305.378 129.34 305.378 128.166C305.378 126.993 304.436 126.051 303.262 126.051C302.088 126.051 301.146 126.993 301.146 128.166C301.146 129.34 302.088 130.282 303.262 130.282Z" fill="white"/>
<path d="M327.065 130.282C328.239 130.282 329.181 129.34 329.181 128.166C329.181 126.993 328.239 126.051 327.065 126.051C325.891 126.051 324.949 126.993 324.949 128.166C324.949 129.34 325.891 130.282 327.065 130.282Z" fill="white"/>
<path d="M350.868 130.282C352.042 130.282 352.984 129.34 352.984 128.166C352.984 126.993 352.042 126.051 350.868 126.051C349.695 126.051 348.752 126.993 348.752 128.166C348.752 129.34 349.695 130.282 350.868 130.282Z" fill="white"/>
<path d="M374.671 130.282C375.845 130.282 376.787 129.34 376.787 128.166C376.787 126.993 375.845 126.051 374.671 126.051C373.498 126.051 372.556 126.993 372.556 128.166C372.556 129.34 373.498 130.282 374.671 130.282Z" fill="white"/>
<path d="M398.475 130.282C399.643 130.282 400.59 129.335 400.59 128.166C400.59 126.998 399.643 126.051 398.475 126.051C397.306 126.051 396.359 126.998 396.359 128.166C396.359 129.335 397.306 130.282 398.475 130.282Z" fill="white"/>
<path d="M422.278 130.282C423.451 130.282 424.394 129.34 424.394 128.166C424.394 126.993 423.451 126.051 422.278 126.051C421.104 126.051 420.162 126.993 420.162 128.166C420.162 129.34 421.104 130.282 422.278 130.282Z" fill="white"/>
<path d="M446.081 130.282C447.255 130.282 448.197 129.34 448.197 128.166C448.197 126.993 447.255 126.051 446.081 126.051C444.907 126.051 443.965 126.993 443.965 128.166C443.965 129.34 444.907 130.282 446.081 130.282Z" fill="white"/>
<path d="M469.884 130.282C471.058 130.282 472 129.34 472 128.166C472 126.993 471.058 126.051 469.884 126.051C468.711 126.051 467.768 126.993 467.768 128.166C467.768 129.34 468.711 130.282 469.884 130.282Z" fill="white"/>
</g>
<g clip-path="url(#clip2_1218_187551)">
<path d="M482.116 11.2894C483.289 11.2894 484.232 10.3474 484.232 9.17402C484.232 8.00062 483.289 7.05859 482.116 7.05859C480.942 7.05859 480 8.00062 480 9.17402C480 10.3474 480.942 11.2894 482.116 11.2894Z" fill="white"/>
<path d="M505.919 11.2894C507.088 11.2894 508.035 10.3423 508.035 9.17402C508.035 8.0057 507.088 7.05859 505.919 7.05859C504.751 7.05859 503.803 8.0057 503.803 9.17402C503.803 10.3423 504.751 11.2894 505.919 11.2894Z" fill="white"/>
<path d="M529.722 11.2894C530.896 11.2894 531.838 10.3474 531.838 9.17402C531.838 8.00062 530.896 7.05859 529.722 7.05859C528.549 7.05859 527.606 8.00062 527.606 9.17402C527.606 10.3474 528.549 11.2894 529.722 11.2894Z" fill="white"/>
<path d="M553.525 11.2894C554.699 11.2894 555.641 10.3474 555.641 9.17402C555.641 8.00062 554.699 7.05859 553.525 7.05859C552.352 7.05859 551.41 8.00062 551.41 9.17402C551.41 10.3474 552.352 11.2894 553.525 11.2894Z" fill="white"/>
<path d="M577.328 11.2894C578.502 11.2894 579.444 10.3474 579.444 9.17402C579.444 8.00062 578.502 7.05859 577.328 7.05859C576.155 7.05859 575.213 8.00062 575.213 9.17402C575.213 10.3474 576.155 11.2894 577.328 11.2894Z" fill="white"/>
<path d="M601.132 11.2894C602.305 11.2894 603.248 10.3474 603.248 9.17402C603.248 8.00062 602.305 7.05859 601.132 7.05859C599.958 7.05859 599.016 8.00062 599.016 9.17402C599.016 10.3474 599.958 11.2894 601.132 11.2894Z" fill="white"/>
<path d="M494.017 35.0873C495.191 35.0873 496.133 34.1453 496.133 32.9719C496.133 31.7985 495.191 30.8564 494.017 30.8564C492.844 30.8564 491.902 31.7985 491.902 32.9719C491.902 34.1453 492.844 35.0873 494.017 35.0873Z" fill="white"/>
<path d="M517.821 35.0873C518.994 35.0873 519.936 34.1453 519.936 32.9719C519.936 31.7985 518.994 30.8564 517.821 30.8564C516.647 30.8564 515.705 31.7985 515.705 32.9719C515.705 34.1453 516.647 35.0873 517.821 35.0873Z" fill="white"/>
<path d="M541.624 35.0873C542.797 35.0873 543.74 34.1453 543.74 32.9719C543.74 31.7985 542.797 30.8564 541.624 30.8564C540.45 30.8564 539.508 31.7985 539.508 32.9719C539.508 34.1453 540.45 35.0873 541.624 35.0873Z" fill="white"/>
<path d="M565.427 35.0873C566.601 35.0873 567.543 34.1453 567.543 32.9719C567.543 31.7985 566.601 30.8564 565.427 30.8564C564.253 30.8564 563.311 31.7985 563.311 32.9719C563.311 34.1453 564.253 35.0873 565.427 35.0873Z" fill="white"/>
<path d="M589.23 35.0873C590.404 35.0873 591.346 34.1453 591.346 32.9719C591.346 31.7985 590.404 30.8564 589.23 30.8564C588.056 30.8564 587.114 31.7985 587.114 32.9719C587.114 34.1453 588.056 35.0873 589.23 35.0873Z" fill="white"/>
<path d="M613.033 35.0873C614.207 35.0873 615.149 34.1453 615.149 32.9719C615.149 31.7985 614.207 30.8564 613.033 30.8564C611.86 30.8564 610.917 31.7985 610.917 32.9719C610.917 34.1453 611.86 35.0873 613.033 35.0873Z" fill="white"/>
<path d="M482.116 58.8861C483.289 58.8861 484.232 57.9441 484.232 56.7707C484.232 55.5973 483.289 54.6553 482.116 54.6553C480.942 54.6553 480 55.5973 480 56.7707C480 57.9441 480.942 58.8861 482.116 58.8861Z" fill="white"/>
<path d="M505.919 58.8861C507.093 58.8861 508.035 57.9441 508.035 56.7707C508.035 55.5973 507.093 54.6553 505.919 54.6553C504.745 54.6553 503.803 55.5973 503.803 56.7707C503.803 57.9441 504.745 58.8861 505.919 58.8861Z" fill="white"/>
<path d="M529.722 58.8861C530.896 58.8861 531.838 57.9441 531.838 56.7707C531.838 55.5973 530.896 54.6553 529.722 54.6553C528.549 54.6553 527.606 55.5973 527.606 56.7707C527.606 57.9441 528.549 58.8861 529.722 58.8861Z" fill="white"/>
<path d="M553.525 58.8861C554.699 58.8861 555.641 57.9441 555.641 56.7707C555.641 55.5973 554.699 54.6553 553.525 54.6553C552.352 54.6553 551.41 55.5973 551.41 56.7707C551.41 57.9441 552.352 58.8861 553.525 58.8861Z" fill="white"/>
<path d="M577.328 58.8861C578.502 58.8861 579.444 57.9441 579.444 56.7707C579.444 55.5973 578.502 54.6553 577.328 54.6553C576.155 54.6553 575.213 55.5973 575.213 56.7707C575.213 57.9441 576.155 58.8861 577.328 58.8861Z" fill="white"/>
<path d="M601.132 58.8861C602.305 58.8861 603.248 57.9441 603.248 56.7707C603.248 55.5973 602.305 54.6553 601.132 54.6553C599.958 54.6553 599.016 55.5973 599.016 56.7707C599.016 57.9441 599.958 58.8861 601.132 58.8861Z" fill="white"/>
<path d="M494.017 82.685C495.191 82.685 496.133 81.7429 496.133 80.5695C496.133 79.3961 495.191 78.4541 494.017 78.4541C492.844 78.4541 491.902 79.3961 491.902 80.5695C491.902 81.7429 492.844 82.685 494.017 82.685Z" fill="white"/>
<path d="M517.821 82.685C518.994 82.685 519.936 81.7429 519.936 80.5695C519.936 79.3961 518.994 78.4541 517.821 78.4541C516.647 78.4541 515.705 79.3961 515.705 80.5695C515.705 81.7429 516.647 82.685 517.821 82.685Z" fill="white"/>
<path d="M541.624 82.685C542.797 82.685 543.74 81.7429 543.74 80.5695C543.74 79.3961 542.797 78.4541 541.624 78.4541C540.45 78.4541 539.508 79.3961 539.508 80.5695C539.508 81.7429 540.45 82.685 541.624 82.685Z" fill="white"/>
<path d="M565.427 82.685C566.601 82.685 567.543 81.7429 567.543 80.5695C567.543 79.3961 566.601 78.4541 565.427 78.4541C564.253 78.4541 563.311 79.3961 563.311 80.5695C563.311 81.7429 564.253 82.685 565.427 82.685Z" fill="white"/>
<path d="M589.23 82.685C590.404 82.685 591.346 81.7429 591.346 80.5695C591.346 79.3961 590.404 78.4541 589.23 78.4541C588.056 78.4541 587.114 79.3961 587.114 80.5695C587.114 81.7429 588.056 82.685 589.23 82.685Z" fill="white"/>
<path d="M613.033 82.685C614.207 82.685 615.149 81.7429 615.149 80.5695C615.149 79.3961 614.207 78.4541 613.033 78.4541C611.86 78.4541 610.917 79.3961 610.917 80.5695C610.917 81.7429 611.86 82.685 613.033 82.685Z" fill="white"/>
<path d="M482.116 106.483C483.289 106.483 484.232 105.541 484.232 104.367C484.232 103.194 483.289 102.252 482.116 102.252C480.942 102.252 480 103.194 480 104.367C480 105.541 480.942 106.483 482.116 106.483Z" fill="white"/>
<path d="M505.919 106.483C507.088 106.483 508.035 105.536 508.035 104.367C508.035 103.199 507.088 102.252 505.919 102.252C504.751 102.252 503.803 103.199 503.803 104.367C503.803 105.536 504.751 106.483 505.919 106.483Z" fill="white"/>
<path d="M529.722 106.483C530.896 106.483 531.838 105.541 531.838 104.367C531.838 103.194 530.896 102.252 529.722 102.252C528.549 102.252 527.606 103.194 527.606 104.367C527.606 105.541 528.549 106.483 529.722 106.483Z" fill="white"/>
<path d="M553.525 106.483C554.699 106.483 555.641 105.541 555.641 104.367C555.641 103.194 554.699 102.252 553.525 102.252C552.352 102.252 551.41 103.194 551.41 104.367C551.41 105.541 552.352 106.483 553.525 106.483Z" fill="white"/>
<path d="M577.328 106.483C578.502 106.483 579.444 105.541 579.444 104.367C579.444 103.194 578.502 102.252 577.328 102.252C576.155 102.252 575.213 103.194 575.213 104.367C575.213 105.541 576.155 106.483 577.328 106.483Z" fill="white"/>
<path d="M601.132 106.483C602.305 106.483 603.248 105.541 603.248 104.367C603.248 103.194 602.305 102.252 601.132 102.252C599.958 102.252 599.016 103.194 599.016 104.367C599.016 105.541 599.958 106.483 601.132 106.483Z" fill="white"/>
<path d="M494.017 130.282C495.191 130.282 496.133 129.34 496.133 128.166C496.133 126.993 495.191 126.051 494.017 126.051C492.844 126.051 491.902 126.993 491.902 128.166C491.902 129.34 492.844 130.282 494.017 130.282Z" fill="white"/>
<path d="M517.821 130.282C518.994 130.282 519.936 129.34 519.936 128.166C519.936 126.993 518.994 126.051 517.821 126.051C516.647 126.051 515.705 126.993 515.705 128.166C515.705 129.34 516.647 130.282 517.821 130.282Z" fill="white"/>
<path d="M541.624 130.282C542.797 130.282 543.74 129.34 543.74 128.166C543.74 126.993 542.797 126.051 541.624 126.051C540.45 126.051 539.508 126.993 539.508 128.166C539.508 129.34 540.45 130.282 541.624 130.282Z" fill="white"/>
<path d="M565.427 130.282C566.596 130.282 567.543 129.335 567.543 128.166C567.543 126.998 566.596 126.051 565.427 126.051C564.258 126.051 563.311 126.998 563.311 128.166C563.311 129.335 564.258 130.282 565.427 130.282Z" fill="white"/>
<path d="M589.23 130.282C590.404 130.282 591.346 129.34 591.346 128.166C591.346 126.993 590.404 126.051 589.23 126.051C588.056 126.051 587.114 126.993 587.114 128.166C587.114 129.34 588.056 130.282 589.23 130.282Z" fill="white"/>
<path d="M613.033 130.282C614.207 130.282 615.149 129.34 615.149 128.166C615.149 126.993 614.207 126.051 613.033 126.051C611.86 126.051 610.917 126.993 610.917 128.166C610.917 129.34 611.86 130.282 613.033 130.282Z" fill="white"/>
</g>
</g>
</g>
</g>
<defs>
<radialGradient id="paint0_radial_1218_187551" cx="0" cy="0" r="1" gradientUnits="userSpaceOnUse" gradientTransform="translate(310 70.75) rotate(90) scale(79.25 327.567)">
<stop stop-color="#D9D9D9"/>
<stop offset="1" stop-color="#737373" stop-opacity="0"/>
</radialGradient>
<clipPath id="clip0_1218_187551">
<rect width="620" height="135.41" fill="white"/>
</clipPath>
<clipPath id="clip1_1218_187551">
<rect width="516" height="504" fill="white" transform="translate(-44 -16.7402)"/>
</clipPath>
<clipPath id="clip2_1218_187551">
<rect width="516" height="504" fill="white" transform="translate(480 -16.7402)"/>
</clipPath>
</defs>
</svg>
