<svg width="1314" height="288" viewBox="0 0 1314 288" fill="none" xmlns="http://www.w3.org/2000/svg">
<g opacity="0.1">
<path d="M594.419 91.0133C588.67 81.8354 578.614 76.2646 567.793 76.2646H492.685C481.757 76.2646 471.624 81.9304 465.905 91.2447L349.007 281.666C346.42 285.867 349.446 291.283 354.388 291.283H396.041C398.207 291.283 400.242 290.156 401.387 288.323L521.043 97.2011C525.819 89.5717 536.943 89.6191 541.653 97.2842L658.883 288.263C660.028 290.132 662.081 291.271 664.264 291.271H708.356C713.316 291.271 716.341 285.807 713.701 281.607L594.419 91.0133Z" fill="white"/>
<path d="M920.77 119.224L920.752 119.236V82.5898C920.752 79.1073 917.928 76.2715 914.434 76.2715H668.269C664.786 76.2715 661.944 79.0954 661.944 82.5898V119.218C661.944 122.701 664.768 125.537 668.269 125.537H760.403C763.88 125.537 766.722 128.361 766.722 131.855V284.96C766.722 288.442 769.546 291.278 773.04 291.278H809.668C813.151 291.278 815.993 288.454 815.993 284.96V131.861C815.993 128.378 818.817 125.542 822.311 125.542H914.446C917.928 125.542 920.77 122.719 920.77 119.224Z" fill="white"/>
<path d="M313.833 5.50751C313.555 2.7666 311.466 0.55958 308.779 0.102763C308.441 0.0434356 308.096 0.00195312 307.74 0.00195312H270.715C270.37 0.00195312 270.038 0.0374971 269.712 0.096824C267.155 0.518045 265.138 2.51149 264.687 5.05662C264.64 5.31766 264.604 5.58454 264.592 5.85744V69.9483C264.592 73.4427 261.75 76.2667 258.274 76.2667H66.8674C62.1924 76.2667 57.6717 76.7057 53.3171 77.5778C51.6856 77.8982 50.0719 78.2838 48.4938 78.7406H48.4879C48.2268 78.8177 47.9777 78.889 47.7285 78.9661C47.4556 79.0492 47.1768 79.1262 46.9098 79.2093C46.7259 79.2686 46.542 79.328 46.358 79.3932C45.7292 79.589 45.1122 79.8025 44.4952 80.0279C44.2638 80.1051 44.0324 80.1882 43.8011 80.2713C42.7747 80.6569 41.7483 81.0602 40.7398 81.4992C38.7227 82.3773 36.7708 83.3147 34.8723 84.3588C29.2066 87.4498 24.0986 91.2645 19.5245 95.8386C17.9049 97.4464 16.3861 99.1254 14.9622 100.887C14.369 101.611 13.7935 102.347 13.2358 103.1C10.044 107.354 7.37433 111.993 5.20297 117.036L5.22077 117.018C2.55699 123.176 0.913634 129.696 0.296634 136.596C0.255106 137.053 0.213578 137.516 0.183914 137.979C0.0652604 139.693 0 141.425 0 143.176V224.394C0 226.144 0.0652604 227.871 0.183914 229.591C0.213578 230.042 0.249173 230.487 0.296634 230.938C0.919567 237.826 2.56292 244.34 5.2267 250.486C7.39213 255.529 10.0678 260.168 13.2596 264.422C15.1758 266.979 17.2641 269.399 19.5482 271.701C21.061 273.214 22.6569 274.656 24.2884 276.003C25.9377 277.367 27.6463 278.643 29.4143 279.835C30.2864 280.422 31.1941 280.998 32.1018 281.567C33.935 282.677 35.8335 283.715 37.7853 284.658C38.7642 285.127 39.755 285.578 40.7635 286.017C41.7424 286.438 42.7332 286.841 43.7239 287.209C43.979 287.31 44.2341 287.411 44.4952 287.506C45.1122 287.725 45.7351 287.939 46.358 288.141C46.6072 288.218 46.8623 288.295 47.1174 288.372C47.5683 288.526 48.0192 288.657 48.4879 288.793C50.066 289.25 51.6797 289.636 53.3112 289.956C57.6657 290.828 62.1865 291.267 66.8614 291.267H307.533C311.027 291.267 313.857 288.438 313.857 284.949V70.2628C313.857 70.2212 313.857 70.1797 313.857 70.1382V6.13047C313.857 6.02961 313.857 5.92281 313.857 5.81602C313.851 5.71516 313.845 5.6143 313.833 5.50751ZM264.586 235.482C264.586 239.083 261.667 242.002 258.066 242.002H84.4815C83.289 242.002 82.1144 241.949 80.9516 241.848C77.4572 241.528 74.0934 240.739 70.9016 239.463C70.16 239.172 69.4303 238.852 68.7183 238.514C66.9326 237.671 65.2418 236.681 63.6459 235.553C63.4205 235.399 63.2009 235.239 62.9814 235.073C62.7619 234.907 62.5424 234.741 62.3288 234.569C62.1093 234.402 61.9017 234.236 61.6881 234.058C61.4745 233.886 61.2669 233.708 61.0592 233.524C60.555 233.097 60.0685 232.646 59.5879 232.184L59.3684 231.964C58.3836 230.938 57.464 229.87 56.6097 228.749C56.3843 228.458 56.1648 228.161 55.9571 227.865C55.5122 227.242 55.085 226.607 54.6757 225.96C53.6256 224.281 52.712 222.513 51.9229 220.656C50.9203 218.248 50.1965 215.697 49.7575 213.009C49.7041 212.707 49.6566 212.41 49.621 212.107C49.3718 210.292 49.2473 208.417 49.2473 206.471H49.2354V161.074C49.2354 159.134 49.3659 157.254 49.621 155.438C49.6625 155.136 49.71 154.839 49.7575 154.537C50.1906 151.861 50.9143 149.316 51.911 146.901C52.7001 145.032 53.6197 143.264 54.6757 141.586C55.0791 140.927 55.5063 140.298 55.9571 139.675C56.1707 139.379 56.3902 139.082 56.6097 138.791C57.47 137.67 58.4014 136.59 59.3922 135.57C59.5464 135.416 59.6769 135.267 59.8312 135.131C60.2346 134.751 60.644 134.377 61.0592 134.015C61.2669 133.837 61.4745 133.66 61.6881 133.482C61.9017 133.309 62.1153 133.137 62.3288 132.971C62.5424 132.799 62.7619 132.633 62.9814 132.467C63.2009 132.307 63.4205 132.147 63.6459 131.986C65.2418 130.859 66.9326 129.869 68.7183 129.026C69.4303 128.688 70.16 128.367 70.9016 128.077C74.0934 126.801 77.4572 126.012 80.9516 125.692C82.1144 125.591 83.289 125.538 84.4815 125.538H258.066C261.667 125.538 264.586 128.457 264.586 132.058V235.488V235.482Z" fill="white"/>
<path fill-rule="evenodd" clip-rule="evenodd" d="M1307.87 0.00195312H1270.85C1267.46 0.00195312 1264.72 2.74884 1264.72 6.13047V43.1563C1264.72 46.538 1267.46 49.2848 1270.85 49.2848H1307.87C1311.25 49.2848 1314 46.538 1314 43.1563V6.13047C1314 2.74884 1311.25 0.00195312 1307.87 0.00195312ZM1114.27 91.0133C1108.52 81.8355 1098.47 76.2647 1087.64 76.2647H1012.59C1001.66 76.2647 991.523 81.9304 985.81 91.2447L868.912 281.666C866.325 285.867 869.351 291.283 874.293 291.283H915.946C918.118 291.283 920.152 290.156 921.292 288.323L1040.91 97.213C1045.69 89.5835 1056.82 89.631 1061.52 97.2961L1178.75 288.275C1179.9 290.144 1181.95 291.283 1184.13 291.283H1228.23C1233.18 291.283 1236.21 285.819 1233.57 281.619L1114.27 91.0133ZM1307.68 76.2647H1271.05C1267.56 76.2647 1264.73 79.0946 1264.73 82.5889V284.941C1264.73 288.43 1267.56 291.259 1271.05 291.259H1307.68C1311.17 291.259 1314 288.43 1314 284.941V82.5889C1314 79.1005 1311.17 76.2706 1307.68 76.2706V76.2647Z" fill="white"/>
</g>
</svg>
