<svg width="123" height="28" viewBox="0 0 123 28" fill="none" xmlns="http://www.w3.org/2000/svg">
<path d="M55.6419 8.88644C55.1037 8.02733 54.1624 7.50586 53.1495 7.50586H46.1188C45.0959 7.50586 44.1474 8.03621 43.612 8.9081L32.6696 26.7329C32.4274 27.1261 32.7107 27.6331 33.1733 27.6331H37.0723C37.275 27.6331 37.4655 27.5276 37.5727 27.356L48.7734 11.2431C49.2204 10.529 50.2617 10.5334 50.7026 11.2509L61.6762 27.3505C61.7834 27.5254 61.9755 27.632 62.1799 27.632H66.3072C66.7715 27.632 67.0547 27.1205 66.8076 26.7274L55.6419 8.88644Z" fill="white"/>
<path d="M86.1906 11.5275L86.189 11.5286V8.09828C86.189 7.77229 85.9246 7.50684 85.5975 7.50684H62.5547C62.2287 7.50684 61.9627 7.77118 61.9627 8.09828V11.527C61.9627 11.8529 62.2271 12.1184 62.5547 12.1184H71.1792C71.5046 12.1184 71.7706 12.3827 71.7706 12.7098V27.0416C71.7706 27.3675 72.035 27.633 72.3621 27.633H75.7907C76.1167 27.633 76.3827 27.3686 76.3827 27.0416V12.7104C76.3827 12.3844 76.6471 12.119 76.9742 12.119H85.5986C85.9246 12.119 86.1906 11.8546 86.1906 11.5275Z" fill="white"/>
<path d="M29.3771 0.882547C29.351 0.625979 29.1555 0.419385 28.9039 0.376624C28.8723 0.371071 28.8401 0.367188 28.8067 0.367188H25.3408C25.3086 0.367188 25.2775 0.370515 25.247 0.376068C25.0076 0.415497 24.8188 0.602098 24.7766 0.84034C24.7722 0.864775 24.7688 0.889757 24.7677 0.915303V6.91467C24.7677 7.24176 24.5017 7.50611 24.1763 7.50611H6.25927C5.82166 7.50611 5.39849 7.54721 4.99087 7.62884C4.83815 7.65883 4.68709 7.69493 4.53937 7.73769H4.53882C4.51438 7.74491 4.49106 7.75158 4.46773 7.7588C4.44219 7.76657 4.41609 7.77379 4.3911 7.78156C4.37388 7.78712 4.35666 7.79267 4.33945 7.79878C4.28058 7.81711 4.22283 7.83709 4.16507 7.85819C4.14341 7.86541 4.12175 7.8732 4.1001 7.88097C4.00402 7.91707 3.90795 7.95482 3.81354 7.99592C3.62472 8.07811 3.44201 8.16585 3.2643 8.2636C2.73395 8.55293 2.2558 8.91002 1.82763 9.33819C1.67602 9.48869 1.53386 9.64585 1.40057 9.81078C1.34504 9.87854 1.29117 9.9474 1.23897 10.0179C0.940195 10.4161 0.690291 10.8504 0.487036 11.3224L0.488702 11.3208C0.239353 11.8972 0.0855228 12.5075 0.0277671 13.1534C0.0238797 13.1961 0.0199924 13.2395 0.0172157 13.2828C0.00610885 13.4433 0 13.6054 0 13.7693V21.3719C0 21.5357 0.00610885 21.6973 0.0172157 21.8584C0.0199924 21.9006 0.0233244 21.9422 0.0277671 21.9844C0.0860781 22.6292 0.239908 23.239 0.489257 23.8143C0.691957 24.2863 0.942417 24.7206 1.24119 25.1188C1.42057 25.3581 1.61605 25.5847 1.82985 25.8002C1.97147 25.9418 2.12085 26.0768 2.27357 26.2028C2.42796 26.3305 2.5879 26.4499 2.75339 26.5616C2.83502 26.6165 2.91999 26.6704 3.00496 26.7237C3.17656 26.8276 3.35427 26.9248 3.53698 27.0131C3.62861 27.0569 3.72135 27.0991 3.81576 27.1402C3.90739 27.1797 4.00013 27.2174 4.09288 27.2519C4.11676 27.2613 4.14064 27.2707 4.16507 27.2796C4.22283 27.3002 4.28114 27.3202 4.33945 27.339C4.36277 27.3463 4.38665 27.3535 4.41053 27.3607C4.45274 27.3751 4.49494 27.3874 4.53882 27.4001C4.68654 27.4429 4.83759 27.479 4.99031 27.509C5.39793 27.5906 5.8211 27.6317 6.25871 27.6317H28.7873C29.1144 27.6317 29.3793 27.3668 29.3793 27.0403V6.9441C29.3793 6.94021 29.3793 6.93633 29.3793 6.93244V0.94086C29.3793 0.93142 29.3793 0.921422 29.3793 0.911426C29.3787 0.901985 29.3782 0.892543 29.3771 0.882547ZM24.7672 22.4098C24.7672 22.7469 24.4939 23.0201 24.1569 23.0201H7.90808C7.79646 23.0201 7.6865 23.0151 7.57765 23.0057C7.25055 22.9757 6.93568 22.9019 6.6369 22.7825C6.56748 22.7552 6.49918 22.7253 6.43254 22.6936C6.26538 22.6148 6.1071 22.522 5.95772 22.4165C5.93661 22.4021 5.91607 22.3871 5.89552 22.3715C5.87497 22.356 5.85442 22.3404 5.83443 22.3243C5.81388 22.3088 5.79445 22.2932 5.77445 22.2766C5.75446 22.2604 5.73502 22.2438 5.71559 22.2266C5.66838 22.1866 5.62285 22.1444 5.57786 22.1011L5.55732 22.0805C5.46513 21.9844 5.37905 21.8845 5.29908 21.7795C5.27798 21.7523 5.25743 21.7245 5.23799 21.6968C5.19634 21.6385 5.15636 21.579 5.11804 21.5185C5.01974 21.3613 4.93422 21.1958 4.86036 21.022C4.76651 20.7966 4.69875 20.5578 4.65766 20.3062C4.65266 20.2779 4.64822 20.2501 4.64489 20.2218C4.62156 20.0518 4.6099 19.8764 4.6099 19.6942H4.60879V15.4447C4.60879 15.2631 4.62101 15.0871 4.64489 14.9172C4.64877 14.8888 4.65322 14.8611 4.65766 14.8327C4.6982 14.5823 4.76595 14.344 4.85925 14.118C4.93311 13.9431 5.01919 13.7776 5.11804 13.6204C5.1558 13.5588 5.19579 13.4999 5.23799 13.4416C5.25799 13.4138 5.27853 13.3861 5.29908 13.3589C5.3796 13.2539 5.46679 13.1528 5.55954 13.0573C5.57398 13.0429 5.58619 13.029 5.60063 13.0162C5.6384 12.9807 5.67671 12.9457 5.71559 12.9118C5.73502 12.8951 5.75446 12.8785 5.77445 12.8618C5.79445 12.8457 5.81444 12.8296 5.83443 12.8141C5.85442 12.798 5.87497 12.7824 5.89552 12.7669C5.91607 12.7519 5.93661 12.7369 5.95772 12.7219C6.1071 12.6164 6.26538 12.5236 6.43254 12.4448C6.49918 12.4131 6.56748 12.3831 6.6369 12.3559C6.93568 12.2365 7.25055 12.1626 7.57765 12.1327C7.6865 12.1232 7.79646 12.1182 7.90808 12.1182H24.1569C24.4939 12.1182 24.7672 12.3915 24.7672 12.7286V22.4104V22.4098Z" fill="white"/>
<path fill-rule="evenodd" clip-rule="evenodd" d="M122.426 0.367188H118.96C118.644 0.367188 118.387 0.624315 118.387 0.94086V4.40675C118.387 4.72329 118.644 4.98042 118.96 4.98042H122.426C122.743 4.98042 123 4.72329 123 4.40675V0.94086C123 0.624315 122.743 0.367188 122.426 0.367188ZM104.304 8.88635C103.766 8.02723 102.825 7.50577 101.811 7.50577H94.7857C93.7627 7.50577 92.8137 8.03612 92.2789 8.90801L81.3364 26.7328C81.0943 27.126 81.3775 27.633 81.8401 27.633H85.7392C85.9424 27.633 86.1329 27.5275 86.2395 27.3559L97.4369 11.2442C97.8839 10.53 98.9258 10.5344 99.3662 11.2519L110.34 27.3515C110.447 27.5264 110.639 27.633 110.843 27.633H114.971C115.435 27.633 115.718 27.1216 115.471 26.7284L104.304 8.88635ZM122.408 7.50577H118.98C118.653 7.50577 118.388 7.77067 118.388 8.09776V27.0394C118.388 27.3659 118.653 27.6308 118.98 27.6308H122.408C122.735 27.6308 123 27.3659 123 27.0394V8.09776C123 7.77122 122.735 7.50632 122.408 7.50632V7.50577Z" fill="#FA00FF"/>
</svg>
