<svg width="375" height="623" viewBox="0 0 375 623" fill="none" xmlns="http://www.w3.org/2000/svg">
<mask id="mask0_1186_422625" style="mask-type:alpha" maskUnits="userSpaceOnUse" x="-80" y="0" width="928" height="627">
<rect x="-80" y="0.466797" width="928" height="626.131" fill="url(#paint0_radial_1186_422625)"/>
</mask>
<g mask="url(#mask0_1186_422625)">
<g opacity="0.15">
<g clip-path="url(#clip0_1186_422625)">
<path d="M20.6715 41.2445C21.8451 41.2445 22.7873 40.3025 22.7873 39.1291C22.7873 37.9557 21.8451 37.0137 20.6715 37.0137C19.4979 37.0137 18.5557 37.9557 18.5557 39.1291C18.5557 40.3025 19.4979 41.2445 20.6715 41.2445Z" fill="white"/>
<path d="M44.4746 41.2445C45.6431 41.2445 46.5904 40.2974 46.5904 39.1291C46.5904 37.9608 45.6431 37.0137 44.4746 37.0137C43.3061 37.0137 42.3588 37.9608 42.3588 39.1291C42.3588 40.2974 43.3061 41.2445 44.4746 41.2445Z" fill="white"/>
<path d="M68.2778 41.2445C69.4515 41.2445 70.3937 40.3025 70.3937 39.1291C70.3937 37.9557 69.4515 37.0137 68.2778 37.0137C67.1042 37.0137 66.162 37.9557 66.162 39.1291C66.162 40.3025 67.1042 41.2445 68.2778 41.2445Z" fill="white"/>
<path d="M92.0809 41.2445C93.2546 41.2445 94.1968 40.3025 94.1968 39.1291C94.1968 37.9557 93.2546 37.0137 92.0809 37.0137C90.9073 37.0137 89.9651 37.9557 89.9651 39.1291C89.9651 40.3025 90.9073 41.2445 92.0809 41.2445Z" fill="white"/>
<path d="M115.884 41.2445C117.058 41.2445 118 40.3025 118 39.1291C118 37.9557 117.058 37.0137 115.884 37.0137C114.711 37.0137 113.768 37.9557 113.768 39.1291C113.768 40.3025 114.711 41.2445 115.884 41.2445Z" fill="white"/>
<path d="M8.76989 65.0429C9.94352 65.0429 10.8857 64.1008 10.8857 62.9274C10.8857 61.754 9.94352 60.812 8.76989 60.812C7.59626 60.812 6.65405 61.754 6.65405 62.9274C6.65405 64.1008 7.59626 65.0429 8.76989 65.0429Z" fill="white"/>
<path d="M32.5731 65.0429C33.7467 65.0429 34.6889 64.1008 34.6889 62.9274C34.6889 61.754 33.7467 60.812 32.5731 60.812C31.3995 60.812 30.4573 61.754 30.4573 62.9274C30.4573 64.1008 31.3995 65.0429 32.5731 65.0429Z" fill="white"/>
<path d="M56.3762 65.0429C57.5498 65.0429 58.492 64.1008 58.492 62.9274C58.492 61.754 57.5498 60.812 56.3762 60.812C55.2026 60.812 54.2604 61.754 54.2604 62.9274C54.2604 64.1008 55.2026 65.0429 56.3762 65.0429Z" fill="white"/>
<path d="M80.1793 65.0429C81.3529 65.0429 82.2951 64.1008 82.2951 62.9274C82.2951 61.754 81.3529 60.812 80.1793 60.812C79.0057 60.812 78.0635 61.754 78.0635 62.9274C78.0635 64.1008 79.0057 65.0429 80.1793 65.0429Z" fill="white"/>
<path d="M103.983 65.0429C105.151 65.0429 106.098 64.0958 106.098 62.9274C106.098 61.7591 105.151 60.812 103.983 60.812C102.814 60.812 101.867 61.7591 101.867 62.9274C101.867 64.0958 102.814 65.0429 103.983 65.0429Z" fill="white"/>
<path d="M20.6715 88.8417C21.8451 88.8417 22.7873 87.8997 22.7873 86.7263C22.7873 85.5529 21.8451 84.6108 20.6715 84.6108C19.4979 84.6108 18.5557 85.5529 18.5557 86.7263C18.5557 87.8997 19.4979 88.8417 20.6715 88.8417Z" fill="white"/>
<path d="M44.4746 88.8417C45.6482 88.8417 46.5904 87.8997 46.5904 86.7263C46.5904 85.5529 45.6482 84.6108 44.4746 84.6108C43.301 84.6108 42.3588 85.5529 42.3588 86.7263C42.3588 87.8997 43.301 88.8417 44.4746 88.8417Z" fill="white"/>
<path d="M68.2778 88.8417C69.4515 88.8417 70.3937 87.8997 70.3937 86.7263C70.3937 85.5529 69.4515 84.6108 68.2778 84.6108C67.1042 84.6108 66.162 85.5529 66.162 86.7263C66.162 87.8997 67.1042 88.8417 68.2778 88.8417Z" fill="white"/>
<path d="M92.0809 88.8417C93.2546 88.8417 94.1968 87.8997 94.1968 86.7263C94.1968 85.5529 93.2546 84.6108 92.0809 84.6108C90.9073 84.6108 89.9651 85.5529 89.9651 86.7263C89.9651 87.8997 90.9073 88.8417 92.0809 88.8417Z" fill="white"/>
<path d="M115.884 88.8417C117.058 88.8417 118 87.8997 118 86.7263C118 85.5529 117.058 84.6108 115.884 84.6108C114.711 84.6108 113.768 85.5529 113.768 86.7263C113.768 87.8997 114.711 88.8417 115.884 88.8417Z" fill="white"/>
<path d="M8.76989 112.64C9.94352 112.64 10.8857 111.698 10.8857 110.525C10.8857 109.351 9.94352 108.409 8.76989 108.409C7.59626 108.409 6.65405 109.351 6.65405 110.525C6.65405 111.698 7.59626 112.64 8.76989 112.64Z" fill="white"/>
<path d="M32.5731 112.64C33.7467 112.64 34.6889 111.698 34.6889 110.525C34.6889 109.351 33.7467 108.409 32.5731 108.409C31.3995 108.409 30.4573 109.351 30.4573 110.525C30.4573 111.698 31.3995 112.64 32.5731 112.64Z" fill="white"/>
<path d="M56.3762 112.64C57.5498 112.64 58.492 111.698 58.492 110.525C58.492 109.351 57.5498 108.409 56.3762 108.409C55.2026 108.409 54.2604 109.351 54.2604 110.525C54.2604 111.698 55.2026 112.64 56.3762 112.64Z" fill="white"/>
<path d="M80.1793 112.64C81.3529 112.64 82.2951 111.698 82.2951 110.525C82.2951 109.351 81.3529 108.409 80.1793 108.409C79.0057 108.409 78.0635 109.351 78.0635 110.525C78.0635 111.698 79.0057 112.64 80.1793 112.64Z" fill="white"/>
<path d="M103.983 112.64C105.156 112.64 106.098 111.698 106.098 110.525C106.098 109.351 105.156 108.409 103.983 108.409C102.809 108.409 101.867 109.351 101.867 110.525C101.867 111.698 102.809 112.64 103.983 112.64Z" fill="white"/>
<path d="M20.6715 136.439C21.8451 136.439 22.7873 135.497 22.7873 134.323C22.7873 133.15 21.8451 132.208 20.6715 132.208C19.4979 132.208 18.5557 133.15 18.5557 134.323C18.5557 135.497 19.4979 136.439 20.6715 136.439Z" fill="white"/>
<path d="M44.4746 136.439C45.6482 136.439 46.5904 135.497 46.5904 134.323C46.5904 133.15 45.6482 132.208 44.4746 132.208C43.301 132.208 42.3588 133.15 42.3588 134.323C42.3588 135.497 43.301 136.439 44.4746 136.439Z" fill="white"/>
<path d="M68.2778 136.439C69.4515 136.439 70.3937 135.497 70.3937 134.323C70.3937 133.15 69.4515 132.208 68.2778 132.208C67.1042 132.208 66.162 133.15 66.162 134.323C66.162 135.497 67.1042 136.439 68.2778 136.439Z" fill="white"/>
<path d="M92.0809 136.439C93.2546 136.439 94.1968 135.497 94.1968 134.323C94.1968 133.15 93.2546 132.208 92.0809 132.208C90.9073 132.208 89.9651 133.15 89.9651 134.323C89.9651 135.497 90.9073 136.439 92.0809 136.439Z" fill="white"/>
<path d="M115.884 136.439C117.058 136.439 118 135.497 118 134.323C118 133.15 117.058 132.208 115.884 132.208C114.711 132.208 113.768 133.15 113.768 134.323C113.768 135.497 114.711 136.439 115.884 136.439Z" fill="white"/>
<path d="M8.76989 160.237C9.94352 160.237 10.8857 159.295 10.8857 158.122C10.8857 156.948 9.94352 156.006 8.76989 156.006C7.59626 156.006 6.65405 156.948 6.65405 158.122C6.65405 159.295 7.59626 160.237 8.76989 160.237Z" fill="white"/>
<path d="M32.5731 160.237C33.7467 160.237 34.6889 159.295 34.6889 158.122C34.6889 156.948 33.7467 156.006 32.5731 156.006C31.3995 156.006 30.4573 156.948 30.4573 158.122C30.4573 159.295 31.3995 160.237 32.5731 160.237Z" fill="white"/>
<path d="M56.3762 160.237C57.5498 160.237 58.492 159.295 58.492 158.122C58.492 156.948 57.5498 156.006 56.3762 156.006C55.2026 156.006 54.2604 156.948 54.2604 158.122C54.2604 159.295 55.2026 160.237 56.3762 160.237Z" fill="white"/>
<path d="M80.1793 160.237C81.3529 160.237 82.2951 159.295 82.2951 158.122C82.2951 156.948 81.3529 156.006 80.1793 156.006C79.0057 156.006 78.0635 156.948 78.0635 158.122C78.0635 159.295 79.0057 160.237 80.1793 160.237Z" fill="white"/>
<path d="M103.983 160.237C105.151 160.237 106.098 159.29 106.098 158.122C106.098 156.953 105.151 156.006 103.983 156.006C102.814 156.006 101.867 156.953 101.867 158.122C101.867 159.29 102.814 160.237 103.983 160.237Z" fill="white"/>
<path d="M20.6715 184.036C21.8451 184.036 22.7873 183.094 22.7873 181.92C22.7873 180.747 21.8451 179.805 20.6715 179.805C19.4979 179.805 18.5557 180.747 18.5557 181.92C18.5557 183.094 19.4979 184.036 20.6715 184.036Z" fill="white"/>
<path d="M44.4746 184.036C45.6431 184.036 46.5904 183.088 46.5904 181.92C46.5904 180.752 45.6431 179.805 44.4746 179.805C43.3061 179.805 42.3588 180.752 42.3588 181.92C42.3588 183.088 43.3061 184.036 44.4746 184.036Z" fill="white"/>
<path d="M68.2778 184.036C69.4515 184.036 70.3937 183.094 70.3937 181.92C70.3937 180.747 69.4515 179.805 68.2778 179.805C67.1042 179.805 66.162 180.747 66.162 181.92C66.162 183.094 67.1042 184.036 68.2778 184.036Z" fill="white"/>
<path d="M92.0809 184.036C93.2546 184.036 94.1968 183.094 94.1968 181.92C94.1968 180.747 93.2546 179.805 92.0809 179.805C90.9073 179.805 89.9651 180.747 89.9651 181.92C89.9651 183.094 90.9073 184.036 92.0809 184.036Z" fill="white"/>
<path d="M115.884 184.036C117.058 184.036 118 183.094 118 181.92C118 180.747 117.058 179.805 115.884 179.805C114.711 179.805 113.768 180.747 113.768 181.92C113.768 183.094 114.711 184.036 115.884 184.036Z" fill="white"/>
<path d="M8.76989 207.834C9.94352 207.834 10.8857 206.892 10.8857 205.719C10.8857 204.546 9.94352 203.604 8.76989 203.604C7.59626 203.604 6.65405 204.546 6.65405 205.719C6.65405 206.892 7.59626 207.834 8.76989 207.834Z" fill="white"/>
<path d="M32.5731 207.834C33.7467 207.834 34.6889 206.892 34.6889 205.719C34.6889 204.546 33.7467 203.604 32.5731 203.604C31.3995 203.604 30.4573 204.546 30.4573 205.719C30.4573 206.892 31.3995 207.834 32.5731 207.834Z" fill="white"/>
<path d="M56.3762 207.834C57.5498 207.834 58.492 206.892 58.492 205.719C58.492 204.546 57.5498 203.604 56.3762 203.604C55.2026 203.604 54.2604 204.546 54.2604 205.719C54.2604 206.892 55.2026 207.834 56.3762 207.834Z" fill="white"/>
<path d="M80.1793 207.834C81.3529 207.834 82.2951 206.892 82.2951 205.719C82.2951 204.546 81.3529 203.604 80.1793 203.604C79.0057 203.604 78.0635 204.546 78.0635 205.719C78.0635 206.892 79.0057 207.834 80.1793 207.834Z" fill="white"/>
<path d="M103.983 207.834C105.156 207.834 106.098 206.892 106.098 205.719C106.098 204.546 105.156 203.604 103.983 203.604C102.809 203.604 101.867 204.546 101.867 205.719C101.867 206.892 102.809 207.834 103.983 207.834Z" fill="white"/>
<path d="M20.6715 231.633C21.8451 231.633 22.7873 230.691 22.7873 229.517C22.7873 228.344 21.8451 227.402 20.6715 227.402C19.4979 227.402 18.5557 228.344 18.5557 229.517C18.5557 230.691 19.4979 231.633 20.6715 231.633Z" fill="white"/>
<path d="M44.4746 231.633C45.6482 231.633 46.5904 230.691 46.5904 229.517C46.5904 228.344 45.6482 227.402 44.4746 227.402C43.301 227.402 42.3588 228.344 42.3588 229.517C42.3588 230.691 43.301 231.633 44.4746 231.633Z" fill="white"/>
<path d="M68.2778 231.633C69.4515 231.633 70.3937 230.691 70.3937 229.517C70.3937 228.344 69.4515 227.402 68.2778 227.402C67.1042 227.402 66.162 228.344 66.162 229.517C66.162 230.691 67.1042 231.633 68.2778 231.633Z" fill="white"/>
<path d="M92.0809 231.633C93.2546 231.633 94.1968 230.691 94.1968 229.517C94.1968 228.344 93.2546 227.402 92.0809 227.402C90.9073 227.402 89.9651 228.344 89.9651 229.517C89.9651 230.691 90.9073 231.633 92.0809 231.633Z" fill="white"/>
<path d="M115.884 231.633C117.058 231.633 118 230.691 118 229.517C118 228.344 117.058 227.402 115.884 227.402C114.711 227.402 113.768 228.344 113.768 229.517C113.768 230.691 114.711 231.633 115.884 231.633Z" fill="white"/>
<path d="M8.76989 255.432C9.94352 255.432 10.8857 254.49 10.8857 253.316C10.8857 252.143 9.94352 251.201 8.76989 251.201C7.59626 251.201 6.65405 252.143 6.65405 253.316C6.65405 254.49 7.59626 255.432 8.76989 255.432Z" fill="white"/>
<path d="M32.5731 255.432C33.7467 255.432 34.6889 254.49 34.6889 253.316C34.6889 252.143 33.7467 251.201 32.5731 251.201C31.3995 251.201 30.4573 252.143 30.4573 253.316C30.4573 254.49 31.3995 255.432 32.5731 255.432Z" fill="white"/>
<path d="M56.3762 255.432C57.5498 255.432 58.492 254.49 58.492 253.316C58.492 252.143 57.5498 251.201 56.3762 251.201C55.2026 251.201 54.2604 252.143 54.2604 253.316C54.2604 254.49 55.2026 255.432 56.3762 255.432Z" fill="white"/>
<path d="M80.1793 255.432C81.3529 255.432 82.2951 254.49 82.2951 253.316C82.2951 252.143 81.3529 251.201 80.1793 251.201C79.0057 251.201 78.0635 252.143 78.0635 253.316C78.0635 254.49 79.0057 255.432 80.1793 255.432Z" fill="white"/>
<path d="M103.983 255.432C105.156 255.432 106.098 254.49 106.098 253.316C106.098 252.143 105.156 251.201 103.983 251.201C102.809 251.201 101.867 252.143 101.867 253.316C101.867 254.49 102.809 255.432 103.983 255.432Z" fill="white"/>
<path d="M20.6715 279.23C21.8451 279.23 22.7873 278.288 22.7873 277.114C22.7873 275.941 21.8451 274.999 20.6715 274.999C19.4979 274.999 18.5557 275.941 18.5557 277.114C18.5557 278.288 19.4979 279.23 20.6715 279.23Z" fill="white"/>
<path d="M44.4746 279.23C45.6431 279.23 46.5904 278.283 46.5904 277.114C46.5904 275.946 45.6431 274.999 44.4746 274.999C43.3061 274.999 42.3588 275.946 42.3588 277.114C42.3588 278.283 43.3061 279.23 44.4746 279.23Z" fill="white"/>
<path d="M68.2778 279.23C69.4515 279.23 70.3937 278.288 70.3937 277.114C70.3937 275.941 69.4515 274.999 68.2778 274.999C67.1042 274.999 66.162 275.941 66.162 277.114C66.162 278.288 67.1042 279.23 68.2778 279.23Z" fill="white"/>
<path d="M92.0809 279.23C93.2546 279.23 94.1968 278.288 94.1968 277.114C94.1968 275.941 93.2546 274.999 92.0809 274.999C90.9073 274.999 89.9651 275.941 89.9651 277.114C89.9651 278.288 90.9073 279.23 92.0809 279.23Z" fill="white"/>
<path d="M115.884 279.23C117.058 279.23 118 278.288 118 277.114C118 275.941 117.058 274.999 115.884 274.999C114.711 274.999 113.768 275.941 113.768 277.114C113.768 278.288 114.711 279.23 115.884 279.23Z" fill="white"/>
<path d="M8.76989 303.028C9.94352 303.028 10.8857 302.086 10.8857 300.913C10.8857 299.739 9.94352 298.797 8.76989 298.797C7.59626 298.797 6.65405 299.739 6.65405 300.913C6.65405 302.086 7.59626 303.028 8.76989 303.028Z" fill="white"/>
<path d="M32.5731 303.028C33.7467 303.028 34.6889 302.086 34.6889 300.913C34.6889 299.739 33.7467 298.797 32.5731 298.797C31.3995 298.797 30.4573 299.739 30.4573 300.913C30.4573 302.086 31.3995 303.028 32.5731 303.028Z" fill="white"/>
<path d="M56.3762 303.028C57.5498 303.028 58.492 302.086 58.492 300.913C58.492 299.739 57.5498 298.797 56.3762 298.797C55.2026 298.797 54.2604 299.739 54.2604 300.913C54.2604 302.086 55.2026 303.028 56.3762 303.028Z" fill="white"/>
<path d="M80.1793 303.028C81.3529 303.028 82.2951 302.086 82.2951 300.913C82.2951 299.739 81.3529 298.797 80.1793 298.797C79.0057 298.797 78.0635 299.739 78.0635 300.913C78.0635 302.086 79.0057 303.028 80.1793 303.028Z" fill="white"/>
<path d="M103.983 303.028C105.151 303.028 106.098 302.081 106.098 300.913C106.098 299.744 105.151 298.797 103.983 298.797C102.814 298.797 101.867 299.744 101.867 300.913C101.867 302.081 102.814 303.028 103.983 303.028Z" fill="white"/>
<path d="M20.6715 326.827C21.8451 326.827 22.7873 325.885 22.7873 324.712C22.7873 323.538 21.8451 322.596 20.6715 322.596C19.4979 322.596 18.5557 323.538 18.5557 324.712C18.5557 325.885 19.4979 326.827 20.6715 326.827Z" fill="white"/>
<path d="M44.4746 326.827C45.6482 326.827 46.5904 325.885 46.5904 324.712C46.5904 323.538 45.6482 322.596 44.4746 322.596C43.301 322.596 42.3588 323.538 42.3588 324.712C42.3588 325.885 43.301 326.827 44.4746 326.827Z" fill="white"/>
<path d="M68.2778 326.827C69.4515 326.827 70.3937 325.885 70.3937 324.712C70.3937 323.538 69.4515 322.596 68.2778 322.596C67.1042 322.596 66.162 323.538 66.162 324.712C66.162 325.885 67.1042 326.827 68.2778 326.827Z" fill="white"/>
<path d="M92.0809 326.827C93.2546 326.827 94.1968 325.885 94.1968 324.712C94.1968 323.538 93.2546 322.596 92.0809 322.596C90.9073 322.596 89.9651 323.538 89.9651 324.712C89.9651 325.885 90.9073 326.827 92.0809 326.827Z" fill="white"/>
<path d="M115.884 326.827C117.058 326.827 118 325.885 118 324.712C118 323.538 117.058 322.596 115.884 322.596C114.711 322.596 113.768 323.538 113.768 324.712C113.768 325.885 114.711 326.827 115.884 326.827Z" fill="white"/>
<path d="M8.76989 350.625C9.94352 350.625 10.8857 349.683 10.8857 348.51C10.8857 347.337 9.94352 346.395 8.76989 346.395C7.59626 346.395 6.65405 347.337 6.65405 348.51C6.65405 349.683 7.59626 350.625 8.76989 350.625Z" fill="white"/>
<path d="M32.5731 350.625C33.7467 350.625 34.6889 349.683 34.6889 348.51C34.6889 347.337 33.7467 346.395 32.5731 346.395C31.3995 346.395 30.4573 347.337 30.4573 348.51C30.4573 349.683 31.3995 350.625 32.5731 350.625Z" fill="white"/>
<path d="M56.3762 350.625C57.5498 350.625 58.492 349.683 58.492 348.51C58.492 347.337 57.5498 346.395 56.3762 346.395C55.2026 346.395 54.2604 347.337 54.2604 348.51C54.2604 349.683 55.2026 350.625 56.3762 350.625Z" fill="white"/>
<path d="M80.1793 350.625C81.3529 350.625 82.2951 349.683 82.2951 348.51C82.2951 347.337 81.3529 346.395 80.1793 346.395C79.0057 346.395 78.0635 347.337 78.0635 348.51C78.0635 349.683 79.0057 350.625 80.1793 350.625Z" fill="white"/>
<path d="M103.983 350.625C105.156 350.625 106.098 349.683 106.098 348.51C106.098 347.337 105.156 346.395 103.983 346.395C102.809 346.395 101.867 347.337 101.867 348.51C101.867 349.683 102.809 350.625 103.983 350.625Z" fill="white"/>
<path d="M20.6715 374.424C21.8451 374.424 22.7873 373.482 22.7873 372.309C22.7873 371.135 21.8451 370.193 20.6715 370.193C19.4979 370.193 18.5557 371.135 18.5557 372.309C18.5557 373.482 19.4979 374.424 20.6715 374.424Z" fill="white"/>
<path d="M44.4746 374.424C45.6482 374.424 46.5904 373.482 46.5904 372.309C46.5904 371.135 45.6482 370.193 44.4746 370.193C43.301 370.193 42.3588 371.135 42.3588 372.309C42.3588 373.482 43.301 374.424 44.4746 374.424Z" fill="white"/>
<path d="M68.2778 374.424C69.4515 374.424 70.3937 373.482 70.3937 372.309C70.3937 371.135 69.4515 370.193 68.2778 370.193C67.1042 370.193 66.162 371.135 66.162 372.309C66.162 373.482 67.1042 374.424 68.2778 374.424Z" fill="white"/>
<path d="M92.0809 374.424C93.2546 374.424 94.1968 373.482 94.1968 372.309C94.1968 371.135 93.2546 370.193 92.0809 370.193C90.9073 370.193 89.9651 371.135 89.9651 372.309C89.9651 373.482 90.9073 374.424 92.0809 374.424Z" fill="white"/>
<path d="M115.884 374.424C117.058 374.424 118 373.482 118 372.309C118 371.135 117.058 370.193 115.884 370.193C114.711 370.193 113.768 371.135 113.768 372.309C113.768 373.482 114.711 374.424 115.884 374.424Z" fill="white"/>
<path d="M8.76989 398.223C9.94352 398.223 10.8857 397.281 10.8857 396.107C10.8857 394.934 9.94352 393.992 8.76989 393.992C7.59626 393.992 6.65405 394.934 6.65405 396.107C6.65405 397.281 7.59626 398.223 8.76989 398.223Z" fill="white"/>
<path d="M32.5731 398.223C33.7467 398.223 34.6889 397.281 34.6889 396.107C34.6889 394.934 33.7467 393.992 32.5731 393.992C31.3995 393.992 30.4573 394.934 30.4573 396.107C30.4573 397.281 31.3995 398.223 32.5731 398.223Z" fill="white"/>
<path d="M56.3762 398.223C57.5498 398.223 58.492 397.281 58.492 396.107C58.492 394.934 57.5498 393.992 56.3762 393.992C55.2026 393.992 54.2604 394.934 54.2604 396.107C54.2604 397.281 55.2026 398.223 56.3762 398.223Z" fill="white"/>
<path d="M80.1793 398.223C81.3529 398.223 82.2951 397.281 82.2951 396.107C82.2951 394.934 81.3529 393.992 80.1793 393.992C79.0057 393.992 78.0635 394.934 78.0635 396.107C78.0635 397.281 79.0057 398.223 80.1793 398.223Z" fill="white"/>
<path d="M103.983 398.223C105.151 398.223 106.098 397.275 106.098 396.107C106.098 394.939 105.151 393.992 103.983 393.992C102.814 393.992 101.867 394.939 101.867 396.107C101.867 397.275 102.814 398.223 103.983 398.223Z" fill="white"/>
<path d="M20.6715 422.021C21.8451 422.021 22.7873 421.079 22.7873 419.905C22.7873 418.732 21.8451 417.79 20.6715 417.79C19.4979 417.79 18.5557 418.732 18.5557 419.905C18.5557 421.079 19.4979 422.021 20.6715 422.021Z" fill="white"/>
<path d="M44.4746 422.021C45.6431 422.021 46.5904 421.074 46.5904 419.905C46.5904 418.737 45.6431 417.79 44.4746 417.79C43.3061 417.79 42.3588 418.737 42.3588 419.905C42.3588 421.074 43.3061 422.021 44.4746 422.021Z" fill="white"/>
<path d="M68.2778 422.021C69.4515 422.021 70.3937 421.079 70.3937 419.905C70.3937 418.732 69.4515 417.79 68.2778 417.79C67.1042 417.79 66.162 418.732 66.162 419.905C66.162 421.079 67.1042 422.021 68.2778 422.021Z" fill="white"/>
<path d="M92.0809 422.021C93.2546 422.021 94.1968 421.079 94.1968 419.905C94.1968 418.732 93.2546 417.79 92.0809 417.79C90.9073 417.79 89.9651 418.732 89.9651 419.905C89.9651 421.079 90.9073 422.021 92.0809 422.021Z" fill="white"/>
<path d="M115.884 422.021C117.058 422.021 118 421.079 118 419.905C118 418.732 117.058 417.79 115.884 417.79C114.711 417.79 113.768 418.732 113.768 419.905C113.768 421.079 114.711 422.021 115.884 422.021Z" fill="white"/>
<path d="M8.76989 445.82C9.94352 445.82 10.8857 444.878 10.8857 443.704C10.8857 442.531 9.94352 441.589 8.76989 441.589C7.59626 441.589 6.65405 442.531 6.65405 443.704C6.65405 444.878 7.59626 445.82 8.76989 445.82Z" fill="white"/>
<path d="M32.5731 445.82C33.7467 445.82 34.6889 444.878 34.6889 443.704C34.6889 442.531 33.7467 441.589 32.5731 441.589C31.3995 441.589 30.4573 442.531 30.4573 443.704C30.4573 444.878 31.3995 445.82 32.5731 445.82Z" fill="white"/>
<path d="M56.3762 445.82C57.5498 445.82 58.492 444.878 58.492 443.704C58.492 442.531 57.5498 441.589 56.3762 441.589C55.2026 441.589 54.2604 442.531 54.2604 443.704C54.2604 444.878 55.2026 445.82 56.3762 445.82Z" fill="white"/>
<path d="M80.1793 445.82C81.3529 445.82 82.2951 444.878 82.2951 443.704C82.2951 442.531 81.3529 441.589 80.1793 441.589C79.0057 441.589 78.0635 442.531 78.0635 443.704C78.0635 444.878 79.0057 445.82 80.1793 445.82Z" fill="white"/>
<path d="M103.983 445.82C105.156 445.82 106.098 444.878 106.098 443.704C106.098 442.531 105.156 441.589 103.983 441.589C102.809 441.589 101.867 442.531 101.867 443.704C101.867 444.878 102.809 445.82 103.983 445.82Z" fill="white"/>
<path d="M20.6715 469.618C21.8451 469.618 22.7873 468.676 22.7873 467.503C22.7873 466.329 21.8451 465.387 20.6715 465.387C19.4979 465.387 18.5557 466.329 18.5557 467.503C18.5557 468.676 19.4979 469.618 20.6715 469.618Z" fill="white"/>
<path d="M44.4746 469.618C45.6482 469.618 46.5904 468.676 46.5904 467.503C46.5904 466.329 45.6482 465.387 44.4746 465.387C43.301 465.387 42.3588 466.329 42.3588 467.503C42.3588 468.676 43.301 469.618 44.4746 469.618Z" fill="white"/>
<path d="M68.2778 469.618C69.4515 469.618 70.3937 468.676 70.3937 467.503C70.3937 466.329 69.4515 465.387 68.2778 465.387C67.1042 465.387 66.162 466.329 66.162 467.503C66.162 468.676 67.1042 469.618 68.2778 469.618Z" fill="white"/>
<path d="M92.0809 469.618C93.2546 469.618 94.1968 468.676 94.1968 467.503C94.1968 466.329 93.2546 465.387 92.0809 465.387C90.9073 465.387 89.9651 466.329 89.9651 467.503C89.9651 468.676 90.9073 469.618 92.0809 469.618Z" fill="white"/>
<path d="M115.884 469.618C117.058 469.618 118 468.676 118 467.503C118 466.329 117.058 465.387 115.884 465.387C114.711 465.387 113.768 466.329 113.768 467.503C113.768 468.676 114.711 469.618 115.884 469.618Z" fill="white"/>
<path d="M8.76989 493.416C9.94352 493.416 10.8857 492.474 10.8857 491.301C10.8857 490.128 9.94352 489.186 8.76989 489.186C7.59626 489.186 6.65405 490.128 6.65405 491.301C6.65405 492.474 7.59626 493.416 8.76989 493.416Z" fill="white"/>
<path d="M32.5731 493.416C33.7467 493.416 34.6889 492.474 34.6889 491.301C34.6889 490.128 33.7467 489.186 32.5731 489.186C31.3995 489.186 30.4573 490.128 30.4573 491.301C30.4573 492.474 31.3995 493.416 32.5731 493.416Z" fill="white"/>
<path d="M56.3762 493.416C57.5498 493.416 58.492 492.474 58.492 491.301C58.492 490.128 57.5498 489.186 56.3762 489.186C55.2026 489.186 54.2604 490.128 54.2604 491.301C54.2604 492.474 55.2026 493.416 56.3762 493.416Z" fill="white"/>
<path d="M80.1793 493.416C81.3529 493.416 82.2951 492.474 82.2951 491.301C82.2951 490.128 81.3529 489.186 80.1793 489.186C79.0057 489.186 78.0635 490.128 78.0635 491.301C78.0635 492.474 79.0057 493.416 80.1793 493.416Z" fill="white"/>
<path d="M103.983 493.416C105.156 493.416 106.098 492.474 106.098 491.301C106.098 490.128 105.156 489.186 103.983 489.186C102.809 489.186 101.867 490.128 101.867 491.301C101.867 492.474 102.809 493.416 103.983 493.416Z" fill="white"/>
<path d="M20.6715 517.215C21.8451 517.215 22.7873 516.273 22.7873 515.1C22.7873 513.926 21.8451 512.984 20.6715 512.984C19.4979 512.984 18.5557 513.926 18.5557 515.1C18.5557 516.273 19.4979 517.215 20.6715 517.215Z" fill="white"/>
<path d="M44.4746 517.215C45.6431 517.215 46.5904 516.268 46.5904 515.1C46.5904 513.931 45.6431 512.984 44.4746 512.984C43.3061 512.984 42.3588 513.931 42.3588 515.1C42.3588 516.268 43.3061 517.215 44.4746 517.215Z" fill="white"/>
<path d="M68.2778 517.215C69.4515 517.215 70.3937 516.273 70.3937 515.1C70.3937 513.926 69.4515 512.984 68.2778 512.984C67.1042 512.984 66.162 513.926 66.162 515.1C66.162 516.273 67.1042 517.215 68.2778 517.215Z" fill="white"/>
<path d="M92.0809 517.215C93.2546 517.215 94.1968 516.273 94.1968 515.1C94.1968 513.926 93.2546 512.984 92.0809 512.984C90.9073 512.984 89.9651 513.926 89.9651 515.1C89.9651 516.273 90.9073 517.215 92.0809 517.215Z" fill="white"/>
<path d="M115.884 517.215C117.058 517.215 118 516.273 118 515.1C118 513.926 117.058 512.984 115.884 512.984C114.711 512.984 113.768 513.926 113.768 515.1C113.768 516.273 114.711 517.215 115.884 517.215Z" fill="white"/>
<path d="M8.76989 541.014C9.94352 541.014 10.8857 540.072 10.8857 538.898C10.8857 537.725 9.94352 536.783 8.76989 536.783C7.59626 536.783 6.65405 537.725 6.65405 538.898C6.65405 540.072 7.59626 541.014 8.76989 541.014Z" fill="white"/>
<path d="M32.5731 541.014C33.7467 541.014 34.6889 540.072 34.6889 538.898C34.6889 537.725 33.7467 536.783 32.5731 536.783C31.3995 536.783 30.4573 537.725 30.4573 538.898C30.4573 540.072 31.3995 541.014 32.5731 541.014Z" fill="white"/>
<path d="M56.3762 541.014C57.5498 541.014 58.492 540.072 58.492 538.898C58.492 537.725 57.5498 536.783 56.3762 536.783C55.2026 536.783 54.2604 537.725 54.2604 538.898C54.2604 540.072 55.2026 541.014 56.3762 541.014Z" fill="white"/>
<path d="M80.1793 541.014C81.3529 541.014 82.2951 540.072 82.2951 538.898C82.2951 537.725 81.3529 536.783 80.1793 536.783C79.0057 536.783 78.0635 537.725 78.0635 538.898C78.0635 540.072 79.0057 541.014 80.1793 541.014Z" fill="white"/>
<path d="M103.983 541.014C105.151 541.014 106.098 540.066 106.098 538.898C106.098 537.73 105.151 536.783 103.983 536.783C102.814 536.783 101.867 537.73 101.867 538.898C101.867 540.066 102.814 541.014 103.983 541.014Z" fill="white"/>
</g>
<g clip-path="url(#clip1_1186_422625)">
<path d="M140.017 41.2445C141.191 41.2445 142.133 40.3025 142.133 39.1291C142.133 37.9557 141.191 37.0137 140.017 37.0137C138.844 37.0137 137.902 37.9557 137.902 39.1291C137.902 40.3025 138.844 41.2445 140.017 41.2445Z" fill="white"/>
<path d="M163.821 41.2445C164.994 41.2445 165.936 40.3025 165.936 39.1291C165.936 37.9557 164.994 37.0137 163.821 37.0137C162.647 37.0137 161.705 37.9557 161.705 39.1291C161.705 40.3025 162.647 41.2445 163.821 41.2445Z" fill="white"/>
<path d="M187.624 41.2445C188.797 41.2445 189.74 40.3025 189.74 39.1291C189.74 37.9557 188.797 37.0137 187.624 37.0137C186.45 37.0137 185.508 37.9557 185.508 39.1291C185.508 40.3025 186.45 41.2445 187.624 41.2445Z" fill="white"/>
<path d="M211.427 41.2445C212.596 41.2445 213.543 40.2974 213.543 39.1291C213.543 37.9608 212.596 37.0137 211.427 37.0137C210.258 37.0137 209.311 37.9608 209.311 39.1291C209.311 40.2974 210.258 41.2445 211.427 41.2445Z" fill="white"/>
<path d="M235.23 41.2445C236.404 41.2445 237.346 40.3025 237.346 39.1291C237.346 37.9557 236.404 37.0137 235.23 37.0137C234.056 37.0137 233.114 37.9557 233.114 39.1291C233.114 40.3025 234.056 41.2445 235.23 41.2445Z" fill="white"/>
<path d="M259.033 41.2445C260.207 41.2445 261.149 40.3025 261.149 39.1291C261.149 37.9557 260.207 37.0137 259.033 37.0137C257.86 37.0137 256.917 37.9557 256.917 39.1291C256.917 40.3025 257.86 41.2445 259.033 41.2445Z" fill="white"/>
<path d="M282.837 41.2445C284.01 41.2445 284.952 40.3025 284.952 39.1291C284.952 37.9557 284.01 37.0137 282.837 37.0137C281.663 37.0137 280.721 37.9557 280.721 39.1291C280.721 40.3025 281.663 41.2445 282.837 41.2445Z" fill="white"/>
<path d="M306.64 41.2445C307.813 41.2445 308.755 40.3025 308.755 39.1291C308.755 37.9557 307.813 37.0137 306.64 37.0137C305.466 37.0137 304.524 37.9557 304.524 39.1291C304.524 40.3025 305.466 41.2445 306.64 41.2445Z" fill="white"/>
<path d="M330.443 41.2445C331.611 41.2445 332.559 40.2974 332.559 39.1291C332.559 37.9608 331.611 37.0137 330.443 37.0137C329.274 37.0137 328.327 37.9608 328.327 39.1291C328.327 40.2974 329.274 41.2445 330.443 41.2445Z" fill="white"/>
<path d="M354.246 41.2445C355.42 41.2445 356.362 40.3025 356.362 39.1291C356.362 37.9557 355.42 37.0137 354.246 37.0137C353.072 37.0137 352.13 37.9557 352.13 39.1291C352.13 40.3025 353.072 41.2445 354.246 41.2445Z" fill="white"/>
<path d="M128.116 65.0429C129.289 65.0429 130.232 64.1008 130.232 62.9274C130.232 61.754 129.289 60.812 128.116 60.812C126.942 60.812 126 61.754 126 62.9274C126 64.1008 126.942 65.0429 128.116 65.0429Z" fill="white"/>
<path d="M151.919 65.0429C153.088 65.0429 154.035 64.0958 154.035 62.9274C154.035 61.7591 153.088 60.812 151.919 60.812C150.751 60.812 149.803 61.7591 149.803 62.9274C149.803 64.0958 150.751 65.0429 151.919 65.0429Z" fill="white"/>
<path d="M175.722 65.0429C176.896 65.0429 177.838 64.1008 177.838 62.9274C177.838 61.754 176.896 60.812 175.722 60.812C174.549 60.812 173.606 61.754 173.606 62.9274C173.606 64.1008 174.549 65.0429 175.722 65.0429Z" fill="white"/>
<path d="M199.525 65.0429C200.699 65.0429 201.641 64.1008 201.641 62.9274C201.641 61.754 200.699 60.812 199.525 60.812C198.352 60.812 197.41 61.754 197.41 62.9274C197.41 64.1008 198.352 65.0429 199.525 65.0429Z" fill="white"/>
<path d="M223.328 65.0429C224.502 65.0429 225.444 64.1008 225.444 62.9274C225.444 61.754 224.502 60.812 223.328 60.812C222.155 60.812 221.213 61.754 221.213 62.9274C221.213 64.1008 222.155 65.0429 223.328 65.0429Z" fill="white"/>
<path d="M247.132 65.0429C248.305 65.0429 249.248 64.1008 249.248 62.9274C249.248 61.754 248.305 60.812 247.132 60.812C245.958 60.812 245.016 61.754 245.016 62.9274C245.016 64.1008 245.958 65.0429 247.132 65.0429Z" fill="white"/>
<path d="M270.935 65.0429C272.103 65.0429 273.051 64.0958 273.051 62.9274C273.051 61.7591 272.103 60.812 270.935 60.812C269.766 60.812 268.819 61.7591 268.819 62.9274C268.819 64.0958 269.766 65.0429 270.935 65.0429Z" fill="white"/>
<path d="M294.738 65.0429C295.912 65.0429 296.854 64.1008 296.854 62.9274C296.854 61.754 295.912 60.812 294.738 60.812C293.565 60.812 292.622 61.754 292.622 62.9274C292.622 64.1008 293.565 65.0429 294.738 65.0429Z" fill="white"/>
<path d="M318.541 65.0429C319.715 65.0429 320.657 64.1008 320.657 62.9274C320.657 61.754 319.715 60.812 318.541 60.812C317.368 60.812 316.425 61.754 316.425 62.9274C316.425 64.1008 317.368 65.0429 318.541 65.0429Z" fill="white"/>
<path d="M342.344 65.0429C343.518 65.0429 344.46 64.1008 344.46 62.9274C344.46 61.754 343.518 60.812 342.344 60.812C341.171 60.812 340.229 61.754 340.229 62.9274C340.229 64.1008 341.171 65.0429 342.344 65.0429Z" fill="white"/>
<path d="M366.148 65.0429C367.321 65.0429 368.263 64.1008 368.263 62.9274C368.263 61.754 367.321 60.812 366.148 60.812C364.974 60.812 364.032 61.754 364.032 62.9274C364.032 64.1008 364.974 65.0429 366.148 65.0429Z" fill="white"/>
<path d="M140.017 88.8417C141.191 88.8417 142.133 87.8997 142.133 86.7263C142.133 85.5529 141.191 84.6108 140.017 84.6108C138.844 84.6108 137.902 85.5529 137.902 86.7263C137.902 87.8997 138.844 88.8417 140.017 88.8417Z" fill="white"/>
<path d="M163.821 88.8417C164.994 88.8417 165.936 87.8997 165.936 86.7263C165.936 85.5529 164.994 84.6108 163.821 84.6108C162.647 84.6108 161.705 85.5529 161.705 86.7263C161.705 87.8997 162.647 88.8417 163.821 88.8417Z" fill="white"/>
<path d="M187.624 88.8417C188.797 88.8417 189.74 87.8997 189.74 86.7263C189.74 85.5529 188.797 84.6108 187.624 84.6108C186.45 84.6108 185.508 85.5529 185.508 86.7263C185.508 87.8997 186.45 88.8417 187.624 88.8417Z" fill="white"/>
<path d="M211.427 88.8417C212.601 88.8417 213.543 87.8997 213.543 86.7263C213.543 85.5529 212.601 84.6108 211.427 84.6108C210.253 84.6108 209.311 85.5529 209.311 86.7263C209.311 87.8997 210.253 88.8417 211.427 88.8417Z" fill="white"/>
<path d="M235.23 88.8417C236.404 88.8417 237.346 87.8997 237.346 86.7263C237.346 85.5529 236.404 84.6108 235.23 84.6108C234.056 84.6108 233.114 85.5529 233.114 86.7263C233.114 87.8997 234.056 88.8417 235.23 88.8417Z" fill="white"/>
<path d="M259.033 88.8417C260.207 88.8417 261.149 87.8997 261.149 86.7263C261.149 85.5529 260.207 84.6108 259.033 84.6108C257.86 84.6108 256.917 85.5529 256.917 86.7263C256.917 87.8997 257.86 88.8417 259.033 88.8417Z" fill="white"/>
<path d="M282.837 88.8417C284.01 88.8417 284.952 87.8997 284.952 86.7263C284.952 85.5529 284.01 84.6108 282.837 84.6108C281.663 84.6108 280.721 85.5529 280.721 86.7263C280.721 87.8997 281.663 88.8417 282.837 88.8417Z" fill="white"/>
<path d="M306.64 88.8417C307.813 88.8417 308.755 87.8997 308.755 86.7263C308.755 85.5529 307.813 84.6108 306.64 84.6108C305.466 84.6108 304.524 85.5529 304.524 86.7263C304.524 87.8997 305.466 88.8417 306.64 88.8417Z" fill="white"/>
<path d="M330.443 88.8417C331.616 88.8417 332.559 87.8997 332.559 86.7263C332.559 85.5529 331.616 84.6108 330.443 84.6108C329.269 84.6108 328.327 85.5529 328.327 86.7263C328.327 87.8997 329.269 88.8417 330.443 88.8417Z" fill="white"/>
<path d="M354.246 88.8417C355.42 88.8417 356.362 87.8997 356.362 86.7263C356.362 85.5529 355.42 84.6108 354.246 84.6108C353.072 84.6108 352.13 85.5529 352.13 86.7263C352.13 87.8997 353.072 88.8417 354.246 88.8417Z" fill="white"/>
<path d="M128.116 112.64C129.289 112.64 130.232 111.698 130.232 110.525C130.232 109.351 129.289 108.409 128.116 108.409C126.942 108.409 126 109.351 126 110.525C126 111.698 126.942 112.64 128.116 112.64Z" fill="white"/>
<path d="M151.919 112.64C153.093 112.64 154.035 111.698 154.035 110.525C154.035 109.351 153.093 108.409 151.919 108.409C150.745 108.409 149.803 109.351 149.803 110.525C149.803 111.698 150.745 112.64 151.919 112.64Z" fill="white"/>
<path d="M175.722 112.64C176.896 112.64 177.838 111.698 177.838 110.525C177.838 109.351 176.896 108.409 175.722 108.409C174.549 108.409 173.606 109.351 173.606 110.525C173.606 111.698 174.549 112.64 175.722 112.64Z" fill="white"/>
<path d="M199.525 112.64C200.699 112.64 201.641 111.698 201.641 110.525C201.641 109.351 200.699 108.409 199.525 108.409C198.352 108.409 197.41 109.351 197.41 110.525C197.41 111.698 198.352 112.64 199.525 112.64Z" fill="white"/>
<path d="M223.328 112.64C224.502 112.64 225.444 111.698 225.444 110.525C225.444 109.351 224.502 108.409 223.328 108.409C222.155 108.409 221.213 109.351 221.213 110.525C221.213 111.698 222.155 112.64 223.328 112.64Z" fill="white"/>
<path d="M247.132 112.64C248.305 112.64 249.248 111.698 249.248 110.525C249.248 109.351 248.305 108.409 247.132 108.409C245.958 108.409 245.016 109.351 245.016 110.525C245.016 111.698 245.958 112.64 247.132 112.64Z" fill="white"/>
<path d="M270.935 112.64C272.109 112.64 273.051 111.698 273.051 110.525C273.051 109.351 272.109 108.409 270.935 108.409C269.761 108.409 268.819 109.351 268.819 110.525C268.819 111.698 269.761 112.64 270.935 112.64Z" fill="white"/>
<path d="M294.738 112.64C295.912 112.64 296.854 111.698 296.854 110.525C296.854 109.351 295.912 108.409 294.738 108.409C293.565 108.409 292.622 109.351 292.622 110.525C292.622 111.698 293.565 112.64 294.738 112.64Z" fill="white"/>
<path d="M318.541 112.64C319.715 112.64 320.657 111.698 320.657 110.525C320.657 109.351 319.715 108.409 318.541 108.409C317.368 108.409 316.425 109.351 316.425 110.525C316.425 111.698 317.368 112.64 318.541 112.64Z" fill="white"/>
<path d="M342.344 112.64C343.518 112.64 344.46 111.698 344.46 110.525C344.46 109.351 343.518 108.409 342.344 108.409C341.171 108.409 340.229 109.351 340.229 110.525C340.229 111.698 341.171 112.64 342.344 112.64Z" fill="white"/>
<path d="M366.148 112.64C367.321 112.64 368.263 111.698 368.263 110.525C368.263 109.351 367.321 108.409 366.148 108.409C364.974 108.409 364.032 109.351 364.032 110.525C364.032 111.698 364.974 112.64 366.148 112.64Z" fill="white"/>
<path d="M140.017 136.439C141.191 136.439 142.133 135.497 142.133 134.323C142.133 133.15 141.191 132.208 140.017 132.208C138.844 132.208 137.902 133.15 137.902 134.323C137.902 135.497 138.844 136.439 140.017 136.439Z" fill="white"/>
<path d="M163.821 136.439C164.994 136.439 165.936 135.497 165.936 134.323C165.936 133.15 164.994 132.208 163.821 132.208C162.647 132.208 161.705 133.15 161.705 134.323C161.705 135.497 162.647 136.439 163.821 136.439Z" fill="white"/>
<path d="M187.624 136.439C188.797 136.439 189.74 135.497 189.74 134.323C189.74 133.15 188.797 132.208 187.624 132.208C186.45 132.208 185.508 133.15 185.508 134.323C185.508 135.497 186.45 136.439 187.624 136.439Z" fill="white"/>
<path d="M211.427 136.439C212.601 136.439 213.543 135.497 213.543 134.323C213.543 133.15 212.601 132.208 211.427 132.208C210.253 132.208 209.311 133.15 209.311 134.323C209.311 135.497 210.253 136.439 211.427 136.439Z" fill="white"/>
<path d="M235.23 136.439C236.404 136.439 237.346 135.497 237.346 134.323C237.346 133.15 236.404 132.208 235.23 132.208C234.056 132.208 233.114 133.15 233.114 134.323C233.114 135.497 234.056 136.439 235.23 136.439Z" fill="white"/>
<path d="M259.033 136.439C260.207 136.439 261.149 135.497 261.149 134.323C261.149 133.15 260.207 132.208 259.033 132.208C257.86 132.208 256.917 133.15 256.917 134.323C256.917 135.497 257.86 136.439 259.033 136.439Z" fill="white"/>
<path d="M282.837 136.439C284.01 136.439 284.952 135.497 284.952 134.323C284.952 133.15 284.01 132.208 282.837 132.208C281.663 132.208 280.721 133.15 280.721 134.323C280.721 135.497 281.663 136.439 282.837 136.439Z" fill="white"/>
<path d="M306.64 136.439C307.813 136.439 308.755 135.497 308.755 134.323C308.755 133.15 307.813 132.208 306.64 132.208C305.466 132.208 304.524 133.15 304.524 134.323C304.524 135.497 305.466 136.439 306.64 136.439Z" fill="white"/>
<path d="M330.443 136.439C331.616 136.439 332.559 135.497 332.559 134.323C332.559 133.15 331.616 132.208 330.443 132.208C329.269 132.208 328.327 133.15 328.327 134.323C328.327 135.497 329.269 136.439 330.443 136.439Z" fill="white"/>
<path d="M354.246 136.439C355.42 136.439 356.362 135.497 356.362 134.323C356.362 133.15 355.42 132.208 354.246 132.208C353.072 132.208 352.13 133.15 352.13 134.323C352.13 135.497 353.072 136.439 354.246 136.439Z" fill="white"/>
<path d="M128.116 160.237C129.289 160.237 130.232 159.295 130.232 158.122C130.232 156.948 129.289 156.006 128.116 156.006C126.942 156.006 126 156.948 126 158.122C126 159.295 126.942 160.237 128.116 160.237Z" fill="white"/>
<path d="M151.919 160.237C153.088 160.237 154.035 159.29 154.035 158.122C154.035 156.953 153.088 156.006 151.919 156.006C150.751 156.006 149.803 156.953 149.803 158.122C149.803 159.29 150.751 160.237 151.919 160.237Z" fill="white"/>
<path d="M175.722 160.237C176.896 160.237 177.838 159.295 177.838 158.122C177.838 156.948 176.896 156.006 175.722 156.006C174.549 156.006 173.606 156.948 173.606 158.122C173.606 159.295 174.549 160.237 175.722 160.237Z" fill="white"/>
<path d="M199.525 160.237C200.699 160.237 201.641 159.295 201.641 158.122C201.641 156.948 200.699 156.006 199.525 156.006C198.352 156.006 197.41 156.948 197.41 158.122C197.41 159.295 198.352 160.237 199.525 160.237Z" fill="white"/>
<path d="M223.328 160.237C224.502 160.237 225.444 159.295 225.444 158.122C225.444 156.948 224.502 156.006 223.328 156.006C222.155 156.006 221.213 156.948 221.213 158.122C221.213 159.295 222.155 160.237 223.328 160.237Z" fill="white"/>
<path d="M247.132 160.237C248.305 160.237 249.248 159.295 249.248 158.122C249.248 156.948 248.305 156.006 247.132 156.006C245.958 156.006 245.016 156.948 245.016 158.122C245.016 159.295 245.958 160.237 247.132 160.237Z" fill="white"/>
<path d="M270.935 160.237C272.103 160.237 273.051 159.29 273.051 158.122C273.051 156.953 272.103 156.006 270.935 156.006C269.766 156.006 268.819 156.953 268.819 158.122C268.819 159.29 269.766 160.237 270.935 160.237Z" fill="white"/>
<path d="M294.738 160.237C295.912 160.237 296.854 159.295 296.854 158.122C296.854 156.948 295.912 156.006 294.738 156.006C293.565 156.006 292.622 156.948 292.622 158.122C292.622 159.295 293.565 160.237 294.738 160.237Z" fill="white"/>
<path d="M318.541 160.237C319.715 160.237 320.657 159.295 320.657 158.122C320.657 156.948 319.715 156.006 318.541 156.006C317.368 156.006 316.425 156.948 316.425 158.122C316.425 159.295 317.368 160.237 318.541 160.237Z" fill="white"/>
<path d="M342.344 160.237C343.518 160.237 344.46 159.295 344.46 158.122C344.46 156.948 343.518 156.006 342.344 156.006C341.171 156.006 340.229 156.948 340.229 158.122C340.229 159.295 341.171 160.237 342.344 160.237Z" fill="white"/>
<path d="M366.148 160.237C367.321 160.237 368.263 159.295 368.263 158.122C368.263 156.948 367.321 156.006 366.148 156.006C364.974 156.006 364.032 156.948 364.032 158.122C364.032 159.295 364.974 160.237 366.148 160.237Z" fill="white"/>
<path d="M140.017 184.036C141.191 184.036 142.133 183.094 142.133 181.92C142.133 180.747 141.191 179.805 140.017 179.805C138.844 179.805 137.902 180.747 137.902 181.92C137.902 183.094 138.844 184.036 140.017 184.036Z" fill="white"/>
<path d="M163.821 184.036C164.994 184.036 165.936 183.094 165.936 181.92C165.936 180.747 164.994 179.805 163.821 179.805C162.647 179.805 161.705 180.747 161.705 181.92C161.705 183.094 162.647 184.036 163.821 184.036Z" fill="white"/>
<path d="M187.624 184.036C188.797 184.036 189.74 183.094 189.74 181.92C189.74 180.747 188.797 179.805 187.624 179.805C186.45 179.805 185.508 180.747 185.508 181.92C185.508 183.094 186.45 184.036 187.624 184.036Z" fill="white"/>
<path d="M211.427 184.036C212.596 184.036 213.543 183.088 213.543 181.92C213.543 180.752 212.596 179.805 211.427 179.805C210.258 179.805 209.311 180.752 209.311 181.92C209.311 183.088 210.258 184.036 211.427 184.036Z" fill="white"/>
<path d="M235.23 184.036C236.404 184.036 237.346 183.094 237.346 181.92C237.346 180.747 236.404 179.805 235.23 179.805C234.056 179.805 233.114 180.747 233.114 181.92C233.114 183.094 234.056 184.036 235.23 184.036Z" fill="white"/>
<path d="M259.033 184.036C260.207 184.036 261.149 183.094 261.149 181.92C261.149 180.747 260.207 179.805 259.033 179.805C257.86 179.805 256.917 180.747 256.917 181.92C256.917 183.094 257.86 184.036 259.033 184.036Z" fill="white"/>
<path d="M282.837 184.036C284.01 184.036 284.952 183.094 284.952 181.92C284.952 180.747 284.01 179.805 282.837 179.805C281.663 179.805 280.721 180.747 280.721 181.92C280.721 183.094 281.663 184.036 282.837 184.036Z" fill="white"/>
<path d="M306.64 184.036C307.813 184.036 308.755 183.094 308.755 181.92C308.755 180.747 307.813 179.805 306.64 179.805C305.466 179.805 304.524 180.747 304.524 181.92C304.524 183.094 305.466 184.036 306.64 184.036Z" fill="white"/>
<path d="M330.443 184.036C331.611 184.036 332.559 183.088 332.559 181.92C332.559 180.752 331.611 179.805 330.443 179.805C329.274 179.805 328.327 180.752 328.327 181.92C328.327 183.088 329.274 184.036 330.443 184.036Z" fill="white"/>
<path d="M354.246 184.036C355.42 184.036 356.362 183.094 356.362 181.92C356.362 180.747 355.42 179.805 354.246 179.805C353.072 179.805 352.13 180.747 352.13 181.92C352.13 183.094 353.072 184.036 354.246 184.036Z" fill="white"/>
<path d="M128.116 207.834C129.289 207.834 130.232 206.892 130.232 205.719C130.232 204.546 129.289 203.604 128.116 203.604C126.942 203.604 126 204.546 126 205.719C126 206.892 126.942 207.834 128.116 207.834Z" fill="white"/>
<path d="M151.919 207.834C153.093 207.834 154.035 206.892 154.035 205.719C154.035 204.546 153.093 203.604 151.919 203.604C150.745 203.604 149.803 204.546 149.803 205.719C149.803 206.892 150.745 207.834 151.919 207.834Z" fill="white"/>
<path d="M175.722 207.834C176.896 207.834 177.838 206.892 177.838 205.719C177.838 204.546 176.896 203.604 175.722 203.604C174.549 203.604 173.606 204.546 173.606 205.719C173.606 206.892 174.549 207.834 175.722 207.834Z" fill="white"/>
<path d="M199.525 207.834C200.699 207.834 201.641 206.892 201.641 205.719C201.641 204.546 200.699 203.604 199.525 203.604C198.352 203.604 197.41 204.546 197.41 205.719C197.41 206.892 198.352 207.834 199.525 207.834Z" fill="white"/>
<path d="M223.328 207.834C224.502 207.834 225.444 206.892 225.444 205.719C225.444 204.546 224.502 203.604 223.328 203.604C222.155 203.604 221.213 204.546 221.213 205.719C221.213 206.892 222.155 207.834 223.328 207.834Z" fill="white"/>
<path d="M247.132 207.834C248.305 207.834 249.248 206.892 249.248 205.719C249.248 204.546 248.305 203.604 247.132 203.604C245.958 203.604 245.016 204.546 245.016 205.719C245.016 206.892 245.958 207.834 247.132 207.834Z" fill="white"/>
<path d="M270.935 207.834C272.109 207.834 273.051 206.892 273.051 205.719C273.051 204.546 272.109 203.604 270.935 203.604C269.761 203.604 268.819 204.546 268.819 205.719C268.819 206.892 269.761 207.834 270.935 207.834Z" fill="white"/>
<path d="M294.738 207.834C295.912 207.834 296.854 206.892 296.854 205.719C296.854 204.546 295.912 203.604 294.738 203.604C293.565 203.604 292.622 204.546 292.622 205.719C292.622 206.892 293.565 207.834 294.738 207.834Z" fill="white"/>
<path d="M318.541 207.834C319.715 207.834 320.657 206.892 320.657 205.719C320.657 204.546 319.715 203.604 318.541 203.604C317.368 203.604 316.425 204.546 316.425 205.719C316.425 206.892 317.368 207.834 318.541 207.834Z" fill="white"/>
<path d="M342.344 207.834C343.518 207.834 344.46 206.892 344.46 205.719C344.46 204.546 343.518 203.604 342.344 203.604C341.171 203.604 340.229 204.546 340.229 205.719C340.229 206.892 341.171 207.834 342.344 207.834Z" fill="white"/>
<path d="M366.148 207.834C367.321 207.834 368.263 206.892 368.263 205.719C368.263 204.546 367.321 203.604 366.148 203.604C364.974 203.604 364.032 204.546 364.032 205.719C364.032 206.892 364.974 207.834 366.148 207.834Z" fill="white"/>
<path d="M140.017 231.633C141.191 231.633 142.133 230.691 142.133 229.517C142.133 228.344 141.191 227.402 140.017 227.402C138.844 227.402 137.902 228.344 137.902 229.517C137.902 230.691 138.844 231.633 140.017 231.633Z" fill="white"/>
<path d="M163.821 231.633C164.994 231.633 165.936 230.691 165.936 229.517C165.936 228.344 164.994 227.402 163.821 227.402C162.647 227.402 161.705 228.344 161.705 229.517C161.705 230.691 162.647 231.633 163.821 231.633Z" fill="white"/>
<path d="M187.624 231.633C188.797 231.633 189.74 230.691 189.74 229.517C189.74 228.344 188.797 227.402 187.624 227.402C186.45 227.402 185.508 228.344 185.508 229.517C185.508 230.691 186.45 231.633 187.624 231.633Z" fill="white"/>
<path d="M211.427 231.633C212.601 231.633 213.543 230.691 213.543 229.517C213.543 228.344 212.601 227.402 211.427 227.402C210.253 227.402 209.311 228.344 209.311 229.517C209.311 230.691 210.253 231.633 211.427 231.633Z" fill="white"/>
<path d="M235.23 231.633C236.404 231.633 237.346 230.691 237.346 229.517C237.346 228.344 236.404 227.402 235.23 227.402C234.056 227.402 233.114 228.344 233.114 229.517C233.114 230.691 234.056 231.633 235.23 231.633Z" fill="white"/>
<path d="M259.033 231.633C260.207 231.633 261.149 230.691 261.149 229.517C261.149 228.344 260.207 227.402 259.033 227.402C257.86 227.402 256.917 228.344 256.917 229.517C256.917 230.691 257.86 231.633 259.033 231.633Z" fill="white"/>
<path d="M282.837 231.633C284.01 231.633 284.952 230.691 284.952 229.517C284.952 228.344 284.01 227.402 282.837 227.402C281.663 227.402 280.721 228.344 280.721 229.517C280.721 230.691 281.663 231.633 282.837 231.633Z" fill="white"/>
<path d="M306.64 231.633C307.813 231.633 308.755 230.691 308.755 229.517C308.755 228.344 307.813 227.402 306.64 227.402C305.466 227.402 304.524 228.344 304.524 229.517C304.524 230.691 305.466 231.633 306.64 231.633Z" fill="white"/>
<path d="M330.443 231.633C331.616 231.633 332.559 230.691 332.559 229.517C332.559 228.344 331.616 227.402 330.443 227.402C329.269 227.402 328.327 228.344 328.327 229.517C328.327 230.691 329.269 231.633 330.443 231.633Z" fill="white"/>
<path d="M354.246 231.633C355.42 231.633 356.362 230.691 356.362 229.517C356.362 228.344 355.42 227.402 354.246 227.402C353.072 227.402 352.13 228.344 352.13 229.517C352.13 230.691 353.072 231.633 354.246 231.633Z" fill="white"/>
<path d="M128.116 255.432C129.289 255.432 130.232 254.49 130.232 253.316C130.232 252.143 129.289 251.201 128.116 251.201C126.942 251.201 126 252.143 126 253.316C126 254.49 126.942 255.432 128.116 255.432Z" fill="white"/>
<path d="M151.919 255.432C153.093 255.432 154.035 254.49 154.035 253.316C154.035 252.143 153.093 251.201 151.919 251.201C150.745 251.201 149.803 252.143 149.803 253.316C149.803 254.49 150.745 255.432 151.919 255.432Z" fill="white"/>
<path d="M175.722 255.432C176.896 255.432 177.838 254.49 177.838 253.316C177.838 252.143 176.896 251.201 175.722 251.201C174.549 251.201 173.606 252.143 173.606 253.316C173.606 254.49 174.549 255.432 175.722 255.432Z" fill="white"/>
<path d="M199.525 255.432C200.699 255.432 201.641 254.49 201.641 253.316C201.641 252.143 200.699 251.201 199.525 251.201C198.352 251.201 197.41 252.143 197.41 253.316C197.41 254.49 198.352 255.432 199.525 255.432Z" fill="white"/>
<path d="M223.328 255.432C224.502 255.432 225.444 254.49 225.444 253.316C225.444 252.143 224.502 251.201 223.328 251.201C222.155 251.201 221.213 252.143 221.213 253.316C221.213 254.49 222.155 255.432 223.328 255.432Z" fill="white"/>
<path d="M247.132 255.432C248.305 255.432 249.248 254.49 249.248 253.316C249.248 252.143 248.305 251.201 247.132 251.201C245.958 251.201 245.016 252.143 245.016 253.316C245.016 254.49 245.958 255.432 247.132 255.432Z" fill="white"/>
<path d="M270.935 255.432C272.109 255.432 273.051 254.49 273.051 253.316C273.051 252.143 272.109 251.201 270.935 251.201C269.761 251.201 268.819 252.143 268.819 253.316C268.819 254.49 269.761 255.432 270.935 255.432Z" fill="white"/>
<path d="M294.738 255.432C295.912 255.432 296.854 254.49 296.854 253.316C296.854 252.143 295.912 251.201 294.738 251.201C293.565 251.201 292.622 252.143 292.622 253.316C292.622 254.49 293.565 255.432 294.738 255.432Z" fill="white"/>
<path d="M318.541 255.432C319.715 255.432 320.657 254.49 320.657 253.316C320.657 252.143 319.715 251.201 318.541 251.201C317.368 251.201 316.425 252.143 316.425 253.316C316.425 254.49 317.368 255.432 318.541 255.432Z" fill="white"/>
<path d="M342.344 255.432C343.518 255.432 344.46 254.49 344.46 253.316C344.46 252.143 343.518 251.201 342.344 251.201C341.171 251.201 340.229 252.143 340.229 253.316C340.229 254.49 341.171 255.432 342.344 255.432Z" fill="white"/>
<path d="M366.148 255.432C367.321 255.432 368.263 254.49 368.263 253.316C368.263 252.143 367.321 251.201 366.148 251.201C364.974 251.201 364.032 252.143 364.032 253.316C364.032 254.49 364.974 255.432 366.148 255.432Z" fill="white"/>
<path d="M140.017 279.23C141.191 279.23 142.133 278.288 142.133 277.114C142.133 275.941 141.191 274.999 140.017 274.999C138.844 274.999 137.902 275.941 137.902 277.114C137.902 278.288 138.844 279.23 140.017 279.23Z" fill="white"/>
<path d="M163.821 279.23C164.994 279.23 165.936 278.288 165.936 277.114C165.936 275.941 164.994 274.999 163.821 274.999C162.647 274.999 161.705 275.941 161.705 277.114C161.705 278.288 162.647 279.23 163.821 279.23Z" fill="white"/>
<path d="M187.624 279.23C188.797 279.23 189.74 278.288 189.74 277.114C189.74 275.941 188.797 274.999 187.624 274.999C186.45 274.999 185.508 275.941 185.508 277.114C185.508 278.288 186.45 279.23 187.624 279.23Z" fill="white"/>
<path d="M211.427 279.23C212.596 279.23 213.543 278.283 213.543 277.114C213.543 275.946 212.596 274.999 211.427 274.999C210.258 274.999 209.311 275.946 209.311 277.114C209.311 278.283 210.258 279.23 211.427 279.23Z" fill="white"/>
<path d="M235.23 279.23C236.404 279.23 237.346 278.288 237.346 277.114C237.346 275.941 236.404 274.999 235.23 274.999C234.056 274.999 233.114 275.941 233.114 277.114C233.114 278.288 234.056 279.23 235.23 279.23Z" fill="white"/>
<path d="M259.033 279.23C260.207 279.23 261.149 278.288 261.149 277.114C261.149 275.941 260.207 274.999 259.033 274.999C257.86 274.999 256.917 275.941 256.917 277.114C256.917 278.288 257.86 279.23 259.033 279.23Z" fill="white"/>
<path d="M282.837 279.23C284.01 279.23 284.952 278.288 284.952 277.114C284.952 275.941 284.01 274.999 282.837 274.999C281.663 274.999 280.721 275.941 280.721 277.114C280.721 278.288 281.663 279.23 282.837 279.23Z" fill="white"/>
<path d="M306.64 279.23C307.813 279.23 308.755 278.288 308.755 277.114C308.755 275.941 307.813 274.999 306.64 274.999C305.466 274.999 304.524 275.941 304.524 277.114C304.524 278.288 305.466 279.23 306.64 279.23Z" fill="white"/>
<path d="M330.443 279.23C331.611 279.23 332.559 278.283 332.559 277.114C332.559 275.946 331.611 274.999 330.443 274.999C329.274 274.999 328.327 275.946 328.327 277.114C328.327 278.283 329.274 279.23 330.443 279.23Z" fill="white"/>
<path d="M354.246 279.23C355.42 279.23 356.362 278.288 356.362 277.114C356.362 275.941 355.42 274.999 354.246 274.999C353.072 274.999 352.13 275.941 352.13 277.114C352.13 278.288 353.072 279.23 354.246 279.23Z" fill="white"/>
<path d="M128.116 303.028C129.289 303.028 130.232 302.086 130.232 300.913C130.232 299.739 129.289 298.797 128.116 298.797C126.942 298.797 126 299.739 126 300.913C126 302.086 126.942 303.028 128.116 303.028Z" fill="white"/>
<path d="M151.919 303.028C153.088 303.028 154.035 302.081 154.035 300.913C154.035 299.744 153.088 298.797 151.919 298.797C150.751 298.797 149.803 299.744 149.803 300.913C149.803 302.081 150.751 303.028 151.919 303.028Z" fill="white"/>
<path d="M175.722 303.028C176.896 303.028 177.838 302.086 177.838 300.913C177.838 299.739 176.896 298.797 175.722 298.797C174.549 298.797 173.606 299.739 173.606 300.913C173.606 302.086 174.549 303.028 175.722 303.028Z" fill="white"/>
<path d="M199.525 303.028C200.699 303.028 201.641 302.086 201.641 300.913C201.641 299.739 200.699 298.797 199.525 298.797C198.352 298.797 197.41 299.739 197.41 300.913C197.41 302.086 198.352 303.028 199.525 303.028Z" fill="white"/>
<path d="M223.328 303.028C224.502 303.028 225.444 302.086 225.444 300.913C225.444 299.739 224.502 298.797 223.328 298.797C222.155 298.797 221.213 299.739 221.213 300.913C221.213 302.086 222.155 303.028 223.328 303.028Z" fill="white"/>
<path d="M247.132 303.028C248.305 303.028 249.248 302.086 249.248 300.913C249.248 299.739 248.305 298.797 247.132 298.797C245.958 298.797 245.016 299.739 245.016 300.913C245.016 302.086 245.958 303.028 247.132 303.028Z" fill="white"/>
<path d="M270.935 303.028C272.103 303.028 273.051 302.081 273.051 300.913C273.051 299.744 272.103 298.797 270.935 298.797C269.766 298.797 268.819 299.744 268.819 300.913C268.819 302.081 269.766 303.028 270.935 303.028Z" fill="white"/>
<path d="M294.738 303.028C295.912 303.028 296.854 302.086 296.854 300.913C296.854 299.739 295.912 298.797 294.738 298.797C293.565 298.797 292.622 299.739 292.622 300.913C292.622 302.086 293.565 303.028 294.738 303.028Z" fill="white"/>
<path d="M318.541 303.028C319.715 303.028 320.657 302.086 320.657 300.913C320.657 299.739 319.715 298.797 318.541 298.797C317.368 298.797 316.425 299.739 316.425 300.913C316.425 302.086 317.368 303.028 318.541 303.028Z" fill="white"/>
<path d="M342.344 303.028C343.518 303.028 344.46 302.086 344.46 300.913C344.46 299.739 343.518 298.797 342.344 298.797C341.171 298.797 340.229 299.739 340.229 300.913C340.229 302.086 341.171 303.028 342.344 303.028Z" fill="white"/>
<path d="M366.148 303.028C367.321 303.028 368.263 302.086 368.263 300.913C368.263 299.739 367.321 298.797 366.148 298.797C364.974 298.797 364.032 299.739 364.032 300.913C364.032 302.086 364.974 303.028 366.148 303.028Z" fill="white"/>
<path d="M140.017 326.827C141.191 326.827 142.133 325.885 142.133 324.712C142.133 323.538 141.191 322.596 140.017 322.596C138.844 322.596 137.902 323.538 137.902 324.712C137.902 325.885 138.844 326.827 140.017 326.827Z" fill="white"/>
<path d="M163.821 326.827C164.994 326.827 165.936 325.885 165.936 324.712C165.936 323.538 164.994 322.596 163.821 322.596C162.647 322.596 161.705 323.538 161.705 324.712C161.705 325.885 162.647 326.827 163.821 326.827Z" fill="white"/>
<path d="M187.624 326.827C188.797 326.827 189.74 325.885 189.74 324.712C189.74 323.538 188.797 322.596 187.624 322.596C186.45 322.596 185.508 323.538 185.508 324.712C185.508 325.885 186.45 326.827 187.624 326.827Z" fill="white"/>
<path d="M211.427 326.827C212.601 326.827 213.543 325.885 213.543 324.712C213.543 323.538 212.601 322.596 211.427 322.596C210.253 322.596 209.311 323.538 209.311 324.712C209.311 325.885 210.253 326.827 211.427 326.827Z" fill="white"/>
<path d="M235.23 326.827C236.404 326.827 237.346 325.885 237.346 324.712C237.346 323.538 236.404 322.596 235.23 322.596C234.056 322.596 233.114 323.538 233.114 324.712C233.114 325.885 234.056 326.827 235.23 326.827Z" fill="white"/>
<path d="M259.033 326.827C260.207 326.827 261.149 325.885 261.149 324.712C261.149 323.538 260.207 322.596 259.033 322.596C257.86 322.596 256.917 323.538 256.917 324.712C256.917 325.885 257.86 326.827 259.033 326.827Z" fill="white"/>
<path d="M282.837 326.827C284.01 326.827 284.952 325.885 284.952 324.712C284.952 323.538 284.01 322.596 282.837 322.596C281.663 322.596 280.721 323.538 280.721 324.712C280.721 325.885 281.663 326.827 282.837 326.827Z" fill="white"/>
<path d="M306.64 326.827C307.813 326.827 308.755 325.885 308.755 324.712C308.755 323.538 307.813 322.596 306.64 322.596C305.466 322.596 304.524 323.538 304.524 324.712C304.524 325.885 305.466 326.827 306.64 326.827Z" fill="white"/>
<path d="M330.443 326.827C331.616 326.827 332.559 325.885 332.559 324.712C332.559 323.538 331.616 322.596 330.443 322.596C329.269 322.596 328.327 323.538 328.327 324.712C328.327 325.885 329.269 326.827 330.443 326.827Z" fill="white"/>
<path d="M354.246 326.827C355.42 326.827 356.362 325.885 356.362 324.712C356.362 323.538 355.42 322.596 354.246 322.596C353.072 322.596 352.13 323.538 352.13 324.712C352.13 325.885 353.072 326.827 354.246 326.827Z" fill="white"/>
<path d="M128.116 350.625C129.289 350.625 130.232 349.683 130.232 348.51C130.232 347.337 129.289 346.395 128.116 346.395C126.942 346.395 126 347.337 126 348.51C126 349.683 126.942 350.625 128.116 350.625Z" fill="white"/>
<path d="M151.919 350.625C153.093 350.625 154.035 349.683 154.035 348.51C154.035 347.337 153.093 346.395 151.919 346.395C150.745 346.395 149.803 347.337 149.803 348.51C149.803 349.683 150.745 350.625 151.919 350.625Z" fill="white"/>
<path d="M175.722 350.625C176.896 350.625 177.838 349.683 177.838 348.51C177.838 347.337 176.896 346.395 175.722 346.395C174.549 346.395 173.606 347.337 173.606 348.51C173.606 349.683 174.549 350.625 175.722 350.625Z" fill="white"/>
<path d="M199.525 350.625C200.699 350.625 201.641 349.683 201.641 348.51C201.641 347.337 200.699 346.395 199.525 346.395C198.352 346.395 197.41 347.337 197.41 348.51C197.41 349.683 198.352 350.625 199.525 350.625Z" fill="white"/>
<path d="M223.328 350.625C224.502 350.625 225.444 349.683 225.444 348.51C225.444 347.337 224.502 346.395 223.328 346.395C222.155 346.395 221.213 347.337 221.213 348.51C221.213 349.683 222.155 350.625 223.328 350.625Z" fill="white"/>
<path d="M247.132 350.625C248.305 350.625 249.248 349.683 249.248 348.51C249.248 347.337 248.305 346.395 247.132 346.395C245.958 346.395 245.016 347.337 245.016 348.51C245.016 349.683 245.958 350.625 247.132 350.625Z" fill="white"/>
<path d="M270.935 350.625C272.109 350.625 273.051 349.683 273.051 348.51C273.051 347.337 272.109 346.395 270.935 346.395C269.761 346.395 268.819 347.337 268.819 348.51C268.819 349.683 269.761 350.625 270.935 350.625Z" fill="white"/>
<path d="M294.738 350.625C295.912 350.625 296.854 349.683 296.854 348.51C296.854 347.337 295.912 346.395 294.738 346.395C293.565 346.395 292.622 347.337 292.622 348.51C292.622 349.683 293.565 350.625 294.738 350.625Z" fill="white"/>
<path d="M318.541 350.625C319.715 350.625 320.657 349.683 320.657 348.51C320.657 347.337 319.715 346.395 318.541 346.395C317.368 346.395 316.425 347.337 316.425 348.51C316.425 349.683 317.368 350.625 318.541 350.625Z" fill="white"/>
<path d="M342.344 350.625C343.518 350.625 344.46 349.683 344.46 348.51C344.46 347.337 343.518 346.395 342.344 346.395C341.171 346.395 340.229 347.337 340.229 348.51C340.229 349.683 341.171 350.625 342.344 350.625Z" fill="white"/>
<path d="M366.148 350.625C367.321 350.625 368.263 349.683 368.263 348.51C368.263 347.337 367.321 346.395 366.148 346.395C364.974 346.395 364.032 347.337 364.032 348.51C364.032 349.683 364.974 350.625 366.148 350.625Z" fill="white"/>
<path d="M140.017 374.424C141.191 374.424 142.133 373.482 142.133 372.309C142.133 371.135 141.191 370.193 140.017 370.193C138.844 370.193 137.902 371.135 137.902 372.309C137.902 373.482 138.844 374.424 140.017 374.424Z" fill="white"/>
<path d="M163.821 374.424C164.994 374.424 165.936 373.482 165.936 372.309C165.936 371.135 164.994 370.193 163.821 370.193C162.647 370.193 161.705 371.135 161.705 372.309C161.705 373.482 162.647 374.424 163.821 374.424Z" fill="white"/>
<path d="M187.624 374.424C188.797 374.424 189.74 373.482 189.74 372.309C189.74 371.135 188.797 370.193 187.624 370.193C186.45 370.193 185.508 371.135 185.508 372.309C185.508 373.482 186.45 374.424 187.624 374.424Z" fill="white"/>
<path d="M211.427 374.424C212.601 374.424 213.543 373.482 213.543 372.309C213.543 371.135 212.601 370.193 211.427 370.193C210.253 370.193 209.311 371.135 209.311 372.309C209.311 373.482 210.253 374.424 211.427 374.424Z" fill="white"/>
<path d="M235.23 374.424C236.404 374.424 237.346 373.482 237.346 372.309C237.346 371.135 236.404 370.193 235.23 370.193C234.056 370.193 233.114 371.135 233.114 372.309C233.114 373.482 234.056 374.424 235.23 374.424Z" fill="white"/>
<path d="M259.033 374.424C260.207 374.424 261.149 373.482 261.149 372.309C261.149 371.135 260.207 370.193 259.033 370.193C257.86 370.193 256.917 371.135 256.917 372.309C256.917 373.482 257.86 374.424 259.033 374.424Z" fill="white"/>
<path d="M282.837 374.424C284.01 374.424 284.952 373.482 284.952 372.309C284.952 371.135 284.01 370.193 282.837 370.193C281.663 370.193 280.721 371.135 280.721 372.309C280.721 373.482 281.663 374.424 282.837 374.424Z" fill="white"/>
<path d="M306.64 374.424C307.813 374.424 308.755 373.482 308.755 372.309C308.755 371.135 307.813 370.193 306.64 370.193C305.466 370.193 304.524 371.135 304.524 372.309C304.524 373.482 305.466 374.424 306.64 374.424Z" fill="white"/>
<path d="M330.443 374.424C331.616 374.424 332.559 373.482 332.559 372.309C332.559 371.135 331.616 370.193 330.443 370.193C329.269 370.193 328.327 371.135 328.327 372.309C328.327 373.482 329.269 374.424 330.443 374.424Z" fill="white"/>
<path d="M354.246 374.424C355.42 374.424 356.362 373.482 356.362 372.309C356.362 371.135 355.42 370.193 354.246 370.193C353.072 370.193 352.13 371.135 352.13 372.309C352.13 373.482 353.072 374.424 354.246 374.424Z" fill="white"/>
<path d="M128.116 398.223C129.289 398.223 130.232 397.281 130.232 396.107C130.232 394.934 129.289 393.992 128.116 393.992C126.942 393.992 126 394.934 126 396.107C126 397.281 126.942 398.223 128.116 398.223Z" fill="white"/>
<path d="M151.919 398.223C153.088 398.223 154.035 397.275 154.035 396.107C154.035 394.939 153.088 393.992 151.919 393.992C150.751 393.992 149.803 394.939 149.803 396.107C149.803 397.275 150.751 398.223 151.919 398.223Z" fill="white"/>
<path d="M175.722 398.223C176.896 398.223 177.838 397.281 177.838 396.107C177.838 394.934 176.896 393.992 175.722 393.992C174.549 393.992 173.606 394.934 173.606 396.107C173.606 397.281 174.549 398.223 175.722 398.223Z" fill="white"/>
<path d="M199.525 398.223C200.699 398.223 201.641 397.281 201.641 396.107C201.641 394.934 200.699 393.992 199.525 393.992C198.352 393.992 197.41 394.934 197.41 396.107C197.41 397.281 198.352 398.223 199.525 398.223Z" fill="white"/>
<path d="M223.328 398.223C224.502 398.223 225.444 397.281 225.444 396.107C225.444 394.934 224.502 393.992 223.328 393.992C222.155 393.992 221.213 394.934 221.213 396.107C221.213 397.281 222.155 398.223 223.328 398.223Z" fill="white"/>
<path d="M247.132 398.223C248.305 398.223 249.248 397.281 249.248 396.107C249.248 394.934 248.305 393.992 247.132 393.992C245.958 393.992 245.016 394.934 245.016 396.107C245.016 397.281 245.958 398.223 247.132 398.223Z" fill="white"/>
<path d="M270.935 398.223C272.103 398.223 273.051 397.275 273.051 396.107C273.051 394.939 272.103 393.992 270.935 393.992C269.766 393.992 268.819 394.939 268.819 396.107C268.819 397.275 269.766 398.223 270.935 398.223Z" fill="white"/>
<path d="M294.738 398.223C295.912 398.223 296.854 397.281 296.854 396.107C296.854 394.934 295.912 393.992 294.738 393.992C293.565 393.992 292.622 394.934 292.622 396.107C292.622 397.281 293.565 398.223 294.738 398.223Z" fill="white"/>
<path d="M318.541 398.223C319.715 398.223 320.657 397.281 320.657 396.107C320.657 394.934 319.715 393.992 318.541 393.992C317.368 393.992 316.425 394.934 316.425 396.107C316.425 397.281 317.368 398.223 318.541 398.223Z" fill="white"/>
<path d="M342.344 398.223C343.518 398.223 344.46 397.281 344.46 396.107C344.46 394.934 343.518 393.992 342.344 393.992C341.171 393.992 340.229 394.934 340.229 396.107C340.229 397.281 341.171 398.223 342.344 398.223Z" fill="white"/>
<path d="M366.148 398.223C367.321 398.223 368.263 397.281 368.263 396.107C368.263 394.934 367.321 393.992 366.148 393.992C364.974 393.992 364.032 394.934 364.032 396.107C364.032 397.281 364.974 398.223 366.148 398.223Z" fill="white"/>
<path d="M140.017 422.021C141.191 422.021 142.133 421.079 142.133 419.905C142.133 418.732 141.191 417.79 140.017 417.79C138.844 417.79 137.902 418.732 137.902 419.905C137.902 421.079 138.844 422.021 140.017 422.021Z" fill="white"/>
<path d="M163.821 422.021C164.994 422.021 165.936 421.079 165.936 419.905C165.936 418.732 164.994 417.79 163.821 417.79C162.647 417.79 161.705 418.732 161.705 419.905C161.705 421.079 162.647 422.021 163.821 422.021Z" fill="white"/>
<path d="M187.624 422.021C188.797 422.021 189.74 421.079 189.74 419.905C189.74 418.732 188.797 417.79 187.624 417.79C186.45 417.79 185.508 418.732 185.508 419.905C185.508 421.079 186.45 422.021 187.624 422.021Z" fill="white"/>
<path d="M211.427 422.021C212.596 422.021 213.543 421.074 213.543 419.905C213.543 418.737 212.596 417.79 211.427 417.79C210.258 417.79 209.311 418.737 209.311 419.905C209.311 421.074 210.258 422.021 211.427 422.021Z" fill="white"/>
<path d="M235.23 422.021C236.404 422.021 237.346 421.079 237.346 419.905C237.346 418.732 236.404 417.79 235.23 417.79C234.056 417.79 233.114 418.732 233.114 419.905C233.114 421.079 234.056 422.021 235.23 422.021Z" fill="white"/>
<path d="M259.033 422.021C260.207 422.021 261.149 421.079 261.149 419.905C261.149 418.732 260.207 417.79 259.033 417.79C257.86 417.79 256.917 418.732 256.917 419.905C256.917 421.079 257.86 422.021 259.033 422.021Z" fill="white"/>
<path d="M282.837 422.021C284.01 422.021 284.952 421.079 284.952 419.905C284.952 418.732 284.01 417.79 282.837 417.79C281.663 417.79 280.721 418.732 280.721 419.905C280.721 421.079 281.663 422.021 282.837 422.021Z" fill="white"/>
<path d="M306.64 422.021C307.813 422.021 308.755 421.079 308.755 419.905C308.755 418.732 307.813 417.79 306.64 417.79C305.466 417.79 304.524 418.732 304.524 419.905C304.524 421.079 305.466 422.021 306.64 422.021Z" fill="white"/>
<path d="M330.443 422.021C331.611 422.021 332.559 421.074 332.559 419.905C332.559 418.737 331.611 417.79 330.443 417.79C329.274 417.79 328.327 418.737 328.327 419.905C328.327 421.074 329.274 422.021 330.443 422.021Z" fill="white"/>
<path d="M354.246 422.021C355.42 422.021 356.362 421.079 356.362 419.905C356.362 418.732 355.42 417.79 354.246 417.79C353.072 417.79 352.13 418.732 352.13 419.905C352.13 421.079 353.072 422.021 354.246 422.021Z" fill="white"/>
<path d="M128.116 445.82C129.289 445.82 130.232 444.878 130.232 443.704C130.232 442.531 129.289 441.589 128.116 441.589C126.942 441.589 126 442.531 126 443.704C126 444.878 126.942 445.82 128.116 445.82Z" fill="white"/>
<path d="M151.919 445.82C153.093 445.82 154.035 444.878 154.035 443.704C154.035 442.531 153.093 441.589 151.919 441.589C150.745 441.589 149.803 442.531 149.803 443.704C149.803 444.878 150.745 445.82 151.919 445.82Z" fill="white"/>
<path d="M175.722 445.82C176.896 445.82 177.838 444.878 177.838 443.704C177.838 442.531 176.896 441.589 175.722 441.589C174.549 441.589 173.606 442.531 173.606 443.704C173.606 444.878 174.549 445.82 175.722 445.82Z" fill="white"/>
<path d="M199.525 445.82C200.699 445.82 201.641 444.878 201.641 443.704C201.641 442.531 200.699 441.589 199.525 441.589C198.352 441.589 197.41 442.531 197.41 443.704C197.41 444.878 198.352 445.82 199.525 445.82Z" fill="white"/>
<path d="M223.328 445.82C224.502 445.82 225.444 444.878 225.444 443.704C225.444 442.531 224.502 441.589 223.328 441.589C222.155 441.589 221.213 442.531 221.213 443.704C221.213 444.878 222.155 445.82 223.328 445.82Z" fill="white"/>
<path d="M247.132 445.82C248.305 445.82 249.248 444.878 249.248 443.704C249.248 442.531 248.305 441.589 247.132 441.589C245.958 441.589 245.016 442.531 245.016 443.704C245.016 444.878 245.958 445.82 247.132 445.82Z" fill="white"/>
<path d="M270.935 445.82C272.109 445.82 273.051 444.878 273.051 443.704C273.051 442.531 272.109 441.589 270.935 441.589C269.761 441.589 268.819 442.531 268.819 443.704C268.819 444.878 269.761 445.82 270.935 445.82Z" fill="white"/>
<path d="M294.738 445.82C295.912 445.82 296.854 444.878 296.854 443.704C296.854 442.531 295.912 441.589 294.738 441.589C293.565 441.589 292.622 442.531 292.622 443.704C292.622 444.878 293.565 445.82 294.738 445.82Z" fill="white"/>
<path d="M318.541 445.82C319.715 445.82 320.657 444.878 320.657 443.704C320.657 442.531 319.715 441.589 318.541 441.589C317.368 441.589 316.425 442.531 316.425 443.704C316.425 444.878 317.368 445.82 318.541 445.82Z" fill="white"/>
<path d="M342.344 445.82C343.518 445.82 344.46 444.878 344.46 443.704C344.46 442.531 343.518 441.589 342.344 441.589C341.171 441.589 340.229 442.531 340.229 443.704C340.229 444.878 341.171 445.82 342.344 445.82Z" fill="white"/>
<path d="M366.148 445.82C367.321 445.82 368.263 444.878 368.263 443.704C368.263 442.531 367.321 441.589 366.148 441.589C364.974 441.589 364.032 442.531 364.032 443.704C364.032 444.878 364.974 445.82 366.148 445.82Z" fill="white"/>
<path d="M140.017 469.618C141.191 469.618 142.133 468.676 142.133 467.503C142.133 466.329 141.191 465.387 140.017 465.387C138.844 465.387 137.902 466.329 137.902 467.503C137.902 468.676 138.844 469.618 140.017 469.618Z" fill="white"/>
<path d="M163.821 469.618C164.994 469.618 165.936 468.676 165.936 467.503C165.936 466.329 164.994 465.387 163.821 465.387C162.647 465.387 161.705 466.329 161.705 467.503C161.705 468.676 162.647 469.618 163.821 469.618Z" fill="white"/>
<path d="M187.624 469.618C188.797 469.618 189.74 468.676 189.74 467.503C189.74 466.329 188.797 465.387 187.624 465.387C186.45 465.387 185.508 466.329 185.508 467.503C185.508 468.676 186.45 469.618 187.624 469.618Z" fill="white"/>
<path d="M211.427 469.618C212.601 469.618 213.543 468.676 213.543 467.503C213.543 466.329 212.601 465.387 211.427 465.387C210.253 465.387 209.311 466.329 209.311 467.503C209.311 468.676 210.253 469.618 211.427 469.618Z" fill="white"/>
<path d="M235.23 469.618C236.404 469.618 237.346 468.676 237.346 467.503C237.346 466.329 236.404 465.387 235.23 465.387C234.056 465.387 233.114 466.329 233.114 467.503C233.114 468.676 234.056 469.618 235.23 469.618Z" fill="white"/>
<path d="M259.033 469.618C260.207 469.618 261.149 468.676 261.149 467.503C261.149 466.329 260.207 465.387 259.033 465.387C257.86 465.387 256.917 466.329 256.917 467.503C256.917 468.676 257.86 469.618 259.033 469.618Z" fill="white"/>
<path d="M282.837 469.618C284.01 469.618 284.952 468.676 284.952 467.503C284.952 466.329 284.01 465.387 282.837 465.387C281.663 465.387 280.721 466.329 280.721 467.503C280.721 468.676 281.663 469.618 282.837 469.618Z" fill="white"/>
<path d="M306.64 469.618C307.813 469.618 308.755 468.676 308.755 467.503C308.755 466.329 307.813 465.387 306.64 465.387C305.466 465.387 304.524 466.329 304.524 467.503C304.524 468.676 305.466 469.618 306.64 469.618Z" fill="white"/>
<path d="M330.443 469.618C331.616 469.618 332.559 468.676 332.559 467.503C332.559 466.329 331.616 465.387 330.443 465.387C329.269 465.387 328.327 466.329 328.327 467.503C328.327 468.676 329.269 469.618 330.443 469.618Z" fill="white"/>
<path d="M354.246 469.618C355.42 469.618 356.362 468.676 356.362 467.503C356.362 466.329 355.42 465.387 354.246 465.387C353.072 465.387 352.13 466.329 352.13 467.503C352.13 468.676 353.072 469.618 354.246 469.618Z" fill="white"/>
<path d="M128.116 493.416C129.289 493.416 130.232 492.474 130.232 491.301C130.232 490.128 129.289 489.186 128.116 489.186C126.942 489.186 126 490.128 126 491.301C126 492.474 126.942 493.416 128.116 493.416Z" fill="white"/>
<path d="M151.919 493.416C153.093 493.416 154.035 492.474 154.035 491.301C154.035 490.128 153.093 489.186 151.919 489.186C150.745 489.186 149.803 490.128 149.803 491.301C149.803 492.474 150.745 493.416 151.919 493.416Z" fill="white"/>
<path d="M175.722 493.416C176.896 493.416 177.838 492.474 177.838 491.301C177.838 490.128 176.896 489.186 175.722 489.186C174.549 489.186 173.606 490.128 173.606 491.301C173.606 492.474 174.549 493.416 175.722 493.416Z" fill="white"/>
<path d="M199.525 493.416C200.699 493.416 201.641 492.474 201.641 491.301C201.641 490.128 200.699 489.186 199.525 489.186C198.352 489.186 197.41 490.128 197.41 491.301C197.41 492.474 198.352 493.416 199.525 493.416Z" fill="white"/>
<path d="M223.328 493.416C224.502 493.416 225.444 492.474 225.444 491.301C225.444 490.128 224.502 489.186 223.328 489.186C222.155 489.186 221.213 490.128 221.213 491.301C221.213 492.474 222.155 493.416 223.328 493.416Z" fill="white"/>
<path d="M247.132 493.416C248.305 493.416 249.248 492.474 249.248 491.301C249.248 490.128 248.305 489.186 247.132 489.186C245.958 489.186 245.016 490.128 245.016 491.301C245.016 492.474 245.958 493.416 247.132 493.416Z" fill="white"/>
<path d="M270.935 493.416C272.109 493.416 273.051 492.474 273.051 491.301C273.051 490.128 272.109 489.186 270.935 489.186C269.761 489.186 268.819 490.128 268.819 491.301C268.819 492.474 269.761 493.416 270.935 493.416Z" fill="white"/>
<path d="M294.738 493.416C295.912 493.416 296.854 492.474 296.854 491.301C296.854 490.128 295.912 489.186 294.738 489.186C293.565 489.186 292.622 490.128 292.622 491.301C292.622 492.474 293.565 493.416 294.738 493.416Z" fill="white"/>
<path d="M318.541 493.416C319.715 493.416 320.657 492.474 320.657 491.301C320.657 490.128 319.715 489.186 318.541 489.186C317.368 489.186 316.425 490.128 316.425 491.301C316.425 492.474 317.368 493.416 318.541 493.416Z" fill="white"/>
<path d="M342.344 493.416C343.518 493.416 344.46 492.474 344.46 491.301C344.46 490.128 343.518 489.186 342.344 489.186C341.171 489.186 340.229 490.128 340.229 491.301C340.229 492.474 341.171 493.416 342.344 493.416Z" fill="white"/>
<path d="M366.148 493.416C367.321 493.416 368.263 492.474 368.263 491.301C368.263 490.128 367.321 489.186 366.148 489.186C364.974 489.186 364.032 490.128 364.032 491.301C364.032 492.474 364.974 493.416 366.148 493.416Z" fill="white"/>
<path d="M140.017 517.215C141.191 517.215 142.133 516.273 142.133 515.1C142.133 513.926 141.191 512.984 140.017 512.984C138.844 512.984 137.902 513.926 137.902 515.1C137.902 516.273 138.844 517.215 140.017 517.215Z" fill="white"/>
<path d="M163.821 517.215C164.994 517.215 165.936 516.273 165.936 515.1C165.936 513.926 164.994 512.984 163.821 512.984C162.647 512.984 161.705 513.926 161.705 515.1C161.705 516.273 162.647 517.215 163.821 517.215Z" fill="white"/>
<path d="M187.624 517.215C188.797 517.215 189.74 516.273 189.74 515.1C189.74 513.926 188.797 512.984 187.624 512.984C186.45 512.984 185.508 513.926 185.508 515.1C185.508 516.273 186.45 517.215 187.624 517.215Z" fill="white"/>
<path d="M211.427 517.215C212.596 517.215 213.543 516.268 213.543 515.1C213.543 513.931 212.596 512.984 211.427 512.984C210.258 512.984 209.311 513.931 209.311 515.1C209.311 516.268 210.258 517.215 211.427 517.215Z" fill="white"/>
<path d="M235.23 517.215C236.404 517.215 237.346 516.273 237.346 515.1C237.346 513.926 236.404 512.984 235.23 512.984C234.056 512.984 233.114 513.926 233.114 515.1C233.114 516.273 234.056 517.215 235.23 517.215Z" fill="white"/>
<path d="M259.033 517.215C260.207 517.215 261.149 516.273 261.149 515.1C261.149 513.926 260.207 512.984 259.033 512.984C257.86 512.984 256.917 513.926 256.917 515.1C256.917 516.273 257.86 517.215 259.033 517.215Z" fill="white"/>
<path d="M282.837 517.215C284.01 517.215 284.952 516.273 284.952 515.1C284.952 513.926 284.01 512.984 282.837 512.984C281.663 512.984 280.721 513.926 280.721 515.1C280.721 516.273 281.663 517.215 282.837 517.215Z" fill="white"/>
<path d="M306.64 517.215C307.813 517.215 308.755 516.273 308.755 515.1C308.755 513.926 307.813 512.984 306.64 512.984C305.466 512.984 304.524 513.926 304.524 515.1C304.524 516.273 305.466 517.215 306.64 517.215Z" fill="white"/>
<path d="M330.443 517.215C331.611 517.215 332.559 516.268 332.559 515.1C332.559 513.931 331.611 512.984 330.443 512.984C329.274 512.984 328.327 513.931 328.327 515.1C328.327 516.268 329.274 517.215 330.443 517.215Z" fill="white"/>
<path d="M354.246 517.215C355.42 517.215 356.362 516.273 356.362 515.1C356.362 513.926 355.42 512.984 354.246 512.984C353.072 512.984 352.13 513.926 352.13 515.1C352.13 516.273 353.072 517.215 354.246 517.215Z" fill="white"/>
<path d="M128.116 541.014C129.289 541.014 130.232 540.072 130.232 538.898C130.232 537.725 129.289 536.783 128.116 536.783C126.942 536.783 126 537.725 126 538.898C126 540.072 126.942 541.014 128.116 541.014Z" fill="white"/>
<path d="M151.919 541.014C153.088 541.014 154.035 540.066 154.035 538.898C154.035 537.73 153.088 536.783 151.919 536.783C150.751 536.783 149.803 537.73 149.803 538.898C149.803 540.066 150.751 541.014 151.919 541.014Z" fill="white"/>
<path d="M175.722 541.014C176.896 541.014 177.838 540.072 177.838 538.898C177.838 537.725 176.896 536.783 175.722 536.783C174.549 536.783 173.606 537.725 173.606 538.898C173.606 540.072 174.549 541.014 175.722 541.014Z" fill="white"/>
<path d="M199.525 541.014C200.699 541.014 201.641 540.072 201.641 538.898C201.641 537.725 200.699 536.783 199.525 536.783C198.352 536.783 197.41 537.725 197.41 538.898C197.41 540.072 198.352 541.014 199.525 541.014Z" fill="white"/>
<path d="M223.328 541.014C224.502 541.014 225.444 540.072 225.444 538.898C225.444 537.725 224.502 536.783 223.328 536.783C222.155 536.783 221.213 537.725 221.213 538.898C221.213 540.072 222.155 541.014 223.328 541.014Z" fill="white"/>
<path d="M247.132 541.014C248.305 541.014 249.248 540.072 249.248 538.898C249.248 537.725 248.305 536.783 247.132 536.783C245.958 536.783 245.016 537.725 245.016 538.898C245.016 540.072 245.958 541.014 247.132 541.014Z" fill="white"/>
<path d="M270.935 541.014C272.103 541.014 273.051 540.066 273.051 538.898C273.051 537.73 272.103 536.783 270.935 536.783C269.766 536.783 268.819 537.73 268.819 538.898C268.819 540.066 269.766 541.014 270.935 541.014Z" fill="white"/>
<path d="M294.738 541.014C295.912 541.014 296.854 540.072 296.854 538.898C296.854 537.725 295.912 536.783 294.738 536.783C293.565 536.783 292.622 537.725 292.622 538.898C292.622 540.072 293.565 541.014 294.738 541.014Z" fill="white"/>
<path d="M318.541 541.014C319.715 541.014 320.657 540.072 320.657 538.898C320.657 537.725 319.715 536.783 318.541 536.783C317.368 536.783 316.425 537.725 316.425 538.898C316.425 540.072 317.368 541.014 318.541 541.014Z" fill="white"/>
<path d="M342.344 541.014C343.518 541.014 344.46 540.072 344.46 538.898C344.46 537.725 343.518 536.783 342.344 536.783C341.171 536.783 340.229 537.725 340.229 538.898C340.229 540.072 341.171 541.014 342.344 541.014Z" fill="white"/>
<path d="M366.148 541.014C367.321 541.014 368.263 540.072 368.263 538.898C368.263 537.725 367.321 536.783 366.148 536.783C364.974 536.783 364.032 537.725 364.032 538.898C364.032 540.072 364.974 541.014 366.148 541.014Z" fill="white"/>
</g>
<g clip-path="url(#clip2_1186_422625)">
<path d="M20.6715 562.245C21.8451 562.245 22.7873 561.302 22.7873 560.129C22.7873 558.956 21.8451 558.014 20.6715 558.014C19.4979 558.014 18.5557 558.956 18.5557 560.129C18.5557 561.302 19.4979 562.245 20.6715 562.245Z" fill="white"/>
<path d="M44.4746 562.245C45.6431 562.245 46.5904 561.297 46.5904 560.129C46.5904 558.961 45.6431 558.014 44.4746 558.014C43.3061 558.014 42.3588 558.961 42.3588 560.129C42.3588 561.297 43.3061 562.245 44.4746 562.245Z" fill="white"/>
<path d="M68.2778 562.245C69.4515 562.245 70.3937 561.302 70.3937 560.129C70.3937 558.956 69.4515 558.014 68.2778 558.014C67.1042 558.014 66.162 558.956 66.162 560.129C66.162 561.302 67.1042 562.245 68.2778 562.245Z" fill="white"/>
<path d="M92.0809 562.245C93.2546 562.245 94.1968 561.302 94.1968 560.129C94.1968 558.956 93.2546 558.014 92.0809 558.014C90.9073 558.014 89.9651 558.956 89.9651 560.129C89.9651 561.302 90.9073 562.245 92.0809 562.245Z" fill="white"/>
<path d="M115.884 562.245C117.058 562.245 118 561.302 118 560.129C118 558.956 117.058 558.014 115.884 558.014C114.711 558.014 113.768 558.956 113.768 560.129C113.768 561.302 114.711 562.245 115.884 562.245Z" fill="white"/>
<path d="M8.76989 586.043C9.94352 586.043 10.8857 585.101 10.8857 583.927C10.8857 582.754 9.94352 581.812 8.76989 581.812C7.59626 581.812 6.65405 582.754 6.65405 583.927C6.65405 585.101 7.59626 586.043 8.76989 586.043Z" fill="white"/>
<path d="M32.5731 586.043C33.7467 586.043 34.6889 585.101 34.6889 583.927C34.6889 582.754 33.7467 581.812 32.5731 581.812C31.3995 581.812 30.4573 582.754 30.4573 583.927C30.4573 585.101 31.3995 586.043 32.5731 586.043Z" fill="white"/>
<path d="M56.3762 586.043C57.5498 586.043 58.492 585.101 58.492 583.927C58.492 582.754 57.5498 581.812 56.3762 581.812C55.2026 581.812 54.2604 582.754 54.2604 583.927C54.2604 585.101 55.2026 586.043 56.3762 586.043Z" fill="white"/>
<path d="M80.1793 586.043C81.3529 586.043 82.2951 585.101 82.2951 583.927C82.2951 582.754 81.3529 581.812 80.1793 581.812C79.0057 581.812 78.0635 582.754 78.0635 583.927C78.0635 585.101 79.0057 586.043 80.1793 586.043Z" fill="white"/>
<path d="M103.983 586.043C105.151 586.043 106.098 585.096 106.098 583.927C106.098 582.759 105.151 581.812 103.983 581.812C102.814 581.812 101.867 582.759 101.867 583.927C101.867 585.096 102.814 586.043 103.983 586.043Z" fill="white"/>
<path d="M20.6715 609.842C21.8451 609.842 22.7873 608.9 22.7873 607.726C22.7873 606.553 21.8451 605.611 20.6715 605.611C19.4979 605.611 18.5557 606.553 18.5557 607.726C18.5557 608.9 19.4979 609.842 20.6715 609.842Z" fill="white"/>
<path d="M44.4746 609.842C45.6482 609.842 46.5904 608.9 46.5904 607.726C46.5904 606.553 45.6482 605.611 44.4746 605.611C43.301 605.611 42.3588 606.553 42.3588 607.726C42.3588 608.9 43.301 609.842 44.4746 609.842Z" fill="white"/>
<path d="M68.2778 609.842C69.4515 609.842 70.3937 608.9 70.3937 607.726C70.3937 606.553 69.4515 605.611 68.2778 605.611C67.1042 605.611 66.162 606.553 66.162 607.726C66.162 608.9 67.1042 609.842 68.2778 609.842Z" fill="white"/>
<path d="M92.0809 609.842C93.2546 609.842 94.1968 608.9 94.1968 607.726C94.1968 606.553 93.2546 605.611 92.0809 605.611C90.9073 605.611 89.9651 606.553 89.9651 607.726C89.9651 608.9 90.9073 609.842 92.0809 609.842Z" fill="white"/>
<path d="M115.884 609.842C117.058 609.842 118 608.9 118 607.726C118 606.553 117.058 605.611 115.884 605.611C114.711 605.611 113.768 606.553 113.768 607.726C113.768 608.9 114.711 609.842 115.884 609.842Z" fill="white"/>
</g>
<g clip-path="url(#clip3_1186_422625)">
<path d="M140.017 562.245C141.191 562.245 142.133 561.302 142.133 560.129C142.133 558.956 141.191 558.014 140.017 558.014C138.844 558.014 137.902 558.956 137.902 560.129C137.902 561.302 138.844 562.245 140.017 562.245Z" fill="white"/>
<path d="M163.821 562.245C164.994 562.245 165.936 561.302 165.936 560.129C165.936 558.956 164.994 558.014 163.821 558.014C162.647 558.014 161.705 558.956 161.705 560.129C161.705 561.302 162.647 562.245 163.821 562.245Z" fill="white"/>
<path d="M187.624 562.245C188.797 562.245 189.74 561.302 189.74 560.129C189.74 558.956 188.797 558.014 187.624 558.014C186.45 558.014 185.508 558.956 185.508 560.129C185.508 561.302 186.45 562.245 187.624 562.245Z" fill="white"/>
<path d="M211.427 562.245C212.596 562.245 213.543 561.297 213.543 560.129C213.543 558.961 212.596 558.014 211.427 558.014C210.258 558.014 209.311 558.961 209.311 560.129C209.311 561.297 210.258 562.245 211.427 562.245Z" fill="white"/>
<path d="M235.23 562.245C236.404 562.245 237.346 561.302 237.346 560.129C237.346 558.956 236.404 558.014 235.23 558.014C234.056 558.014 233.114 558.956 233.114 560.129C233.114 561.302 234.056 562.245 235.23 562.245Z" fill="white"/>
<path d="M259.033 562.245C260.207 562.245 261.149 561.302 261.149 560.129C261.149 558.956 260.207 558.014 259.033 558.014C257.86 558.014 256.917 558.956 256.917 560.129C256.917 561.302 257.86 562.245 259.033 562.245Z" fill="white"/>
<path d="M282.837 562.245C284.01 562.245 284.952 561.302 284.952 560.129C284.952 558.956 284.01 558.014 282.837 558.014C281.663 558.014 280.721 558.956 280.721 560.129C280.721 561.302 281.663 562.245 282.837 562.245Z" fill="white"/>
<path d="M306.64 562.245C307.813 562.245 308.755 561.302 308.755 560.129C308.755 558.956 307.813 558.014 306.64 558.014C305.466 558.014 304.524 558.956 304.524 560.129C304.524 561.302 305.466 562.245 306.64 562.245Z" fill="white"/>
<path d="M330.443 562.245C331.611 562.245 332.559 561.297 332.559 560.129C332.559 558.961 331.611 558.014 330.443 558.014C329.274 558.014 328.327 558.961 328.327 560.129C328.327 561.297 329.274 562.245 330.443 562.245Z" fill="white"/>
<path d="M354.246 562.245C355.42 562.245 356.362 561.302 356.362 560.129C356.362 558.956 355.42 558.014 354.246 558.014C353.072 558.014 352.13 558.956 352.13 560.129C352.13 561.302 353.072 562.245 354.246 562.245Z" fill="white"/>
<path d="M128.116 586.043C129.289 586.043 130.232 585.101 130.232 583.927C130.232 582.754 129.289 581.812 128.116 581.812C126.942 581.812 126 582.754 126 583.927C126 585.101 126.942 586.043 128.116 586.043Z" fill="white"/>
<path d="M151.919 586.043C153.088 586.043 154.035 585.096 154.035 583.927C154.035 582.759 153.088 581.812 151.919 581.812C150.751 581.812 149.803 582.759 149.803 583.927C149.803 585.096 150.751 586.043 151.919 586.043Z" fill="white"/>
<path d="M175.722 586.043C176.896 586.043 177.838 585.101 177.838 583.927C177.838 582.754 176.896 581.812 175.722 581.812C174.549 581.812 173.606 582.754 173.606 583.927C173.606 585.101 174.549 586.043 175.722 586.043Z" fill="white"/>
<path d="M199.525 586.043C200.699 586.043 201.641 585.101 201.641 583.927C201.641 582.754 200.699 581.812 199.525 581.812C198.352 581.812 197.41 582.754 197.41 583.927C197.41 585.101 198.352 586.043 199.525 586.043Z" fill="white"/>
<path d="M223.328 586.043C224.502 586.043 225.444 585.101 225.444 583.927C225.444 582.754 224.502 581.812 223.328 581.812C222.155 581.812 221.213 582.754 221.213 583.927C221.213 585.101 222.155 586.043 223.328 586.043Z" fill="white"/>
<path d="M247.132 586.043C248.305 586.043 249.248 585.101 249.248 583.927C249.248 582.754 248.305 581.812 247.132 581.812C245.958 581.812 245.016 582.754 245.016 583.927C245.016 585.101 245.958 586.043 247.132 586.043Z" fill="white"/>
<path d="M270.935 586.043C272.103 586.043 273.051 585.096 273.051 583.927C273.051 582.759 272.103 581.812 270.935 581.812C269.766 581.812 268.819 582.759 268.819 583.927C268.819 585.096 269.766 586.043 270.935 586.043Z" fill="white"/>
<path d="M294.738 586.043C295.912 586.043 296.854 585.101 296.854 583.927C296.854 582.754 295.912 581.812 294.738 581.812C293.565 581.812 292.622 582.754 292.622 583.927C292.622 585.101 293.565 586.043 294.738 586.043Z" fill="white"/>
<path d="M318.541 586.043C319.715 586.043 320.657 585.101 320.657 583.927C320.657 582.754 319.715 581.812 318.541 581.812C317.368 581.812 316.425 582.754 316.425 583.927C316.425 585.101 317.368 586.043 318.541 586.043Z" fill="white"/>
<path d="M342.344 586.043C343.518 586.043 344.46 585.101 344.46 583.927C344.46 582.754 343.518 581.812 342.344 581.812C341.171 581.812 340.229 582.754 340.229 583.927C340.229 585.101 341.171 586.043 342.344 586.043Z" fill="white"/>
<path d="M366.148 586.043C367.321 586.043 368.263 585.101 368.263 583.927C368.263 582.754 367.321 581.812 366.148 581.812C364.974 581.812 364.032 582.754 364.032 583.927C364.032 585.101 364.974 586.043 366.148 586.043Z" fill="white"/>
<path d="M140.017 609.842C141.191 609.842 142.133 608.9 142.133 607.726C142.133 606.553 141.191 605.611 140.017 605.611C138.844 605.611 137.902 606.553 137.902 607.726C137.902 608.9 138.844 609.842 140.017 609.842Z" fill="white"/>
<path d="M163.821 609.842C164.994 609.842 165.936 608.9 165.936 607.726C165.936 606.553 164.994 605.611 163.821 605.611C162.647 605.611 161.705 606.553 161.705 607.726C161.705 608.9 162.647 609.842 163.821 609.842Z" fill="white"/>
<path d="M187.624 609.842C188.797 609.842 189.74 608.9 189.74 607.726C189.74 606.553 188.797 605.611 187.624 605.611C186.45 605.611 185.508 606.553 185.508 607.726C185.508 608.9 186.45 609.842 187.624 609.842Z" fill="white"/>
<path d="M211.427 609.842C212.601 609.842 213.543 608.9 213.543 607.726C213.543 606.553 212.601 605.611 211.427 605.611C210.253 605.611 209.311 606.553 209.311 607.726C209.311 608.9 210.253 609.842 211.427 609.842Z" fill="white"/>
<path d="M235.23 609.842C236.404 609.842 237.346 608.9 237.346 607.726C237.346 606.553 236.404 605.611 235.23 605.611C234.056 605.611 233.114 606.553 233.114 607.726C233.114 608.9 234.056 609.842 235.23 609.842Z" fill="white"/>
<path d="M259.033 609.842C260.207 609.842 261.149 608.9 261.149 607.726C261.149 606.553 260.207 605.611 259.033 605.611C257.86 605.611 256.917 606.553 256.917 607.726C256.917 608.9 257.86 609.842 259.033 609.842Z" fill="white"/>
<path d="M282.837 609.842C284.01 609.842 284.952 608.9 284.952 607.726C284.952 606.553 284.01 605.611 282.837 605.611C281.663 605.611 280.721 606.553 280.721 607.726C280.721 608.9 281.663 609.842 282.837 609.842Z" fill="white"/>
<path d="M306.64 609.842C307.813 609.842 308.755 608.9 308.755 607.726C308.755 606.553 307.813 605.611 306.64 605.611C305.466 605.611 304.524 606.553 304.524 607.726C304.524 608.9 305.466 609.842 306.64 609.842Z" fill="white"/>
<path d="M330.443 609.842C331.616 609.842 332.559 608.9 332.559 607.726C332.559 606.553 331.616 605.611 330.443 605.611C329.269 605.611 328.327 606.553 328.327 607.726C328.327 608.9 329.269 609.842 330.443 609.842Z" fill="white"/>
<path d="M354.246 609.842C355.42 609.842 356.362 608.9 356.362 607.726C356.362 606.553 355.42 605.611 354.246 605.611C353.072 605.611 352.13 606.553 352.13 607.726C352.13 608.9 353.072 609.842 354.246 609.842Z" fill="white"/>
</g>
</g>
</g>
<defs>
<radialGradient id="paint0_radial_1186_422625" cx="0" cy="0" r="1" gradientUnits="userSpaceOnUse" gradientTransform="translate(384 295.792) rotate(90) scale(330.806 490.293)">
<stop stop-color="#D9D9D9"/>
<stop offset="1" stop-color="#737373" stop-opacity="0"/>
</radialGradient>
<clipPath id="clip0_1186_422625">
<rect width="516" height="504" fill="white" transform="translate(-398 37.0137)"/>
</clipPath>
<clipPath id="clip1_1186_422625">
<rect width="516" height="504" fill="white" transform="translate(126 37.0137)"/>
</clipPath>
<clipPath id="clip2_1186_422625">
<rect width="516" height="504" fill="white" transform="translate(-398 558.014)"/>
</clipPath>
<clipPath id="clip3_1186_422625">
<rect width="516" height="504" fill="white" transform="translate(126 558.014)"/>
</clipPath>
</defs>
</svg>
