<svg width="22" height="22" viewBox="0 0 22 22" fill="none" xmlns="http://www.w3.org/2000/svg">
<g clip-path="url(#clip0_550_192353)">
<path fill-rule="evenodd" clip-rule="evenodd" d="M4.1672 17.832C2.355 16.0198 1.33691 13.562 1.33691 10.9991C1.33691 8.43629 2.355 5.97842 4.1672 4.16622C5.9794 2.35402 8.43727 1.33594 11.0001 1.33594C13.5629 1.33594 16.0208 2.35402 17.833 4.16622C19.6452 5.97842 20.6633 8.43629 20.6633 10.9991C20.6633 13.562 19.6452 16.0198 17.833 17.832C16.0208 19.6442 13.5629 20.6623 11.0001 20.6623C8.43727 20.6623 5.9794 19.6442 4.1672 17.832ZM7.79129 13.5591L4.05648 9.82428L16.2333 5.7653L12.1743 17.9421L8.43948 14.2073L10.8655 11.7813L10.2173 11.1331L7.79129 13.5591Z" fill="white"/>
</g>
<defs>
<clipPath id="clip0_550_192353">
<rect width="22" height="22" fill="white"/>
</clipPath>
</defs>
</svg>
