<svg xmlns="http://www.w3.org/2000/svg" xmlns:xlink="http://www.w3.org/1999/xlink" width="220" zoomAndPan="magnify" viewBox="0 0 165 49.499998" height="66" preserveAspectRatio="xMidYMid meet" version="1.0"><defs><clipPath id="731dadc4f1"><path d="M 17.152344 12.738281 L 37.449219 12.738281 L 37.449219 35.855469 L 17.152344 35.855469 Z M 17.152344 12.738281 " clip-rule="nonzero"/></clipPath></defs><g clip-path="url(#731dadc4f1)"><path fill="#000000" d="M 21.109375 16.304688 L 27.257812 12.738281 L 33.402344 16.304688 L 31.140625 17.621094 L 27.257812 15.375 L 23.371094 17.621094 Z M 33.402344 20.808594 L 31.140625 19.484375 L 27.257812 21.738281 L 23.371094 19.484375 L 21.109375 20.808594 L 21.109375 23.441406 L 25 25.691406 L 25 30.191406 L 27.257812 31.511719 L 29.515625 30.191406 L 29.515625 25.691406 L 33.402344 23.441406 Z M 33.402344 27.941406 L 33.402344 25.304688 L 31.140625 26.621094 L 31.140625 29.261719 Z M 35.003906 28.871094 L 31.117188 31.125 L 31.117188 33.761719 L 37.265625 30.191406 L 37.265625 23.054688 L 35.003906 24.375 Z M 32.746094 18.554688 L 35.003906 19.875 L 35.003906 22.511719 L 37.265625 21.191406 L 37.265625 18.554688 L 35.003906 17.238281 Z M 25 32.078125 L 25 34.714844 L 27.257812 36.03125 L 29.515625 34.714844 L 29.515625 32.078125 L 27.257812 33.394531 Z M 21.109375 27.941406 L 23.371094 29.261719 L 23.371094 26.621094 L 21.109375 25.304688 Z M 25 18.554688 L 27.257812 19.875 L 29.515625 18.554688 L 27.257812 17.238281 Z M 19.511719 19.875 L 21.769531 18.554688 L 19.511719 17.238281 L 17.25 18.554688 L 17.25 21.191406 L 19.511719 22.511719 Z M 19.511719 24.375 L 17.25 23.054688 L 17.25 30.191406 L 23.394531 33.761719 L 23.394531 31.125 L 19.511719 28.871094 Z M 19.511719 24.375 " fill-opacity="1" fill-rule="nonzero"/></g><path fill="#000000" d="M 55.074219 27.355469 L 55.074219 27.320312 C 55.074219 25.578125 54.152344 24.707031 52.660156 24.132812 C 53.582031 23.613281 54.351562 22.800781 54.351562 21.335938 L 54.351562 21.300781 C 54.351562 19.261719 52.734375 17.949219 50.101562 17.949219 L 44.121094 17.949219 L 44.121094 30.914062 L 50.25 30.914062 C 53.15625 30.914062 55.074219 29.726562 55.074219 27.355469 Z M 51.539062 21.816406 C 51.539062 22.78125 50.746094 23.191406 49.496094 23.191406 L 46.878906 23.191406 L 46.878906 20.449219 L 49.679688 20.449219 C 50.875 20.449219 51.539062 20.929688 51.539062 21.78125 Z M 52.257812 27.003906 C 52.257812 27.96875 51.503906 28.414062 50.25 28.414062 L 46.878906 28.414062 L 46.878906 25.558594 L 50.15625 25.558594 C 51.609375 25.558594 52.257812 26.097656 52.257812 26.96875 Z M 52.257812 27.003906 " fill-opacity="1" fill-rule="nonzero"/><path fill="#000000" d="M 69.039062 30.914062 L 69.039062 17.949219 L 66.242188 17.949219 L 66.242188 25.929688 L 60.199219 17.949219 L 57.589844 17.949219 L 57.589844 30.914062 L 60.386719 30.914062 L 60.386719 22.671875 L 66.625 30.914062 Z M 69.039062 30.914062 " fill-opacity="1" fill-rule="nonzero"/><path fill="#000000" d="M 83.265625 27.355469 L 83.265625 27.320312 C 83.265625 25.578125 82.347656 24.707031 80.855469 24.132812 C 81.777344 23.613281 82.550781 22.800781 82.550781 21.335938 L 82.550781 21.300781 C 82.550781 19.261719 80.929688 17.949219 78.296875 17.949219 L 72.3125 17.949219 L 72.3125 30.914062 L 78.445312 30.914062 C 81.355469 30.914062 83.265625 29.726562 83.265625 27.355469 Z M 79.734375 21.816406 C 79.734375 22.78125 78.941406 23.191406 77.691406 23.191406 L 75.078125 23.191406 L 75.078125 20.449219 L 77.875 20.449219 C 79.070312 20.449219 79.734375 20.929688 79.734375 21.78125 Z M 80.453125 27.003906 C 80.453125 27.96875 79.695312 28.414062 78.445312 28.414062 L 75.078125 28.414062 L 75.078125 25.558594 L 78.355469 25.558594 C 79.808594 25.558594 80.453125 26.097656 80.453125 26.96875 Z M 80.453125 27.003906 " fill-opacity="1" fill-rule="nonzero"/><path fill="#000000" d="M 100.351562 28.625 L 98.902344 27.140625 C 97.792969 28.175781 96.78125 28.828125 95.199219 28.828125 C 92.734375 28.828125 90.949219 26.75 90.949219 24.195312 C 90.949219 21.640625 92.734375 19.605469 95.199219 19.605469 C 96.671875 19.605469 97.777344 20.25 98.808594 21.214844 L 100.261719 19.527344 C 99.027344 18.34375 97.59375 17.511719 95.21875 17.511719 C 91.316406 17.511719 88.574219 20.527344 88.574219 24.234375 C 88.574219 27.976562 91.371094 30.921875 95.125 30.921875 C 97.535156 30.921875 99.011719 30.03125 100.351562 28.625 Z M 100.351562 28.625 " fill-opacity="1" fill-rule="nonzero"/><path fill="#000000" d="M 111.332031 25.230469 L 111.332031 30.695312 L 113.59375 30.695312 L 113.59375 17.730469 L 111.332031 17.730469 L 111.332031 23.121094 L 105.183594 23.121094 L 105.183594 17.730469 L 102.917969 17.730469 L 102.917969 30.695312 L 105.183594 30.695312 L 105.183594 25.230469 Z M 111.332031 25.230469 " fill-opacity="1" fill-rule="nonzero"/><path fill="#000000" d="M 123.753906 17.636719 L 121.652344 17.636719 L 115.984375 30.695312 L 118.304688 30.695312 L 119.628906 27.566406 L 125.722656 27.566406 L 127.027344 30.695312 L 129.421875 30.695312 Z M 124.894531 25.546875 L 120.457031 25.546875 L 122.664062 20.363281 Z M 124.894531 25.546875 " fill-opacity="1" fill-rule="nonzero"/><path fill="#000000" d="M 131.941406 17.730469 L 131.941406 30.695312 L 134.207031 30.695312 L 134.207031 17.730469 Z M 131.941406 17.730469 " fill-opacity="1" fill-rule="nonzero"/><path fill="#000000" d="M 146.84375 26.695312 L 139.941406 17.730469 L 137.839844 17.730469 L 137.839844 30.695312 L 140.070312 30.695312 L 140.070312 21.472656 L 147.171875 30.695312 L 149.070312 30.695312 L 149.070312 17.730469 L 146.84375 17.730469 Z M 146.84375 26.695312 " fill-opacity="1" fill-rule="nonzero"/></svg>